<svg width="18" height="19" viewBox="0 0 18 19" fill="none" xmlns="http://www.w3.org/2000/svg">
<path fill-rule="evenodd" clip-rule="evenodd" d="M3.04297 8.97984C3.04297 8.56967 3.37548 8.23716 3.78566 8.23716H7.20072C7.753 8.23716 8.20072 7.78944 8.20072 7.23716V3.82472C8.20072 3.41454 8.53323 3.08203 8.94341 3.08203C9.35358 3.08203 9.68609 3.41454 9.68609 3.82472V7.23716C9.68609 7.78944 10.1338 8.23716 10.6861 8.23716H14.283C14.6932 8.23716 15.0257 8.56967 15.0257 8.97984C15.0257 9.39002 14.6932 9.72253 14.283 9.72253H10.6861C10.1338 9.72253 9.68609 10.1702 9.68609 10.7225V14.3221C9.68609 14.7323 9.35358 15.0648 8.94341 15.0648C8.53323 15.0648 8.20072 14.7323 8.20072 14.3221V10.7225C8.20072 10.1702 7.753 9.72253 7.20072 9.72253H3.78566C3.37548 9.72253 3.04297 9.39002 3.04297 8.97984Z" fill="#FEFEFE"/>
<path d="M9.05325 18.0314C11.3704 18.0092 13.6646 17.0492 15.3142 15.4191C17.2736 13.4826 18.2827 10.618 17.931 7.88312C17.3276 3.196 13.4749 0.015625 8.9955 0.015625C5.59237 0.015625 2.2845 2.1445 0.833625 5.2315C-0.27675 7.59475 -0.279 10.4481 0.833625 12.8159C2.27437 15.8811 5.5275 17.9987 8.93737 18.0314C8.976 18.0317 9.01462 18.0317 9.05325 18.0314ZM8.94712 16.5302C5.48587 16.4969 2.25675 13.8201 1.61475 10.3885C1.16175 7.969 2.01638 5.35112 3.7965 3.63287C5.87512 1.62662 9.14137 0.95425 11.8575 2.09162C14.2879 3.10937 16.1066 5.47187 16.4419 8.07475C16.7291 10.3056 15.9285 12.6437 14.355 14.2547C12.975 15.6674 11.0396 16.5107 9.0435 16.5302C9.01162 16.5302 8.97937 16.5302 8.94712 16.5302Z" fill="#FEFEFE"/>
</svg>
