<svg width="212" height="467" viewBox="0 0 212 467" fill="none" xmlns="http://www.w3.org/2000/svg">
<path d="M307.066 253.624C316.38 225.546 293.394 212.775 285.366 218.123C278.117 222.595 278.897 231.355 283.255 231.494C287.66 231.632 285.641 230.479 285.641 230.479C285.641 230.479 284.494 223.425 292.431 223.564C300.368 223.702 312.664 242.144 292.11 266.764C271.556 291.384 253.572 276.769 252.012 274.464C250.406 272.112 245.13 264.597 251.37 251.688C254.673 248.368 247.653 246.524 241.918 252.794C236.138 259.065 227.191 275.294 238.982 278.613C243.02 274.971 252.838 283.731 245.91 292.03C238.982 300.329 204.665 314.944 173.559 281.656C142.453 248.368 187.323 185.527 208.014 202.955C214.437 204.292 200.582 177.458 175.532 206.92C167.09 217.017 159.383 232.278 159.383 232.278C159.383 232.278 150.941 224.486 154.015 208.487C154.474 205.951 155.253 203.185 156.4 200.188C158.97 193.641 163.374 186.034 170.439 177.366C200.857 140.298 250.819 129.278 292.202 164.134C333.584 198.99 331.015 253.809 290.871 301.943C290.871 301.943 228.063 347.956 176.449 303.049C124.377 257.682 153.923 199.312 153.923 199.312" stroke="#D7AD45" stroke-opacity="0.32" stroke-width="2"/>
<path d="M173.971 301.988C173.971 301.988 120.66 320.569 137.865 373.267C153.326 402.682 149.885 367.089 168.787 360.865C187.689 354.64 191.13 371.699 177.412 377.924C163.649 384.102 134.424 415.084 228.98 464.694H235.724C330.235 415.084 301.056 384.102 287.292 377.924C273.528 371.699 276.969 354.687 295.871 360.865C314.773 367.043 311.332 402.682 326.794 373.267C343.998 320.569 290.687 301.988 290.687 301.988" stroke="#D7AD45" stroke-opacity="0.32" stroke-width="2" stroke-linecap="round" stroke-linejoin="round"/>
<path d="M173.971 165.01C173.971 165.01 120.66 146.43 137.865 93.7314C153.326 64.3162 149.885 99.9095 168.787 106.134C187.689 112.358 191.13 95.299 177.412 89.0748C163.649 82.8966 134.424 51.9139 228.98 2.30469H235.724C330.235 51.9139 301.056 82.8966 287.292 89.0748C273.528 95.299 276.969 112.312 295.871 106.134C314.773 99.9556 311.332 64.3162 326.794 93.7314C343.998 146.43 290.687 165.01 290.687 165.01" stroke="#D7AD45" stroke-opacity="0.32" stroke-width="2" stroke-linecap="round" stroke-linejoin="round"/>
<path d="M164.199 175.569C164.199 175.569 145.71 121.995 93.2706 139.284C63.9999 154.822 99.4183 151.364 105.612 170.359C111.806 189.354 94.8304 192.812 88.6368 178.981C82.4891 165.149 51.6126 135.78 2.29297 230.803V237.58C51.6126 332.557 82.4891 303.234 88.6368 289.403C94.7846 275.571 111.76 279.029 105.612 298.024C99.4642 317.02 63.9999 313.562 93.2706 329.099C145.71 346.389 164.199 292.815 164.199 292.815" stroke="#D7AD45" stroke-opacity="0.32" stroke-width="2" stroke-linecap="round" stroke-linejoin="round"/>
</svg>
