<svg width="25" height="25" viewBox="0 0 25 25" fill="none" xmlns="http://www.w3.org/2000/svg">
<g clip-path="url(#clip0_3926_31141)">
<path d="M1.8996 0.669318C1.97433 0.668959 2.04907 0.6686 2.12608 0.66823C2.37729 0.667152 2.6285 0.666777 2.87972 0.666405C3.05953 0.665793 3.23934 0.665144 3.41915 0.66446C3.90825 0.66276 4.39735 0.66173 4.88646 0.660925C5.19199 0.660422 5.49752 0.659828 5.80305 0.659214C6.75887 0.657354 7.71469 0.655964 8.67051 0.655151C9.77407 0.654196 10.8776 0.651625 11.9812 0.64768C12.834 0.644735 13.6868 0.643289 14.5397 0.642965C15.0491 0.642736 15.5585 0.641859 16.0679 0.639404C16.5473 0.637132 17.0266 0.636717 17.5059 0.637721C17.6817 0.637769 17.8575 0.637151 18.0332 0.635811C18.2736 0.634082 18.5138 0.634774 18.7541 0.636059C18.858 0.634452 18.858 0.634452 18.9639 0.632812C19.4938 0.639629 19.7867 0.784856 20.2149 1.07432C20.6787 1.57464 20.7178 1.97085 20.7174 2.62978C20.7177 2.70857 20.7181 2.78735 20.7184 2.86853C20.7193 3.12915 20.7195 3.38976 20.7196 3.65038C20.7199 3.83122 20.7203 4.01206 20.7206 4.1929C20.7212 4.57192 20.7214 4.95094 20.7213 5.32997C20.7213 5.81655 20.7226 6.30312 20.7243 6.78971C20.7254 7.16309 20.7256 7.53647 20.7256 7.90986C20.7257 8.08932 20.7261 8.26878 20.7269 8.44824C20.7278 8.69865 20.7275 8.94904 20.7269 9.19945C20.7275 9.27408 20.728 9.34871 20.7286 9.4256C20.7255 9.93874 20.7255 9.93874 20.5079 10.1563C20.221 10.193 20.221 10.193 19.922 10.1563C19.6673 9.92041 19.63 9.77496 19.5914 9.42718C19.5894 9.29022 19.589 9.15324 19.5899 9.01628C19.5892 8.94129 19.5885 8.8663 19.5878 8.78903C19.5859 8.54162 19.5859 8.29424 19.5859 8.04682C19.5847 7.87488 19.5834 7.70293 19.582 7.53099C19.5785 7.07865 19.5765 6.62632 19.575 6.17398C19.5726 5.44922 19.5687 4.72448 19.5631 3.99974C19.5615 3.74624 19.5611 3.49275 19.5608 3.23924C19.5599 3.08451 19.5589 2.92978 19.5578 2.77505C19.5581 2.70423 19.5583 2.6334 19.5586 2.56043C19.5659 2.1641 19.5659 2.1641 19.336 1.85557C19.0872 1.82316 19.0872 1.82316 18.7939 1.82443C18.6805 1.82249 18.5671 1.82055 18.4503 1.81855C18.266 1.81686 18.266 1.81686 18.0779 1.81513C17.9525 1.81324 17.8271 1.81135 17.6978 1.8094C17.3642 1.80438 17.0306 1.80051 16.697 1.79688C16.3566 1.79298 16.0162 1.78799 15.6758 1.78309C15.0079 1.77363 14.3399 1.76539 13.672 1.75791C13.6728 1.82922 13.6737 1.90054 13.6746 1.97402C13.6824 2.64646 13.6884 3.3189 13.6922 3.99137C13.6942 4.3371 13.697 4.68279 13.7014 5.02849C13.7065 5.42603 13.7084 5.82353 13.7101 6.2211C13.7121 6.34512 13.7142 6.46913 13.7162 6.59691C13.7163 6.71223 13.7163 6.82756 13.7163 6.94637C13.7172 7.04786 13.7181 7.14935 13.7189 7.25392C13.6595 7.59037 13.5466 7.70149 13.2813 7.91025C12.9277 8.039 12.7076 8.0564 12.36 7.903C12.0899 7.75028 11.8277 7.58906 11.5663 7.42197C10.9477 6.99946 10.9477 6.99946 10.2418 6.81772C9.7695 7.0128 9.35179 7.28455 8.92248 7.5593C8.48641 7.82886 8.14367 7.99025 7.61728 8.00791C7.32944 7.8765 7.17365 7.80424 7.03135 7.51963C7.02245 7.33611 7.01987 7.15228 7.02026 6.96855C7.02027 6.85159 7.02028 6.73464 7.0203 6.61414C7.0208 6.49073 7.0213 6.36732 7.02181 6.24018C7.02191 6.12711 7.02201 6.01404 7.02211 5.89755C7.02262 5.47388 7.02398 5.05022 7.02524 4.62656C7.02726 3.67991 7.02927 2.73325 7.03135 1.75791C5.09775 1.79014 3.16416 1.82236 1.17197 1.85557C1.07673 2.23655 1.05984 2.5734 1.05994 2.96158C1.0594 3.06993 1.0594 3.06993 1.05885 3.18048C1.05778 3.42263 1.0574 3.66477 1.05703 3.90692C1.05642 4.08049 1.05577 4.25405 1.05509 4.42762C1.05303 4.99747 1.05202 5.56733 1.05105 6.13718C1.05065 6.33331 1.05025 6.52943 1.04984 6.72556C1.04798 7.64649 1.04659 8.56742 1.04578 9.48836C1.04482 10.5522 1.04225 11.616 1.0383 12.6798C1.03536 13.5018 1.03391 14.3238 1.03359 15.1457C1.03336 15.6369 1.03248 16.128 1.03003 16.6191C1.02776 17.0808 1.02734 17.5425 1.02835 18.0042C1.02839 18.1738 1.02777 18.3434 1.02644 18.513C1.02472 18.7442 1.02539 18.9753 1.02668 19.2066C1.02561 19.274 1.02454 19.3413 1.02344 19.4107C1.0277 19.7268 1.05815 19.8993 1.24372 20.1591C1.49825 20.3357 1.62025 20.3609 1.92714 20.3596C2.01971 20.3601 2.11228 20.3606 2.20765 20.3612C2.30852 20.3598 2.40939 20.3584 2.51331 20.3569C2.62005 20.357 2.72679 20.3571 2.83676 20.3571C3.18976 20.3568 3.54268 20.3538 3.89567 20.3507C4.14033 20.35 4.38499 20.3495 4.62965 20.3491C5.20793 20.3477 5.78618 20.3446 6.36444 20.3407C7.08748 20.3359 7.81052 20.3338 8.53357 20.3317C9.82321 20.3275 11.1128 20.3209 12.4024 20.3126C12.375 20.2189 12.3476 20.1252 12.3193 20.0287C12.2658 19.8442 12.2658 19.8442 12.2113 19.6559C12.1758 19.534 12.1403 19.4121 12.1037 19.2865C11.6378 17.5574 12.0309 15.7735 12.9022 14.2411C13.9129 12.7229 15.4234 11.6506 17.2158 11.2802C19.0474 11.0295 20.781 11.3247 22.329 12.3841C23.1913 13.0421 23.8621 13.773 24.3531 14.7401C24.3845 14.8018 24.416 14.8635 24.4483 14.927C24.8847 15.837 25.0554 16.7377 25.0489 17.743C25.0484 17.8451 25.0478 17.9471 25.0472 18.0523C25.0066 19.829 24.2758 21.3221 23.0374 22.5881C22.6208 22.9755 22.1772 23.2628 21.6798 23.5353C21.5876 23.5917 21.5876 23.5917 21.4936 23.6493C20.0594 24.4702 18.23 24.5241 16.6682 24.1053C15.6598 23.8071 14.3732 23.2589 13.819 22.3083C13.619 21.9848 13.4261 21.7521 13.086 21.5821C12.2358 21.3906 11.3294 21.4622 10.4642 21.4757C10.2046 21.4761 9.94498 21.476 9.68536 21.4754C9.07271 21.4748 8.4602 21.4789 7.84758 21.4849C6.75101 21.4954 5.65439 21.4976 4.55778 21.4986C4.1118 21.4992 3.66591 21.5029 3.21996 21.5075C2.9859 21.5088 2.75184 21.51 2.51777 21.5112C2.41238 21.5129 2.30699 21.5145 2.19841 21.5163C1.56913 21.5175 0.922155 21.5054 0.434149 21.0497C0.0337281 20.5832 -0.014425 20.2758 -0.0142758 19.6826C-0.0146349 19.6067 -0.0149939 19.5308 -0.0153638 19.4525C-0.016444 19.1967 -0.0168175 18.9409 -0.017189 18.6852C-0.0178006 18.5023 -0.0184497 18.3195 -0.0191336 18.1366C-0.0208354 17.6388 -0.0218647 17.1411 -0.0226693 16.6433C-0.0231719 16.3324 -0.0237653 16.0216 -0.0243794 15.7108C-0.0262404 14.7386 -0.0276301 13.7665 -0.0284431 12.7943C-0.0293977 11.6714 -0.0319683 10.5484 -0.0359138 9.42547C-0.0388571 8.55804 -0.0403051 7.69062 -0.0406287 6.82319C-0.0408585 6.30486 -0.0417366 5.78655 -0.0441893 5.26823C-0.0464597 4.78056 -0.0468775 4.29292 -0.0458728 3.80525C-0.0458243 3.62628 -0.0464442 3.44732 -0.0477826 3.26836C-0.0495083 3.02392 -0.0488213 2.77961 -0.0475352 2.53517C-0.0486064 2.46444 -0.0496776 2.3937 -0.0507812 2.32082C-0.0445272 1.8281 0.0842311 1.55292 0.390721 1.17197C0.884245 0.726596 1.25454 0.669152 1.8996 0.669318ZM8.00791 1.75791C8.00791 3.40146 8.00791 5.04502 8.00791 6.73838C9.09365 6.22202 9.09365 6.22202 9.7291 5.79844C10.1717 5.55852 10.1717 5.55852 10.4901 5.58939C11.2076 5.85626 11.9713 6.38043 12.5978 6.73838C12.5978 5.09482 12.5978 3.45127 12.5978 1.75791C11.0831 1.75791 9.56846 1.75791 8.00791 1.75791ZM14.2579 14.2766C13.3394 15.3832 12.8556 16.8259 12.9884 18.2618C13.2886 19.9362 13.9902 21.3324 15.4214 22.3336C16.7914 23.1905 18.2609 23.482 19.8487 23.1324C21.3382 22.6936 22.5155 21.8252 23.3014 20.477C24.0626 19.0122 24.1972 17.5999 23.7306 16.0157C23.1617 14.5697 22.1898 13.3948 20.7604 12.7374C18.3603 11.7892 15.9991 12.3687 14.2579 14.2766Z" fill="#D7AD45"/>
<path d="M16.1433 14.9026C16.5815 14.9499 16.6971 15.0543 16.9978 15.3688C17.1267 15.501 17.1267 15.501 17.2581 15.6358C17.3456 15.729 17.433 15.8221 17.5231 15.9181C17.6139 16.0124 17.7049 16.1065 17.796 16.2004C18.0179 16.4304 18.2381 16.6618 18.4569 16.8947C18.8182 16.5952 19.1615 16.2952 19.4823 15.9525C19.5669 15.8628 19.5669 15.8628 19.6532 15.7713C19.7683 15.6482 19.8822 15.5241 19.995 15.3989C20.2978 15.0819 20.434 14.9532 20.88 14.8828C20.9827 14.9022 21.0854 14.9216 21.1913 14.9416C21.3866 15.2345 21.3866 15.2345 21.3759 15.5169C21.2727 15.877 21.1414 16.0246 20.8735 16.2836C20.7901 16.3654 20.7067 16.4472 20.6208 16.5315C20.5331 16.6151 20.4454 16.6987 20.3551 16.7848C20.267 16.8707 20.179 16.9565 20.0883 17.045C19.8711 17.2564 19.6528 17.4667 19.4335 17.6759C19.5743 18.0024 19.7494 18.2047 20.0076 18.4473C20.0814 18.5183 20.1552 18.5893 20.2313 18.6624C20.3869 18.8103 20.543 18.9575 20.6998 19.1042C21.2616 19.6473 21.2616 19.6473 21.4015 20.054C21.3866 20.3127 21.3866 20.3127 21.1913 20.6056C20.7913 20.6613 20.5858 20.6601 20.2508 20.4263C20.1725 20.3445 20.0943 20.2627 20.0137 20.1784C19.9278 20.0903 19.8418 20.0021 19.7533 19.9113C19.6659 19.8182 19.5785 19.725 19.4884 19.6291C19.3976 19.5348 19.3066 19.4407 19.2155 19.3468C18.9935 19.1168 18.7734 18.8854 18.5546 18.6525C18.1933 18.952 17.8499 19.252 17.5292 19.5947C17.4446 19.6844 17.4446 19.6844 17.3583 19.7759C17.2432 19.899 17.1293 20.0231 17.0165 20.1482C16.7136 20.4653 16.5775 20.594 16.1315 20.6644C16.0287 20.645 15.926 20.6256 15.8202 20.6056C15.6073 20.2863 15.5685 20.1948 15.6249 19.8244C15.8042 19.5896 15.8042 19.5896 16.0521 19.3494C16.1402 19.2629 16.2284 19.1763 16.3191 19.0872C16.4123 18.9981 16.5055 18.9091 16.6014 18.8173C16.6956 18.7255 16.7897 18.6337 16.8837 18.5417C17.1141 18.3171 17.3455 18.0937 17.578 17.8712C17.4374 17.5448 17.2632 17.3445 17.0039 17.1033C16.9301 17.0328 16.8562 16.9622 16.7802 16.8895C16.6248 16.7428 16.4686 16.5968 16.3117 16.4516C15.6819 15.8455 15.6819 15.8455 15.61 15.4379C15.6313 15.0074 15.7204 14.9536 16.1433 14.9026Z" fill="#D7AD45"/>
<path d="M3.2026 18.0359C3.31826 18.036 3.31826 18.036 3.43626 18.0362C3.51549 18.0358 3.59472 18.0353 3.67635 18.0349C3.84406 18.0343 4.01178 18.0343 4.17949 18.0347C4.43628 18.035 4.69296 18.0327 4.94975 18.0303C5.11257 18.03 5.27539 18.03 5.43822 18.0301C5.51513 18.0292 5.59204 18.0283 5.67128 18.0273C6.1991 18.0318 6.1991 18.0318 6.44799 18.1956C6.54334 18.3585 6.54334 18.3585 6.53723 18.6576C6.44568 18.9445 6.44568 18.9445 6.29023 19.0584C5.96903 19.1695 5.66145 19.1677 5.32568 19.1657C5.25563 19.1659 5.18558 19.1661 5.11341 19.1663C4.96566 19.1664 4.81792 19.166 4.67018 19.1652C4.44449 19.1642 4.21889 19.1652 3.99321 19.1665C3.8494 19.1663 3.70558 19.1661 3.56177 19.1657C3.46089 19.1663 3.46089 19.1663 3.35798 19.1669C3.00368 19.1635 2.74329 19.1378 2.44177 18.9445C2.42957 18.6149 2.42957 18.6149 2.44177 18.2609C2.69233 18.0103 2.86086 18.0404 3.2026 18.0359Z" fill="#D7AD45"/>
<path d="M3.24683 15.9894C3.42961 15.989 3.42961 15.989 3.61609 15.9886C3.80794 15.9897 3.80794 15.9897 4.00366 15.9909C4.13156 15.9901 4.25946 15.9894 4.39124 15.9886C4.51309 15.9889 4.63495 15.9891 4.7605 15.9894C4.87279 15.9896 4.98508 15.9898 5.10077 15.99C5.37085 16.0153 5.37085 16.0153 5.56616 16.2106C5.59058 16.5036 5.59058 16.5036 5.56616 16.7966C5.29668 17.066 5.13722 17.0171 4.7605 17.0178C4.57771 17.0182 4.57771 17.0182 4.39124 17.0186C4.19939 17.0174 4.19939 17.0174 4.00366 17.0163C3.87576 17.017 3.74786 17.0178 3.61609 17.0186C3.49423 17.0183 3.37238 17.0181 3.24683 17.0178C3.07839 17.0175 3.07839 17.0175 2.90656 17.0171C2.63647 16.9919 2.63647 16.9919 2.44116 16.7966C2.41675 16.5036 2.41675 16.5036 2.44116 16.2106C2.71064 15.9411 2.8701 15.9901 3.24683 15.9894Z" fill="#D7AD45"/>
</g>
<defs>
<clipPath id="clip0_3926_31141">
<rect width="25" height="25" fill="white"/>
</clipPath>
</defs>
</svg>
