<svg width="31" height="31" viewBox="0 0 31 31" fill="none" xmlns="http://www.w3.org/2000/svg">
<path d="M1.71317 0.00423651C1.88257 0.00345239 1.88257 0.00345239 2.0554 0.00265243C2.29401 0.00228098 2.53263 0.0032867 2.77124 0.00557048C3.13586 0.00849168 3.50019 0.00559938 3.8648 0.00210218C4.09686 0.0024633 4.32892 0.0031635 4.56098 0.00423651C4.66973 0.00313049 4.77849 0.00202447 4.89054 0.000884936C5.37558 0.00906131 5.66781 0.0326874 6.09636 0.306979C6.37139 0.664746 6.47227 0.928 6.58289 1.38409C6.61901 1.529 6.65514 1.67392 6.69236 1.82323C6.72756 1.97378 6.76275 2.12433 6.79901 2.27944C6.8553 2.50685 6.8553 2.50685 6.91273 2.73886C7.18324 3.84511 7.18324 3.84511 7.18324 4.17474C7.30197 4.17423 7.42069 4.17373 7.54301 4.17321C10.4303 4.16109 13.3176 4.1521 16.2049 4.14643C17.6011 4.14361 18.9974 4.13976 20.3937 4.13352C21.6105 4.12807 22.8273 4.12455 24.0441 4.12333C24.6886 4.12261 25.333 4.12093 25.9774 4.11696C26.5838 4.11326 27.1902 4.11211 27.7966 4.11293C28.0193 4.11278 28.242 4.11169 28.4647 4.1096C28.7686 4.10689 29.0723 4.10754 29.3762 4.10903C29.4645 4.10744 29.5528 4.10585 29.6438 4.10421C30.0691 4.10986 30.3168 4.16756 30.6846 4.41693C30.9301 4.72113 30.9301 4.72113 31 4.99436C30.9642 5.81519 30.8196 6.55848 30.6149 7.3457C30.5814 7.47934 30.5479 7.61299 30.5133 7.75068C30.403 8.1891 30.2906 8.6268 30.1781 9.0645C30.1005 9.3704 30.023 9.67632 29.9456 9.98228C29.7834 10.6219 29.6203 11.2611 29.4564 11.9002C29.2465 12.7189 29.0386 13.5384 28.8314 14.358C28.6717 14.9891 28.5111 15.62 28.3502 16.2507C28.2732 16.5528 28.1965 16.855 28.12 17.1572C28.0129 17.5792 27.9048 18.0008 27.7963 18.4224C27.7649 18.547 27.7335 18.6716 27.7012 18.8C27.5104 19.535 27.3197 20.1499 26.8316 20.7031C26.5497 20.7388 26.5497 20.7388 26.1894 20.7411C26.0532 20.7426 25.9169 20.7441 25.7766 20.7457C25.5513 20.7462 25.5513 20.7462 25.3215 20.7466C25.0851 20.7487 25.0851 20.7487 24.844 20.7508C24.4111 20.7545 23.9783 20.7566 23.5455 20.7583C23.0934 20.7605 22.6413 20.7641 22.1893 20.7676C21.3329 20.774 20.4765 20.779 19.6202 20.7836C18.6453 20.7888 17.6705 20.7955 16.6957 20.8024C14.6901 20.8165 12.6846 20.8287 10.679 20.8397C10.4732 21.4751 10.4732 21.4751 10.5283 22.1203C10.6695 22.3617 10.6695 22.3617 10.9201 22.4788C11.1279 22.492 11.3363 22.4965 11.5445 22.4968C11.743 22.4976 11.743 22.4976 11.9455 22.4984C12.0913 22.4984 12.2372 22.4983 12.3874 22.4982C12.6224 22.4989 12.8574 22.4997 13.0924 22.5004C13.3455 22.5011 13.5985 22.5015 13.8516 22.5019C14.3789 22.5027 14.9061 22.5049 15.4334 22.5075C15.6139 22.5084 15.7944 22.5092 15.9749 22.5101C16.1104 22.5108 16.1104 22.5108 16.2488 22.5114C17.4766 22.5172 18.7044 22.5217 19.9322 22.5233C20.7601 22.5245 21.588 22.5276 22.4159 22.5328C22.854 22.5355 23.2921 22.5372 23.7303 22.5365C24.2192 22.5358 24.708 22.5392 25.1969 22.543C25.342 22.5421 25.4871 22.5412 25.6367 22.5403C26.6172 22.5528 26.6172 22.5528 27.1021 22.8761C27.3295 23.183 27.396 23.3119 27.3891 23.7082C27.3907 23.7984 27.3922 23.8885 27.3938 23.9814C27.2595 24.44 27.082 24.5626 26.7111 24.801C26.257 24.8859 25.807 24.8961 25.3475 24.9034C25.2237 24.9075 25.0999 24.9115 24.9724 24.9157C24.668 24.9253 24.3637 24.9325 24.0592 24.9376C24.1253 24.9912 24.1914 25.0448 24.2595 25.1001C24.3463 25.1718 24.4331 25.2436 24.5225 25.3175C24.6515 25.4233 24.6515 25.4233 24.7831 25.5312C25.3091 26.0257 25.4758 26.548 25.5509 27.3067C25.5793 28.2494 25.5753 29.1061 25.0235 29.8551C24.2575 30.6633 23.5311 31.0258 22.4817 30.9986C21.645 30.8778 21.0099 30.4534 20.4956 29.7014C19.9612 28.8196 20.0111 27.8876 20.0813 26.85C20.2947 25.8686 20.7904 25.5642 21.5278 24.9376C19.3797 24.9376 17.2316 24.9376 15.0185 24.9376C15.4958 25.4109 15.4958 25.4109 15.9828 25.8938C16.4771 26.86 16.6426 27.7204 16.3897 28.8151C16.0669 29.7769 15.4778 30.4145 14.6719 30.871C13.6979 31.0697 12.8492 31.0358 12.0049 30.4015C11.3768 29.763 10.9825 29.1438 10.8904 28.178C10.8518 27.318 10.975 26.6146 11.4022 25.8938C11.703 25.5413 12.0215 25.2328 12.3666 24.9376C12.25 24.9356 12.1335 24.9337 12.0134 24.9317C10.9094 24.8859 9.95273 24.7948 9.12746 23.8635C8.56023 23.0696 8.35525 22.3303 8.41127 21.3092C8.4574 20.8355 8.51139 20.5616 8.70509 20.1311C9.0988 19.2185 8.59613 17.9591 8.36038 17.0379C8.32039 16.8792 8.2804 16.7205 8.23919 16.5569C8.13014 16.1248 8.02045 15.6928 7.91047 15.2609C7.79541 14.8084 7.68117 14.3557 7.56684 13.9029C7.35055 13.047 7.13353 12.1913 6.91624 11.3356C6.66876 10.361 6.42209 9.38603 6.1755 8.41107C5.66853 6.40674 5.16053 4.40274 4.65185 2.39896C4.53451 2.39769 4.41716 2.39641 4.29626 2.3951C3.85926 2.38963 3.42236 2.38065 2.98542 2.37062C2.79662 2.36677 2.6078 2.36387 2.41897 2.36195C2.14689 2.35901 1.87501 2.35263 1.60298 2.34561C1.47713 2.34535 1.47713 2.34535 1.34874 2.3451C0.773959 2.32565 0.474356 2.17928 0.0712499 1.71598C-0.00455986 1.44278 -0.00455986 1.44278 0.0034449 1.16959C0.00328951 1.07943 0.00313412 0.989277 0.00297403 0.89639C0.2466 -0.07844 0.969709 -0.00330738 1.71317 0.00423651ZM7.78595 6.3603C7.9352 7.20594 8.08571 8.01893 8.29593 8.84253C8.32164 8.94488 8.34735 9.04723 8.37383 9.15268C8.45758 9.48557 8.542 9.81823 8.62645 10.1509C8.68531 10.3841 8.74413 10.6173 8.80292 10.8505C8.92553 11.3365 9.04845 11.8223 9.17163 12.3081C9.32967 12.9314 9.48707 13.5549 9.64425 14.1785C9.76536 14.6588 9.88671 15.139 10.0081 15.6191C10.0663 15.8491 10.1244 16.0792 10.1825 16.3093C10.2633 16.6294 10.3444 16.9494 10.4257 17.2694C10.4497 17.3647 10.4736 17.4599 10.4984 17.558C10.6228 18.0489 10.6228 18.0489 10.7995 18.5175C15.7321 18.5175 20.6647 18.5175 25.7467 18.5175C26.244 16.5369 26.7412 14.5563 27.2535 12.5157C27.4109 11.8894 27.5682 11.2631 27.7303 10.6178C27.8706 10.0584 27.8706 10.0584 28.011 9.49894C28.0737 9.24895 28.1365 8.99899 28.1993 8.74904C28.2942 8.37136 28.389 7.99361 28.4837 7.61586C28.5119 7.50373 28.5401 7.39161 28.5692 7.27609C28.7022 6.82491 28.7022 6.82491 28.7603 6.3603C21.8388 6.3603 14.9172 6.3603 7.78595 6.3603ZM13.1124 27.1402C12.8122 27.5073 12.8122 27.5073 12.8412 27.9598C12.9467 28.3548 12.9467 28.3548 13.1727 28.6172C13.5599 28.8188 13.7727 28.7711 14.1747 28.6257C14.4252 28.4103 14.4252 28.4103 14.5363 28.0793C14.5276 27.5959 14.4968 27.3547 14.1973 27.0036C13.7404 26.7374 13.513 26.7972 13.1124 27.1402ZM22.0099 27.3963C21.9364 27.8961 21.9562 28.121 22.1983 28.5489C22.4953 28.808 22.4953 28.808 22.9291 28.7538C23.3667 28.6701 23.3667 28.6701 23.577 28.2159C23.6332 27.7168 23.6336 27.4867 23.3736 27.0719C23.1086 26.8292 23.1086 26.8292 22.7935 26.7817C22.3872 26.8737 22.249 27.0151 22.0099 27.3963Z" fill="black"/>
</svg>
