<svg width="25" height="25" viewBox="0 0 25 25" fill="none" xmlns="http://www.w3.org/2000/svg">
<g clip-path="url(#clip0_4116_48375)">
<path d="M12.4382 -0.0424283C12.5478 -0.0414252 12.5478 -0.0414252 12.6596 -0.0404018C13.2281 -0.0238932 13.6798 0.0704796 14.1594 0.390921C14.215 0.427428 14.2707 0.463935 14.328 0.501547C14.7228 0.795235 14.9237 1.13013 15.136 1.5628C15.136 1.62725 15.136 1.6917 15.136 1.75811C15.2313 1.75657 15.2313 1.75657 15.3285 1.75501C15.6163 1.75095 15.9041 1.74841 16.1919 1.7459C16.3419 1.74345 16.3419 1.74345 16.4949 1.74094C16.5909 1.74031 16.6869 1.73968 16.7858 1.73904C16.8743 1.73801 16.9628 1.73699 17.0539 1.73594C17.2844 1.75811 17.2844 1.75811 17.5774 1.95342C17.606 2.2502 17.606 2.2502 17.5957 2.60039C17.5917 2.77449 17.5917 2.77449 17.5877 2.95211C17.5843 3.04149 17.5809 3.13087 17.5774 3.22295C17.6939 3.21988 17.6939 3.21988 17.8129 3.21675C18.1697 3.20856 18.5266 3.20353 18.8835 3.19854C19.0057 3.19527 19.128 3.19199 19.2539 3.18862C20.1797 3.17893 20.9579 3.28372 21.6667 3.91875C22.4558 4.83063 22.4193 5.87713 22.4146 7.01858C22.4153 7.19417 22.4162 7.36976 22.4172 7.54534C22.4194 8.01991 22.4191 8.49444 22.4182 8.969C22.4177 9.36603 22.4184 9.76306 22.4191 10.1601C22.4208 11.097 22.4204 12.0339 22.4188 12.9708C22.4172 13.9357 22.4187 14.9006 22.4219 15.8655C22.4245 16.6957 22.4252 17.5259 22.4243 18.3561C22.4239 18.8512 22.4241 19.3463 22.4261 19.8413C22.4279 20.3069 22.4273 20.7724 22.4249 21.238C22.4244 21.4083 22.4247 21.5786 22.426 21.7489C22.4376 23.4865 22.4376 23.4865 21.8742 24.219C21.2867 24.7705 20.7504 25.0239 19.9371 25.0271C19.8712 25.0276 19.8053 25.0281 19.7374 25.0286C19.5171 25.0301 19.2969 25.0302 19.0767 25.0302C18.9185 25.031 18.7603 25.0318 18.6021 25.0327C18.1727 25.0348 17.7433 25.0357 17.3139 25.0362C17.0454 25.0365 16.7768 25.0371 16.5083 25.0378C15.5707 25.0402 14.6331 25.0415 13.6955 25.0419C12.8228 25.0422 11.9502 25.0451 11.0776 25.0492C10.3274 25.0526 9.57725 25.0541 8.82707 25.0542C8.37946 25.0543 7.93189 25.0551 7.4843 25.0579C7.0629 25.0605 6.64156 25.0607 6.22016 25.0591C6.06608 25.0589 5.91201 25.0596 5.75794 25.0611C4.89667 25.0693 4.13327 25.0476 3.41721 24.512C2.84554 23.9048 2.60611 23.3448 2.60984 22.5082C2.6094 22.4351 2.60896 22.362 2.6085 22.2866C2.60726 22.0421 2.60742 21.7976 2.60758 21.5531C2.607 21.3776 2.60634 21.202 2.6056 21.0265C2.60387 20.5499 2.60341 20.0733 2.60329 19.5967C2.60315 19.2987 2.60273 19.0008 2.60221 18.7028C2.60041 17.6626 2.59961 16.6224 2.59976 15.5822C2.59988 14.6137 2.59782 13.6453 2.59474 12.6768C2.59218 11.8445 2.59113 11.0122 2.59126 10.1799C2.59131 9.68322 2.59076 9.18652 2.58869 8.6898C2.58679 8.22224 2.58678 7.75472 2.5882 7.28716C2.5884 7.11608 2.58795 6.94499 2.58676 6.77391C2.57985 5.7055 2.59959 4.76507 3.33176 3.91875C4.14659 3.18873 5.06749 3.17049 6.11496 3.19854C6.30398 3.20118 6.30398 3.20118 6.49681 3.20388C6.80499 3.20844 7.11301 3.21484 7.42111 3.22295C7.41601 3.08889 7.41601 3.08888 7.41081 2.95211C7.40817 2.83604 7.40553 2.71998 7.4028 2.60039C7.3994 2.48483 7.396 2.36927 7.3925 2.2502C7.40194 2.15227 7.41139 2.05433 7.42111 1.95342C7.73739 1.74257 7.81181 1.73665 8.17413 1.74514C8.26351 1.74489 8.35289 1.74464 8.44498 1.74438C8.63243 1.74539 8.81989 1.74868 9.00726 1.75429C9.27947 1.75124 9.5042 1.74009 9.76486 1.66045C9.98956 1.42726 10.113 1.16838 10.2531 0.879203C10.4263 0.685034 10.4263 0.685034 10.5827 0.555716C10.6338 0.511782 10.685 0.467848 10.7376 0.422583C11.3009 0.0567407 11.778 -0.0517088 12.4382 -0.0424283ZM11.0653 1.96181C10.8764 2.2364 10.7673 2.52353 10.6438 2.83233C10.4254 2.94153 10.2874 2.94893 10.0449 2.96088C9.97397 2.9646 9.90308 2.96833 9.83005 2.97216C9.74005 2.97637 9.65006 2.98058 9.55734 2.98492C9.27133 2.99901 8.98532 3.01311 8.69064 3.02764C8.69064 3.76885 8.69064 4.51006 8.69064 5.27373C11.2043 5.27373 13.718 5.27373 16.3078 5.27373C16.3078 4.53252 16.3078 3.79131 16.3078 3.02764C15.7104 3.0033 15.7104 3.0033 15.1129 2.98096C15.0383 2.97748 14.9637 2.974 14.8869 2.97042C14.7726 2.96582 14.7726 2.96582 14.6559 2.96112C14.4524 2.92998 14.4524 2.92998 14.1594 2.73467C14.0625 2.5405 14.0625 2.5405 13.9763 2.31353C13.776 1.83797 13.523 1.54313 13.1035 1.23931C12.2397 0.96784 11.6086 1.29509 11.0653 1.96181ZM4.16794 5.02959C3.8884 5.44372 3.89272 5.76822 3.89112 6.25791C3.89076 6.32873 3.8904 6.39955 3.89003 6.47252C3.88895 6.71046 3.88857 6.9484 3.8882 7.18635C3.88759 7.3567 3.88694 7.52705 3.88626 7.6974C3.88456 8.16067 3.88353 8.62394 3.88272 9.08721C3.88222 9.37658 3.88163 9.66595 3.88101 9.95532C3.87915 10.8605 3.87776 11.7657 3.87695 12.6709C3.87599 13.7161 3.87342 14.7614 3.86948 15.8066C3.86653 16.6143 3.86509 17.422 3.86476 18.2298C3.86453 18.7123 3.86366 19.1948 3.8612 19.6773C3.85893 20.1312 3.85851 20.5851 3.85952 21.039C3.85957 21.2056 3.85895 21.3721 3.85761 21.5386C3.85588 21.7662 3.85657 21.9936 3.85786 22.2211C3.85762 22.3484 3.85739 22.4756 3.85715 22.6068C3.91456 23.0139 4.03401 23.2215 4.29611 23.5355C4.61907 23.7735 4.9299 23.7558 5.32295 23.7569C5.38668 23.7573 5.45041 23.7578 5.51606 23.7582C5.72942 23.7595 5.94275 23.7593 6.15611 23.7591C6.30916 23.7597 6.4622 23.7604 6.61525 23.7611C7.0309 23.7629 7.44654 23.7633 7.86219 23.7634C8.20923 23.7636 8.55626 23.7643 8.9033 23.765C9.72211 23.7666 10.5409 23.7671 11.3597 23.767C12.2043 23.7668 13.0488 23.7689 13.8933 23.772C14.6185 23.7745 15.3437 23.7756 16.0689 23.7755C16.5019 23.7754 16.935 23.776 17.368 23.778C17.7754 23.7799 18.1827 23.7799 18.5901 23.7785C18.7394 23.7783 18.8888 23.7788 19.0382 23.78C19.2424 23.7815 19.4465 23.7806 19.6507 23.7791C19.822 23.7792 19.822 23.7792 19.9967 23.7794C20.4435 23.7104 20.7562 23.5275 21.0304 23.1643C21.1207 22.8544 21.1179 22.5693 21.1184 22.2466C21.1188 22.1757 21.1192 22.1048 21.1196 22.0317C21.1206 21.7941 21.1202 21.5564 21.1198 21.3188C21.1202 21.1484 21.1207 20.9781 21.1213 20.8077C21.1226 20.3448 21.1227 19.882 21.1224 19.4191C21.1223 19.0328 21.1228 18.6464 21.1233 18.26C21.1244 17.3485 21.1244 16.437 21.1238 15.5255C21.1232 14.5851 21.1244 13.6448 21.1265 12.7044C21.1282 11.8971 21.1288 11.0898 21.1285 10.2825C21.1283 9.80031 21.1286 9.31813 21.1299 8.83594C21.1312 8.38241 21.131 7.92891 21.1297 7.47539C21.1295 7.30902 21.1297 7.14266 21.1305 6.97629C21.1316 6.74899 21.1308 6.52176 21.1295 6.29445C21.1295 6.16731 21.1296 6.04018 21.1296 5.90918C21.0764 5.41113 20.9226 5.09411 20.5559 4.75494C20.1792 4.5007 19.9 4.48069 19.4561 4.48295C19.2923 4.48342 19.2923 4.48342 19.1252 4.4839C19.0112 4.48472 18.8972 4.48554 18.7798 4.48638C18.6646 4.48682 18.5495 4.48726 18.4309 4.48772C18.1464 4.48887 17.8619 4.49047 17.5774 4.49248C17.576 4.61598 17.5746 4.73947 17.5732 4.86671C17.5686 5.02883 17.5639 5.19096 17.5591 5.35308C17.5582 5.47516 17.5582 5.47516 17.5573 5.5997C17.5545 5.67806 17.5517 5.75643 17.5488 5.83716C17.5472 5.90927 17.5457 5.98138 17.5441 6.05568C17.4797 6.2503 17.4797 6.2503 17.2861 6.40677C16.8877 6.59133 16.5528 6.58286 16.119 6.57807C16.0321 6.57827 15.9452 6.57847 15.8556 6.57868C15.5689 6.57897 15.2823 6.57717 14.9956 6.57531C14.796 6.57501 14.5964 6.57483 14.3969 6.57475C13.9789 6.5743 13.5609 6.5729 13.1429 6.57073C12.6073 6.56797 12.0717 6.5669 11.5361 6.56646C11.1241 6.56606 10.7121 6.5651 10.3001 6.56394C10.1026 6.56338 9.9051 6.56292 9.70762 6.56254C9.43157 6.56187 9.15552 6.56054 8.87947 6.559C8.79798 6.55889 8.7165 6.55878 8.63254 6.55867C8.55698 6.55811 8.48142 6.55755 8.40356 6.55698C8.33839 6.55669 8.27322 6.5564 8.20608 6.5561C8.00705 6.54326 8.00705 6.54326 7.51877 6.44561C7.48654 5.80108 7.45432 5.15655 7.42111 4.49248C7.02638 4.48457 6.6318 4.47876 6.23703 4.47417C6.1255 4.47172 6.01396 4.46926 5.89905 4.46673C5.18158 4.46048 4.67972 4.47632 4.16794 5.02959Z" fill="#D7AD45"/>
<path d="M12.2402 19.3064C12.314 19.3056 12.3879 19.3048 12.464 19.304C12.7088 19.3016 12.9536 19.3008 13.1985 19.3001C13.3683 19.2992 13.5381 19.2984 13.7079 19.2974C14.0641 19.2958 14.4203 19.2951 14.7765 19.2948C15.2334 19.2943 15.6903 19.2906 16.1472 19.2861C16.498 19.2832 16.8487 19.2825 17.1995 19.2824C17.368 19.282 17.5365 19.2808 17.7049 19.2788C17.9404 19.2761 18.1757 19.2766 18.4112 19.2778C18.4811 19.2764 18.551 19.2749 18.6229 19.2734C18.8175 19.2763 18.8175 19.2763 19.1406 19.3364C19.3365 19.5647 19.3365 19.5647 19.4336 19.8246C19.3726 20.1359 19.3726 20.1359 19.2383 20.4106C18.8761 20.652 18.6891 20.6323 18.2564 20.6358C18.1518 20.637 18.1518 20.637 18.0451 20.6383C17.8144 20.6406 17.5837 20.6415 17.3531 20.6421C17.1926 20.643 17.0322 20.6439 16.8718 20.6448C16.5353 20.6464 16.1989 20.6472 15.8625 20.6474C15.4318 20.648 15.0011 20.6517 14.5704 20.6561C14.2389 20.659 13.9075 20.6597 13.5761 20.6598C13.4173 20.6602 13.2585 20.6614 13.0998 20.6635C12.8774 20.6661 12.6553 20.6656 12.4329 20.6644C12.3065 20.6649 12.1801 20.6654 12.0498 20.6659C11.6327 20.5903 11.4854 20.4504 11.2305 20.1176C11.2453 19.3618 11.5752 19.3071 12.2402 19.3064Z" fill="#D7AD45"/>
<path d="M12.3199 14.5335C12.3919 14.533 12.4638 14.5325 12.5379 14.532C12.7764 14.5306 13.0149 14.53 13.2534 14.5294C13.4188 14.5289 13.5842 14.5283 13.7497 14.5277C14.0967 14.5267 14.4437 14.5261 14.7907 14.5258C15.2358 14.5253 15.6809 14.5229 16.1259 14.5201C16.4677 14.5183 16.8094 14.5178 17.1511 14.5177C17.3152 14.5174 17.4793 14.5166 17.6435 14.5153C17.8728 14.5136 18.1021 14.5138 18.3315 14.5144C18.4336 14.5131 18.4336 14.5131 18.5377 14.5117C18.8162 14.5141 18.9987 14.5172 19.2282 14.6834C19.3813 14.909 19.4271 15.0565 19.4336 15.3305C19.2837 15.5869 19.2837 15.5869 19.043 15.8188C18.7819 15.8673 18.5826 15.8839 18.322 15.8789C18.25 15.8794 18.178 15.88 18.1039 15.8805C17.8664 15.8817 17.6291 15.8793 17.3916 15.8768C17.2264 15.8766 17.0613 15.8766 16.8962 15.8768C16.5503 15.8766 16.2045 15.8748 15.8586 15.8717C15.4151 15.8678 14.9716 15.8674 14.528 15.8681C14.1871 15.8684 13.8462 15.8673 13.5053 15.8656C13.3418 15.8649 13.1782 15.8646 13.0146 15.8647C12.7862 15.8645 12.5579 15.8624 12.3295 15.8598C12.2279 15.8602 12.2279 15.8602 12.1242 15.8607C11.8467 15.8557 11.664 15.8498 11.4353 15.6846C11.2883 15.4667 11.2496 15.2993 11.2305 15.0375C11.4332 14.4761 11.7878 14.5344 12.3199 14.5335Z" fill="#D7AD45"/>
<path d="M12.3405 9.70298C12.4483 9.70169 12.4483 9.70169 12.5582 9.70038C12.7952 9.69824 13.032 9.69966 13.269 9.70131C13.4339 9.70098 13.5989 9.70051 13.7638 9.69989C14.1092 9.69917 14.4546 9.70022 14.8001 9.7025C15.2428 9.70528 15.6853 9.70368 16.128 9.70076C16.4685 9.69899 16.809 9.69955 17.1495 9.70082C17.3127 9.70114 17.4759 9.70074 17.6391 9.69961C17.8673 9.69837 18.0953 9.70026 18.3235 9.70298C18.3909 9.70199 18.4583 9.701 18.5277 9.69998C18.8842 9.70784 19.0214 9.74567 19.2836 9.99479C19.4336 10.2544 19.4336 10.2544 19.4275 10.5657C19.3359 10.8404 19.3359 10.8404 19.043 11.0357C18.8026 11.0546 18.5734 11.0624 18.3331 11.061C18.2611 11.0613 18.1891 11.0616 18.115 11.062C17.877 11.0629 17.6391 11.0623 17.4011 11.0616C17.2358 11.0618 17.0706 11.062 16.9053 11.0622C16.5589 11.0625 16.2124 11.0621 15.866 11.0612C15.4217 11.06 14.9774 11.0607 14.5331 11.0619C14.1917 11.0626 13.8505 11.0623 13.5091 11.0618C13.3453 11.0617 13.1815 11.0619 13.0176 11.0623C12.7887 11.0628 12.5599 11.0621 12.331 11.061C12.2292 11.0616 12.2292 11.0616 12.1253 11.0622C11.7717 11.059 11.6314 11.0426 11.3281 10.8404C11.2366 10.5657 11.2366 10.5657 11.2305 10.2544C11.519 9.75491 11.7957 9.69499 12.3405 9.70298Z" fill="#D7AD45"/>
<path d="M10.0586 13.0875C10.2966 13.2401 10.2966 13.2401 10.4492 13.4782C10.4569 13.8244 10.428 14.0652 10.209 14.342C10.0166 14.5324 9.81784 14.711 9.61304 14.8881C9.46989 15.0164 9.32684 15.1448 9.18388 15.2734C9.11532 15.3342 9.04676 15.395 8.97613 15.4577C8.69096 15.7152 8.42565 15.9902 8.16193 16.2694C7.91433 16.4918 7.71423 16.6056 7.37915 16.5971C7.04567 16.475 6.88722 16.2718 6.64062 16.0172C6.55553 15.9367 6.47043 15.8561 6.38275 15.7731C6.29866 15.6925 6.21457 15.6119 6.12793 15.5289C6.04283 15.4484 5.95773 15.3678 5.87006 15.2848C5.65093 15.0251 5.58638 14.888 5.56641 14.5524C5.66406 14.2777 5.66406 14.2777 5.85938 14.0641C6.17065 13.9909 6.17065 13.9909 6.54297 14.0641C6.83164 14.2652 7.07783 14.4973 7.32422 14.7477C7.38867 14.8121 7.45312 14.8766 7.51953 14.943C7.57176 14.8903 7.62398 14.8375 7.67779 14.7832C7.91369 14.5453 8.14995 14.3077 8.38623 14.0702C8.46843 13.9872 8.55064 13.9042 8.63533 13.8186C8.71401 13.7396 8.79269 13.6606 8.87375 13.5792C8.94637 13.5061 9.01899 13.433 9.09381 13.3576C9.4077 13.0627 9.63334 13.045 10.0586 13.0875Z" fill="#D7AD45"/>
<path d="M10.0586 8.30068C10.2905 8.45327 10.2905 8.45327 10.4492 8.6913C10.4895 9.10221 10.4369 9.27056 10.1753 9.59043C9.76655 10.0056 9.32802 10.3881 8.88367 10.7646C8.67344 10.9535 8.4864 11.1571 8.29468 11.3646C8.04405 11.6143 7.9031 11.7215 7.56836 11.859C7.04569 11.7937 6.7985 11.5053 6.44531 11.1327C6.3728 11.0576 6.30029 10.9824 6.22559 10.905C5.61187 10.2441 5.61187 10.2441 5.56641 9.86318C5.64575 9.60073 5.64575 9.60073 5.76172 9.3749C6.0419 9.23481 6.23228 9.24365 6.54297 9.27724C6.79245 9.4695 6.79245 9.4695 7.01904 9.7167C7.13347 9.83906 7.13347 9.83906 7.25021 9.96389C7.30686 10.0273 7.36351 10.0908 7.42188 10.1561C7.94428 9.71878 8.44428 9.26015 8.94096 8.79402C9.53667 8.23855 9.53667 8.23855 10.0586 8.30068Z" fill="#D7AD45"/>
<path d="M9.80225 17.793C10.1562 17.8723 10.1562 17.8723 10.3516 18.0371C10.4684 18.3073 10.4847 18.4586 10.4492 18.7512C10.2808 18.9766 10.2808 18.9766 10.046 19.2056C9.96097 19.2895 9.87593 19.3734 9.78832 19.4598C9.69825 19.5462 9.60818 19.6326 9.51538 19.7217C9.42795 19.8077 9.34053 19.8938 9.25045 19.9824C9.00153 20.2259 8.74927 20.4653 8.49609 20.7043C8.43266 20.7677 8.36923 20.831 8.30388 20.8963C8.0242 21.1627 7.85852 21.2793 7.47604 21.3708C6.96631 21.2526 6.71143 20.9618 6.35986 20.5884C6.26092 20.4897 6.26092 20.4897 6.15997 20.3891C5.61339 19.8266 5.61339 19.8266 5.56641 19.3372C5.69535 19.022 5.7745 18.8846 6.09131 18.7512C6.67556 18.7512 7.10537 19.2613 7.51953 19.6301C7.66428 19.5023 7.80865 19.374 7.95288 19.2456C8.04213 19.1663 8.13139 19.087 8.22334 19.0053C8.47983 18.7664 8.71208 18.516 8.94775 18.2568C9.22494 17.9757 9.40074 17.8135 9.80225 17.793Z" fill="#D7AD45"/>
</g>
<defs>
<clipPath id="clip0_4116_48375">
<rect width="25" height="25" fill="white"/>
</clipPath>
</defs>
</svg>
