<svg width="19" height="19" viewBox="0 0 19 19" fill="none" xmlns="http://www.w3.org/2000/svg">
<path d="M5.7526 15.0417C5.7526 15.9125 6.4651 16.625 7.33594 16.625H13.6693C14.5401 16.625 15.2526 15.9125 15.2526 15.0417V7.125C15.2526 6.25417 14.5401 5.54167 13.6693 5.54167H7.33594C6.4651 5.54167 5.7526 6.25417 5.7526 7.125V15.0417ZM15.2526 3.16667H13.2734L12.7114 2.60458C12.5689 2.46208 12.363 2.375 12.1572 2.375H8.84802C8.64219 2.375 8.43635 2.46208 8.29385 2.60458L7.73177 3.16667H5.7526C5.31719 3.16667 4.96094 3.52292 4.96094 3.95833C4.96094 4.39375 5.31719 4.75 5.7526 4.75H15.2526C15.688 4.75 16.0443 4.39375 16.0443 3.95833C16.0443 3.52292 15.688 3.16667 15.2526 3.16667Z" fill="#AC1927"/>
</svg>
