<svg width="19" height="20" viewBox="0 0 19 20" fill="none" xmlns="http://www.w3.org/2000/svg">
<path d="M16.6249 5.82812C16.6091 5.82812 16.5853 5.82812 16.5616 5.82812C12.3737 5.40854 8.19365 5.25021 4.05324 5.66979L2.43824 5.82812C2.10574 5.85979 1.81282 5.62229 1.78115 5.28979C1.74949 4.95729 1.98699 4.67229 2.31157 4.64062L3.92657 4.48229C8.13824 4.05479 12.4053 4.22104 16.6803 4.64062C17.0049 4.67229 17.2424 4.96521 17.2107 5.28979C17.187 5.59854 16.9257 5.82812 16.6249 5.82812Z" fill="#FEFEFE"/>
<path d="M6.7291 5.02898C6.69744 5.02898 6.66577 5.02898 6.62619 5.02107C6.30952 4.96565 6.08785 4.6569 6.14327 4.34023L6.31744 3.30315C6.4441 2.54315 6.61827 1.49023 8.46285 1.49023H10.537C12.3895 1.49023 12.5637 2.58273 12.6824 3.31107L12.8566 4.34023C12.912 4.66482 12.6904 4.97357 12.3737 5.02107C12.0491 5.07648 11.7404 4.85482 11.6929 4.53815L11.5187 3.50898C11.4079 2.82023 11.3841 2.68565 10.5449 2.68565H8.47077C7.6316 2.68565 7.61577 2.79648 7.49702 3.50107L7.31494 4.53023C7.26744 4.82315 7.0141 5.02898 6.7291 5.02898Z" fill="#FEFEFE"/>
<path d="M12.0409 18.5097H6.95841C4.19549 18.5097 4.08466 16.9818 3.99757 15.7468L3.48299 7.77468C3.45924 7.4501 3.71257 7.1651 4.03716 7.14135C4.36966 7.12552 4.64674 7.37093 4.67049 7.69552L5.18507 15.6676C5.27216 16.8709 5.30382 17.3222 6.95841 17.3222H12.0409C13.7034 17.3222 13.7351 16.8709 13.8142 15.6676L14.3288 7.69552C14.3526 7.37093 14.6376 7.12552 14.9622 7.14135C15.2867 7.1651 15.5401 7.44218 15.5163 7.77468L15.0017 15.7468C14.9147 16.9818 14.8038 18.5097 12.0409 18.5097Z" fill="#FEFEFE"/>
<path d="M10.814 14.1562H8.17773C7.85315 14.1562 7.58398 13.8871 7.58398 13.5625C7.58398 13.2379 7.85315 12.9688 8.17773 12.9688H10.814C11.1386 12.9688 11.4077 13.2379 11.4077 13.5625C11.4077 13.8871 11.1386 14.1562 10.814 14.1562Z" fill="#FEFEFE"/>
<path d="M11.4788 10.9902H7.52051C7.19592 10.9902 6.92676 10.7211 6.92676 10.3965C6.92676 10.0719 7.19592 9.80273 7.52051 9.80273H11.4788C11.8034 9.80273 12.0726 10.0719 12.0726 10.3965C12.0726 10.7211 11.8034 10.9902 11.4788 10.9902Z" fill="#FEFEFE"/>
</svg>
