<svg width="34" height="34" viewBox="0 0 34 34" fill="none" xmlns="http://www.w3.org/2000/svg">
<path d="M5.38067 3.08651C4.49473 3.32167 3.75645 4.09823 3.57051 4.98417C3.53223 5.18104 3.51583 8.80683 3.52676 17.1631L3.54317 29.0576L3.66895 29.3693C3.93145 30.0146 4.5002 30.5834 5.14005 30.8459L5.45723 30.9717L15.2955 30.9881C26.4846 31.0045 25.5166 31.0428 26.0197 30.5396C26.5283 30.031 26.4846 31.36 26.4846 16.999C26.4846 2.64355 26.5283 3.96698 26.0252 3.45839C25.5221 2.95526 26.4736 2.99901 15.4158 3.00448C7.08692 3.00448 5.63223 3.01542 5.38067 3.08651ZM25.2541 4.22948L25.3908 4.36073V15.0193V25.6779L25.276 25.8256L25.1666 25.9678H15.9791H6.79708V21.6475V17.3271L6.63848 17.1521C6.50723 17.0045 6.44161 16.9717 6.2502 16.9717C6.05879 16.9717 5.99317 17.0045 5.86192 17.1521L5.70333 17.3271V21.6693V26.0115L5.49005 26.0498C5.3752 26.0662 5.12911 26.1537 4.94317 26.2412L4.60958 26.3998L4.62051 15.7521L4.63692 5.10448L4.75723 4.88573C4.9377 4.54667 5.41895 4.14745 5.64864 4.14745C5.68692 4.14745 5.70333 5.47089 5.70333 8.41307C5.70333 12.9959 5.69786 12.9139 5.9713 13.0615C6.10801 13.1326 6.39239 13.1326 6.52911 13.0615C6.80255 12.9139 6.79708 12.9959 6.79708 8.38573V4.09276H15.9572H25.1229L25.2541 4.22948ZM25.3908 28.3193V29.6373L25.2541 29.7685C25.1393 29.8889 25.0736 29.9053 24.7072 29.9053H24.2971V28.4834V27.067L24.833 27.0451C25.1229 27.0396 25.3689 27.0232 25.3799 27.0178C25.3854 27.0123 25.3908 27.5975 25.3908 28.3193ZM23.2033 28.4834V29.9053L14.4096 29.8943L5.62129 29.8779L5.40255 29.7576C4.40176 29.2217 4.34708 27.86 5.30411 27.2967C5.4463 27.2146 5.65958 27.1326 5.77989 27.1107C5.90567 27.0943 9.87598 27.0725 14.6065 27.067L23.2033 27.0615V28.4834Z" fill="black"/>
<path d="M15.3947 7.7851C14.7986 7.91635 14.2626 8.2226 13.7923 8.69291L13.3822 9.10853L13.1361 9.0265C12.7587 8.90072 11.6595 8.90619 11.2822 9.03744C10.7408 9.21791 10.3361 9.46947 9.94233 9.86322C8.94155 10.8585 8.71186 12.3132 9.34624 13.6093C9.60874 14.1343 10.172 14.7085 10.6915 14.9765L11.0634 15.1679V18.4163C11.0634 21.5663 11.0689 21.6757 11.1728 21.889C11.233 22.0148 11.3533 22.1624 11.4353 22.2226C11.5775 22.332 11.6814 22.332 16.04 22.3484C21.0876 22.3648 20.754 22.3921 21.0001 21.9218L21.1259 21.6867V18.4273V15.1679L21.4978 14.9765C22.0173 14.7085 22.5806 14.1343 22.8431 13.6093C23.74 11.7773 22.8595 9.69916 20.9072 9.03744C20.5134 8.90072 19.4142 8.89525 19.0587 9.0265L18.8181 9.114L18.4025 8.69291C17.5767 7.86713 16.5048 7.54447 15.3947 7.7851ZM16.9806 8.99916C17.3962 9.19603 17.79 9.56244 17.9759 9.93432C18.0525 10.0874 18.1728 10.2515 18.2384 10.2953C18.4025 10.4156 18.6978 10.4046 18.9056 10.2788C19.2119 10.0874 19.6876 9.98353 20.1142 10.0109C20.8908 10.0601 21.5689 10.5304 21.908 11.2468C22.0665 11.5804 22.083 11.6624 22.083 12.1328C22.083 12.6031 22.0665 12.6851 21.908 13.0187C21.629 13.6093 21.1205 14.0359 20.4861 14.2054C20.3548 14.2437 20.2072 14.3312 20.147 14.4132C20.0376 14.5499 20.0322 14.6156 20.0322 16.814V19.0781H16.0947H12.1572V16.814C12.1572 14.6156 12.1517 14.5499 12.0423 14.4132C11.9822 14.3312 11.8345 14.2437 11.7033 14.2054C11.0689 14.0359 10.5603 13.6093 10.2814 13.0187C10.1228 12.6851 10.1064 12.6031 10.1064 12.1328C10.1064 11.6624 10.1228 11.5804 10.2814 11.2468C10.6205 10.5359 11.304 10.0601 12.0751 10.0109C12.5017 9.98353 12.9775 10.0874 13.2837 10.2788C13.4915 10.4046 13.7869 10.4156 13.9509 10.2953C14.0165 10.2515 14.1369 10.0874 14.2134 9.93432C14.465 9.44213 15.0337 8.99369 15.5861 8.8515C15.9689 8.75853 16.6033 8.82416 16.9806 8.99916ZM20.0212 20.7296L20.0376 21.2656H16.0947H12.1572V20.757C12.1572 20.4726 12.1736 20.2265 12.1955 20.2101C12.2119 20.1882 13.9783 20.1773 16.1165 20.1828L20.0048 20.1992L20.0212 20.7296Z" fill="black"/>
<path d="M6.05312 14.5336C5.88906 14.6047 5.70312 14.8563 5.70312 15.0148C5.70312 15.1898 5.84531 15.4523 5.97109 15.5234C6.03125 15.5508 6.15703 15.5781 6.25 15.5781C6.47969 15.5781 6.61641 15.4961 6.71484 15.3047C6.83516 15.0695 6.81328 14.8891 6.64922 14.7031C6.48516 14.5281 6.23906 14.457 6.05312 14.5336Z" fill="black"/>
</svg>
