<svg width="34" height="34" viewBox="0 0 34 34" fill="none" xmlns="http://www.w3.org/2000/svg">
<path d="M13.7878 14.8186C13.9147 14.311 14.311 13.9147 14.8186 13.7878L19.7173 12.5631C20.7547 12.3037 21.6945 13.2435 21.4351 14.2811L20.2105 19.1797C20.0836 19.6873 19.6872 20.0837 19.1798 20.2104L14.2811 21.4352C13.2435 21.6945 12.3037 20.7547 12.5631 19.7172L13.7878 14.8186Z" stroke="#000" stroke-width="1.8" stroke-linecap="round" stroke-linejoin="round"/>
<path d="M17.0007 4.95703C7.79232 4.95703 4.95898 7.79036 4.95898 16.9987C4.95898 26.207 7.79232 29.0404 17.0007 29.0404C26.209 29.0404 29.0423 26.207 29.0423 16.9987C29.0423 7.79036 26.209 4.95703 17.0007 4.95703Z" stroke="#000" stroke-width="1.8" stroke-linecap="round" stroke-linejoin="round"/>
</svg>
