<svg width="26" height="26" viewBox="0 0 26 26" fill="none" xmlns="http://www.w3.org/2000/svg">
<path fill-rule="evenodd" clip-rule="evenodd" d="M3.82775 2.57422L2.41406 3.96484L20.6058 21.866L22.0195 20.4749L3.82775 2.57422V2.57422Z" fill="black" fill-opacity="0.6"/>
<path d="M5.40115 6.90446L6.73176 8.21378C5.27516 9.43418 4.11527 10.9533 3.36575 12.2824L3.36347 12.2868C5.45091 15.7212 8.76305 18.9669 12.9434 18.4746C14.0718 18.3416 15.1244 17.9621 16.0862 17.419L17.4333 18.7441C15.5585 19.9281 13.4095 20.5551 11.081 20.2452C6.8824 19.6864 3.44928 16.2979 1.28516 12.3183C2.30126 10.3065 3.69121 8.38177 5.40115 6.90446V6.90446ZM8.42755 4.96405C9.60159 4.4493 10.8719 4.14656 12.2286 4.125C12.3039 4.12455 13.1981 4.16633 13.6035 4.23191C13.8577 4.27323 14.1111 4.32488 14.3608 4.38911C18.3435 5.41007 21.2941 8.72314 23.1492 12.1364C22.3709 13.6829 21.3516 15.1921 20.136 16.4852L18.8456 15.2154C19.7435 14.2632 20.4921 13.2031 21.0686 12.175C21.0686 12.175 20.4889 11.2578 20.0493 10.682C19.7667 10.3119 19.4696 9.95252 19.1573 9.60621C18.9109 9.33311 17.9536 8.40558 17.7259 8.21244C16.1976 6.91928 14.4032 5.90461 12.2509 5.92168C11.4174 5.9347 10.6159 6.0964 9.85493 6.3686L8.42755 4.96405V4.96405Z" fill="black" fill-opacity="0.6"/>
<path fill-rule="evenodd" clip-rule="evenodd" d="M9.02419 10.464L10.0514 11.4744L14.0052 15.3649C13.4766 15.6569 12.8668 15.8231 12.2181 15.8231C10.1982 15.8231 8.55859 14.2096 8.55859 12.2221C8.55859 11.5838 8.72794 10.9842 9.02419 10.464ZM12.1506 8.62199C12.1729 8.62154 12.1957 8.62109 12.2181 8.62109C14.238 8.62109 15.8776 10.235 15.8776 12.2221C15.8776 12.2445 15.8776 12.2665 15.8772 12.2886L12.1506 8.62199Z" fill="black" fill-opacity="0.6"/>
</svg>
