<svg width="25" height="25" viewBox="0 0 25 25" fill="none" xmlns="http://www.w3.org/2000/svg">
<g clip-path="url(#clip0_3926_32013)">
<path d="M22.9705 -0.0118546C23.2055 -0.0232385 23.4403 -0.030524 23.6755 -0.0368408C23.7506 -0.0405702 23.8257 -0.0442995 23.9031 -0.0481419C24.2954 -0.0539036 24.4706 -0.0276477 24.8054 0.196237C25.0521 0.566395 25.0625 0.858197 25.0426 1.28762C25.0407 1.36381 25.0387 1.43999 25.0366 1.51848C25.0284 1.76133 25.0151 2.00337 24.9999 2.24587C24.9925 2.36753 24.9925 2.36753 24.9849 2.49164C24.9686 2.72952 24.9487 2.96671 24.9267 3.20413C24.9177 3.3134 24.9177 3.3134 24.9085 3.42488C24.857 3.89065 24.7453 4.15998 24.414 4.49197C24.1922 4.60286 24.0504 4.61217 23.8036 4.62014C23.6941 4.62562 23.6941 4.62562 23.5824 4.6312C23.246 4.57356 23.0313 4.39146 22.7538 4.199C22.7099 4.2434 22.6659 4.2878 22.6206 4.33354C22.1617 4.79673 21.7022 5.25921 21.2422 5.7213C21.0708 5.89371 20.8996 6.06629 20.7285 6.23905C20.4822 6.48774 20.2352 6.73579 19.9882 6.98373C19.9122 7.06075 19.8361 7.13777 19.7578 7.21712C19.1874 7.78765 18.6904 8.248 17.871 8.39822C17.1625 8.39822 16.6119 8.26996 16.0627 7.79504C15.9839 7.71475 15.9052 7.63446 15.824 7.55174C15.7378 7.46456 15.6516 7.37739 15.5627 7.28757C15.4745 7.19687 15.3862 7.10617 15.2953 7.01272C15.204 6.91989 15.1125 6.82713 15.021 6.73444C14.7985 6.50843 14.5766 6.28177 14.3554 6.05447C13.9462 6.21407 13.6759 6.51533 13.3755 6.82311C13.3174 6.88172 13.2594 6.94033 13.1997 7.00072C13.0739 7.12786 12.9484 7.25523 12.823 7.38278C12.6244 7.58482 12.4251 7.78616 12.2255 7.98732C11.6583 8.55928 11.0922 9.13232 10.527 9.70625C10.1811 10.0575 9.83413 10.4077 9.4866 10.7574C9.3546 10.8906 9.22296 11.0242 9.09171 11.1582C8.90779 11.3458 8.72268 11.5323 8.53728 11.7185C8.48373 11.7738 8.43019 11.829 8.37502 11.8859C7.87534 12.3831 7.36915 12.6392 6.64664 12.6402C5.51087 12.6007 4.93652 11.9188 4.19913 11.1326C3.62064 11.6145 3.09577 12.1336 2.57236 12.6741C2.47974 12.7683 2.47974 12.7683 2.38524 12.8645C2.33027 12.9211 2.2753 12.9777 2.21866 13.036C1.85815 13.3523 1.552 13.4174 1.06994 13.4031C0.675275 13.3527 0.452377 13.1409 0.164709 12.8843C-0.0706289 12.4746 -0.0945042 12.0826 -8.60281e-05 11.6209C0.263704 11.1841 0.574518 10.8186 0.931845 10.4574C0.983397 10.405 1.03495 10.3525 1.08806 10.2985C1.19671 10.1884 1.30563 10.0786 1.41481 9.96911C1.57979 9.80297 1.74285 9.6351 1.90593 9.4671C2.57036 8.79254 3.17018 8.21977 4.15641 8.16018C5.28162 8.23196 5.81652 8.88691 6.54288 9.66775C6.94733 9.50905 7.21391 9.2147 7.51074 8.90963C7.59586 8.82337 7.59586 8.82337 7.68271 8.73537C7.80573 8.61062 7.92854 8.48566 8.05116 8.36051C8.24572 8.16209 8.44101 7.96443 8.63654 7.76697C9.19234 7.2055 9.7472 6.64312 10.3006 6.07926C10.6394 5.73416 10.9793 5.39028 11.3201 5.04712C11.4493 4.91652 11.5781 4.78547 11.7063 4.65395C13.0523 3.27441 13.0523 3.27441 14.0346 3.06947C14.9183 3.07102 15.5727 3.43979 16.2025 4.04527C16.3571 4.20309 16.5104 4.36219 16.6625 4.52249C16.7419 4.60412 16.8214 4.68576 16.9032 4.76987C17.0968 4.96912 17.2891 5.16943 17.4804 5.37087C17.7641 5.24258 17.9654 5.10519 18.1843 4.88445C18.2429 4.82581 18.3015 4.76717 18.3619 4.70676C18.424 4.64368 18.4861 4.58061 18.55 4.51562C18.6145 4.45087 18.679 4.38612 18.7454 4.3194C18.9508 4.11289 19.1555 3.90571 19.3603 3.69851C19.4996 3.55821 19.6389 3.41796 19.7784 3.27775C20.1197 2.9343 20.4603 2.59025 20.8007 2.24587C20.7373 2.15399 20.6739 2.0621 20.6086 1.96742C20.3416 1.55395 20.3256 1.25791 20.4101 0.78103C20.6043 0.400717 20.7403 0.314317 21.1425 0.170679C21.7477 0.0531817 22.3561 0.0211295 22.9705 -0.0118546ZM22.4242 0.976343C22.2745 0.990316 22.2745 0.990316 22.1217 1.00457C21.8767 1.02747 21.6316 1.05062 21.3866 1.074C21.3536 1.36259 21.3536 1.36259 21.5148 1.50659C21.6244 1.60047 21.7343 1.69406 21.8444 1.78735C22.0238 2.01912 22.0056 2.15295 21.9726 2.44119C21.8289 2.64754 21.8289 2.64754 21.6248 2.85365C21.5488 2.9315 21.4728 3.00936 21.3945 3.08957C21.3112 3.17219 21.2279 3.25481 21.1421 3.33993C21.057 3.42571 20.9719 3.51149 20.8843 3.59987C20.6576 3.82746 20.4298 4.0538 20.2016 4.27981C20.0625 4.41838 19.9245 4.55795 19.7868 4.69796C19.5219 4.96706 19.2551 5.23408 18.9876 5.50057C18.9057 5.58398 18.8237 5.66739 18.7393 5.75333C18.397 6.08895 18.158 6.31759 17.6975 6.4675C17.1305 6.42713 16.8368 6.11865 16.4546 5.7245C16.334 5.60166 16.334 5.60166 16.211 5.47635C16.1284 5.39119 16.0458 5.30603 15.9606 5.21829C15.7962 5.04884 15.6312 4.87983 15.4658 4.71131C15.3933 4.63647 15.3207 4.56162 15.2459 4.48451C14.8703 4.14356 14.5895 4.07895 14.0815 4.05633C13.4884 4.18086 13.0477 4.70173 12.6428 5.12056C12.5819 5.18268 12.521 5.24481 12.4583 5.30882C12.3268 5.44295 12.1956 5.57729 12.0645 5.71181C11.857 5.92458 11.6486 6.13645 11.4399 6.34807C10.8468 6.94948 10.2543 7.5514 9.6649 8.15644C9.30372 8.52709 8.94067 8.89581 8.57631 9.26334C8.43796 9.40362 8.30033 9.54462 8.16343 9.68633C7.97222 9.88412 7.77872 10.0794 7.58451 10.2742C7.52853 10.3333 7.47256 10.3924 7.41488 10.4533C7.25941 10.6065 7.12339 10.732 6.93351 10.8396C6.56116 10.8351 6.34764 10.8093 6.04094 10.598C5.98439 10.5377 5.92785 10.4775 5.86959 10.4154C5.80658 10.3501 5.74358 10.2848 5.67866 10.2174C5.61541 10.1488 5.55215 10.0802 5.48697 10.0095C5.35834 9.87408 5.22954 9.73878 5.10055 9.60366C5.04455 9.54343 4.98855 9.48319 4.93086 9.42113C4.7048 9.19784 4.50879 9.14829 4.19913 9.11843C3.59496 9.13463 3.30738 9.46929 2.90428 9.88638C2.69294 10.1002 2.47465 10.306 2.25631 10.5127C2.08387 10.6785 1.91158 10.8444 1.73942 11.0105C1.65396 11.0914 1.5685 11.1722 1.48045 11.2555C1.40137 11.3333 1.3223 11.4111 1.24084 11.4912C1.16881 11.5608 1.09678 11.6303 1.02256 11.702C0.849268 11.9089 0.849268 11.9089 0.905022 12.1844C0.928602 12.2562 0.952182 12.3281 0.976477 12.4021C1.19902 12.4413 1.19902 12.4413 1.46476 12.4021C1.72698 12.2058 1.72698 12.2058 1.97555 11.9356C2.02208 11.8881 2.06861 11.8407 2.11655 11.7918C2.26466 11.6403 2.411 11.4872 2.55729 11.334C2.70495 11.1815 2.85294 11.0293 3.00116 10.8773C3.13524 10.7394 3.26842 10.6007 3.40155 10.462C3.65919 10.2084 3.7556 10.1645 4.11368 10.1072C4.65693 10.1773 4.89414 10.4639 5.27335 10.8396C5.82454 11.3946 5.82454 11.3946 6.51237 11.7368C7.19219 11.6984 7.59704 11.2919 8.04842 10.8306C8.10805 10.7709 8.16767 10.7112 8.2291 10.6496C8.42493 10.4531 8.61972 10.2555 8.81454 10.058C8.95086 9.92087 9.08726 9.78382 9.22373 9.64684C9.5821 9.2868 9.93963 8.92593 10.2969 8.56484C10.8697 7.98633 11.4436 7.40906 12.0176 6.83185C12.218 6.63012 12.418 6.42801 12.6179 6.22585C12.7404 6.1024 12.8629 5.97895 12.9854 5.85551C13.041 5.79914 13.0965 5.74277 13.1538 5.6847C13.731 5.10416 13.731 5.10416 14.215 5.01077C14.9017 5.03444 15.3488 5.6614 15.7878 6.13105C15.8731 6.22268 15.8731 6.22268 15.9602 6.31616C16.0189 6.37776 16.0775 6.43937 16.1379 6.50284C16.2534 6.62462 16.3669 6.74821 16.4783 6.87372C16.8375 7.25352 17.1161 7.40021 17.6358 7.46076C18.4279 7.32908 18.9511 6.66545 19.48 6.11703C19.658 5.93581 19.8361 5.75461 20.0141 5.57343C20.2929 5.28831 20.5709 5.00251 20.8486 4.71632C21.1174 4.43937 21.3882 4.16434 21.659 3.88925C21.7419 3.80289 21.8248 3.71654 21.9103 3.62756C21.9882 3.54866 22.0661 3.46976 22.1464 3.38847C22.2144 3.31852 22.2823 3.24857 22.3524 3.1765C22.606 2.99274 22.7401 2.98467 23.0468 3.02712C23.244 3.17666 23.244 3.17666 23.4191 3.36892C23.4781 3.43237 23.5372 3.49581 23.598 3.56118C23.6417 3.61053 23.6854 3.65988 23.7304 3.71072C23.8271 3.66238 23.8271 3.66238 23.9257 3.61306C23.9716 3.40516 23.9716 3.40516 23.9875 3.15415C23.9957 3.06018 24.0039 2.96621 24.0123 2.86939C24.02 2.77038 24.0276 2.67137 24.0356 2.56936C24.0482 2.42368 24.0482 2.42368 24.0611 2.27506C24.1002 1.80852 24.1322 1.3473 24.121 0.878686C23.5512 0.86313 22.9906 0.922263 22.4242 0.976343Z" fill="#D7AD45"/>
<path d="M23.3098 9.02044C24.1693 9.63021 24.7823 10.5806 25.0004 11.6221C25.0877 13.0658 24.9345 14.1594 24.0239 15.333C23.792 15.5832 23.792 15.5832 23.6333 15.7236C23.74 15.778 23.8468 15.8324 23.9567 15.8884C24.2904 16.0829 24.4693 16.2306 24.6098 16.6025C24.668 17.1177 24.6115 17.4914 24.4145 17.9697C24.5112 18.1147 24.5112 18.1147 24.6098 18.2627C24.6358 18.4912 24.6358 18.4912 24.6342 18.7449C24.635 18.8701 24.635 18.8701 24.6358 18.9978C24.6098 19.2393 24.6098 19.2393 24.4984 19.441C24.4707 19.5034 24.443 19.5657 24.4145 19.6299C24.4965 19.8264 24.4965 19.8264 24.6098 20.0205C24.6358 20.2372 24.6358 20.2372 24.6342 20.46C24.635 20.5702 24.635 20.5702 24.6358 20.6827C24.6098 20.8994 24.6098 20.8994 24.4984 21.0978C24.4707 21.1612 24.443 21.2247 24.4145 21.29C24.4965 21.4866 24.4965 21.4866 24.6098 21.6807C24.6358 21.8973 24.6358 21.8973 24.6342 22.1201C24.635 22.2304 24.635 22.2304 24.6358 22.3429C24.6098 22.5596 24.6098 22.5596 24.4984 22.7579C24.4707 22.8214 24.443 22.8848 24.4145 22.9502C24.4954 23.1475 24.4954 23.1475 24.6098 23.3408C24.6817 23.8008 24.6511 24.1387 24.4389 24.5554C24.1592 24.874 23.9795 24.9862 23.5557 25.0277C23.4508 25.0288 23.3458 25.0298 23.2377 25.0309C23.0588 25.0332 23.0588 25.0332 22.8762 25.0356C22.7476 25.0361 22.619 25.0367 22.4866 25.0372C22.3528 25.0381 22.219 25.039 22.0852 25.0399C21.805 25.0415 21.5247 25.0422 21.2444 25.0425C20.8863 25.0431 20.5282 25.0467 20.1701 25.0512C19.8938 25.0541 19.6175 25.0548 19.3411 25.0549C19.1452 25.0555 18.9493 25.0584 18.7534 25.0613C17.7622 25.0564 17.7622 25.0564 17.4021 24.7665C17.0936 24.4008 17.0112 24.1076 16.9926 23.6338C17.0327 23.4068 17.0898 23.1902 17.1513 22.9681C17.2027 22.6692 17.1194 22.4559 17.0293 22.172C16.9723 21.8636 17.0698 21.609 17.1513 21.3114C17.1921 21.0702 17.1637 20.9353 17.0903 20.7041C16.9643 20.3072 17.0435 20.0449 17.1513 19.6512C17.1921 19.4101 17.1637 19.2751 17.0903 19.0439C16.9644 18.6474 17.043 18.3854 17.1513 17.9922C17.1925 17.7471 17.1622 17.6016 17.0903 17.3655C16.9798 16.9442 16.992 16.7906 17.1879 16.4072C17.4578 16.0947 17.6962 15.8971 18.0669 15.7236C18.0243 15.6879 17.9818 15.6521 17.9379 15.6153C17.1124 14.8648 16.6813 13.8591 16.581 12.7592C16.5342 11.5815 16.9118 10.5474 17.6617 9.64719C19.1612 8.04912 21.4878 7.84755 23.3098 9.02044ZM18.4666 10.2186C17.7678 11.01 17.5227 11.7693 17.5427 12.8264C17.6355 13.7528 18.0383 14.4337 18.7188 15.0557C19.4247 15.6145 20.2261 15.8561 21.1247 15.8213C22.0866 15.7027 22.8682 15.2375 23.475 14.4907C24.048 13.6512 24.2548 12.7625 24.0765 11.7594C23.8239 10.7964 23.2088 10.0616 22.3614 9.54954C20.9968 8.86232 19.5359 9.16154 18.4666 10.2186ZM17.9692 16.8955C17.9853 17.147 17.9853 17.147 18.0669 17.3838C18.3117 17.5062 18.4809 17.4952 18.7548 17.4972C18.9088 17.4986 18.9088 17.4986 19.0659 17.5C19.1772 17.5004 19.2885 17.5008 19.4031 17.5013C19.5171 17.5018 19.631 17.5024 19.7483 17.503C19.9896 17.5039 20.2309 17.5045 20.4721 17.5049C20.8421 17.5058 21.212 17.5089 21.5819 17.512C21.8159 17.5126 22.05 17.5131 22.284 17.5135C22.3951 17.5147 22.5062 17.5159 22.6206 17.5171C22.7236 17.5168 22.8266 17.5165 22.9327 17.5162C23.0234 17.5166 23.1141 17.517 23.2075 17.5173C23.444 17.4991 23.444 17.4991 23.6172 17.3457C23.7541 17.1926 23.7541 17.1926 23.7126 16.981C23.6485 16.7793 23.6485 16.7793 23.4379 16.7002C23.2705 16.6904 23.1026 16.6867 22.9348 16.686C22.8299 16.6854 22.7249 16.6848 22.6168 16.6841C22.5031 16.684 22.3894 16.6839 22.2722 16.6838C22.1559 16.6835 22.0396 16.6831 21.9197 16.6828C21.6734 16.6823 21.4272 16.6821 21.1809 16.6821C20.8028 16.6819 20.4248 16.6801 20.0467 16.6783C19.8079 16.678 19.5691 16.6778 19.3303 16.6777C19.2166 16.677 19.1028 16.6763 18.9856 16.6756C18.8282 16.676 18.8282 16.676 18.6677 16.6765C18.575 16.6763 18.4823 16.6762 18.3869 16.676C18.1451 16.6788 18.1451 16.6788 17.9692 16.8955ZM17.9692 18.5557C18.0028 18.7971 18.0028 18.7971 18.0669 19.0439C18.3117 19.1663 18.4809 19.1553 18.7548 19.1573C18.9088 19.1587 18.9088 19.1587 19.0659 19.1602C19.1772 19.1606 19.2885 19.161 19.4031 19.1614C19.5171 19.162 19.631 19.1625 19.7483 19.1631C19.9896 19.164 20.2309 19.1647 20.4721 19.1651C20.8421 19.166 21.212 19.169 21.5819 19.1721C21.8159 19.1727 22.05 19.1733 22.284 19.1736C22.3951 19.1748 22.5062 19.176 22.6206 19.1773C22.7236 19.177 22.8266 19.1767 22.9327 19.1764C23.0234 19.1768 23.1141 19.1771 23.2075 19.1775C23.444 19.1593 23.444 19.1593 23.6172 19.0059C23.7541 18.8527 23.7541 18.8527 23.7126 18.6411C23.6485 18.4395 23.6485 18.4395 23.4379 18.3603C23.274 18.3505 23.1096 18.3468 22.9453 18.3462C22.8426 18.3455 22.74 18.3449 22.6342 18.3443C22.5229 18.3442 22.4116 18.3441 22.297 18.3439C22.1261 18.3435 22.1261 18.3435 21.9518 18.343C21.7105 18.3425 21.4692 18.3422 21.228 18.3422C20.858 18.342 20.4881 18.3403 20.1182 18.3384C19.8842 18.3381 19.6501 18.3379 19.4161 18.3378C19.305 18.3371 19.1939 18.3364 19.0795 18.3357C18.9765 18.336 18.8735 18.3363 18.7674 18.3366C18.6767 18.3365 18.586 18.3363 18.4926 18.3362C18.2359 18.345 18.2359 18.345 17.9692 18.5557ZM17.9692 20.2158C18.0062 20.5372 18.0062 20.5372 18.1645 20.8018C18.3278 20.8124 18.4914 20.8163 18.655 20.8175C18.812 20.8189 18.812 20.8189 18.9721 20.8203C19.143 20.821 19.143 20.821 19.3173 20.8216C19.4335 20.8221 19.5497 20.8227 19.6695 20.8233C19.9159 20.8242 20.1624 20.8248 20.4088 20.8252C20.7867 20.8262 21.1646 20.8292 21.5424 20.8323C21.7814 20.8329 22.0203 20.8334 22.2592 20.8338C22.3727 20.835 22.4863 20.8362 22.6032 20.8374C22.7611 20.837 22.7611 20.837 22.9222 20.8366C23.0149 20.8369 23.1076 20.8373 23.2032 20.8376C23.4767 20.7958 23.5619 20.7223 23.7309 20.5088C23.6118 20.246 23.6118 20.246 23.4379 20.0205C23.2777 20.0104 23.117 20.007 22.9564 20.0063C22.8024 20.0054 22.8024 20.0054 22.6453 20.0044C22.5335 20.0043 22.4217 20.0042 22.3065 20.0041C22.1925 20.0038 22.0784 20.0034 21.9609 20.0031C21.7191 20.0026 21.4772 20.0024 21.2353 20.0024C20.8645 20.0022 20.4938 20.0004 20.123 19.9986C19.8885 19.9983 19.654 19.9981 19.4195 19.998C19.3081 19.9973 19.1968 19.9966 19.082 19.9959C18.9787 19.9962 18.8754 19.9965 18.769 19.9968C18.678 19.9966 18.587 19.9965 18.4932 19.9964C18.236 20.0051 18.236 20.0051 17.9692 20.2158ZM18.0825 21.8163C17.9451 21.9698 17.9451 21.9698 17.9936 22.1811C18.0522 22.3624 18.0522 22.3624 18.1645 22.4619C18.3278 22.4726 18.4914 22.4765 18.655 22.4776C18.812 22.4791 18.812 22.4791 18.9721 22.4805C19.143 22.4811 19.143 22.4811 19.3173 22.4817C19.4335 22.4823 19.5497 22.4829 19.6695 22.4834C19.9159 22.4844 20.1624 22.485 20.4088 22.4854C20.7867 22.4863 21.1646 22.4893 21.5424 22.4924C21.7814 22.4931 22.0203 22.4936 22.2592 22.494C22.3727 22.4952 22.4863 22.4964 22.6032 22.4976C22.7611 22.4972 22.7611 22.4972 22.9222 22.4967C23.0149 22.4971 23.1076 22.4974 23.2032 22.4978C23.4767 22.456 23.5619 22.3824 23.7309 22.1689C23.6118 21.9062 23.6118 21.9062 23.4379 21.6807C23.2777 21.67 23.117 21.6661 22.9564 21.6649C22.8537 21.664 22.751 21.663 22.6453 21.6621C22.5335 21.6617 22.4217 21.6612 22.3065 21.6608C22.1925 21.6603 22.0784 21.6597 21.9609 21.6591C21.7191 21.6582 21.4772 21.6576 21.2353 21.6572C20.8645 21.6562 20.4938 21.6532 20.123 21.6501C19.8885 21.6495 19.654 21.649 19.4195 21.6486C19.3081 21.6474 19.1968 21.6462 19.082 21.645C18.9787 21.6453 18.8754 21.6455 18.769 21.6458C18.678 21.6455 18.587 21.6451 18.4932 21.6448C18.2562 21.6629 18.2562 21.6629 18.0825 21.8163ZM18.0831 23.4765C17.945 23.6298 17.945 23.6298 17.9936 23.8413C18.0522 24.0225 18.0522 24.0225 18.1645 24.1221C18.3278 24.1327 18.4914 24.1366 18.655 24.1378C18.812 24.1392 18.812 24.1392 18.9721 24.1406C19.143 24.1413 19.143 24.1413 19.3173 24.1419C19.4335 24.1425 19.5497 24.143 19.6695 24.1436C19.9159 24.1445 20.1624 24.1451 20.4088 24.1455C20.7867 24.1465 21.1646 24.1495 21.5424 24.1526C21.7814 24.1532 22.0203 24.1537 22.2592 24.1541C22.3727 24.1553 22.4863 24.1565 22.6032 24.1578C22.7611 24.1573 22.7611 24.1573 22.9222 24.1569C23.0149 24.1572 23.1076 24.1576 23.2032 24.158C23.4767 24.1161 23.5619 24.0426 23.7309 23.8291C23.6031 23.5242 23.6031 23.5242 23.3403 23.3408C23.1793 23.3305 23.0179 23.3263 22.8566 23.3251C22.7559 23.3241 22.6552 23.3232 22.5514 23.3222C22.4423 23.3218 22.3331 23.3214 22.2207 23.321C22.1089 23.3204 21.9972 23.3199 21.8821 23.3193C21.6454 23.3184 21.4087 23.3177 21.172 23.3174C20.8092 23.3164 20.4464 23.3134 20.0835 23.3103C19.8539 23.3097 19.6243 23.3091 19.3947 23.3088C19.2858 23.3076 19.1768 23.3064 19.0646 23.3051C18.9131 23.3056 18.9131 23.3056 18.7585 23.306C18.6695 23.3056 18.5805 23.3053 18.4889 23.3049C18.2557 23.3236 18.2557 23.3236 18.0831 23.4765Z" fill="#D7AD45"/>
<path d="M15.0208 12.3593C15.8959 13.0495 16.4908 13.9378 16.6992 15.0387C16.8339 16.4378 16.5685 17.5084 15.7036 18.6345C15.5273 18.8473 15.5273 18.8473 15.332 19.0427C15.3862 19.0793 15.4403 19.1159 15.4961 19.1537C16.063 19.5541 16.063 19.5541 16.2659 19.8544C16.3456 20.3441 16.2692 20.821 16.1133 21.2887C16.1616 21.3915 16.1616 21.3915 16.2109 21.4963C16.3791 21.9797 16.2725 22.4712 16.1133 22.9489C16.1586 23.0577 16.1586 23.0577 16.2048 23.1686C16.3376 23.5123 16.3472 23.7543 16.3086 24.1208C16.103 24.5026 15.8984 24.7751 15.5273 24.9997C15.2545 25.0382 15.2545 25.0382 14.9365 25.0407C14.8172 25.0422 14.6979 25.0438 14.575 25.0454C14.3821 25.0454 14.3821 25.0454 14.1853 25.0455C14.0516 25.0462 13.9178 25.0469 13.784 25.0477C13.5037 25.049 13.2235 25.0492 12.9432 25.0486C12.585 25.048 12.227 25.051 11.8688 25.055C11.5925 25.0575 11.3163 25.0578 11.0399 25.0574C10.844 25.0577 10.6481 25.0601 10.4522 25.0625C9.46116 25.055 9.46116 25.055 9.10259 24.7634C8.7126 24.3082 8.64945 24.0457 8.69141 23.4372C8.72767 23.3365 8.76392 23.2358 8.80128 23.132C8.91693 22.8577 8.91693 22.8577 8.79517 22.6254C8.61031 22.1578 8.73112 21.6579 8.88672 21.1911C8.83838 21.0884 8.83838 21.0884 8.78907 20.9836C8.64873 20.5801 8.68586 20.2352 8.78907 19.8239C9.02041 19.4438 9.27703 19.249 9.66797 19.0427C9.62429 18.9976 9.58061 18.9525 9.5356 18.9061C8.59933 17.8959 8.2345 16.8101 8.27103 15.4362C8.33577 14.2898 8.88436 13.3379 9.71757 12.5657C11.2738 11.3383 13.3716 11.2531 15.0208 12.3593ZM10.8398 12.988C10.772 13.0294 10.7041 13.0708 10.6342 13.1135C9.82434 13.659 9.42054 14.3888 9.21937 15.3336C9.09713 16.2304 9.32402 17.0648 9.82628 17.8139C10.4018 18.5283 11.1969 19.0018 12.1094 19.1403C13.1231 19.209 13.9598 18.9013 14.7461 18.2614C15.4281 17.6417 15.7732 16.7963 15.8291 15.8818C15.7972 14.9475 15.4781 14.1615 14.8438 13.4762C13.984 12.743 13.2113 12.539 12.1014 12.5668C11.6033 12.6065 11.2569 12.7197 10.8398 12.988ZM9.66797 20.2145C9.70499 20.5359 9.70499 20.5359 9.86329 20.8005C10.0271 20.8106 10.1913 20.814 10.3554 20.8147C10.5128 20.8156 10.5128 20.8156 10.6734 20.8165C10.8447 20.8167 10.8447 20.8167 11.0195 20.8169C11.1942 20.8174 11.1942 20.8174 11.3724 20.8179C11.6193 20.8183 11.8661 20.8186 12.113 20.8186C12.4919 20.8188 12.8708 20.8205 13.2498 20.8224C13.489 20.8227 13.7283 20.8229 13.9675 20.823C14.0816 20.8237 14.1956 20.8244 14.3131 20.8251C14.4183 20.8248 14.5236 20.8245 14.632 20.8242C14.725 20.8243 14.8179 20.8245 14.9137 20.8246C15.1561 20.8219 15.1561 20.8219 15.332 20.6052C15.3159 20.3536 15.3159 20.3536 15.2344 20.1169C14.9914 19.9954 14.8272 20.0062 14.5554 20.005C14.4043 20.0041 14.4043 20.0041 14.2502 20.0031C14.1411 20.003 14.0319 20.0029 13.9195 20.0028C13.7518 20.0023 13.7518 20.0023 13.5808 20.0018C13.3442 20.0013 13.1075 20.0011 12.8708 20.0011C12.508 20.0009 12.1451 19.9991 11.7823 19.9973C11.5527 19.997 11.3231 19.9968 11.0935 19.9967C10.9846 19.996 10.8756 19.9953 10.7634 19.9946C10.6624 19.9949 10.5613 19.9952 10.4573 19.9955C10.3683 19.9954 10.2793 19.9952 10.1876 19.9951C9.93421 20.0044 9.93421 20.0044 9.66797 20.2145ZM9.66797 21.8747C9.70499 22.196 9.70499 22.196 9.86329 22.4606C10.0271 22.4708 10.1913 22.4741 10.3554 22.4748C10.5128 22.4757 10.5128 22.4757 10.6734 22.4767C10.8447 22.4769 10.8447 22.4769 11.0195 22.477C11.1942 22.4775 11.1942 22.4775 11.3724 22.478C11.6193 22.4785 11.8661 22.4787 12.113 22.4787C12.4919 22.4789 12.8708 22.4807 13.2498 22.4826C13.489 22.4828 13.7283 22.483 13.9675 22.4831C14.0816 22.4838 14.1956 22.4845 14.3131 22.4853C14.4183 22.485 14.5236 22.4847 14.632 22.4843C14.725 22.4845 14.8179 22.4846 14.9137 22.4848C15.1561 22.4821 15.1561 22.4821 15.332 22.2653C15.3159 22.0138 15.3159 22.0138 15.2344 21.777C14.9914 21.6556 14.8272 21.6663 14.5554 21.6652C14.4043 21.6643 14.4043 21.6643 14.2502 21.6633C14.1411 21.6632 14.0319 21.6631 13.9195 21.663C13.7518 21.6625 13.7518 21.6625 13.5808 21.662C13.3442 21.6615 13.1075 21.6613 12.8708 21.6613C12.508 21.6611 12.1451 21.6593 11.7823 21.6574C11.5527 21.6571 11.3231 21.657 11.0935 21.6569C10.9846 21.6562 10.8756 21.6555 10.7634 21.6547C10.6624 21.655 10.5613 21.6553 10.4573 21.6556C10.3683 21.6555 10.2793 21.6554 10.1876 21.6552C9.93421 21.6645 9.93421 21.6645 9.66797 21.8747ZM9.66797 23.5348C9.70499 23.8562 9.70499 23.8562 9.86329 24.1208C10.0271 24.1309 10.1913 24.1343 10.3554 24.135C10.5128 24.1359 10.5128 24.1359 10.6734 24.1369C10.8447 24.137 10.8447 24.137 11.0195 24.1372C11.1942 24.1377 11.1942 24.1377 11.3724 24.1382C11.6193 24.1387 11.8661 24.1389 12.113 24.1389C12.4919 24.1391 12.8708 24.1409 13.2498 24.1427C13.489 24.143 13.7283 24.1432 13.9675 24.1433C14.0816 24.144 14.1956 24.1447 14.3131 24.1454C14.4183 24.1451 14.5236 24.1448 14.632 24.1445C14.725 24.1446 14.8179 24.1448 14.9137 24.1449C15.1561 24.1423 15.1561 24.1423 15.332 23.9255C15.3159 23.674 15.3159 23.674 15.2344 23.4372C14.9914 23.3157 14.8272 23.3265 14.5554 23.3253C14.4043 23.3244 14.4043 23.3244 14.2502 23.3235C14.1411 23.3233 14.0319 23.3232 13.9195 23.3231C13.7518 23.3226 13.7518 23.3226 13.5808 23.3221C13.3442 23.3216 13.1075 23.3214 12.8708 23.3214C12.508 23.3212 12.1451 23.3194 11.7823 23.3176C11.5527 23.3173 11.3231 23.3171 11.0935 23.317C10.9846 23.3163 10.8756 23.3156 10.7634 23.3149C10.6624 23.3152 10.5613 23.3155 10.4573 23.3158C10.3683 23.3157 10.2793 23.3155 10.1876 23.3154C9.93421 23.3247 9.93421 23.3247 9.66797 23.5348Z" fill="#D7AD45"/>
<path d="M6.73945 15.7609C6.80353 15.8129 6.8676 15.8649 6.93362 15.9184C7.0252 15.9919 7.0252 15.9919 7.11863 16.0668C7.92967 16.793 8.31855 17.8399 8.42288 18.9011C8.48731 20.2965 7.84869 21.3856 7.03128 22.4614C7.12191 22.4997 7.21255 22.5379 7.30593 22.5774C7.73625 22.822 7.85721 23.0552 7.98953 23.5234C8.02029 24.0361 7.92501 24.3763 7.59607 24.7737C7.10399 25.1615 6.45653 25.0659 5.86207 25.0584C5.72833 25.0583 5.59459 25.0583 5.46085 25.0584C5.18133 25.0583 4.90188 25.0565 4.62237 25.0534C4.26487 25.0495 3.90746 25.0491 3.54995 25.0498C3.27405 25.0501 2.99818 25.0489 2.7223 25.0473C2.52664 25.0462 2.33098 25.0462 2.13533 25.0462C2.01604 25.0446 1.89674 25.0431 1.77384 25.0415C1.66913 25.0406 1.56442 25.0398 1.45654 25.039C1.03728 24.9822 0.778985 24.8193 0.506619 24.5C0.308733 24.0209 0.307569 23.5553 0.494412 23.0717C0.752272 22.7723 1.03747 22.5815 1.36721 22.3637C1.31535 22.3093 1.26349 22.255 1.21005 22.1989C0.778103 21.7323 0.427675 21.2982 0.19534 20.7036C0.160595 20.6177 0.125851 20.5319 0.0900541 20.4434C-0.23378 19.2716 -0.0555114 18.0037 0.519589 16.9522C1.11923 15.9725 2.01102 15.3412 3.10672 15.009C4.38068 14.7455 5.68805 14.9863 6.73945 15.7609ZM2.53909 16.309C2.47111 16.3505 2.40313 16.3919 2.3331 16.4345C1.56103 16.9555 1.0637 17.7413 0.878933 18.6528C0.781132 19.5004 0.937843 20.3127 1.43435 21.0149C2.04198 21.7578 2.72857 22.3444 3.71096 22.4614C4.74699 22.5462 5.6497 22.2559 6.44534 21.5825C7.11041 20.8937 7.43973 20.0939 7.47073 19.1411C7.43416 18.117 7.10072 17.4594 6.39804 16.7195C5.62425 16.0418 4.79174 15.8718 3.78917 15.8913C3.29599 15.9273 2.95373 16.047 2.53909 16.309ZM1.26956 23.6333C1.30353 23.8262 1.30353 23.8262 1.36721 24.0239C1.61486 24.1477 1.78848 24.1346 2.06569 24.1357C2.17062 24.1364 2.27555 24.137 2.38366 24.1376C2.49739 24.1377 2.61112 24.1378 2.7283 24.1379C2.84461 24.1383 2.96092 24.1386 3.08075 24.1389C3.32703 24.1394 3.57331 24.1397 3.81959 24.1396C4.19767 24.1399 4.57572 24.1416 4.95379 24.1435C5.19259 24.1438 5.43139 24.144 5.67019 24.144C5.78392 24.1447 5.89765 24.1455 6.01483 24.1462C6.11976 24.1459 6.22469 24.1456 6.33281 24.1453C6.42547 24.1454 6.51812 24.1455 6.61359 24.1457C6.85537 24.1429 6.85537 24.1429 7.03128 23.9262C7.01516 23.6747 7.01516 23.6747 6.93362 23.4379C6.69137 23.3168 6.52719 23.3266 6.25618 23.3246C6.15579 23.3236 6.05539 23.3227 5.95196 23.3217C5.84311 23.3213 5.73427 23.3209 5.62213 23.3205C5.45486 23.3196 5.45486 23.3196 5.28421 23.3188C5.04795 23.3178 4.81169 23.3172 4.57542 23.3168C4.21362 23.3159 3.85188 23.3129 3.49009 23.3098C3.26083 23.3091 3.03157 23.3086 2.8023 23.3082C2.63963 23.3064 2.63963 23.3064 2.47367 23.3046C2.32216 23.305 2.32216 23.305 2.16759 23.3055C2.07883 23.3051 1.99007 23.3048 1.89863 23.3044C1.61643 23.3469 1.48117 23.4466 1.26956 23.6333Z" fill="#D7AD45"/>
<path d="M4.49254 16.7001C4.5225 16.7603 4.55247 16.8205 4.58333 16.8825C4.70371 17.1223 4.82813 17.2189 5.04186 17.3776C5.36447 17.6425 5.36447 17.6425 5.42638 17.9452C5.37145 18.165 5.37145 18.165 5.17614 18.3603C4.88927 18.3908 4.88927 18.3908 4.5902 18.3603C4.49065 18.2646 4.39269 18.1671 4.29723 18.0673C4.086 18.0895 4.086 18.0895 3.90661 18.165C3.90661 18.3261 3.90661 18.4872 3.90661 18.6533C3.97144 18.6606 4.03627 18.6679 4.10306 18.6754C4.89518 18.7933 4.89518 18.7933 5.18224 19.1415C5.46128 19.5736 5.50379 19.7932 5.46911 20.3134C5.31397 20.7168 5.16299 20.9731 4.78551 21.1923C4.72106 21.1923 4.65661 21.1923 4.5902 21.1923C4.55797 21.3534 4.52575 21.5146 4.49254 21.6806C4.21178 21.6928 4.21178 21.6928 3.90661 21.6806C3.84215 21.6161 3.7777 21.5517 3.71129 21.4853C3.71129 21.3886 3.71129 21.2919 3.71129 21.1923C3.63677 21.1702 3.56225 21.148 3.48546 21.1252C3.16067 20.9666 3.06236 20.8434 2.93004 20.5087C2.97887 20.2402 2.97887 20.2402 3.12536 20.0204C3.36339 19.9228 3.36339 19.9228 3.61364 19.9228C3.71335 20.0183 3.81096 20.1161 3.90661 20.2158C4.16302 20.2402 4.16302 20.2402 4.39489 20.2158C4.36266 20.0546 4.33043 19.8935 4.29723 19.7275C4.23832 19.7109 4.1794 19.6942 4.1187 19.6771C3.54882 19.5043 3.20869 19.3541 2.89953 18.8241C2.80756 18.4563 2.81914 18.1337 2.93004 17.7743C3.10811 17.4855 3.30499 17.2451 3.61364 17.0908C3.64586 17.0263 3.67809 16.9618 3.71129 16.8954C3.89699 16.5241 4.1354 16.5841 4.49254 16.7001Z" fill="#D7AD45"/>
<path d="M12.6158 13.3121C12.7518 13.3453 12.7518 13.3453 12.8905 13.3792C12.8965 13.4558 12.9025 13.5323 12.9088 13.6112C12.935 13.6958 12.9611 13.7804 12.9881 13.8675C13.2248 13.9817 13.2248 13.9817 13.4764 14.0628C13.6863 14.3777 13.7091 14.4795 13.6717 14.8441C13.4764 15.0394 13.4764 15.0394 13.2384 15.0699C12.9406 15.0336 12.8954 14.9554 12.6952 14.7464C12.5662 14.7464 12.4373 14.7464 12.3045 14.7464C12.2723 14.8431 12.2401 14.9398 12.2069 15.0394C12.2849 15.2517 12.2849 15.2517 12.4892 15.3007C12.5652 15.3212 12.6412 15.3417 12.7196 15.3629C13.1449 15.4956 13.3847 15.6661 13.6717 16.016C13.8402 16.353 13.8047 16.721 13.7694 17.0902C13.593 17.4986 13.304 17.7589 12.9881 18.0667C12.9237 18.1634 12.8592 18.2601 12.7928 18.3597C12.5059 18.4085 12.5059 18.4085 12.2069 18.3597C12.0604 18.1461 12.0604 18.1461 11.9139 17.8714C11.8127 17.7888 11.7087 17.7096 11.6026 17.6334C11.328 17.3832 11.328 17.3832 11.273 17.0719C11.2912 16.9812 11.3093 16.8906 11.328 16.7972C11.6209 16.6019 11.6209 16.6019 11.8712 16.6263C12.1092 16.6996 12.1092 16.6996 12.3045 16.8949C12.5587 16.8636 12.5587 16.8636 12.7928 16.7972C12.7807 16.6039 12.7807 16.6039 12.6952 16.4066C12.4817 16.309 12.4817 16.309 12.2252 16.2601C11.8247 16.1548 11.5783 16.0713 11.328 15.723C11.1956 15.3258 11.1784 14.9664 11.2303 14.5511C11.4361 14.1616 11.6914 13.8741 12.0116 13.5746C12.0559 13.5161 12.1002 13.4577 12.1458 13.3976C12.3045 13.2816 12.3045 13.2816 12.6158 13.3121Z" fill="#D7AD45"/>
<path d="M20.8379 9.92383C20.9225 9.93591 21.0071 9.948 21.0942 9.96045C21.2346 10.1741 21.2346 10.1741 21.3872 10.4487C21.4885 10.5312 21.5925 10.6105 21.6985 10.6868C21.9731 10.937 21.9731 10.937 22.022 11.2483C21.9731 11.5229 21.9731 11.5229 21.7778 11.7183C21.2452 11.6739 21.2452 11.6739 20.9966 11.4253C20.8677 11.4253 20.7388 11.4253 20.6059 11.4253C20.6059 11.5864 20.6059 11.7476 20.6059 11.9136C20.7032 11.9351 20.7032 11.9351 20.8024 11.9571C21.4158 12.1129 21.7421 12.2411 22.0708 12.7925C22.1913 13.2067 22.1847 13.4227 22.0586 13.8362C21.8671 14.1744 21.6939 14.3202 21.3872 14.5503C21.3389 14.6389 21.2905 14.7275 21.2407 14.8188C21.0942 15.0386 21.0942 15.0386 20.8501 15.0996C20.6059 15.0386 20.6059 15.0386 20.4595 14.8127C20.4111 14.7261 20.3628 14.6395 20.313 14.5503C20.1527 14.4486 19.99 14.3506 19.8247 14.2573C19.6294 13.9644 19.6294 13.9644 19.666 13.6531C19.6862 13.5624 19.7063 13.4718 19.727 13.3784C20.0017 13.3113 20.0017 13.3113 20.313 13.2808C20.4126 13.3764 20.5104 13.474 20.6059 13.5737C20.8652 13.5512 20.8652 13.5512 21.0942 13.4761C21.0777 13.283 21.0777 13.283 20.9966 13.0854C20.809 12.9918 20.809 12.9918 20.5815 12.9451C20.1512 12.8197 19.9148 12.661 19.6294 12.3042C19.496 11.9041 19.4521 11.5426 19.6019 11.138C19.8129 10.7305 19.9896 10.5967 20.4106 10.4487C20.4902 10.2529 20.4902 10.2529 20.5083 10.0581C20.6059 9.96045 20.6059 9.96045 20.8379 9.92383Z" fill="#D7AD45"/>
</g>
<defs>
<clipPath id="clip0_3926_32013">
<rect width="25" height="25" fill="white"/>
</clipPath>
</defs>
</svg>
