<svg width="35" height="35" viewBox="0 0 35 35" fill="none" xmlns="http://www.w3.org/2000/svg">
<path d="M22.7521 18.9364C23.4168 16.9325 21.7763 16.0211 21.2033 16.4028C20.686 16.7219 20.7417 17.3471 21.0527 17.357C21.367 17.3669 21.223 17.2846 21.223 17.2846C21.223 17.2846 21.1411 16.7812 21.7076 16.791C22.274 16.8009 23.1515 18.1171 21.6847 19.8742C20.2178 21.6313 18.9342 20.5883 18.8229 20.4237C18.7083 20.2559 18.3318 19.7196 18.7771 18.7982C19.0128 18.5613 18.5118 18.4297 18.1025 18.8772C17.69 19.3247 17.0515 20.483 17.893 20.7199C18.1811 20.4599 18.8818 21.0851 18.3874 21.6774C17.893 22.2697 15.4438 23.3128 13.2238 20.937C11.0038 18.5613 14.2061 14.0764 15.6828 15.3202C16.1412 15.4156 15.1524 13.5006 13.3646 15.6032C12.7621 16.3238 12.2121 17.4129 12.2121 17.4129C12.2121 17.4129 11.6096 16.8569 11.829 15.7151C11.8617 15.5341 11.9174 15.3366 11.9992 15.1228C12.1826 14.6555 12.4969 14.1126 13.0012 13.494C15.172 10.8484 18.7378 10.062 21.6912 12.5496C24.6446 15.0372 24.4613 18.9496 21.5962 22.3849C21.5962 22.3849 17.1137 25.6688 13.4301 22.4638C9.71374 19.226 11.8224 15.0602 11.8224 15.0602" stroke="#D7AD45" stroke-width="0.75"/>
<path d="M13.2506 22.3867C13.2506 22.3867 9.44587 23.7128 10.6737 27.4738C11.7772 29.5731 11.5316 27.0329 12.8806 26.5887C14.2296 26.1444 14.4752 27.3619 13.4962 27.8061C12.5139 28.2471 10.4282 30.4583 17.1765 33.9988H17.6579C24.403 30.4583 22.3205 28.2471 21.3382 27.8061C20.3559 27.3619 20.6015 26.1477 21.9505 26.5887C23.2995 27.0296 23.0539 29.5731 24.1574 27.4738C25.3853 23.7128 21.5805 22.3867 21.5805 22.3867" stroke="#D7AD45" stroke-width="0.75" stroke-linecap="round" stroke-linejoin="round"/>
<path d="M13.2506 12.6121C13.2506 12.6121 9.44587 11.286 10.6737 7.52502C11.7772 5.4257 11.5316 7.96595 12.8806 8.41016C14.2296 8.85438 14.4752 7.6369 13.4962 7.19269C12.5139 6.75176 10.4282 4.54056 17.1765 1H17.6579C24.403 4.54056 22.3205 6.75176 21.3382 7.19269C20.3559 7.6369 20.6015 8.85109 21.9505 8.41016C23.2995 7.96924 23.0539 5.4257 24.1574 7.52502C25.3853 11.286 21.5805 12.6121 21.5805 12.6121" stroke="#D7AD45" stroke-width="0.75" stroke-linecap="round" stroke-linejoin="round"/>
<path d="M22.4453 13.3661C22.4453 13.3661 23.7649 9.54257 27.5074 10.7765C29.5964 11.8854 27.0686 11.6386 26.6266 12.9943C26.1846 14.35 27.3961 14.5968 27.8381 13.6096C28.2769 12.6225 30.4805 10.5264 34.0004 17.3081V17.7918C30.4805 24.5702 28.2769 22.4775 27.8381 21.4903C27.3994 20.5032 26.1879 20.75 26.6266 22.1056C27.0654 23.4613 29.5964 23.2145 27.5074 24.3234C23.7649 25.5573 22.4453 21.7338 22.4453 21.7338" stroke="#D7AD45" stroke-width="0.75" stroke-linecap="round" stroke-linejoin="round"/>
<path d="M12.5551 13.3661C12.5551 13.3661 11.2355 9.54257 7.49297 10.7765C5.40396 11.8854 7.93173 11.6386 8.37377 12.9943C8.8158 14.35 7.6043 14.5968 7.16227 13.6096C6.72351 12.6225 4.51989 10.5264 1 17.3081V17.7918C4.51989 24.5702 6.72351 22.4775 7.16227 21.4903C7.60103 20.5032 8.81252 20.75 8.37377 22.1056C7.93501 23.4613 5.40396 23.2145 7.49297 24.3234C11.2355 25.5573 12.5551 21.7338 12.5551 21.7338" stroke="#D7AD45" stroke-width="0.75" stroke-linecap="round" stroke-linejoin="round"/>
</svg>
