<svg width="34" height="34" viewBox="0 0 34 34" fill="none" xmlns="http://www.w3.org/2000/svg">
<path d="M5.71512 0.247295C4.95019 0.542339 4.13062 1.34005 3.74815 2.14869L3.44218 2.80435L3.4094 5.72201L3.36569 8.65059H2.50241C1.99974 8.65059 1.48615 8.71616 1.27853 8.80358C0.85235 8.98935 0.273189 9.57944 0.120203 9.99468C0.0327827 10.2023 0 12.967 0 18.4417C0 25.1184 0.0218551 26.6374 0.152986 26.9324C0.338755 27.3586 0.928843 27.9377 1.34409 28.0907C1.55171 28.1782 5.58399 28.2109 14.0966 28.2109C22.6091 28.2109 26.6414 28.1782 26.849 28.0907C27.2643 27.9377 27.8544 27.3586 28.0401 26.9324C28.1713 26.6374 28.1931 25.1184 28.1931 18.4308C28.1931 9.49202 28.2259 9.89634 27.5265 9.22976C27.0239 8.75987 26.6851 8.65059 25.6798 8.65059H24.8274L24.7837 5.72201L24.7509 2.80435L24.445 2.14869C24.0516 1.3182 23.2429 0.542339 22.4452 0.236368C21.5929 -0.0805321 19.2107 -0.0805321 18.5878 0.236368C17.8338 0.618832 17.506 1.16521 17.3202 2.33446C17.2765 2.59672 17.1453 2.83713 16.9268 3.01197L16.588 3.29609H14.0966H11.6051L11.2663 3.01197C11.0478 2.83713 10.9166 2.59672 10.8729 2.33446C10.6872 1.16521 10.3593 0.618832 9.60533 0.236368C8.99339 -0.0805321 6.54561 -0.0696049 5.71512 0.247295ZM9.14637 1.67881C9.29936 1.82087 9.39771 2.03942 9.39771 2.23611C9.39771 3.12124 10.0097 4.07194 10.862 4.5309C11.2882 4.76038 11.4302 4.77131 14.0966 4.77131C16.741 4.77131 16.9049 4.76038 17.3202 4.5309C18.1944 4.06102 18.7954 3.18681 18.7954 2.36724C18.7954 2.09405 18.8828 1.88643 19.0686 1.70066C19.3418 1.42747 19.3855 1.41654 20.522 1.46025C21.9098 1.50397 22.3797 1.68973 22.8932 2.41095L23.2211 2.88084L23.2539 14.016C23.2757 24.8125 23.2757 25.1621 23.0681 25.5665C22.8058 26.0801 22.4561 26.4079 21.9426 26.6264C21.5819 26.7685 20.5548 26.7904 14.0201 26.7904H6.5019L6.07573 26.539C5.83532 26.4079 5.49657 26.1128 5.3108 25.8834L4.97204 25.4572L4.93926 14.2674C4.9174 3.41629 4.9174 3.06661 5.12503 2.66229C5.60584 1.72252 6.19593 1.44933 7.74764 1.4384C8.77483 1.4384 8.91689 1.46025 9.14637 1.67881ZM3.38755 17.4254C3.38755 25.3042 3.39847 25.5446 3.94485 26.4297L4.17433 26.7904H3.04879C2.04345 26.7904 1.9014 26.7685 1.67192 26.5499L1.42058 26.3205V18.4089C1.42058 9.21883 1.30038 10.0712 2.62262 10.0712H3.38755V17.4254ZM26.554 10.2897C26.7725 10.5083 26.7725 10.6503 26.7725 18.398V26.2877L26.5321 26.539C26.3136 26.7685 26.2043 26.7904 25.1553 26.7904H24.0188L24.2483 26.4297C24.7946 25.5446 24.8056 25.3042 24.8056 17.4254V10.0712H25.5705C26.1934 10.0712 26.3791 10.1149 26.554 10.2897Z" fill="black"/>
<path d="M8.80682 8.89014C8.56641 9.23982 8.58827 9.55672 8.88331 9.82991C9.13465 10.0703 9.1565 10.0703 14.1067 10.0703H19.0897L19.3191 9.81898C19.6033 9.52393 19.6251 9.22889 19.3847 8.89014L19.2208 8.64973H14.0958H8.97073L8.80682 8.89014Z" fill="black"/>
<path d="M8.906 13.6222C8.75302 13.7643 8.63281 13.9828 8.63281 14.114C8.63281 14.2342 8.75302 14.4637 8.906 14.6057L9.16826 14.8789H14.0966H19.0249L19.2872 14.6057C19.4402 14.4637 19.5604 14.2451 19.5604 14.114C19.5604 13.9828 19.4402 13.7643 19.2872 13.6222L19.0249 13.349H14.0966H9.16826L8.906 13.6222Z" fill="black"/>
<path d="M8.906 18.4308C8.75302 18.5729 8.63281 18.7914 8.63281 18.9226C8.63281 19.0428 8.75302 19.2723 8.906 19.4143L9.16826 19.6875H14.0966H19.0249L19.2872 19.4143C19.4402 19.2723 19.5604 19.0537 19.5604 18.9226C19.5604 18.7914 19.4402 18.5729 19.2872 18.4308L19.0249 18.1576H14.0966H9.16826L8.906 18.4308Z" fill="black"/>
<path d="M11.1452 0.235468C10.8611 0.519584 10.872 0.792774 11.1561 1.15338L11.3747 1.4375H14.0956H16.8166L17.0352 1.15338C17.3193 0.792774 17.3302 0.519584 17.0461 0.235468C16.8385 0.027844 16.6855 0.0169164 14.0956 0.0169164C11.5058 0.0169164 11.3528 0.027844 11.1452 0.235468Z" fill="black"/>
</svg>
