<svg width="150" height="18" viewBox="0 0 150 18" fill="none" xmlns="http://www.w3.org/2000/svg">
<path d="M143.904 9.48039C144.24 8.44808 143.411 7.97854 143.121 8.17517C142.86 8.33959 142.888 8.66166 143.045 8.66675C143.204 8.67183 143.131 8.62945 143.131 8.62945C143.131 8.62945 143.09 8.3701 143.376 8.37519C143.663 8.38028 144.106 9.05831 143.365 9.96349C142.623 10.8687 141.974 10.3313 141.918 10.2466C141.86 10.1601 141.67 9.88383 141.895 9.4092C142.014 9.28715 141.761 9.21935 141.554 9.44988C141.345 9.68041 141.023 10.2771 141.448 10.3991C141.594 10.2652 141.948 10.5873 141.698 10.8924C141.448 11.1975 140.21 11.7349 139.088 10.511C137.966 9.28715 139.584 6.97674 140.331 7.61748C140.562 7.66664 140.063 6.68009 139.159 7.76326C138.854 8.13449 138.576 8.69556 138.576 8.69556C138.576 8.69556 138.272 8.40909 138.383 7.82089C138.399 7.72766 138.427 7.62596 138.469 7.51578C138.561 7.27507 138.72 6.99538 138.975 6.6767C140.073 5.31385 141.875 4.90872 143.368 6.19021C144.861 7.4717 144.768 9.48717 143.32 11.2569C143.32 11.2569 141.054 12.9486 139.192 11.2975C137.313 9.62956 138.379 7.48357 138.379 7.48357" stroke="#BC9C61" stroke-width="0.5"/>
<path d="M139.102 11.2578C139.102 11.2578 137.178 11.9409 137.799 13.8784C138.357 14.9599 138.233 13.6513 138.915 13.4224C139.597 13.1936 139.721 13.8208 139.226 14.0496C138.729 14.2768 137.675 15.4159 141.086 17.2398H141.33C144.739 15.4159 143.686 14.2768 143.19 14.0496C142.693 13.8208 142.818 13.1953 143.499 13.4224C144.181 13.6496 144.057 14.9599 144.615 13.8784C145.236 11.9409 143.312 11.2578 143.312 11.2578" stroke="#BC9C61" stroke-width="0.5" stroke-linecap="round" stroke-linejoin="round"/>
<path d="M139.102 6.22418C139.102 6.22418 137.178 5.54106 137.799 3.60356C138.357 2.52209 138.233 3.83071 138.915 4.05954C139.597 4.28838 139.721 3.6612 139.226 3.43236C138.729 3.20522 137.675 2.06611 141.086 0.242188H141.33C144.739 2.06611 143.686 3.20522 143.19 3.43236C142.693 3.6612 142.818 4.28669 143.499 4.05954C144.181 3.8324 144.057 2.52209 144.615 3.60356C145.236 5.54106 143.312 6.22418 143.312 6.22418" stroke="#BC9C61" stroke-width="0.5" stroke-linecap="round" stroke-linejoin="round"/>
<path d="M143.75 6.61273C143.75 6.61273 144.417 4.64303 146.309 5.27869C147.365 5.84993 146.087 5.7228 145.864 6.42118C145.64 7.11956 146.253 7.24669 146.476 6.73816C146.698 6.22964 147.812 5.14986 149.591 8.64345V8.89263C147.812 12.3845 146.698 11.3064 146.476 10.7979C146.254 10.2894 145.642 10.4165 145.864 11.1149C146.085 11.8133 147.365 11.6862 146.309 12.2574C144.417 12.8931 143.75 10.9234 143.75 10.9234" stroke="#BC9C61" stroke-width="0.5" stroke-linecap="round" stroke-linejoin="round"/>
<path d="M138.751 6.61273C138.751 6.61273 138.084 4.64303 136.192 5.27869C135.136 5.84993 136.414 5.7228 136.638 6.42118C136.861 7.11956 136.249 7.24669 136.025 6.73816C135.803 6.22964 134.689 5.14986 132.91 8.64345V8.89263C134.689 12.3845 135.803 11.3064 136.025 10.7979C136.247 10.2894 136.859 10.4165 136.638 11.1149C136.416 11.8133 135.136 11.6862 136.192 12.2574C138.084 12.8931 138.751 10.9234 138.751 10.9234" stroke="#BC9C61" stroke-width="0.5" stroke-linecap="round" stroke-linejoin="round"/>
<line x1="0.410156" y1="8.74219" x2="132.41" y2="8.74219" stroke="#BC9C61"/>
</svg>
