<svg width="150" height="18" viewBox="0 0 150 18" fill="none" xmlns="http://www.w3.org/2000/svg">
<path d="M11.581 9.48039C11.9168 8.44808 11.088 7.97854 10.7985 8.17517C10.5371 8.33959 10.5653 8.66166 10.7224 8.66675C10.8812 8.67183 10.8084 8.62945 10.8084 8.62945C10.8084 8.62945 10.7671 8.3701 11.0533 8.37519C11.3395 8.38028 11.7828 9.05831 11.0417 9.96349C10.3006 10.8687 9.65207 10.3313 9.59582 10.2466C9.53792 10.1601 9.34767 9.88383 9.57266 9.4092C9.69177 9.28715 9.43866 9.21935 9.23187 9.44988C9.02342 9.68041 8.70083 10.2771 9.12599 10.3991C9.27157 10.2652 9.6256 10.5873 9.37579 10.8924C9.12599 11.1975 7.88855 11.7349 6.76691 10.511C5.64528 9.28715 7.26321 6.97674 8.00932 7.61748C8.24092 7.66664 7.74131 6.68009 6.83805 7.76326C6.53365 8.13449 6.25572 8.69556 6.25572 8.69556C6.25572 8.69556 5.95133 8.40909 6.06217 7.82089C6.07871 7.72766 6.10683 7.62596 6.14819 7.51578C6.24084 7.27507 6.39965 6.99538 6.65442 6.6767C7.75124 5.31385 9.55281 4.90872 11.045 6.19021C12.5372 7.4717 12.4446 9.48717 10.997 11.2569C10.997 11.2569 8.73226 12.9486 6.87114 11.2975C4.99347 9.62956 6.05886 7.48357 6.05886 7.48357" stroke="#BC9C61" stroke-width="0.5"/>
<path d="M6.78073 11.2578C6.78073 11.2578 4.8584 11.9409 5.47877 13.8784C6.03628 14.9599 5.91221 13.6513 6.59379 13.4224C7.27538 13.1936 7.39945 13.8208 6.90481 14.0496C6.40851 14.2768 5.3547 15.4159 8.76428 17.2398H9.00746C12.4154 15.4159 11.3632 14.2768 10.8669 14.0496C10.3706 13.8208 10.4947 13.1953 11.1763 13.4224C11.8579 13.6496 11.7338 14.9599 12.2913 13.8784C12.9117 11.9409 10.9894 11.2578 10.9894 11.2578" stroke="#BC9C61" stroke-width="0.5" stroke-linecap="round" stroke-linejoin="round"/>
<path d="M6.78073 6.22418C6.78073 6.22418 4.8584 5.54106 5.47877 3.60356C6.03628 2.52209 5.91221 3.83071 6.59379 4.05954C7.27538 4.28838 7.39945 3.6612 6.90481 3.43236C6.40851 3.20522 5.3547 2.06611 8.76428 0.242188H9.00746C12.4154 2.06611 11.3632 3.20522 10.8669 3.43236C10.3706 3.6612 10.4947 4.28669 11.1763 4.05954C11.8579 3.8324 11.7338 2.52209 12.2913 3.60356C12.9117 5.54106 10.9894 6.22418 10.9894 6.22418" stroke="#BC9C61" stroke-width="0.5" stroke-linecap="round" stroke-linejoin="round"/>
<path d="M11.4258 6.61273C11.4258 6.61273 12.0925 4.64303 13.9834 5.27869C15.0388 5.84993 13.7617 5.7228 13.5384 6.42118C13.315 7.11956 13.9271 7.24669 14.1505 6.73816C14.3721 6.22964 15.4855 5.14986 17.2639 8.64345V8.89263C15.4855 12.3845 14.3721 11.3064 14.1505 10.7979C13.9288 10.2894 13.3167 10.4165 13.5384 11.1149C13.76 11.8133 15.0388 11.6862 13.9834 12.2574C12.0925 12.8931 11.4258 10.9234 11.4258 10.9234" stroke="#BC9C61" stroke-width="0.5" stroke-linecap="round" stroke-linejoin="round"/>
<path d="M6.42798 6.61273C6.42798 6.61273 5.76129 4.64303 3.87038 5.27869C2.81492 5.84993 4.09206 5.7228 4.3154 6.42118C4.53873 7.11956 3.92663 7.24669 3.7033 6.73816C3.48162 6.22964 2.36825 5.14986 0.589844 8.64345V8.89263C2.36825 12.3845 3.48162 11.3064 3.7033 10.7979C3.92498 10.2894 4.53708 10.4165 4.3154 11.1149C4.09372 11.8133 2.81492 11.6862 3.87038 12.2574C5.76129 12.8931 6.42798 10.9234 6.42798 10.9234" stroke="#BC9C61" stroke-width="0.5" stroke-linecap="round" stroke-linejoin="round"/>
<line x1="17.5898" y1="8.74219" x2="149.59" y2="8.74219" stroke="#D7AD45"/>
</svg>
