<svg width="34" height="34" viewBox="0 0 34 34" fill="none" xmlns="http://www.w3.org/2000/svg">
<path d="M11.0211 18.6041C10.6329 18.306 10.0849 18.3903 9.79711 18.7925C9.50934 19.1946 9.59078 19.7621 9.97901 20.0601C11.1135 20.9311 12.5009 21.4467 14.0001 21.4467C15.4992 21.4467 16.8866 20.9311 18.0211 20.0601C18.4094 19.7621 18.4908 19.1946 18.203 18.7925C17.9153 18.3903 17.3673 18.306 16.979 18.6041C16.1292 19.2563 15.1036 19.6342 14.0001 19.6342C12.8965 19.6342 11.8709 19.2563 11.0211 18.6041Z" fill="#000"/>
<path fill-rule="evenodd" clip-rule="evenodd" d="M13.9999 1.51172C13.1738 1.51172 12.4232 1.75679 11.6089 2.16693C10.8217 2.56339 9.91241 3.14791 8.77659 3.87802L6.36558 5.42781C5.29086 6.11862 4.43027 6.67179 3.76697 7.19791C3.08009 7.74272 2.55253 8.29759 2.17145 9.01865C1.79116 9.7382 1.61992 10.5038 1.53781 11.4088C1.45824 12.2858 1.45824 13.3583 1.45825 14.7033V16.652C1.45824 18.9524 1.45823 20.7684 1.6364 22.1882C1.81918 23.6448 2.20324 24.8206 3.07101 25.7502C3.94276 26.6842 5.05212 27.1014 6.42546 27.2992C7.75649 27.4909 9.45641 27.4909 11.5987 27.4909H16.401C18.5434 27.4909 20.2433 27.4909 21.5744 27.2992C22.9477 27.1014 24.0571 26.6842 24.9288 25.7502C25.7966 24.8206 26.1806 23.6448 26.3634 22.1882C26.5416 20.7684 26.5416 18.9526 26.5416 16.652V14.7033C26.5416 13.3583 26.5416 12.2858 26.462 11.4088C26.3799 10.5038 26.2086 9.7382 25.8284 9.01865C25.4474 8.29759 24.9198 7.74272 24.2329 7.19791C23.5696 6.67179 22.709 6.11863 21.6342 5.42782L19.2232 3.87801C18.0875 3.14791 17.178 2.56338 16.3909 2.16693C15.5767 1.75679 14.826 1.51172 13.9999 1.51172ZM9.65937 5.44378C10.8444 4.68203 11.6777 4.14773 12.3742 3.79692C13.0528 3.45512 13.5335 3.32422 13.9999 3.32422C14.4664 3.32422 14.947 3.45512 15.6257 3.79691C16.3222 4.14773 17.1554 4.68203 18.3405 5.44378L20.6738 6.94362C21.7948 7.66418 22.5818 8.17127 23.1689 8.6369C23.7401 9.08995 24.0686 9.46383 24.2933 9.88891C24.5188 10.3155 24.6504 10.8143 24.7197 11.5784C24.7907 12.3609 24.7916 13.3483 24.7916 14.7477V16.5857C24.7916 18.9672 24.7898 20.6653 24.628 21.9547C24.4691 23.221 24.1698 23.9558 23.6707 24.4905C23.1756 25.0208 22.5015 25.3357 21.3334 25.504C20.1368 25.6763 18.5587 25.6784 16.3333 25.6784H11.6666C9.44113 25.6784 7.86305 25.6763 6.66651 25.504C5.49826 25.3357 4.82425 25.0208 4.32917 24.4905C3.8301 23.9558 3.53074 23.221 3.37181 21.9547C3.20999 20.6653 3.20825 18.9672 3.20825 16.5857V14.7477C3.20825 13.3483 3.20914 12.3609 3.28013 11.5784C3.34945 10.8143 3.48108 10.3155 3.70652 9.88891C3.93118 9.46383 4.2598 9.08995 4.83099 8.6369C5.41804 8.17127 6.20506 7.66418 7.32604 6.94362L9.65937 5.44378Z" fill="#000"/>
</svg>
