<svg width="308" height="304" viewBox="0 0 308 304" fill="none" xmlns="http://www.w3.org/2000/svg">
<g clip-path="url(#clip0_4116_47018)">
<path d="M67.6121 133.109C68.0483 134.189 68.5543 135.217 68.8858 136.315C70.0025 140.182 71.5728 143.388 76.4408 143.266C81.2216 143.144 85.601 140.008 86.9794 135.548C89.7362 126.506 84.8333 117.97 75.6208 115.409C65.8499 112.708 57.2131 115.618 49.0997 120.618C39.5033 126.524 32.6637 135.2 26.2428 144.242C17.0826 157.151 10.8188 171.472 5.39243 186.211C4.55492 188.51 3.64763 190.793 1.83303 192.883C-0.696932 170.479 3.10674 148.998 9.71954 127.674C16.3847 106.228 28.6158 88.0219 42.2078 69.4503C36.8512 65.0252 31.5121 61.1401 26.8012 56.5931C18.8972 48.9449 10.9758 41.2445 3.857 32.8821C-1.4123 26.6974 -1.09824 24.7462 3.80466 18.2653C13.5407 5.44293 25.6845 -4.92299 38.282 -14.8185C39.8523 -16.038 41.3528 -17.3273 43.307 -18.9301C13.593 -54.8362 -1.02844 -95.4462 3.52549 -142.345C4.3281 -140.412 5.27029 -138.513 5.91587 -136.509C12.424 -116.405 21.9855 -97.8678 35.9963 -82.0141C45.1914 -71.6133 55.9917 -63.3031 71.1715 -63.9826C83.1758 -64.5227 88.0263 -69.575 87.6948 -81.474C87.5029 -88.1117 84.3099 -91.7702 77.9413 -92.6587C73.5444 -93.2685 72.0788 -91.8225 69.7757 -84.6622C69.6012 -84.1221 69.2697 -83.6169 68.816 -82.7109C62.8313 -79.4356 56.8292 -80.7248 50.9318 -83.8085C39.5906 -89.7144 30.6746 -98.5298 23.3639 -108.722C9.28334 -128.338 1.90282 -150.359 1.83303 -174.61C1.78069 -197.259 1.79814 -219.907 1.86793 -242.555C1.86793 -245.656 2.28668 -248.74 2.56585 -252.52C6.38697 -252.904 9.47527 -253.479 12.5461 -253.496C33.4838 -253.566 54.4388 -253.949 75.359 -253.426C104.689 -252.695 131.542 -244.21 153.753 -224.454C160.139 -218.774 165.164 -211.335 169.823 -204.088C173.242 -198.757 174.865 -192.363 171.794 -185.638C170.782 -185.203 169.77 -184.506 168.689 -184.384C164.955 -183.914 161.797 -182.938 161.483 -178.408C161.151 -173.513 163.855 -168.635 168.357 -167.433C180.937 -164.07 189.138 -170.673 190.202 -181.718C191.511 -195.429 184.845 -205.83 175.86 -214.942C163.454 -227.52 148.484 -236.405 132.205 -243.095C125.313 -245.935 118.299 -248.496 110.901 -251.353C120.829 -255.796 153.142 -251.998 176.645 -244.367C197.914 -237.451 216.775 -226.336 234.851 -211.684C239.248 -216.963 243.139 -222.294 247.693 -226.963C255.562 -235.064 263.466 -243.182 272.068 -250.465C278.105 -255.587 281.281 -254.89 287.632 -250.081C298.833 -241.597 308.22 -231.37 316.683 -220.22C318.899 -217.311 321.551 -214.715 324.36 -211.597C360.617 -241.597 401.585 -254.977 448.154 -251.231C446.182 -250.308 444.298 -249.106 442.221 -248.513C422.68 -242.851 405.092 -233.496 389.389 -220.673C380.979 -213.809 373.947 -205.726 370.423 -195.133C368.434 -189.175 368.102 -183.182 370.074 -177.206C372.918 -168.53 382.968 -163.792 391.308 -167.328C395.391 -169.053 397.38 -172.624 397.764 -176.962C398.095 -180.743 395.757 -182.799 392.582 -184.175C390.994 -184.854 389.406 -185.516 388.098 -186.057C384.905 -190.377 385.759 -194.558 387.068 -198.844C390.436 -209.837 397.833 -218.008 406.191 -225.308C421.877 -239.001 440.302 -247.294 460.716 -250.918C468.969 -252.381 477.414 -253.287 485.789 -253.444C505.558 -253.81 525.344 -253.635 545.112 -253.513C548.759 -253.496 552.388 -252.729 556.698 -252.242C556.925 -248.235 557.256 -245.116 557.274 -242.015C557.326 -219.942 557.361 -197.886 557.274 -175.813C557.169 -146.126 547.189 -120.08 527.246 -98.1291C520.825 -91.0559 513.182 -84.9061 503.621 -82.3451C499.625 -81.2823 495.281 -81.4914 491.32 -81.143C490.256 -83.2684 489.61 -84.2266 489.244 -85.2893C487.185 -91.3869 485.266 -93.2685 481.444 -92.7807C475.966 -92.1012 471.848 -87.8503 471.464 -82.5019C470.644 -70.8119 476.385 -64.5575 488.11 -64C504.476 -63.2335 515.398 -72.7805 524.855 -84.0698C538.412 -100.272 548.009 -118.756 553.889 -139.105C554.185 -140.15 554.883 -141.091 555.529 -142.345C559.716 -130.255 556.68 -100.533 548.846 -76.9269C541.832 -55.777 530.596 -36.9267 515.294 -18.0938C517.387 -16.8568 519.359 -16.1077 520.825 -14.8011C531.136 -5.48047 541.361 3.92725 551.533 13.3872C552.999 14.7461 554.203 16.4535 555.354 18.1259C560.24 25.234 560.205 26.5755 555.093 33.5267C546.055 45.8264 534.225 55.269 522.552 64.851C520.79 66.297 519.045 67.743 516.742 69.6594C546.159 105.705 560.414 146.472 556.907 193.145C556.209 191.855 555.302 190.636 554.848 189.277C548.532 170.427 540.366 152.465 527.438 137.186C522.238 131.053 516.061 125.635 509.763 120.583C503.673 115.688 496.031 114.329 488.371 114.468C477.484 114.66 470.522 122.935 471.796 133.423C472.302 137.569 474.361 140.409 478.094 142.134C484.009 144.869 487.83 143.109 489.907 136.698C490.256 135.635 490.517 134.538 490.727 133.789C494.984 130.409 499.224 131.088 503.516 132.395C513.584 135.479 521.592 141.855 528.467 149.346C544.868 167.186 554.273 188.493 557.169 212.483C558.251 221.368 558.53 230.392 558.635 239.347C558.844 256.769 558.739 274.19 558.635 291.612C558.635 294.696 558.111 297.797 557.762 301.542C554.622 301.908 552.126 302.448 549.614 302.448C525.483 302.501 501.335 302.727 477.205 302.379C448.677 301.978 423.866 291.56 403.016 272.378C396.263 266.159 390.226 258.842 387.295 249.678C385.742 244.835 384.817 240.096 388.08 235.653C388.691 235.305 389.162 234.922 389.703 234.748C396.455 232.674 398.182 230.932 397.746 226.612C397.24 221.629 392.46 217.117 387.33 216.786C376.25 216.054 369.672 221.786 368.992 232.918C368.137 246.925 375.186 257.483 384.765 266.42C395.862 276.769 408.424 285.201 422.505 291.107C429.449 294.016 436.638 296.333 443.704 298.981C444.961 299.452 446.077 300.236 447.037 301.403C400.52 305.863 360.355 290.636 324.081 261.49C317.991 268.65 312.478 275.671 306.388 282.117C300.439 288.424 294.175 294.504 287.527 300.062C280.949 305.567 278.157 305.096 271.335 299.992C261.006 292.257 252.474 282.831 244.605 272.709C241.953 269.295 239.039 266.089 235.759 262.222C233.281 263.72 231.013 264.852 229.041 266.351C203.811 285.654 175.528 297.866 144 301.751C133.548 303.041 122.818 301.96 111.948 300.636C113.989 299.87 115.995 298.964 118.089 298.337C137.561 292.501 155.097 282.849 170.625 269.957C179.594 262.518 187.323 253.668 189.469 241.49C189.975 238.65 190.307 235.723 190.15 232.849C189.452 220.845 183.188 215.601 171.253 216.768C166.281 217.256 162.617 220.462 161.552 225.305C160.61 229.538 162.058 232.152 166.42 234.12C173.068 237.117 174.516 239.817 172.684 246.943C169.735 258.406 162.39 267.274 153.805 274.608C132.065 293.18 106.783 302.814 77.8715 302.553C53.1826 302.326 28.4762 302.501 2.60075 302.501C1.93772 299.852 0.594222 296.943 0.576774 294.051C0.419742 270.532 -0.295628 246.978 0.751254 223.511C1.99006 195.462 11.7261 170.183 30.8491 149.207C37.4794 141.925 45.139 135.531 54.9797 132.604C58.9404 131.419 62.8488 130.409 67.647 133.109H67.6121ZM243.227 -80.8468C250.659 -82.3625 257.167 -83.913 263.728 -84.9583C267.375 -85.5332 269.381 -87.2754 270.568 -90.6552C274.947 -103.094 276.954 -116.091 277.058 -129.088C277.18 -145.638 272.016 -160.969 262.419 -174.767C238.603 -209.018 206.498 -231.597 166.473 -242.991C156.196 -245.918 145.744 -248.269 132.763 -248.095C138.87 -244.924 143.18 -242.729 147.472 -240.465C160.122 -233.74 171.899 -225.813 181.478 -215.029C189.399 -206.109 194.808 -196.196 194.337 -183.67C193.796 -168.583 183.484 -160.011 168.811 -162.955C162.809 -164.157 158.15 -169.332 157.365 -175.691C156.545 -182.328 158.255 -185.22 165.024 -188.565C166.298 -189.192 167.554 -189.837 168.88 -190.499C168.828 -199.802 164.449 -206.806 158.726 -213.182C138.207 -235.987 112.262 -247.468 81.7625 -248.269C59.0975 -248.862 36.3976 -248.461 13.7151 -248.426C11.2375 -248.426 8.77735 -247.904 5.84608 -247.573C5.84608 -243.809 5.84608 -240.917 5.84608 -238.043C5.84608 -217.712 5.95077 -197.398 5.81118 -177.067C5.72394 -163.251 8.23646 -149.941 12.9998 -137.049C19.9092 -118.391 30.8317 -102.572 47.1979 -90.8817C52.1706 -87.3277 57.5795 -84.6622 64.1923 -85.4984C65.3613 -87.7458 66.3907 -89.8016 67.49 -91.8051C69.7233 -95.8643 73.3525 -97.2929 77.7494 -96.927C85.3916 -96.2999 91.8998 -90.6727 92.3011 -83.1116C92.8769 -72.467 89.1255 -61.4913 74.1551 -60.1324C63.9131 -59.209 54.6133 -61.439 46.1336 -67.4321C32.0007 -77.4321 22.4566 -91.1779 14.2037 -105.986C11.4818 -110.882 9.28334 -116.074 6.84062 -121.126C7.22447 -100.342 12.1972 -80.7597 20.6595 -62.1533C32.2973 -36.6305 49.4662 -15.3063 71.3634 2.25476C94.6391 20.9134 120.689 27.2375 149.792 19.8856C155.637 18.4047 161.43 16.7496 167.345 15.1469C169.352 6.24435 171.184 -1.89162 173.155 -10.707C169.439 -12.0659 166.298 -13.4422 163.018 -14.3481C152.619 -17.2227 144.192 -23.0764 136.706 -30.6897C127.092 -40.4807 120.706 -52.0836 117.287 -65.2021C112.017 -85.4113 106.975 -105.673 102.159 -125.986C99.8386 -135.777 98.1985 -145.725 96.4014 -154.924C99.2454 -158.687 102.002 -157.816 104.933 -157.154C119.38 -153.896 133.915 -151.091 148.274 -147.52C165.461 -143.251 182.839 -139.366 199.484 -133.46C217.683 -126.997 231.1 -114.296 238.236 -95.8643C240.103 -91.0385 241.517 -86.0385 243.227 -80.812V-80.8468ZM315.758 -80.9165C316.404 -82.2928 317.084 -83.2858 317.328 -84.3834C323.487 -111.248 340.325 -128.617 366.375 -135.83C396.281 -144.105 426.675 -150.621 456.878 -157.781C458.343 -158.13 460.106 -157.241 462.444 -156.788C462.287 -154.175 462.356 -151.945 461.972 -149.785C461.275 -145.795 460.367 -141.823 459.425 -137.885C453.44 -113.077 448.101 -88.0942 441.209 -63.547C434.666 -40.2891 420.499 -22.8848 396.944 -14.4527C393.192 -13.1112 389.336 -12.1007 385.655 -10.9683C387.888 -1.87418 389.947 6.50568 392.163 15.5824C398.776 17.2375 405.162 18.9796 411.617 20.4082C434.736 25.4953 456.895 23.0737 476.699 9.60672C487.202 2.46381 497.375 -5.58499 506.151 -14.714C525.745 -35.0974 539.808 -58.9825 547.276 -86.474C550.329 -97.7284 552.737 -109.105 552.493 -120.899C551.306 -119.471 550.661 -117.903 549.945 -116.37C542.321 -99.9062 532.794 -84.697 519.324 -72.345C509.745 -63.5645 498.561 -58.7386 485.143 -60.0627C471.377 -61.4216 462.775 -74.6098 467.748 -87.136C470.121 -93.1117 474.797 -96.2302 481.043 -96.9096C487.133 -97.5716 490.954 -94.5925 493.03 -89.0002C493.519 -87.6935 494.461 -86.5611 495.228 -85.2893C504.842 -85.4461 512.013 -90.0455 518.574 -96.0211C541.623 -116.979 552.214 -143.6 553.138 -174.14C553.801 -196.179 553.295 -218.269 553.243 -240.325C553.243 -242.816 552.807 -245.308 552.58 -247.886C550.05 -248.147 548.34 -248.461 546.63 -248.461C522.5 -248.426 498.334 -249.21 474.256 -248.095C444.245 -246.701 418.614 -234.855 398.968 -211.544C394.082 -205.743 390.104 -199.367 390.488 -191.004C392.006 -190.081 393.454 -189.175 394.92 -188.304C400.538 -185.046 402.544 -181.3 401.777 -175.586C400.939 -169.523 395.932 -163.757 390.121 -163.008C374.889 -161.039 366.113 -166.701 364.874 -182.851C363.915 -195.307 369.149 -205.464 377.123 -214.402C387.696 -226.283 400.695 -234.959 414.793 -242.12C418.073 -243.792 421.353 -245.482 424.634 -247.154C411.722 -247.59 399.526 -245.325 387.609 -241.562C353.079 -230.691 324.534 -210.97 302.306 -182.52C294.088 -171.997 287.283 -160.534 284.334 -147.102C280.042 -127.467 283.217 -108.547 289.08 -89.8538C289.691 -87.8852 292.482 -85.812 294.628 -85.2371C301.328 -83.4775 308.22 -82.4148 315.758 -80.9339V-80.9165ZM495.7 136.158C494.67 138.005 493.867 139.224 493.292 140.513C491.198 145.357 487.656 147.691 482.317 147.238C476.402 146.75 471.447 144.172 468.812 138.998C463.508 128.614 470.068 114.973 481.287 111.663C492.454 108.353 502.591 110.844 512.013 116.924C523.198 124.154 531.66 134.12 538.639 145.235C543.839 153.545 548.218 162.36 552.964 170.949C552.859 162.883 552.249 154.834 550.539 147.029C543.786 116.297 529.217 89.5027 508.053 66.3492C496.834 54.0844 484.149 43.248 469.126 35.9483C444.908 24.1713 420.045 26.7845 395.338 34.694C393.437 35.3038 391.116 37.4292 390.662 39.2585C388.865 46.4536 387.731 53.823 386.335 61.2621C387.906 62.0113 388.865 62.6732 389.947 62.9346C418.963 70.0078 435.678 89.5375 443.041 117.238C450.178 144.102 455.97 171.315 462.164 198.423C462.81 201.263 462.252 204.382 462.252 208.284C458.675 207.761 456.145 207.517 453.667 206.995C444.577 205.078 435.469 203.284 426.448 201.071C405.319 195.862 383.91 191.507 363.252 184.782C340.43 177.36 324.796 161.541 318.044 137.9C317.45 135.792 316.561 133.771 315.671 131.332C306.58 133.405 298.205 135.322 290.057 137.186C289.237 139.259 288.644 140.583 288.225 141.942C287.387 144.712 286.55 147.5 285.887 150.304C280.792 171.96 280.129 193.336 290.266 213.911C296.617 226.803 305.708 237.849 315.775 247.883C338.859 270.915 366.218 286.856 398.113 294.33C407.046 296.42 416.154 298.563 427.251 298.145C421.912 295.549 418.213 293.894 414.636 291.995C401.271 284.852 388.516 276.786 378.187 265.514C370.126 256.716 364.543 246.89 364.822 234.399C365.171 218.615 373.511 211.124 389.424 212.814C395.443 213.458 400.346 218.197 401.637 224.626C402.928 231.037 400.643 235.322 394.222 238.545C392.966 239.173 391.674 239.765 390.261 240.444C390.331 249.713 394.623 256.716 400.363 263.093C421.162 286.142 447.473 297.466 478.199 298.302C500.847 298.929 523.529 298.476 546.212 298.424C548.427 298.424 550.643 297.884 553.034 297.588C553.278 295.009 553.644 293.023 553.644 291.055C553.644 267.553 554.185 244.016 553.383 220.549C552.353 190.061 540.018 164.486 516.759 144.468C510.984 139.503 504.458 135.879 495.752 136.158H495.7ZM173.068 61.4712C171.829 55.7917 169.91 50.5303 169.735 45.2167C169.491 37.6208 165.513 34.5895 158.883 32.8125C145.849 29.3281 132.676 28.0389 119.206 28.4744C107.568 28.8577 96.8376 31.9065 86.9271 37.7951C48.8904 60.3562 24.6725 93.6665 11.6912 135.426C8.27135 146.454 5.37498 157.726 5.95077 169.573C6.5091 169.434 6.9453 169.451 7.03255 169.277C8.30625 167.012 9.57996 164.747 10.7315 162.43C18.0423 147.778 26.7139 134.12 39.0148 123.057C48.4716 114.555 59.2022 109.363 72.2184 110.356C85.9849 111.402 93.9761 121.367 90.8878 136.803C89.7711 142.36 84.2575 146.402 78.1682 147.169C72.2707 147.9 67.9785 145.792 65.3788 140.357C64.7855 139.102 63.9655 137.935 63.1454 136.559C54.4039 135.844 47.7737 139.956 41.7541 145.095C18.5831 164.904 6.9453 190.514 5.81118 220.584C4.93878 244.068 5.53201 267.605 5.53201 291.124C5.53201 293.319 6.1078 295.514 6.42186 297.866C8.74245 298.11 10.4524 298.424 12.1448 298.424C35.9963 298.424 59.8652 299.173 83.6643 298.163C113.675 296.891 139.446 285.288 159.406 262.309C164.728 256.176 168.95 249.295 168.846 240.322C167.362 239.66 166.089 238.998 164.763 238.511C159.493 236.542 156.806 232.936 157.243 227.187C157.714 220.88 160.505 215.845 166.333 213.423C179.471 207.988 192.976 216.542 194.232 230.723C195.087 240.357 193.29 249.521 187.393 257.1C182.106 263.911 176.331 270.793 169.456 275.845C158.098 284.19 145.657 291.072 134.578 298.006C147.245 298.598 166.63 293.65 181.548 287.988C208.645 277.727 231.501 261.455 250.799 239.66C269.887 218.092 280.443 194.225 275.942 164.991C274.476 155.548 273.185 146.088 268.421 136.977C260.134 135.148 251.793 133.318 243.645 131.524C242.703 133.092 242.04 133.789 241.866 134.573C235.445 163.127 216.444 179.695 189.347 187.012C160.505 194.8 131.245 201.002 102.124 207.796C100.606 208.145 98.8441 207.517 96.3316 207.239C96.4711 204.277 96.192 201.699 96.7678 199.329C103.921 169.747 110.587 140.043 118.648 110.705C125.068 87.2901 140.824 71.8022 164.152 64.2935C166.857 63.4224 169.561 62.5688 173.085 61.4538L173.068 61.4712ZM279.885 132.743C339.906 131.506 386.614 86.1403 386.981 25.8438C387.347 -32.6409 342.087 -82.7109 277.477 -81.8573C219.393 -81.0907 173.504 -36.735 172.248 23.0214C170.922 86.0358 220.37 132.099 279.885 132.743ZM101.985 -152.833C102.281 -149.244 102.212 -147.241 102.63 -145.342C105.911 -130.342 109.016 -115.29 112.715 -100.377C116.275 -86.0385 119.625 -71.5436 124.615 -57.6759C133.007 -34.296 149.949 -20.2541 175.423 -15.707C177.343 -19.8011 179.14 -23.6339 181.094 -27.85C162.547 -34.9754 149.443 -47.5539 142.988 -65.5331C136.445 -83.7737 131.769 -102.676 126.429 -121.352C125.854 -123.338 126.36 -125.638 126.36 -128.007C129.518 -128.007 131.629 -128.46 133.461 -127.938C151.589 -122.781 169.997 -118.321 187.689 -111.927C204.928 -105.708 218.136 -94.0699 224.906 -76.3172C225.29 -75.3241 226.11 -74.5053 226.825 -73.46C228.989 -74.3485 230.891 -75.0628 232.723 -75.899C234.747 -76.8398 236.718 -77.9025 238.742 -78.9304C233.543 -108.112 215.728 -125.185 188.719 -132.798C165.269 -139.401 141.417 -144.575 117.705 -150.255C112.994 -151.387 108.126 -151.84 101.985 -152.816V-152.833ZM457.698 -152.119C454.26 -152.119 452.202 -152.502 450.335 -152.067C422.68 -145.464 394.78 -139.715 367.509 -131.788C343.361 -124.767 326.82 -108.826 321.429 -83.2162C321.115 -81.683 321.394 -80.028 321.394 -78.46C325.319 -76.6482 328.722 -75.0976 331.915 -73.6168C332.508 -74.0523 332.805 -74.1743 332.927 -74.4008C333.346 -75.1499 333.712 -75.9339 334.061 -76.7353C341.093 -93.0246 352.905 -105.011 369.323 -111.021C387.539 -117.676 406.418 -122.537 425.052 -127.973C427.321 -128.635 429.938 -128.06 433.044 -128.06C432.764 -125.028 432.747 -123.06 432.398 -121.161C429.013 -102.258 423.168 -84.0698 416.398 -66.1429C412.054 -54.6445 405.057 -45.1846 395.565 -37.7106C390.418 -33.6688 384.364 -30.7594 378.449 -27.1879C379.757 -24.1391 381.083 -20.951 382.514 -17.7976C382.863 -17.0485 383.578 -16.4736 384.364 -15.5154C410.885 -20.951 428.699 -36.5085 436.306 -62.3624C442.849 -84.5925 447.874 -107.258 453.371 -129.767C455.08 -136.753 456.11 -143.896 457.68 -152.154L457.698 -152.119ZM320.748 129.294C322.022 134.433 322.633 139.033 324.29 143.231C332.857 164.939 349.677 177.395 371.557 183.249C392.285 188.789 413.205 193.615 434.09 198.563C442.047 200.444 450.143 201.821 459.565 203.719C452.184 173.388 445.327 144.677 438.156 116.036C434.614 101.872 427.024 89.9034 415.979 80.4086C406.819 72.5339 396.193 67.7256 383.561 66.9764C381.607 70.9834 379.897 74.4677 378.204 77.9521C379.722 78.9103 380.403 79.5027 381.188 79.7988C396.054 85.4086 406.784 95.6351 413.607 109.729C423.133 129.398 428.751 150.392 433.305 171.681C433.707 173.528 433.358 175.531 433.358 178.528C429.694 178.266 426.501 178.545 423.639 177.726C406.627 172.866 389.493 168.336 372.796 162.552C355.697 156.629 342.75 145.304 334.898 128.649C334.201 127.168 332.979 125.931 331.653 124.102C328.268 125.705 325.197 127.168 320.748 129.276V129.294ZM100.065 203.493C102.299 203.145 103.381 203.04 104.445 202.779C134.63 195.549 165.129 189.364 194.895 180.688C215.397 174.712 229.739 160.217 236.23 139.189C237.207 136.019 237.312 132.587 237.87 128.911C233.787 127.116 230.489 125.67 226.878 124.102C225.203 127.203 223.946 129.451 222.76 131.733C215.763 145.148 205.312 155.305 191.231 160.374C172.981 166.96 154.207 172.134 135.59 177.691C132.798 178.528 129.605 178.057 125.627 178.231C125.976 173.911 125.697 170.653 126.569 167.744C131.664 150.531 136.741 133.301 142.429 116.262C145.186 107.987 150.246 100.897 156.248 94.3285C163.088 86.8372 171.55 82.1333 181.059 77.9173C179.088 74.0497 177.29 70.513 175.371 66.7674C172.196 67.1332 169.526 67.081 167.101 67.7953C147.856 73.4399 133.391 85.2344 126.028 103.788C120.619 117.447 117.13 131.925 113.483 146.228C108.72 164.939 104.654 183.824 100.1 203.476L100.065 203.493ZM375.273 -32.1531C378.239 -33.0242 380.246 -33.3726 382.043 -34.1566C395.199 -39.8884 404.342 -49.871 410.065 -62.6411C414.566 -72.676 418.265 -83.1116 421.441 -93.6518C424.389 -103.478 427.617 -113.391 428.298 -124C408.11 -120.377 389.336 -114.471 370.946 -107.206C361.262 -103.373 353.079 -97.4671 346.554 -89.4706C342.209 -84.1221 338.057 -78.46 337.359 -70.4809C352.381 -60.5505 365.59 -48.5121 375.256 -32.1705L375.273 -32.1531ZM130.669 -124.122C131.35 -120.185 131.611 -116.753 132.554 -113.513C136.253 -100.725 140.074 -87.9723 144.052 -75.2544C146.826 -66.3519 150.595 -57.8501 156.527 -50.5504C163.559 -41.9093 171.742 -34.8361 183.659 -32.2751C193.796 -48.0417 206.778 -60.655 222.551 -71.1081C220.823 -75.1673 219.707 -78.7562 217.857 -81.9444C211.89 -92.258 203.497 -100.342 192.662 -105.185C173.068 -113.948 152.532 -119.906 130.669 -124.122ZM429.467 174.103C424.895 152.517 419.19 132.517 410.885 113.336C407.255 104.938 401.55 97.9174 394.518 92.1334C388.952 87.5515 383.038 83.3006 374.802 83.771C365.363 99.4505 351.841 111.158 337.306 121.524C341.947 138.946 353.69 149.259 368.277 155.932C387.312 164.643 407.447 170.427 429.467 174.103ZM129.082 174.033C133.077 173.441 135.607 173.266 138.05 172.691C155.568 168.615 172.771 163.615 189.382 156.576C198.42 152.743 205.992 147.134 212.309 139.834C216.828 134.608 220.736 128.858 221.504 120.862C206.01 111.106 193.569 98.0045 183.205 82.6734C167.868 86.7849 157.609 96.2101 150.717 109.12C146.39 117.238 143.127 126.019 140.283 134.782C136.218 147.325 132.99 160.148 129.082 174.033ZM319.806 -209.175C307.68 -224.489 296.391 -240.168 279.204 -250.203C261.861 -239.576 250.415 -224.471 238.865 -208.74C244.919 -202.328 250.816 -196.736 255.911 -190.516C260.866 -184.489 265.455 -178.043 269.381 -171.318C273.324 -164.558 276.256 -157.206 280.304 -148.687C283.27 -161.701 288.958 -171.806 296.129 -180.969C303.422 -190.29 311.309 -199.14 319.788 -209.175H319.806ZM45.7148 66.0182C62.7267 47.8822 80.9947 33.0912 106.259 25.1817C80.9249 17.4465 63.0931 2.11539 46.1336 -15.3063C29.7499 -2.91949 13.9769 8.96213 3.8919 26.3839C15.2506 42.9519 29.7324 54.3283 45.7148 66.0182ZM454.034 25.2166C474.919 31.6452 491.809 43.9275 506.796 59.2238C508.96 61.4363 511.385 63.3875 513.95 65.7221C529.688 53.6662 545.374 42.7777 555.18 25.4256C543.839 8.70081 529.078 -3.59892 512.903 -15.2018C495.717 2.23737 478.077 18.0737 454.016 25.2166H454.034ZM279.518 200.235C271.737 223.65 256.33 241.281 239.091 258.284C250.782 274.486 262.838 289.399 280.094 300.323C296.024 288.65 308.918 274.574 320.05 258.215C302.637 241.054 287.283 223.441 279.518 200.218V200.235ZM149.164 24.7288C149.06 25.1121 148.937 25.5128 148.833 25.896C154.852 27.5163 160.872 29.1365 167.24 30.8264V20.1295C160.75 21.7845 154.957 23.2479 149.182 24.7113L149.164 24.7288ZM391.954 20.1295V30.9832C398.479 29.1365 404.359 27.4814 411.984 25.3211M280.513 -104.331C279.92 -104.366 279.309 -104.401 278.716 -104.436C277.303 -99.0002 275.872 -93.5472 274.232 -87.2406H284.858C283.287 -93.4079 281.909 -98.8783 280.513 -104.331ZM278.733 154.73C279.239 154.66 279.763 154.608 280.269 154.538C281.699 148.98 283.13 143.44 284.7 137.343H274.319" fill="#D7AD45" fill-opacity="0.2"/>
<path d="M200.637 25.0422C198.874 -17.4494 237.103 -54.4356 280.531 -54.0001C323.227 -53.5646 359.466 -16.7351 358.838 26.0701C358.262 65.1992 328.723 104.799 279.083 104.677C230.892 104.572 199.311 65.2167 200.654 25.0422H200.637ZM279.362 99.9904C320.836 101.332 354.93 65.5651 354.773 25.1642C354.616 -13.4772 322.546 -49.7492 278.909 -49.7144C239.651 -49.6795 204.597 -16.404 204.44 25.5997C204.301 65.9484 239.145 101.314 279.362 100.008V99.9904Z" fill="#D7AD45" fill-opacity="0.2"/>
</g>
<defs>
<clipPath id="clip0_4116_47018">
<rect width="559" height="558" fill="white" transform="translate(0 -254)"/>
</clipPath>
</defs>
</svg>
