<svg width="307" height="304" viewBox="0 0 307 304" fill="none" xmlns="http://www.w3.org/2000/svg">
<g clip-path="url(#clip0_4615_58215)">
<path d="M-184.388 133.109C-183.952 134.189 -183.446 135.217 -183.114 136.315C-181.998 140.182 -180.427 143.388 -175.559 143.266C-170.778 143.144 -166.399 140.008 -165.021 135.548C-162.264 126.506 -167.167 117.97 -176.379 115.409C-186.15 112.708 -194.787 115.618 -202.9 120.618C-212.497 126.524 -219.336 135.2 -225.757 144.242C-234.917 157.151 -241.181 171.472 -246.608 186.211C-247.445 188.51 -248.352 190.793 -250.167 192.883C-252.697 170.479 -248.893 148.998 -242.28 127.674C-235.615 106.228 -223.384 88.0219 -209.792 69.4503C-215.149 65.0252 -220.488 61.1401 -225.199 56.5931C-233.103 48.9449 -241.024 41.2446 -248.143 32.8821C-253.412 26.6974 -253.098 24.7462 -248.195 18.2653C-238.459 5.44293 -226.316 -4.92299 -213.718 -14.8185C-212.148 -16.038 -210.647 -17.3273 -208.693 -18.9301C-238.407 -54.8362 -253.028 -95.4462 -248.475 -142.345C-247.672 -140.412 -246.73 -138.513 -246.084 -136.509C-239.576 -116.405 -230.014 -97.8678 -216.004 -82.0141C-206.809 -71.6133 -196.008 -63.3031 -180.828 -63.9826C-168.824 -64.5227 -163.974 -69.575 -164.305 -81.474C-164.497 -88.1117 -167.69 -91.7702 -174.059 -92.6587C-178.456 -93.2685 -179.921 -91.8225 -182.224 -84.6622C-182.399 -84.1221 -182.73 -83.6169 -183.184 -82.7109C-189.169 -79.4356 -195.171 -80.7248 -201.068 -83.8085C-212.409 -89.7144 -221.325 -98.5298 -228.636 -108.722C-242.717 -128.338 -250.097 -150.359 -250.167 -174.61C-250.219 -197.259 -250.202 -219.907 -250.132 -242.555C-250.132 -245.656 -249.713 -248.74 -249.434 -252.52C-245.613 -252.904 -242.525 -253.479 -239.454 -253.496C-218.516 -253.566 -197.561 -253.949 -176.641 -253.426C-147.311 -252.695 -120.458 -244.21 -98.247 -224.454C-91.861 -218.774 -86.836 -211.335 -82.1773 -204.088C-78.7575 -198.757 -77.1349 -192.363 -80.2057 -185.638C-81.2177 -185.203 -82.2297 -184.506 -83.3115 -184.384C-87.0453 -183.914 -90.2034 -182.938 -90.5175 -178.408C-90.849 -173.513 -88.1446 -168.635 -83.643 -167.433C-71.0629 -164.07 -62.8624 -170.673 -61.798 -181.719C-60.4894 -195.429 -67.1546 -205.83 -76.1403 -214.942C-88.5459 -227.52 -103.516 -236.405 -119.795 -243.095C-126.687 -245.935 -133.701 -248.496 -141.099 -251.353C-131.171 -255.796 -98.8577 -251.998 -75.3552 -244.367C-54.086 -237.451 -35.2247 -226.336 -17.1485 -211.684C-12.7516 -216.963 -8.86071 -222.294 -4.30678 -226.963C3.56228 -235.064 11.4662 -243.182 20.0681 -250.465C26.1051 -255.587 29.2807 -254.89 35.6318 -250.081C46.8334 -241.597 56.2204 -231.37 64.6827 -220.22C66.8986 -217.311 69.5507 -214.715 72.3598 -211.597C108.617 -241.597 149.585 -254.977 196.154 -251.231C194.182 -250.308 192.298 -249.106 190.221 -248.513C170.679 -242.851 153.092 -233.496 137.389 -220.673C128.979 -213.809 121.947 -205.726 118.423 -195.133C116.434 -189.175 116.102 -183.182 118.074 -177.206C120.918 -168.53 130.968 -163.792 139.308 -167.328C143.391 -169.053 145.38 -172.624 145.764 -176.962C146.095 -180.743 143.757 -182.799 140.582 -184.175C138.994 -184.854 137.406 -185.516 136.097 -186.057C132.905 -190.377 133.759 -194.558 135.068 -198.844C138.436 -209.837 145.834 -218.008 154.191 -225.308C169.877 -239.001 188.302 -247.294 208.716 -250.918C216.969 -252.381 225.414 -253.287 233.789 -253.444C253.558 -253.81 273.344 -253.635 293.112 -253.513C296.759 -253.496 300.388 -252.729 304.698 -252.242C304.925 -248.235 305.256 -245.116 305.274 -242.015C305.326 -219.942 305.361 -197.886 305.274 -175.813C305.169 -146.126 295.189 -120.08 275.246 -98.1291C268.825 -91.0559 261.182 -84.9061 251.621 -82.3451C247.625 -81.2823 243.281 -81.4914 239.32 -81.143C238.256 -83.2684 237.61 -84.2266 237.244 -85.2893C235.185 -91.3869 233.266 -93.2685 229.444 -92.7807C223.966 -92.1012 219.848 -87.8503 219.464 -82.5019C218.644 -70.8119 224.385 -64.5575 236.11 -64C252.476 -63.2335 263.398 -72.7805 272.855 -84.0698C286.412 -100.272 296.009 -118.756 301.889 -139.105C302.185 -140.15 302.883 -141.091 303.529 -142.345C307.716 -130.255 304.68 -100.533 296.846 -76.9269C289.832 -55.777 278.596 -36.9267 263.294 -18.0938C265.387 -16.8568 267.359 -16.1077 268.825 -14.8011C279.136 -5.48047 289.361 3.92724 299.533 13.3872C300.999 14.7461 302.203 16.4535 303.354 18.1259C308.24 25.234 308.205 26.5755 303.093 33.5267C294.055 45.8265 282.225 55.269 270.552 64.851C268.79 66.297 267.045 67.743 264.742 69.6594C294.159 105.705 308.414 146.472 304.907 193.144C304.209 191.855 303.302 190.636 302.848 189.277C296.532 170.427 288.366 152.465 275.437 137.186C270.238 131.053 264.061 125.635 257.763 120.583C251.673 115.688 244.031 114.329 236.371 114.468C225.484 114.66 218.522 122.935 219.796 133.423C220.302 137.569 222.361 140.409 226.094 142.134C232.009 144.869 235.83 143.109 237.907 136.698C238.256 135.635 238.517 134.538 238.727 133.789C242.984 130.409 247.224 131.088 251.516 132.395C261.584 135.479 269.592 141.855 276.467 149.346C292.868 167.186 302.273 188.493 305.169 212.483C306.251 221.368 306.53 230.392 306.635 239.347C306.844 256.769 306.739 274.19 306.635 291.612C306.635 294.696 306.111 297.797 305.762 301.542C302.622 301.908 300.126 302.448 297.614 302.448C273.483 302.501 249.335 302.727 225.205 302.379C196.677 301.978 171.866 291.56 151.016 272.378C144.263 266.159 138.226 258.842 135.295 249.678C133.742 244.835 132.817 240.096 136.08 235.653C136.691 235.305 137.162 234.922 137.703 234.748C144.455 232.674 146.182 230.932 145.746 226.612C145.24 221.629 140.46 217.117 135.33 216.786C124.25 216.054 117.672 221.786 116.992 232.918C116.137 246.925 123.186 257.483 132.765 266.42C143.862 276.769 156.424 285.201 170.505 291.107C177.449 294.016 184.638 296.333 191.704 298.981C192.961 299.452 194.077 300.236 195.037 301.403C148.52 305.863 108.355 290.636 72.0807 261.49C65.9913 268.65 60.4778 275.671 54.3884 282.117C48.4386 288.424 42.1747 294.504 35.527 300.062C28.9491 305.567 26.1575 305.096 19.3353 299.992C9.00605 292.257 0.473974 282.831 -7.39509 272.709C-10.0472 269.295 -12.961 266.089 -16.2413 262.222C-18.7189 263.72 -20.9871 264.852 -22.9587 266.351C-48.1886 285.654 -76.4718 297.866 -108 301.751C-118.452 303.041 -129.182 301.96 -140.052 300.636C-138.011 299.87 -136.005 298.964 -133.911 298.337C-114.439 292.501 -96.9035 282.849 -81.3747 269.957C-72.4064 262.518 -64.677 253.668 -62.5309 241.49C-62.0249 238.65 -61.6933 235.723 -61.8504 232.849C-62.5483 220.845 -68.8121 215.601 -80.7466 216.768C-85.7193 217.256 -89.3834 220.462 -90.4477 225.305C-91.3899 229.538 -89.9417 232.152 -85.5797 234.12C-78.932 237.117 -77.4838 239.817 -79.3159 246.943C-82.2646 258.406 -89.6102 267.274 -98.1946 274.608C-119.935 293.18 -145.217 302.814 -174.128 302.553C-198.817 302.326 -223.524 302.501 -249.399 302.501C-250.062 299.852 -251.406 296.943 -251.423 294.051C-251.58 270.532 -252.296 246.978 -251.249 223.511C-250.01 195.462 -240.274 170.183 -221.151 149.207C-214.521 141.925 -206.861 135.531 -197.02 132.604C-193.06 131.419 -189.151 130.409 -184.353 133.109H-184.388ZM-8.7735 -80.8468C-1.34064 -82.3625 5.16748 -83.913 11.7279 -84.9583C15.3746 -85.5332 17.3811 -87.2754 18.5676 -90.6552C22.947 -103.094 24.9535 -116.091 25.0582 -129.088C25.1804 -145.638 20.0158 -160.969 10.4193 -174.767C-13.3972 -209.018 -45.5016 -231.597 -85.5273 -242.991C-95.8042 -245.918 -106.256 -248.269 -119.237 -248.095C-113.13 -244.924 -108.82 -242.729 -104.528 -240.465C-91.8784 -233.74 -80.101 -225.813 -70.522 -215.029C-62.6006 -206.109 -57.1918 -196.196 -57.6629 -183.67C-58.2037 -168.583 -68.5155 -160.011 -83.1893 -162.955C-89.1914 -164.157 -93.8501 -169.332 -94.6352 -175.691C-95.4553 -182.328 -93.7454 -185.22 -86.9755 -188.565C-85.7018 -189.192 -84.4456 -189.837 -83.1195 -190.499C-83.1719 -199.802 -87.5513 -206.806 -93.2743 -213.182C-113.793 -235.987 -139.738 -247.468 -170.238 -248.269C-192.903 -248.862 -215.602 -248.461 -238.285 -248.426C-240.762 -248.426 -243.223 -247.904 -246.154 -247.573C-246.154 -243.809 -246.154 -240.917 -246.154 -238.043C-246.154 -217.712 -246.049 -197.398 -246.189 -177.067C-246.276 -163.251 -243.764 -149.941 -239 -137.049C-232.091 -118.391 -221.168 -102.572 -204.802 -90.8817C-199.829 -87.3277 -194.421 -84.6622 -187.808 -85.4984C-186.639 -87.7458 -185.609 -89.8016 -184.51 -91.8051C-182.277 -95.8643 -178.647 -97.2929 -174.251 -96.927C-166.608 -96.2999 -160.1 -90.6727 -159.699 -83.1116C-159.123 -72.467 -162.874 -61.4913 -177.845 -60.1324C-188.087 -59.209 -197.387 -61.439 -205.866 -67.4321C-219.999 -77.4322 -229.543 -91.1779 -237.796 -105.986C-240.518 -110.882 -242.717 -116.074 -245.159 -121.126C-244.776 -100.342 -239.803 -80.7597 -231.341 -62.1533C-219.703 -36.6305 -202.534 -15.3063 -180.637 2.25476C-157.361 20.9134 -131.311 27.2375 -102.208 19.8855C-96.3626 18.4047 -90.5698 16.7496 -84.6549 15.1468C-82.6484 6.24435 -80.8164 -1.89161 -78.8448 -10.707C-82.5612 -12.0659 -85.7018 -13.4422 -88.9821 -14.3481C-99.3811 -17.2227 -107.808 -23.0764 -115.294 -30.6897C-124.908 -40.4807 -131.294 -52.0835 -134.713 -65.2021C-139.983 -85.4113 -145.025 -105.673 -149.841 -125.986C-152.161 -135.777 -153.802 -145.725 -155.599 -154.924C-152.755 -158.687 -149.998 -157.816 -147.067 -157.154C-132.62 -153.896 -118.085 -151.091 -103.726 -147.52C-86.5393 -143.251 -69.1611 -139.366 -52.5157 -133.46C-34.3174 -126.997 -20.8999 -114.296 -13.7636 -95.8643C-11.8967 -91.0385 -10.4834 -86.0385 -8.7735 -80.812V-80.8468ZM63.758 -80.9165C64.4036 -82.2928 65.084 -83.2858 65.3283 -84.3834C71.4874 -111.248 88.3248 -128.617 114.375 -135.83C144.281 -144.105 174.675 -150.621 204.878 -157.781C206.343 -158.13 208.106 -157.241 210.444 -156.788C210.287 -154.175 210.356 -151.945 209.972 -149.785C209.275 -145.795 208.367 -141.823 207.425 -137.885C201.44 -113.077 196.101 -88.0942 189.209 -63.547C182.666 -40.2891 168.498 -22.8848 144.944 -14.4527C141.192 -13.1112 137.336 -12.1007 133.655 -10.9683C135.888 -1.87418 137.947 6.50567 140.163 15.5824C146.776 17.2374 153.162 18.9796 159.617 20.4082C182.736 25.4953 204.895 23.0737 224.699 9.60672C235.202 2.46382 245.375 -5.585 254.151 -14.714C273.745 -35.0974 287.808 -58.9825 295.276 -86.474C298.329 -97.7284 300.737 -109.105 300.493 -120.899C299.306 -119.471 298.661 -117.903 297.945 -116.37C290.321 -99.9062 280.794 -84.697 267.324 -72.345C257.745 -63.5645 246.561 -58.7386 233.143 -60.0627C219.377 -61.4216 210.775 -74.6098 215.748 -87.136C218.121 -93.1117 222.797 -96.2302 229.043 -96.9096C235.133 -97.5716 238.954 -94.5925 241.03 -89.0002C241.519 -87.6935 242.461 -86.5611 243.228 -85.2893C252.842 -85.4461 260.013 -90.0455 266.574 -96.0211C289.623 -116.979 300.214 -143.6 301.138 -174.14C301.801 -196.179 301.295 -218.269 301.243 -240.325C301.243 -242.816 300.807 -245.308 300.58 -247.886C298.05 -248.147 296.34 -248.461 294.63 -248.461C270.5 -248.426 246.334 -249.21 222.256 -248.095C192.245 -246.701 166.614 -234.855 146.968 -211.544C142.082 -205.743 138.104 -199.367 138.488 -191.004C140.006 -190.081 141.454 -189.175 142.92 -188.304C148.538 -185.046 150.544 -181.3 149.777 -175.586C148.939 -169.523 143.932 -163.757 138.121 -163.008C122.889 -161.039 114.113 -166.701 112.874 -182.851C111.915 -195.307 117.149 -205.464 125.123 -214.402C135.696 -226.283 148.695 -234.959 162.793 -242.12C166.073 -243.792 169.353 -245.482 172.634 -247.154C159.722 -247.59 147.526 -245.325 135.609 -241.562C101.079 -230.691 72.5343 -210.97 50.3055 -182.52C42.0875 -171.997 35.2828 -160.534 32.3341 -147.102C28.0419 -127.467 31.2174 -108.547 37.0799 -89.8538C37.6906 -87.8852 40.4823 -85.812 42.6284 -85.2371C49.3285 -83.4775 56.2204 -82.4148 63.758 -80.9339V-80.9165ZM243.7 136.158C242.67 138.005 241.867 139.224 241.292 140.513C239.198 145.357 235.656 147.691 230.317 147.238C224.402 146.75 219.447 144.172 216.812 138.998C211.508 128.614 218.068 114.973 229.287 111.663C240.454 108.353 250.591 110.844 260.013 116.924C271.198 124.154 279.66 134.12 286.639 145.235C291.839 153.545 296.218 162.36 300.964 170.949C300.859 162.883 300.249 154.834 298.539 147.029C291.786 116.297 277.217 89.5027 256.053 66.3492C244.834 54.0844 232.149 43.248 217.126 35.9483C192.908 24.1713 168.045 26.7845 143.338 34.694C141.437 35.3038 139.116 37.4292 138.662 39.2585C136.865 46.4536 135.731 53.823 134.335 61.2621C135.906 62.0112 136.865 62.6733 137.947 62.9346C166.963 70.0078 183.678 89.5375 191.041 117.238C198.178 144.102 203.97 171.315 210.164 198.423C210.81 201.263 210.252 204.382 210.252 208.284C206.675 207.761 204.145 207.517 201.667 206.995C192.577 205.078 183.469 203.284 174.448 201.071C153.319 195.862 131.91 191.507 111.252 184.782C88.4295 177.36 72.796 161.541 66.0437 137.9C65.4504 135.792 64.5606 133.771 63.6707 131.332C54.5803 133.405 46.2053 135.322 38.057 137.186C37.237 139.259 36.6437 140.583 36.225 141.942C35.3875 144.712 34.55 147.5 33.887 150.304C28.7921 171.96 28.1291 193.336 38.2664 213.911C44.6175 226.803 53.7079 237.849 63.7754 247.883C86.8592 270.915 114.218 286.856 146.113 294.33C155.046 296.42 164.154 298.563 175.251 298.145C169.912 295.549 166.213 293.894 162.636 291.995C149.271 284.852 136.516 276.786 126.187 265.514C118.126 256.716 112.543 246.89 112.822 234.399C113.171 218.615 121.511 211.124 137.424 212.814C143.443 213.458 148.346 218.197 149.637 224.626C150.928 231.037 148.643 235.322 142.222 238.545C140.966 239.173 139.674 239.765 138.261 240.444C138.331 249.713 142.623 256.716 148.363 263.093C169.162 286.142 195.473 297.466 226.199 298.302C248.847 298.929 271.529 298.476 294.212 298.424C296.427 298.424 298.643 297.884 301.034 297.588C301.278 295.009 301.644 293.023 301.644 291.054C301.644 267.553 302.185 244.016 301.383 220.549C300.353 190.061 288.018 164.486 264.759 144.468C258.984 139.503 252.458 135.879 243.752 136.158H243.7ZM-78.932 61.4712C-80.1708 55.7917 -82.0901 50.5303 -82.2646 45.2167C-82.5088 37.6208 -86.487 34.5895 -93.1173 32.8125C-106.151 29.3281 -119.324 28.0389 -132.794 28.4744C-144.432 28.8577 -155.162 31.9065 -165.073 37.7951C-203.11 60.3562 -227.327 93.6665 -240.309 135.426C-243.729 146.454 -246.625 157.726 -246.049 169.573C-245.491 169.434 -245.055 169.451 -244.967 169.277C-243.694 167.012 -242.42 164.747 -241.268 162.43C-233.958 147.778 -225.286 134.12 -212.985 123.057C-203.528 114.555 -192.798 109.363 -179.782 110.356C-166.015 111.402 -158.024 121.367 -161.112 136.803C-162.229 142.36 -167.742 146.402 -173.832 147.169C-179.729 147.9 -184.021 145.792 -186.621 140.357C-187.214 139.102 -188.035 137.935 -188.855 136.559C-197.596 135.844 -204.226 139.956 -210.246 145.095C-233.417 164.904 -245.055 190.514 -246.189 220.584C-247.061 244.068 -246.468 267.605 -246.468 291.124C-246.468 293.319 -245.892 295.514 -245.578 297.866C-243.258 298.11 -241.548 298.424 -239.855 298.424C-216.004 298.424 -192.135 299.173 -168.336 298.163C-138.325 296.891 -112.554 285.288 -92.5938 262.309C-87.2722 256.176 -83.0497 249.295 -83.1544 240.322C-84.6375 239.66 -85.9112 238.998 -87.2373 238.511C-92.5066 236.542 -95.1936 232.936 -94.7574 227.187C-94.2863 220.88 -91.4946 215.845 -85.6669 213.423C-72.5286 207.988 -59.0238 216.542 -57.7675 230.723C-56.9126 240.357 -58.7097 249.521 -64.6072 257.1C-69.8939 263.911 -75.6692 270.793 -82.5437 275.845C-93.9024 284.19 -106.343 291.072 -117.422 298.006C-104.755 298.598 -85.3703 293.65 -70.4523 287.988C-43.3555 277.727 -20.4986 261.455 -1.20103 239.66C17.8871 218.092 28.4431 194.225 23.9416 164.991C22.4759 155.548 21.1848 146.088 16.4215 136.977C8.13365 135.148 -0.206505 133.318 -8.35473 131.524C-9.29693 133.092 -9.95996 133.789 -10.1344 134.573C-16.5553 163.127 -35.5562 179.695 -62.653 187.012C-91.4946 194.8 -120.755 201.002 -149.876 207.796C-151.394 208.145 -153.156 207.517 -155.668 207.239C-155.529 204.277 -155.808 201.699 -155.232 199.329C-148.079 169.747 -141.413 140.043 -133.352 110.705C-126.932 87.2901 -111.176 71.8022 -87.8479 64.2935C-85.1435 63.4224 -82.4391 62.5687 -78.9146 61.4538L-78.932 61.4712ZM27.8848 132.743C87.9061 131.506 134.614 86.1403 134.981 25.8438C135.347 -32.6409 90.087 -82.7109 25.477 -81.8573C-32.6075 -81.0907 -78.4958 -36.735 -79.7521 23.0214C-81.0781 86.0358 -31.6304 132.099 27.8848 132.743ZM-150.015 -152.833C-149.719 -149.244 -149.788 -147.241 -149.37 -145.342C-146.089 -130.342 -142.984 -115.29 -139.285 -100.377C-135.725 -86.0385 -132.375 -71.5436 -127.385 -57.6759C-118.993 -34.296 -102.051 -20.2541 -76.5765 -15.707C-74.6572 -19.8011 -72.8601 -23.6339 -70.9059 -27.85C-89.4532 -34.9754 -102.557 -47.5539 -109.012 -65.5331C-115.555 -83.7736 -120.231 -102.676 -125.571 -121.352C-126.146 -123.338 -125.64 -125.638 -125.64 -128.007C-122.482 -128.007 -120.371 -128.46 -118.539 -127.938C-100.411 -122.781 -82.0029 -118.321 -64.3106 -111.927C-47.0719 -105.708 -33.8638 -94.0699 -27.0939 -76.3172C-26.7101 -75.3241 -25.89 -74.5053 -25.1746 -73.46C-23.0111 -74.3485 -21.1092 -75.0628 -19.2772 -75.899C-17.2532 -76.8398 -15.2816 -77.9025 -13.2576 -78.9304C-18.4571 -108.112 -36.2716 -125.185 -63.2811 -132.798C-86.7313 -139.401 -110.583 -144.575 -134.295 -150.255C-139.006 -151.387 -143.874 -151.84 -150.015 -152.816V-152.833ZM205.698 -152.119C202.26 -152.119 200.202 -152.502 198.335 -152.067C170.68 -145.464 142.78 -139.715 115.509 -131.788C91.3608 -124.767 74.82 -108.826 69.4286 -83.2162C69.1145 -81.683 69.3937 -80.028 69.3937 -78.46C73.3195 -76.6482 76.7219 -75.0976 79.9148 -73.6168C80.5081 -74.0523 80.8047 -74.1743 80.9268 -74.4008C81.3456 -75.1499 81.712 -75.9339 82.061 -76.7353C89.0925 -93.0246 100.905 -105.011 117.323 -111.021C135.539 -117.676 154.418 -122.537 173.052 -127.973C175.321 -128.635 177.938 -128.06 181.044 -128.06C180.764 -125.028 180.747 -123.06 180.398 -121.161C177.013 -102.258 171.168 -84.0698 164.398 -66.1429C160.054 -54.6445 153.057 -45.1846 143.565 -37.7106C138.418 -33.6688 132.364 -30.7594 126.449 -27.1879C127.757 -24.1391 129.083 -20.951 130.514 -17.7976C130.863 -17.0485 131.578 -16.4736 132.364 -15.5154C158.885 -20.951 176.699 -36.5085 184.306 -62.3624C190.849 -84.5925 195.874 -107.258 201.371 -129.767C203.08 -136.753 204.11 -143.896 205.68 -152.154L205.698 -152.119ZM68.7481 129.294C70.0218 134.433 70.6325 139.033 72.2901 143.231C80.857 164.939 97.6769 177.395 119.557 183.249C140.285 188.789 161.205 193.615 182.09 198.563C190.047 200.444 198.143 201.821 207.565 203.719C200.184 173.388 193.327 144.677 186.156 116.036C182.614 101.872 175.024 89.9034 163.979 80.4086C154.819 72.5339 144.193 67.7256 131.561 66.9764C129.607 70.9834 127.897 74.4677 126.204 77.9521C127.722 78.9103 128.403 79.5026 129.188 79.7988C144.054 85.4086 154.784 95.6351 161.607 109.729C171.133 129.398 176.751 150.392 181.305 171.681C181.707 173.528 181.358 175.531 181.358 178.528C177.694 178.266 174.501 178.545 171.639 177.726C154.627 172.866 137.493 168.336 120.796 162.552C103.697 156.629 90.7501 145.304 82.8985 128.649C82.2005 127.168 80.9792 125.931 79.6531 124.102C76.2682 125.705 73.1974 127.168 68.7481 129.276V129.294ZM-151.935 203.493C-149.701 203.145 -148.619 203.04 -147.555 202.779C-117.37 195.549 -86.8709 189.364 -57.1045 180.688C-36.6031 174.712 -22.2608 160.217 -15.7701 139.189C-14.7931 136.019 -14.6884 132.587 -14.13 128.911C-18.2129 127.116 -21.5106 125.67 -25.1223 124.102C-26.7973 127.203 -28.0535 129.451 -29.24 131.733C-36.2367 145.148 -46.688 155.305 -60.7686 160.374C-79.0192 166.96 -97.7933 172.134 -116.41 177.691C-119.202 178.528 -122.395 178.057 -126.373 178.231C-126.024 173.911 -126.303 170.653 -125.431 167.744C-120.336 150.531 -115.259 133.301 -109.571 116.262C-106.814 107.987 -101.754 100.896 -95.7519 94.3285C-88.9123 86.8372 -80.45 82.1333 -70.9408 77.9173C-72.9124 74.0496 -74.7096 70.513 -76.6289 66.7674C-79.8044 67.1332 -82.474 67.081 -84.8992 67.7953C-104.144 73.4399 -118.609 85.2344 -125.972 103.788C-131.381 117.447 -134.87 131.925 -138.517 146.228C-143.28 164.939 -147.346 183.824 -151.9 203.476L-151.935 203.493ZM123.273 -32.1531C126.239 -33.0242 128.246 -33.3726 130.043 -34.1566C143.199 -39.8884 152.342 -49.871 158.065 -62.6411C162.566 -72.676 166.265 -83.1116 169.441 -93.6518C172.389 -103.478 175.617 -113.391 176.298 -124C156.11 -120.377 137.336 -114.471 118.946 -107.206C109.262 -103.373 101.079 -97.4671 94.5537 -89.4705C90.2092 -84.1221 86.0566 -78.46 85.3586 -70.4809C100.381 -60.5505 113.59 -48.5121 123.256 -32.1705L123.273 -32.1531ZM-121.331 -124.122C-120.65 -120.185 -120.389 -116.753 -119.446 -113.513C-115.747 -100.725 -111.926 -87.9723 -107.948 -75.2544C-105.174 -66.3519 -101.405 -57.8501 -95.4727 -50.5504C-88.4412 -41.9093 -80.258 -34.8361 -68.341 -32.2751C-58.2037 -48.0417 -45.2224 -60.655 -29.4494 -71.1081C-31.1767 -75.1673 -32.2934 -78.7562 -34.1429 -81.9444C-40.1101 -92.258 -48.5026 -100.342 -59.3379 -105.185C-78.932 -113.948 -99.4683 -119.906 -121.331 -124.122ZM177.467 174.103C172.895 152.517 167.19 132.517 158.885 113.336C155.255 104.938 149.55 97.9174 142.518 92.1334C136.952 87.5515 131.038 83.3006 122.802 83.771C113.363 99.4505 99.8405 111.158 85.3063 121.524C89.9475 138.946 101.69 149.259 116.277 155.932C135.312 164.643 155.447 170.427 177.467 174.103ZM-122.918 174.033C-118.923 173.441 -116.393 173.266 -113.95 172.691C-96.4324 168.615 -79.2286 163.615 -62.6181 156.576C-53.58 152.744 -46.0076 147.134 -39.6914 139.834C-35.1723 134.608 -31.264 128.858 -30.4963 120.862C-45.9901 111.106 -58.4306 98.0045 -68.7947 82.6734C-84.1315 86.7849 -94.391 96.21 -101.283 109.12C-105.61 117.238 -108.873 126.019 -111.717 134.782C-115.782 147.325 -119.01 160.148 -122.918 174.033ZM67.8059 -209.175C55.6795 -224.489 44.3907 -240.168 27.2044 -250.203C9.86102 -239.576 -1.58491 -224.471 -13.1355 -208.74C-7.08104 -202.328 -1.1836 -196.736 3.91123 -190.516C8.86647 -184.489 13.4553 -178.043 17.3811 -171.318C21.3244 -164.558 24.2556 -157.206 28.3036 -148.687C31.2697 -161.701 36.9578 -171.806 44.1289 -180.969C51.4222 -190.29 59.3087 -199.14 67.7885 -209.175H67.8059ZM-206.285 66.0182C-189.273 47.8822 -171.005 33.0912 -145.741 25.1817C-171.075 17.4465 -188.907 2.11538 -205.866 -15.3063C-222.25 -2.91949 -238.023 8.96213 -248.108 26.3838C-236.749 42.9519 -222.268 54.3283 -206.285 66.0182ZM202.034 25.2166C222.919 31.6452 239.809 43.9275 254.796 59.2237C256.96 61.4363 259.385 63.3876 261.95 65.7221C277.688 53.6662 293.374 42.7777 303.18 25.4256C291.839 8.7008 277.078 -3.59892 260.903 -15.2018C243.717 2.23736 226.077 18.0737 202.016 25.2166H202.034ZM27.5184 200.235C19.7366 223.65 4.32998 241.281 -12.9087 258.284C-1.21849 274.486 10.8381 289.399 28.0942 300.323C44.0242 288.65 56.9183 274.574 68.0502 258.215C50.637 241.054 35.2828 223.441 27.5184 200.218V200.235ZM-102.836 24.7288C-102.94 25.1121 -103.063 25.5128 -103.167 25.896C-97.1477 27.5163 -91.1282 29.1365 -84.7596 30.8264V20.1295C-91.2503 21.7845 -97.0431 23.2479 -102.818 24.7113L-102.836 24.7288ZM139.954 20.1295V30.9832C146.479 29.1365 152.359 27.4814 159.984 25.3211M28.513 -104.331C27.9197 -104.366 27.309 -104.401 26.7158 -104.436C25.3025 -99.0002 23.8718 -93.5472 22.2317 -87.2406H32.8575C31.2872 -93.4079 29.9088 -98.8783 28.513 -104.331ZM26.7333 154.73C27.2392 154.66 27.7627 154.608 28.2687 154.538C29.6994 148.98 31.1302 143.44 32.7005 137.343H22.3189" fill="#D7AD45" fill-opacity="0.2"/>
<path d="M-51.3633 25.0422C-53.1255 -17.4494 -14.8969 -54.4356 28.5313 -54.0001C71.2266 -53.5646 107.466 -16.7351 106.838 26.0701C106.262 65.1992 76.7227 104.799 27.0831 104.677C-21.1084 104.572 -52.6893 65.2167 -51.3458 25.0422H-51.3633ZM27.3623 99.9904C68.8362 101.332 102.93 65.5651 102.773 25.1642C102.616 -13.4772 70.5461 -49.7492 26.9086 -49.7144C-12.3494 -49.6795 -47.4026 -16.404 -47.5596 25.5997C-47.6992 65.9484 -12.8554 101.314 27.3623 100.008V99.9904Z" fill="#D7AD45" fill-opacity="0.2"/>
</g>
<defs>
<clipPath id="clip0_4615_58215">
<rect width="559" height="558" fill="white" transform="translate(-252 -254)"/>
</clipPath>
</defs>
</svg>
