<svg width="378" height="565" viewBox="0 0 378 565" fill="none" xmlns="http://www.w3.org/2000/svg">
<path d="M367.059 9.20312C367.059 9.20312 327.086 31.8129 314.043 81.7121C307.994 104.9 291.006 104.269 277.016 116.1C245.196 143.021 271.073 159.742 252.665 175.148C252.665 156.535 244.144 157.323 246.248 139.972C194.442 187.82 221.476 245.607 260.817 248.183C285.063 249.76 294.109 235.669 294.109 235.669C294.109 235.669 310.729 262.432 250.193 299.817C172.299 347.876 221.844 393.727 221.844 393.727C221.844 393.727 346.336 341.935 355.225 224.206C356.329 209.273 356.75 177.777 356.329 164.369C349.439 175.674 343.654 186.506 327.244 189.292C344.443 171.678 355.067 136.291 348.808 106.635C336.291 46.851 367.059 9.20312 367.059 9.20312Z" fill="#F6EEE3" stroke="#D7AD45" stroke-opacity="0.16" stroke-width="4" stroke-miterlimit="10"/>
<path d="M327.141 118.098C318.988 137.868 293.585 151.802 282.698 173.991C270.022 199.808 295.426 231.567 295.426 231.567C295.426 231.567 310.784 262.432 250.247 299.817C172.354 347.876 185.66 348.244 185.66 348.244C185.66 348.244 186.134 364.386 220.741 351.399C265.236 334.731 341.078 282.939 316.99 211.166C300.265 161.214 320.934 146.965 327.141 118.098Z" fill="#F6EEE3" stroke="#D7AD45" stroke-opacity="0.16" stroke-width="4" stroke-miterlimit="10"/>
<path d="M214.742 706.057C214.742 706.057 166.144 710.263 117.073 687.811C129.749 682.764 134.745 677.926 137.954 673.352C120.545 681.028 105.082 682.606 93.353 674.614C78.942 665.044 65.1621 652.582 53.3808 636.44C50.0673 631.918 46.8591 627.133 43.8612 622.085C38.7068 613.462 26.9781 589.538 16.8799 576.445C23.5595 582.071 43.4404 596.899 57.7462 599.265C48.6473 594.638 22.2972 576.866 16.9325 547.631C12.5145 520.026 13.4087 490.423 21.7187 461.03C24.0329 452.88 31.8169 434.582 30.8702 415.022C34.2363 434.792 41.81 452.828 48.6473 461.661C44.9131 453.511 34.3941 430.481 49.6992 402.035C63.4791 382.054 81.7821 362.967 105.292 345.405C127.54 326.844 123.385 307.442 123.174 301.29C135.639 321.849 136.008 344.459 128.118 363.808C143.686 347.35 136.691 312.91 158.15 293.928C200.068 256.806 155.52 236.878 192.968 177.094C189.812 230.306 214.321 237.404 226.734 253.441C240.724 271.529 237.305 293.823 221.737 309.65C239.146 307.284 243.775 296.925 247.298 286.988C250.507 296.4 252.716 310.334 252.663 320.587C252.242 373.483 232.099 387.89 218.792 392.675C206.906 396.934 176.874 405.452 168.932 377.69C142.582 398.775 105.818 442.364 137.375 543.162C157.94 608.782 196.965 611.464 221.001 616.722C268.547 627.186 214.69 706.109 214.69 706.109L214.742 706.057Z" fill="#F6EEE3" stroke="#D7AD45" stroke-opacity="0.16" stroke-width="4" stroke-miterlimit="10"/>
<path d="M229.416 673.3C229.416 673.3 94.7205 681.029 64.4258 548.999C37.4445 431.586 152.785 382.738 175.243 368.016C172.088 383.685 187.498 405.874 225.103 390.888C174.875 412.341 55.432 546.528 210.798 626.503L229.469 673.3H229.416Z" fill="#F6EEE3" stroke="#D7AD45" stroke-opacity="0.16" stroke-width="4" stroke-miterlimit="10"/>
<path d="M351.545 284.148C334.083 329.421 323.038 330.104 300.633 347.614C275.492 367.226 271.548 382.317 265.447 399.984C269.549 388.311 269.917 377.585 266.919 366.385C257.294 381.949 235.205 389.152 221.951 393.674C204.174 399.774 187.711 406.399 173.037 414.128C166.095 417.809 144.899 434.004 146.582 465.868C141.06 451.829 144.899 430.165 147.897 420.596C144.426 426.432 135.222 439.367 128.7 448.043C111.975 470.442 102.087 497.311 106.084 534.854C109.871 563.616 129.857 568.663 145.267 572.291C130.909 570.504 122.914 567.927 112.027 562.669C132.802 619.562 202.859 633.338 217.112 633.338C244.356 633.338 256.032 653.476 258.399 647.903C260.766 642.277 301.632 631.077 302.684 626.345C306.313 610.675 233.206 574.29 233.206 574.29C233.206 574.29 159.31 571.24 172.038 503.621C182.084 450.409 232.049 451.198 232.049 451.198C232.049 451.198 209.591 477.856 232.89 495.891C265.026 520.71 327.141 483.482 340.132 444.678C334.872 445.729 323.091 445.992 316.99 444.467C332.663 438.999 348.126 425.012 355.542 397.355C363.431 367.962 362.116 331.366 351.545 284.148Z" fill="#F6EEE3" stroke="#D7AD45" stroke-opacity="0.16" stroke-width="4" stroke-miterlimit="10"/>
<path d="M252.719 426.904C219.847 430.953 154.734 431.058 148.265 503.62C142.006 574.446 206.803 588.485 224.212 591.43C242.726 594.532 274.598 608.15 284.854 621.979C287.379 625.397 307.628 600.999 305.84 596.214C292.375 560.302 238.781 555.885 238.781 555.885C238.781 555.885 184.082 550.995 184.661 507.879C185.345 456.507 225.369 457.822 229.419 458.768C238.571 493.314 320.566 474.332 319.882 379.371C309.311 400.982 287.957 422.593 252.719 426.957V426.904Z" fill="#F6EEE3" stroke="#D7AD45" stroke-opacity="0.16" stroke-width="4" stroke-miterlimit="10"/>
<path d="M205.015 372.485C205.015 372.485 211.537 361.495 203.805 353.24C197.494 346.51 179.875 346.3 175.246 367.963" fill="#F6EEE3"/>
<path d="M205.015 372.485C205.015 372.485 211.537 361.495 203.805 353.24C197.494 346.51 179.875 346.3 175.246 367.963" stroke="#D7AD45" stroke-opacity="0.16" stroke-width="4" stroke-miterlimit="10"/>
</svg>
