<svg width="34" height="34" viewBox="0 0 34 34" fill="none" xmlns="http://www.w3.org/2000/svg">
<path d="M1.98722 21.7706C3.56602 23.8335 6.50445 23.8335 12.3813 23.8335H13.3305C19.2073 23.8335 22.1458 23.8335 23.7245 21.7706M1.98722 21.7706C0.408402 19.7079 0.949919 16.5762 2.03297 10.3128C2.80317 5.85857 3.18827 3.63146 4.65031 2.31572M23.7245 21.7706C25.3033 19.7079 24.7619 16.5762 23.6789 10.3128C22.9086 5.85857 22.5235 3.63146 21.0614 2.31572M21.0614 2.31572C19.5994 1 17.5098 1 13.3305 1H12.3813C8.202 1 6.11235 1 4.65031 2.31572" stroke="#000" stroke-width="1.8"/>
<path opacity="0.5" d="M9.13281 6.70703C9.67482 8.36987 11.1373 9.56122 12.8564 9.56122C14.5755 9.56122 16.0381 8.36987 16.58 6.70703" stroke="#000" stroke-width="1.8" stroke-linecap="round"/>
</svg>
