<svg width="19" height="20" viewBox="0 0 19 20" fill="none" xmlns="http://www.w3.org/2000/svg">
<path d="M9.5013 12.0833V13.75M5.54297 8.35733C5.91618 8.33333 6.37627 8.33333 6.96797 8.33333H12.0346C12.6263 8.33333 13.0864 8.33333 13.4596 8.35733M5.54297 8.35733C5.07722 8.38725 4.74678 8.45458 4.46474 8.60583C4.01785 8.8455 3.65453 9.22792 3.42683 9.69833C3.16797 10.2332 3.16797 10.9332 3.16797 12.3333V13.5C3.16797 14.9002 3.16797 15.6002 3.42683 16.135C3.65453 16.6054 4.01785 16.9878 4.46474 17.2275C4.97278 17.5 5.63784 17.5 6.96797 17.5H12.0346C13.3648 17.5 14.0298 17.5 14.5379 17.2275C14.9848 16.9878 15.3481 16.6054 15.5758 16.135C15.8346 15.6002 15.8346 14.9002 15.8346 13.5V12.3333C15.8346 10.9332 15.8346 10.2332 15.5758 9.69833C15.3481 9.22792 14.9848 8.8455 14.5379 8.60583C14.2558 8.45458 13.9254 8.38725 13.4596 8.35733M5.54297 8.35733V6.66667C5.54297 4.36548 7.31518 2.5 9.5013 2.5C11.6874 2.5 13.4596 4.36548 13.4596 6.66667V8.35733" stroke="#33363F" stroke-width="1.6" stroke-linecap="round" stroke-linejoin="round"/>
</svg>
