<svg width="18" height="18" viewBox="0 0 18 18" fill="none" xmlns="http://www.w3.org/2000/svg">
<path d="M6.73471 16.6152C7.75179 16.6152 8.5717 16.6153 9.21645 16.5327C9.8859 16.447 10.4496 16.2636 10.8973 15.8372C11.2877 15.4654 11.485 15.0085 11.5885 14.4716C11.6891 13.9498 11.7084 13.3114 11.7129 12.5453C11.7146 12.2519 11.4662 12.0127 11.1582 12.0111C10.8501 12.0094 10.599 12.246 10.5973 12.5394C10.5927 13.3139 10.5716 13.8629 10.4913 14.2796C10.4138 14.6811 10.2895 14.9135 10.1084 15.0859C9.90256 15.282 9.61354 15.4098 9.06785 15.4797C8.50602 15.5516 7.76146 15.5527 6.69388 15.5527L5.95013 15.5527C4.88255 15.5527 4.13798 15.5516 3.57615 15.4797C3.03039 15.4098 2.74144 15.282 2.53557 15.0859C2.3297 14.8899 2.19553 14.6147 2.12212 14.0949C2.04663 13.5599 2.04544 12.8507 2.04544 11.834L2.04544 6.16732C2.04544 5.15058 2.04663 4.44146 2.12212 3.90639C2.19553 3.38661 2.3297 3.11143 2.53557 2.91536C2.74144 2.71929 3.03039 2.59151 3.57615 2.5216C4.13798 2.4497 4.88255 2.44857 5.95013 2.44857L6.69388 2.44857C7.76146 2.44857 8.50603 2.4497 9.06785 2.5216C9.61354 2.59151 9.90257 2.71929 10.1084 2.91536C10.2895 3.08784 10.4138 3.32017 10.4913 3.72166C10.5716 4.13837 10.5927 4.6874 10.5973 5.46196C10.599 5.75535 10.8501 5.99186 11.1582 5.99024C11.4662 5.98861 11.7146 5.7494 11.7129 5.45601C11.7084 4.68995 11.6891 4.05146 11.5885 3.52977C11.485 2.99285 11.2877 2.53591 10.8973 2.16403C10.4496 1.73769 9.88591 1.5543 9.21646 1.46859C8.5717 1.38607 7.75179 1.38607 6.73471 1.38607L5.9093 1.38607C4.89214 1.38607 4.07231 1.38607 3.42748 1.46859C2.75803 1.5543 2.19441 1.73769 1.74668 2.16403C1.29901 2.59045 1.10646 3.12722 1.01646 3.76479C0.929742 4.37892 0.929815 5.15971 0.929815 6.12843L0.929815 11.8728C0.929815 12.8416 0.929741 13.6224 1.01646 14.2365C1.10646 14.8741 1.29901 15.4109 1.74668 15.8372C2.19441 16.2636 2.75803 16.447 3.42748 16.5327C4.07231 16.6153 4.89214 16.6152 5.9093 16.6152L6.73471 16.6152Z" fill="#AC1927"/>
<path d="M6.69336 9.53124C6.3853 9.53124 6.13555 9.29338 6.13555 8.99999C6.13555 8.7066 6.3853 8.46874 6.69336 8.46874L14.8542 8.46874L13.396 7.27832C13.1621 7.08742 13.135 6.75202 13.3355 6.52925C13.5359 6.30648 13.8881 6.2807 14.122 6.47167L16.7251 8.59667C16.8488 8.69753 16.9199 8.84494 16.9199 8.99999C16.9199 9.15504 16.8488 9.30245 16.7251 9.40332L14.122 11.5283C13.8881 11.7193 13.5359 11.6935 13.3355 11.4707C13.135 11.248 13.1621 10.9126 13.396 10.7216L14.8542 9.53124L6.69336 9.53124Z" fill="#AC1927"/>
</svg>
