<svg width="32" height="32" viewBox="0 0 32 32" fill="none" xmlns="http://www.w3.org/2000/svg">
<g clip-path="url(#clip0_7336_6994)">
<path d="M15.0314 0.535353C10.6002 0.995508 7.0502 4.14395 6.1752 8.38828C5.9752 9.36309 5.9752 11.0221 6.1752 11.9727C6.4377 13.2502 6.96895 14.5156 7.6627 15.5146C7.84395 15.7871 8.0002 16.0172 8.0002 16.0354C8.0002 16.0475 7.45645 16.0596 6.7877 16.0596C5.7002 16.0596 5.5627 16.0717 5.43145 16.1746C5.23145 16.332 5.23145 16.6953 5.43145 16.8527C5.5627 16.9557 5.70645 16.9678 7.2127 16.9678H8.84395L9.3377 17.3916C10.2502 18.1727 11.3752 18.8447 12.3939 19.2141L12.9439 19.4139L12.9252 19.7469L12.9064 20.0859L12.4064 20.2494C11.4627 20.5521 10.9314 20.6309 9.78145 20.6309C8.6502 20.6248 8.40645 20.5945 6.34395 20.1465C4.74395 19.8014 4.1502 19.7348 3.0627 19.7711C2.39395 19.7893 1.9502 19.8377 1.6377 19.9164C1.3252 20.0012 1.16895 20.0133 1.15645 19.9709C1.14395 19.9346 1.0877 19.3836 1.03145 18.7479C0.931445 17.6701 0.931445 17.5793 1.0252 17.3977C1.23145 17.0162 1.40645 16.9678 2.6002 16.9678C3.5877 16.9678 3.68145 16.9557 3.8377 16.8406C4.0627 16.6711 4.0627 16.3563 3.8377 16.1867C3.68145 16.0717 3.5877 16.0596 2.55645 16.0596C1.5877 16.0596 1.4002 16.0777 1.1002 16.1807C0.650195 16.3502 0.237695 16.768 0.0876953 17.2281L-0.0185547 17.5672L0.556445 23.5795C0.962695 27.7754 1.1752 29.6947 1.2502 29.9369C1.4502 30.5666 1.88145 31.0146 2.59395 31.3295L2.90645 31.4688H14.8127H26.719L27.1252 31.2811C27.7439 30.9965 27.969 30.7361 28.7377 29.4283L29.4377 28.2477L30.1127 28.2174C30.9002 28.1871 31.2315 28.0721 31.569 27.7027C32.1689 27.0609 32.1252 26.1285 31.4627 25.5654C31.044 25.2082 30.9877 25.2021 29.0315 25.2021H27.2502L27.0189 24.9539C26.8939 24.8207 26.6814 24.6572 26.5564 24.5906C26.3689 24.4998 26.3002 24.4211 26.2502 24.2455C26.1189 23.7611 25.7377 23.3918 25.2377 23.2586C25.0564 23.2162 24.9627 23.1436 24.8877 23.0043C24.6189 22.5139 24.1064 22.1748 23.6252 22.1748C23.5189 22.1748 23.3502 22.0658 23.1189 21.8539C22.7252 21.4906 22.3564 21.3574 21.9127 21.418C21.6877 21.4543 21.6189 21.4361 21.4627 21.309C21.0252 20.9578 20.6252 20.8609 20.1252 20.9881C19.7939 21.0729 19.7689 21.0668 19.4627 20.9275C19.0377 20.7338 18.5877 20.7338 18.1627 20.9275C17.8564 21.0668 17.8252 21.0729 17.5002 20.9881C17.0002 20.8609 16.5939 20.9639 16.1627 21.309C16.0064 21.4361 15.9377 21.4543 15.7127 21.418C15.2752 21.3574 14.8939 21.4906 14.5377 21.8297C14.2877 22.0658 14.1564 22.1445 13.9377 22.1748C13.7814 22.199 13.6502 22.2172 13.6502 22.2111C13.6252 22.193 13.8814 19.7227 13.9064 19.6984C13.9189 19.6863 14.1689 19.7166 14.4502 19.759C15.2252 19.8861 16.9439 19.868 17.7189 19.7287C20.8064 19.1777 23.3439 17.3795 24.8689 14.6609C25.2627 13.9707 25.1877 13.5771 24.6752 13.5771C24.4064 13.5771 24.3502 13.6377 23.9689 14.3461C23.5564 15.109 23.0064 15.7992 22.2377 16.5137C21.2377 17.4521 20.0752 18.1242 18.7689 18.5359C17.7627 18.8508 17.2064 18.9295 16.0002 18.9295C14.7627 18.9295 14.2064 18.8447 13.1377 18.5057C11.7939 18.0818 10.7189 17.4279 9.6252 16.3623C8.2502 15.0363 7.4627 13.6135 7.08145 11.7789C6.93145 11.0342 6.93145 9.33887 7.08145 8.59414C7.4627 6.75957 8.2502 5.33672 9.6252 4.01074C10.9752 2.70293 12.3377 1.98242 14.2314 1.57676C15.1189 1.38906 16.8752 1.38906 17.7939 1.57676C18.9814 1.825 20.0252 2.24883 21.0627 2.91484C21.7252 3.33262 23.0439 4.59805 23.4627 5.20957C24.8564 7.25606 25.3252 9.44785 24.9002 11.8939C24.8689 12.0816 24.8877 12.1422 25.0189 12.2693C25.2252 12.4691 25.4939 12.4752 25.6689 12.2875C25.9939 11.9484 26.0877 9.65977 25.8252 8.38828C25.0189 4.46484 21.9314 1.46172 17.9064 0.680664C17.2939 0.55957 15.6064 0.474806 15.0314 0.535353ZM4.6752 20.752C5.0002 20.8064 5.75645 20.9518 6.3627 21.085C8.00645 21.4361 8.50645 21.5088 9.46895 21.5512C10.4564 21.5875 11.3814 21.4846 12.2689 21.2363C12.5502 21.1576 12.7877 21.0971 12.7939 21.1031C12.8002 21.1092 12.6252 22.9982 12.4002 25.293C12.1439 27.9691 11.9627 29.5615 11.9064 29.7189C11.8002 29.9914 11.5127 30.3063 11.2252 30.4576C11.0502 30.5484 10.6439 30.5605 7.16895 30.5787C4.51895 30.5908 3.23145 30.5727 3.05645 30.5303C2.7252 30.4395 2.28145 30.0459 2.1627 29.725C2.1002 29.5615 1.93145 28.0842 1.6877 25.5352C1.48145 23.3676 1.29395 21.4604 1.2752 21.2908L1.2377 20.976L1.45645 20.9094C2.23145 20.6611 3.6502 20.5945 4.6752 20.752ZM19.1752 21.8055C19.5252 21.975 19.8064 22.0053 20.1877 21.9084C20.5627 21.8115 20.6252 21.8236 20.9377 22.0598C21.2439 22.2838 21.5814 22.3807 21.9439 22.3322C22.2439 22.2898 22.2439 22.2959 22.5752 22.6107C22.8939 22.9256 23.2314 23.083 23.5564 23.083C23.7752 23.083 23.9252 23.192 24.0627 23.4402C24.2189 23.7369 24.4814 23.9488 24.8564 24.0881C25.2564 24.2273 25.2815 24.2516 25.3752 24.5482C25.4189 24.6936 25.5064 24.8813 25.5689 24.9721C25.6377 25.0568 25.6877 25.1477 25.6877 25.1658C25.6877 25.184 22.9189 25.2021 19.5314 25.2021H13.3752V25.0205C13.3752 24.6633 13.5064 23.5916 13.5752 23.4281C13.6564 23.2223 13.8502 23.083 14.0564 23.083C14.3939 23.083 14.7252 22.9256 15.0502 22.6107C15.3814 22.2959 15.3814 22.2898 15.6814 22.3322C16.0439 22.3807 16.3814 22.2838 16.6877 22.0598C17.0002 21.8236 17.0627 21.8115 17.4377 21.9084C17.8189 22.0053 18.1064 21.975 18.4377 21.8055C18.7189 21.6662 18.8877 21.6662 19.1752 21.8055ZM30.844 26.2436C31.0564 26.4252 31.1189 26.7764 30.969 26.9943C30.7439 27.3334 30.9127 27.3213 24.8502 27.3213H19.2564L19.1314 27.4787C18.9627 27.6906 18.9689 27.8238 19.1502 28.0297L19.3002 28.1992L23.8314 28.2295L28.3627 28.2598L27.8377 29.1377C27.2815 30.0822 26.9752 30.4213 26.5877 30.5242C26.4189 30.5727 24.1752 30.5908 19.4252 30.5908H12.5127L12.7002 30.2275C12.8564 29.9248 12.9002 29.725 12.9752 29.059C13.0189 28.623 13.0627 28.2537 13.0627 28.2477C13.0627 28.2416 14.0627 28.2234 15.2877 28.2174L17.5127 28.1992L17.6314 28.0539C17.7689 27.8844 17.7877 27.6361 17.6627 27.4666C17.5752 27.3576 17.4564 27.3516 15.3627 27.3213C13.2064 27.291 13.1564 27.291 13.1689 27.1699C13.1752 27.1033 13.2002 26.8369 13.2189 26.5766L13.2627 26.1104H21.9689H30.6814L30.844 26.2436Z" fill="black"/>
<path d="M2.825 22.8585C2.70625 22.9796 2.6875 23.0704 2.6875 23.5427C2.6875 24.0391 2.7 24.1057 2.83125 24.2208C2.9875 24.3661 3.1875 24.3903 3.375 24.2934C3.7125 24.1179 3.7125 22.9554 3.375 22.7798C3.18125 22.6768 2.96875 22.7132 2.825 22.8585Z" fill="black"/>
<path d="M10.675 22.8035C10.5188 22.9186 10.4375 23.1668 10.4375 23.5361C10.4375 24.075 10.6063 24.3475 10.9438 24.3535C11.0312 24.3535 11.1625 24.299 11.2375 24.2324C11.3625 24.1174 11.375 24.0447 11.375 23.5361C11.375 23.0275 11.3625 22.9549 11.2375 22.8398C11.0813 22.7006 10.8313 22.6824 10.675 22.8035Z" fill="black"/>
<path d="M5.6875 23.5664C5.6125 23.6391 5.5625 23.7662 5.5625 23.8934C5.5625 24.0629 5.6125 24.1477 5.85 24.3414C6.53125 24.9227 7.53125 24.9227 8.2125 24.3414C8.4625 24.1355 8.5 24.0689 8.5 23.8691C8.5 23.4635 8.05625 23.3061 7.70625 23.5906C7.44375 23.8025 7.28125 23.8691 7.03125 23.8691C6.78125 23.8691 6.61875 23.8025 6.35625 23.5906C6.1375 23.415 5.85625 23.4029 5.6875 23.5664Z" fill="black"/>
<path d="M15.2502 2.68478C14.2939 2.7756 13.4064 3.02384 12.5314 3.44767C10.9877 4.19845 9.8127 5.33673 9.0377 6.83829C8.4877 7.90392 8.23145 8.96349 8.23145 10.1865C8.23145 11.0402 8.33145 11.676 8.5752 12.4268C9.2127 14.3945 10.6127 15.9869 12.5002 16.9072C14.2064 17.7367 16.1439 17.9426 17.9689 17.4824C20.7502 16.7801 22.9314 14.5883 23.5939 11.8395C23.9877 10.1986 23.7439 8.30353 22.9314 6.77169C21.4752 4.01075 18.4064 2.37599 15.2502 2.68478ZM15.5064 3.84122C15.5064 4.24083 15.6314 4.51329 15.8314 4.5799C16.2314 4.71915 16.4877 4.42853 16.4939 3.84122C16.5002 3.60509 16.5127 3.58693 16.6752 3.58693C16.9939 3.58693 17.9689 3.817 18.4689 4.0047C19.0377 4.21661 19.6939 4.57384 20.1752 4.93107L20.5064 5.17931L20.2252 5.45782C19.9002 5.77872 19.8439 6.03907 20.0627 6.25099C20.2814 6.4629 20.5502 6.40841 20.8814 6.09357L21.1689 5.82111L21.4252 6.142C21.7939 6.60822 22.1627 7.24396 22.3814 7.79493C22.5877 8.30353 22.8127 9.2299 22.8127 9.5629V9.76271H22.4064C21.9502 9.76271 21.7502 9.8838 21.7502 10.1623C21.7502 10.5014 22.0064 10.6709 22.5377 10.6709C22.7939 10.6709 22.8127 10.683 22.8127 10.8344C22.8127 11.1492 22.5752 12.0938 22.3814 12.5781C22.1627 13.1291 21.7939 13.7649 21.4252 14.2311L21.1689 14.552L20.8814 14.2795C20.5502 13.9647 20.2814 13.9102 20.0627 14.1221C19.8439 14.334 19.9002 14.5943 20.2252 14.9152L20.5064 15.1938L20.1752 15.442C19.6939 15.7992 19.0377 16.1565 18.4689 16.3684C17.9689 16.5561 16.9939 16.7861 16.6752 16.7861C16.5127 16.7861 16.5002 16.768 16.4939 16.5258C16.4877 15.9445 16.2314 15.6539 15.8314 15.7932C15.6314 15.8598 15.5064 16.1322 15.5064 16.5258C15.5002 16.768 15.4877 16.7861 15.3314 16.7861C15.0064 16.7861 14.0314 16.5561 13.5314 16.3684C12.9627 16.1565 12.3064 15.7992 11.8252 15.442L11.4939 15.1938L11.7752 14.9152C12.1002 14.5943 12.1564 14.334 11.9377 14.1221C11.7189 13.9102 11.4502 13.9647 11.1189 14.2795L10.8314 14.552L10.5752 14.2311C10.2064 13.7649 9.8377 13.1291 9.61895 12.5781C9.4252 12.0938 9.1877 11.1492 9.1877 10.8344C9.1877 10.683 9.20645 10.6709 9.4627 10.6709C9.99395 10.6709 10.2502 10.5014 10.2502 10.1623C10.2502 9.8838 10.0502 9.76271 9.59395 9.76271H9.1877V9.5629C9.1877 9.22384 9.4127 8.29747 9.61895 7.78888C9.8252 7.26818 10.2814 6.48712 10.6252 6.06935L10.8314 5.82111L11.1189 6.09357C11.4502 6.40841 11.7189 6.4629 11.9377 6.25099C12.1564 6.03907 12.1002 5.77872 11.7752 5.45782L11.4939 5.17931L11.8252 4.93107C12.3064 4.57384 12.9627 4.21661 13.5314 4.0047C14.0502 3.8049 14.9439 3.59904 15.3002 3.59298C15.4939 3.58693 15.5002 3.59298 15.5064 3.84122Z" fill="black"/>
<path d="M15.7062 5.66875L15.5312 5.81406V8.08457C15.5312 10.234 15.5375 10.3611 15.65 10.4822C15.7313 10.567 15.8438 10.6094 15.9938 10.6094C16.2063 10.6094 16.3125 10.5246 17.6125 9.25918C18.8063 8.09668 19 7.88477 19 7.72734C19 7.49727 18.775 7.2793 18.5312 7.2793C18.3875 7.2793 18.1875 7.43672 17.4312 8.16328L16.5063 9.05332L16.4875 7.43672L16.4688 5.81406L16.2937 5.66875C16.075 5.48711 15.925 5.48711 15.7062 5.66875Z" fill="black"/>
</g>
<defs>
<clipPath id="clip0_7336_6994">
<rect width="32" height="31" fill="white" transform="translate(0 0.5)"/>
</clipPath>
</defs>
</svg>
