<svg width="28" height="28" viewBox="0 0 28 28" fill="none" xmlns="http://www.w3.org/2000/svg">
<g clip-path="url(#clip0_4116_45877)">
<path d="M9.04116 18.481H10.5967V9.10718H9.04116V18.481ZM14.0656 18.481L21.2181 13.7941L14.0687 9.10718L14.0656 18.481ZM13.8929 27.5882C11.9578 27.5882 10.1378 27.2265 8.43294 26.5031C6.72909 25.7786 5.24665 24.7957 3.98561 23.5542C2.72457 22.3127 1.72642 20.8536 0.991165 19.1769C0.255906 17.5001 -0.112242 15.7074 -0.113279 13.7987C-0.114316 11.89 0.253314 10.0968 0.98961 8.41901C1.72383 6.74021 2.71991 5.27957 3.97783 4.03708C5.23576 2.79459 6.71717 1.81112 8.42205 1.08667C10.1269 0.362223 11.9469 0 13.8821 0C15.8172 0 17.6372 0.362223 19.3421 1.08667C21.0459 1.81009 22.5283 2.79203 23.7894 4.03248C25.0504 5.27293 26.0486 6.73255 26.7838 8.41135C27.5191 10.0901 27.8867 11.8829 27.8867 13.7895C27.8867 15.6962 27.5196 17.4894 26.7854 19.1692C26.0512 20.849 25.0535 22.3097 23.7925 23.5512C22.5315 24.7926 21.0506 25.7761 19.3498 26.5016C17.6491 27.227 15.8312 27.5893 13.8929 27.5882ZM13.8867 26.0556C17.3608 26.0556 20.3034 24.8677 22.7145 22.4921C25.1256 20.1164 26.3312 17.2171 26.3312 13.7941C26.3312 10.3711 25.1256 7.47181 22.7145 5.09616C20.3034 2.72051 17.3608 1.53268 13.8867 1.53268C10.4126 1.53268 7.47005 2.72051 5.05894 5.09616C2.64783 7.47181 1.44228 10.3711 1.44228 13.7941C1.44228 17.2171 2.64783 20.1164 5.05894 22.4921C7.47005 24.8677 10.4126 26.0556 13.8867 26.0556Z" fill="black"/>
</g>
<defs>
<clipPath id="clip0_4116_45877">
<rect width="28" height="27.5882" fill="white"/>
</clipPath>
</defs>
</svg>
