<svg width="27" height="27" viewBox="0 0 27 27" fill="none" xmlns="http://www.w3.org/2000/svg">
<g clip-path="url(#clip0_4116_45871)">
<path d="M13.5 20.9638C13.7948 20.9638 14.0417 20.8643 14.2408 20.6651C14.4388 20.466 14.5378 20.2196 14.5378 19.926C14.5378 19.6324 14.4382 19.3854 14.2391 19.1852C14.04 18.9849 13.7936 18.8854 13.5 18.8865C13.2064 18.8876 12.96 18.9872 12.7609 19.1852C12.5618 19.3832 12.4622 19.6301 12.4622 19.926C12.4622 20.2219 12.5618 20.4683 12.7609 20.6651C12.96 20.862 13.2064 20.9616 13.5 20.9638ZM12.6562 15.9671H14.3438V5.7105H12.6562V15.9671ZM7.88569 27L0 19.1295V7.88569L7.8705 0H19.1143L27 7.8705V19.1143L19.1295 27H7.88569ZM8.60625 25.3125H18.3937L25.3125 18.3937V8.60625L18.3937 1.6875H8.60625L1.6875 8.60625V18.3937L8.60625 25.3125Z" fill="black"/>
</g>
<defs>
<clipPath id="clip0_4116_45871">
<rect width="27" height="27" fill="white"/>
</clipPath>
</defs>
</svg>
