<svg width="22" height="22" viewBox="0 0 22 22" fill="none" xmlns="http://www.w3.org/2000/svg">
<path d="M4.58333 9.16797C3.575 9.16797 2.75 9.99297 2.75 11.0013C2.75 12.0096 3.575 12.8346 4.58333 12.8346C5.59167 12.8346 6.41667 12.0096 6.41667 11.0013C6.41667 9.99297 5.59167 9.16797 4.58333 9.16797ZM17.4167 9.16797C16.4083 9.16797 15.5833 9.99297 15.5833 11.0013C15.5833 12.0096 16.4083 12.8346 17.4167 12.8346C18.425 12.8346 19.25 12.0096 19.25 11.0013C19.25 9.99297 18.425 9.16797 17.4167 9.16797ZM11 9.16797C9.99167 9.16797 9.16667 9.99297 9.16667 11.0013C9.16667 12.0096 9.99167 12.8346 11 12.8346C12.0083 12.8346 12.8333 12.0096 12.8333 11.0013C12.8333 9.99297 12.0083 9.16797 11 9.16797Z" fill="black"/>
</svg>
