<svg width="32" height="32" viewBox="0 0 32 32" fill="none" xmlns="http://www.w3.org/2000/svg">
<g clip-path="url(#clip0_7336_9062)">
<path d="M0 6.7998C0 9.80605 0.01875 10.4685 0.09375 10.7686C0.225 11.2686 0.38125 11.5498 0.75 11.9561L1.0625 12.2998V19.8248C1.0625 28.2623 1.0375 27.7686 1.50625 28.2811C2.25 29.0873 3.6125 28.8811 4.10625 27.8811C4.2125 27.6686 4.21875 27.2186 4.2375 19.9748L4.25 12.2936L4.55 11.9748C4.925 11.5748 5.0875 11.306 5.2125 10.8811C5.3 10.5873 5.3125 10.0436 5.3125 6.8623V3.1873H4.78125H4.25V5.3123V7.4373H3.71875H3.1875V5.3123V3.1873H2.65625H2.125V5.3123V7.4373H1.59375H1.0625V5.3123V3.1873H0.53125H0V6.7998ZM4.25 9.5123C4.25 10.3811 4.2375 10.4998 4.1 10.781C4.025 10.9498 3.84375 11.1936 3.70625 11.3186C3.05625 11.906 2.0375 11.8373 1.46875 11.1686C1.14375 10.7936 1.0625 10.4373 1.0625 9.4248V8.5623H2.65625H4.25V9.5123ZM3.1875 20.081C3.1875 28.0373 3.2125 27.5498 2.8375 27.6936C2.61875 27.7748 2.26875 27.6186 2.1875 27.4061C2.15 27.2998 2.125 24.6561 2.125 20.0248V12.8123H2.65625H3.1875V20.081Z" fill="black"/>
<path d="M30.3878 3.24458C30.0628 3.32583 29.7441 3.57583 29.3628 4.03833C28.8628 4.65083 28.4691 5.31333 28.2191 5.96958C27.7753 7.13208 27.7941 6.91333 27.7628 11.4383C27.7503 13.6883 27.7628 15.6508 27.7816 15.7883C27.8378 16.1696 28.1503 16.6071 28.5066 16.8008L28.8128 16.9696V22.2508V27.5321L28.9628 27.8446C29.5316 29.0696 31.1878 29.1008 31.8316 27.9071L31.9691 27.6571L31.9878 16.0383C31.9941 8.37583 31.9816 4.34458 31.9378 4.18833C31.7566 3.50708 31.0503 3.08208 30.3878 3.24458ZM30.8378 4.35083C30.9253 4.43833 30.9378 5.05708 30.9378 10.2258V16.0008H30.0941C29.2128 16.0008 29.0003 15.9508 28.8816 15.7258C28.8253 15.6258 28.8128 14.5196 28.8253 11.5321L28.8441 7.46958L29.0128 6.93208C29.3253 5.92583 29.7316 5.19458 30.3316 4.54458C30.6316 4.22583 30.6941 4.20083 30.8378 4.35083ZM30.9253 22.2508L30.9066 27.4321L30.7691 27.5758C30.5628 27.7821 30.2128 27.7633 30.0253 27.5383L29.8753 27.3696V22.2133V17.0633H30.4066H30.9378L30.9253 22.2508Z" fill="black"/>
<path d="M15.1876 5.38115C9.95635 5.7624 5.74385 10.0062 5.38135 15.2624C4.9751 21.1187 9.4001 26.2124 15.2626 26.6187C21.1188 27.0249 26.2126 22.5999 26.6188 16.7374C26.8376 13.6499 25.7188 10.6687 23.5251 8.4749C21.3126 6.2624 18.3188 5.1499 15.1876 5.38115ZM17.3438 6.50615C21.1063 7.00615 24.3251 9.8749 25.2876 13.5749C25.6813 15.1187 25.6688 16.9937 25.2501 18.5249C24.3438 21.8062 21.8063 24.3437 18.5251 25.2499C16.9938 25.6687 15.1188 25.6812 13.5751 25.2874C10.2751 24.4312 7.56885 21.7249 6.7126 18.4249C6.33135 16.9374 6.33135 15.0624 6.7126 13.5749C7.4876 10.5812 9.76885 8.0749 12.6938 6.9999C14.1626 6.45615 15.7188 6.29365 17.3438 6.50615Z" fill="black"/>
<path d="M16.6559 7.6763C16.1934 7.90755 15.8684 8.2388 15.6559 8.70755C15.5059 9.0263 15.4872 9.13255 15.5122 9.58255C15.5497 10.4513 15.4997 10.3888 18.5559 13.4451C21.6122 16.5013 21.5497 16.4513 22.4184 16.4888C22.8622 16.5138 22.9684 16.4951 23.2997 16.3451C23.7622 16.1388 24.1309 15.7701 24.3434 15.2951C24.4934 14.9763 24.5122 14.8701 24.4872 14.4201C24.4497 13.5513 24.4997 13.6138 21.4434 10.5576C18.3747 7.48255 18.4497 7.54505 17.5622 7.5138C17.0809 7.49505 16.9934 7.5138 16.6559 7.6763ZM17.9059 8.6263C17.9997 8.6638 18.4059 9.0138 18.8059 9.40755L19.5309 10.1263H18.1497C16.5622 10.1263 16.6122 10.1451 16.5809 9.5763C16.5497 9.15755 16.6872 8.8888 17.0122 8.6888C17.2372 8.5513 17.6372 8.5263 17.9059 8.6263ZM21.3559 11.9513C21.7809 12.3763 22.1247 12.7388 22.1247 12.7638C22.1247 12.7951 21.5122 12.8138 20.7684 12.8138H19.4059L18.6434 12.0513C18.2184 11.6263 17.8747 11.2638 17.8747 11.2388C17.8747 11.2076 18.4872 11.1888 19.2309 11.1888H20.5934L21.3559 11.9513ZM23.3184 13.9763C23.3622 14.0326 23.4059 14.2326 23.4184 14.4263C23.4497 14.8451 23.3122 15.1138 22.9872 15.3138C22.7622 15.4513 22.3622 15.4763 22.0934 15.3763C21.9997 15.3388 21.5934 14.9888 21.1934 14.5951L20.4684 13.8763H21.8497C23.0372 13.8763 23.2434 13.8888 23.3184 13.9763Z" fill="black"/>
<path d="M10.612 9.6875C10.2933 9.78125 9.89953 10.1187 8.83078 11.2063C7.44328 12.6062 7.48703 12.5187 7.44953 14.1062C7.41828 15.425 7.48703 16.0187 7.70578 16.375C7.78078 16.4937 8.11828 16.8812 8.44953 17.2313C8.93703 17.7375 9.06203 17.9062 9.06203 18.0437C9.06203 18.425 9.25578 18.8875 9.54328 19.1937C9.95578 19.6375 10.2245 19.7188 11.2495 19.7188C12.4558 19.7188 12.4995 19.7 13.637 18.575L14.5558 17.6688L15.012 17.5812C15.5558 17.4813 15.9433 17.2625 16.187 16.9312C16.5058 16.4875 16.5308 16.3312 16.5308 14.875C16.5308 13.1625 16.5245 13.1437 15.687 12.2812C15.0433 11.6187 14.937 11.475 14.937 11.2312C14.937 10.675 14.5058 10.0188 13.9745 9.775C13.6683 9.63125 13.5995 9.625 12.2183 9.63125C11.4308 9.63125 10.7058 9.65625 10.612 9.6875ZM13.562 10.75C13.7308 10.8438 13.8308 11.0437 13.8808 11.4125C13.9495 11.9187 14.1058 12.1687 14.7933 12.8875L15.437 13.55V14.8625C15.437 16.15 15.437 16.1688 15.287 16.3312C15.187 16.4437 15.0495 16.5 14.837 16.5312C14.1808 16.6187 14.0245 16.7188 13.0308 17.6937C11.9683 18.7375 11.9933 18.7188 11.0558 18.675C10.3495 18.6437 10.2058 18.5312 10.1245 17.9562C10.0495 17.4062 9.86828 17.1125 9.18078 16.4062L8.56203 15.7687V14.375V12.975L9.70578 11.8312L10.8495 10.6875H12.1495C12.912 10.6875 13.4933 10.7125 13.562 10.75Z" fill="black"/>
<path d="M11.3623 12.3139C10.0873 12.5326 9.29355 13.9264 9.75605 15.1576C9.94355 15.6701 10.4561 16.1826 10.9686 16.3701C11.4123 16.5389 12.0248 16.5514 12.4311 16.4139C12.8186 16.2764 13.2686 15.9201 13.4936 15.5826C14.1748 14.5639 13.8248 13.1201 12.7686 12.5514C12.5248 12.4139 11.8311 12.2326 11.6936 12.2576C11.6748 12.2639 11.5248 12.2889 11.3623 12.3139ZM12.2623 13.4764C12.6061 13.6514 12.8561 14.1514 12.7936 14.5451C12.6373 15.4951 11.4311 15.7639 10.8561 14.9889C10.6873 14.7639 10.6436 14.2076 10.7686 13.9639C11.0561 13.4076 11.7061 13.1951 12.2623 13.4764Z" fill="black"/>
<path d="M18.3313 15.0875C18.1625 15.2375 18.1562 15.2562 18.1375 15.95C18.1312 16.3375 18.0875 16.7187 18.0563 16.7875C17.975 16.9437 17.75 17.0625 17.5312 17.0625C17.2438 17.0625 16.7188 17.3062 16.4875 17.5437C16.2188 17.8312 16.0875 18.075 16.0312 18.4062C15.9563 18.875 15.9375 18.9312 15.8 19.0625C15.725 19.1312 15.5875 19.1875 15.5 19.1875C15.175 19.1875 14.6813 19.3812 14.425 19.6125C14.1313 19.875 13.875 20.3687 13.875 20.6687C13.875 20.9312 13.7687 21.1562 13.6 21.2437C13.5312 21.275 13.1562 21.3187 12.7688 21.325C12.1312 21.3437 12.0563 21.3562 11.9125 21.4937C11.8 21.6 11.75 21.7125 11.75 21.8687C11.75 22.0687 11.8438 22.1812 12.9188 23.2625C13.7313 24.075 14.1562 24.4562 14.3063 24.5062C14.6562 24.625 15.7188 24.5437 16.1125 24.375C16.6688 24.1375 16.9688 23.6687 17.0938 22.8562C17.1375 22.5687 17.3 22.45 17.7688 22.375C18.1813 22.3125 18.5312 22.1375 18.7625 21.8937C18.9813 21.6625 19.1875 21.2125 19.1875 20.95C19.1875 20.5187 19.475 20.25 19.9313 20.25C20.15 20.2437 20.6188 20.0312 20.8375 19.825C20.9375 19.7312 21.0813 19.5125 21.1625 19.3437C21.2937 19.0625 21.3125 18.9437 21.3125 18.1937V17.35L20.1062 16.1437C19.05 15.0875 18.875 14.9375 18.7063 14.9375C18.5875 14.9375 18.4375 15 18.3313 15.0875ZM20.25 18.3187C20.25 19.025 20.1938 19.1062 19.5687 19.225C19.05 19.3187 18.725 19.5062 18.4688 19.8375C18.2875 20.075 18.125 20.5437 18.125 20.825C18.125 21.1 17.8938 21.2875 17.4938 21.3437C17.0938 21.3937 16.7313 21.5625 16.45 21.8312C16.2438 22.0312 16 22.575 16 22.85C16 23.05 15.8438 23.35 15.7188 23.4C15.6625 23.4187 15.3875 23.4375 15.1 23.4375H14.5938L14.075 22.9187L13.5625 22.4062L13.8813 22.2937C14.4625 22.0875 14.9375 21.4125 14.9375 20.8062C14.9375 20.5062 15.1625 20.3187 15.6188 20.2437C16.0875 20.1687 16.3 20.0687 16.5813 19.7875C16.8438 19.525 16.9938 19.2187 17.0625 18.7687C17.1375 18.3062 17.2562 18.2 17.7562 18.1187C18.45 18.0062 18.8938 17.6562 19.1 17.0312L19.2063 16.7375L19.725 17.2562L20.25 17.7812V18.3187Z" fill="black"/>
</g>
<defs>
<clipPath id="clip0_7336_9062">
<rect width="32" height="32" fill="white"/>
</clipPath>
</defs>
</svg>
