<svg width="18" height="18" viewBox="0 0 18 18" fill="none" xmlns="http://www.w3.org/2000/svg">
<path d="M11.25 17.0625H6.75C2.6775 17.0625 0.9375 15.3225 0.9375 11.25V6.75C0.9375 2.6775 2.6775 0.9375 6.75 0.9375H8.25C8.5575 0.9375 8.8125 1.1925 8.8125 1.5C8.8125 1.8075 8.5575 2.0625 8.25 2.0625H6.75C3.2925 2.0625 2.0625 3.2925 2.0625 6.75V11.25C2.0625 14.7075 3.2925 15.9375 6.75 15.9375H11.25C14.7075 15.9375 15.9375 14.7075 15.9375 11.25V9.75C15.9375 9.4425 16.1925 9.1875 16.5 9.1875C16.8075 9.1875 17.0625 9.4425 17.0625 9.75V11.25C17.0625 15.3225 15.3225 17.0625 11.25 17.0625Z" fill="#2B2B2B"/>
<path d="M6.37549 13.2694C5.91799 13.2694 5.49799 13.1044 5.19049 12.8044C4.82299 12.4369 4.66549 11.9044 4.74799 11.3419L5.07049 9.08437C5.13049 8.64937 5.41549 8.08687 5.72299 7.77937L11.633 1.86938C13.1255 0.376875 14.6405 0.376875 16.133 1.86938C16.9505 2.68688 17.318 3.51938 17.243 4.35188C17.1755 5.02688 16.8155 5.68687 16.133 6.36187L10.223 12.2719C9.91549 12.5794 9.35299 12.8644 8.91799 12.9244L6.66049 13.2469C6.56299 13.2694 6.46549 13.2694 6.37549 13.2694ZM12.428 2.66438L6.51799 8.57437C6.37549 8.71687 6.21049 9.04687 6.18049 9.24187L5.85799 11.4994C5.82799 11.7169 5.87299 11.8969 5.98549 12.0094C6.09799 12.1219 6.27799 12.1669 6.49549 12.1369L8.75299 11.8144C8.94799 11.7844 9.28549 11.6194 9.42049 11.4769L15.3305 5.56688C15.818 5.07938 16.073 4.64438 16.1105 4.23938C16.1555 3.75188 15.9005 3.23438 15.3305 2.65688C14.1305 1.45687 13.3055 1.79438 12.428 2.66438Z" fill="#2B2B2B"/>
<path d="M14.8867 7.37075C14.8342 7.37075 14.7817 7.36325 14.7367 7.34825C12.7642 6.79325 11.1967 5.22575 10.6417 3.25325C10.5592 2.95325 10.7317 2.64575 11.0317 2.55575C11.3317 2.47325 11.6392 2.64575 11.7217 2.94575C12.1717 4.54325 13.4392 5.81075 15.0367 6.26075C15.3367 6.34325 15.5092 6.65825 15.4267 6.95825C15.3592 7.21325 15.1342 7.37075 14.8867 7.37075Z" fill="#2B2B2B"/>
</svg>
