<svg width="31" height="31" viewBox="0 0 31 31" fill="none" xmlns="http://www.w3.org/2000/svg">
<path d="M15.5 8.31828V12.6195" stroke="#292D32" stroke-width="2" stroke-miterlimit="10" stroke-linecap="round"/>
<path d="M15.5256 2.58319C10.7722 2.58319 6.92308 6.43236 6.92308 11.1857V13.8982C6.92308 14.7765 6.56141 16.094 6.10933 16.8432L4.46891 19.5815C3.46141 21.2736 4.15891 23.1594 6.01891 23.7794C12.1931 25.8332 18.871 25.8332 25.0451 23.7794C26.7889 23.1982 27.5381 21.1574 26.5951 19.5815L24.9547 16.8432C24.5026 16.094 24.141 14.7636 24.141 13.8982V11.1857C24.1281 6.45819 20.2531 2.58319 15.5256 2.58319Z" stroke="#292D32" stroke-width="2" stroke-miterlimit="10" stroke-linecap="round"/>
<path d="M19.801 24.3091C19.801 26.6729 17.8635 28.6104 15.4997 28.6104C14.3243 28.6104 13.2393 28.1196 12.4644 27.3446C11.6894 26.5696 11.1985 25.4846 11.1985 24.3091" stroke="#292D32" stroke-width="2" stroke-miterlimit="10"/>
</svg>
