<svg width="19" height="20" viewBox="0 0 19 20" fill="none" xmlns="http://www.w3.org/2000/svg">
<path d="M18.0449 13.7234L13.4336 11.6599C13.2548 11.5826 13.0596 11.551 12.8656 11.568C12.6715 11.5851 12.4848 11.6502 12.3223 11.7576C12.3093 11.7658 12.2969 11.775 12.2852 11.7849L9.86329 13.8494C9.8094 13.8823 9.74822 13.9013 9.6852 13.9049C9.62217 13.9085 9.55923 13.8965 9.50196 13.8699C7.91603 13.1043 6.27443 11.4754 5.5088 9.90798C5.48172 9.85114 5.46915 9.78848 5.47221 9.72559C5.47528 9.66271 5.49389 9.60156 5.52638 9.54763L7.59669 7.08572C7.60646 7.074 7.61525 7.0613 7.62403 7.04861C7.73106 6.8863 7.79602 6.69992 7.81307 6.50626C7.83011 6.3126 7.79871 6.11773 7.72169 5.93923L5.65431 1.33572C5.5545 1.10256 5.38175 0.908071 5.16199 0.781463C4.94223 0.654855 4.68733 0.602958 4.43556 0.633567C3.20662 0.795598 2.07869 1.39945 1.26244 2.33233C0.446191 3.26522 -0.00255855 4.46333 1.09738e-05 5.7029C1.09738e-05 13.242 6.13282 19.3748 13.6719 19.3748C14.9115 19.3773 16.1096 18.9286 17.0425 18.1123C17.9753 17.2961 18.5792 16.1682 18.7412 14.9392C18.7716 14.6886 18.7202 14.4349 18.5948 14.2158C18.4693 13.9967 18.2765 13.824 18.0449 13.7234ZM17.9688 14.8416C17.8309 15.8823 17.3186 16.8373 16.5278 17.5278C15.737 18.2183 14.7217 18.5972 13.6719 18.5935C6.56446 18.5935 0.781261 12.8103 0.781261 5.7029C0.777624 4.65305 1.15648 3.6378 1.84701 2.84699C2.53753 2.05617 3.49245 1.54393 4.53321 1.40603C4.54882 1.40509 4.56448 1.40509 4.58009 1.40603C4.65715 1.40668 4.7323 1.43012 4.79607 1.47339C4.85985 1.51666 4.9094 1.57783 4.93849 1.64919L7.00001 6.25271C7.02406 6.30897 7.03456 6.3701 7.03066 6.43116C7.02676 6.49223 7.00857 6.55153 6.97755 6.60427L4.90821 9.06521C4.89845 9.0779 4.88868 9.08962 4.87989 9.10329C4.76965 9.27188 4.70472 9.46604 4.69138 9.66704C4.67804 9.86803 4.71673 10.0691 4.80372 10.2508C5.65235 11.9881 7.40235 13.7254 9.15919 14.574C9.34211 14.6604 9.5443 14.698 9.74606 14.6831C9.94783 14.6683 10.1423 14.6014 10.3106 14.489L10.3467 14.4617L12.7715 12.3992C12.8234 12.3675 12.882 12.3486 12.9426 12.344C13.0032 12.3394 13.0641 12.3493 13.1201 12.3728L17.7305 14.4392C17.8083 14.4716 17.8735 14.5283 17.9165 14.6008C17.9594 14.6733 17.9778 14.7578 17.9688 14.8416Z" fill="black"/>
</svg>
