<svg width="20" height="16" viewBox="0 0 20 16" fill="none" xmlns="http://www.w3.org/2000/svg">
<path d="M14.375 11.625C14.2092 11.625 14.0503 11.6908 13.9331 11.8081C13.8158 11.9253 13.75 12.0842 13.75 12.25C13.75 12.4158 13.8158 12.5747 13.9331 12.6919C14.0503 12.8092 14.2092 12.875 14.375 12.875H16.875C17.0408 12.875 17.1997 12.8092 17.3169 12.6919C17.4342 12.5747 17.5 12.4158 17.5 12.25C17.5 12.0842 17.4342 11.9253 17.3169 11.8081C17.1997 11.6908 17.0408 11.625 16.875 11.625H14.375ZM0 3.8125C0 2.90082 0.362164 2.02648 1.00682 1.38182C1.65148 0.737164 2.52582 0.375 3.4375 0.375H16.5625C17.4742 0.375 18.3485 0.737164 18.9932 1.38182C19.6378 2.02648 20 2.90082 20 3.8125V11.9375C20 12.8492 19.6378 13.7235 18.9932 14.3682C18.3485 15.0128 17.4742 15.375 16.5625 15.375H3.4375C2.52582 15.375 1.65148 15.0128 1.00682 14.3682C0.362164 13.7235 0 12.8492 0 11.9375V3.8125ZM3.4375 1.625C2.85734 1.625 2.30094 1.85547 1.8907 2.2657C1.48047 2.67594 1.25 3.23234 1.25 3.8125V5.375H18.75V3.8125C18.75 3.23234 18.5195 2.67594 18.1093 2.2657C17.6991 1.85547 17.1427 1.625 16.5625 1.625H3.4375ZM18.75 6.625H1.25V11.9375C1.25 13.145 2.23 14.125 3.4375 14.125H16.5625C17.1427 14.125 17.6991 13.8945 18.1093 13.4843C18.5195 13.0741 18.75 12.5177 18.75 11.9375V6.625Z" fill="black"/>
</svg>
