<svg width="18" height="20" viewBox="0 0 18 20" fill="none" xmlns="http://www.w3.org/2000/svg">
<path d="M8.75 0C7.42392 0 6.15215 0.526784 5.21447 1.46447C4.27678 2.40215 3.75 3.67392 3.75 5C3.75 6.32608 4.27678 7.59785 5.21447 8.53553C6.15215 9.47322 7.42392 10 8.75 10C10.0761 10 11.3479 9.47322 12.2855 8.53553C13.2232 7.59785 13.75 6.32608 13.75 5C13.75 3.67392 13.2232 2.40215 12.2855 1.46447C11.3479 0.526784 10.0761 0 8.75 0ZM5 5C5 4.00544 5.39509 3.05161 6.09835 2.34835C6.80161 1.64509 7.75544 1.25 8.75 1.25C9.74456 1.25 10.6984 1.64509 11.4017 2.34835C12.1049 3.05161 12.5 4.00544 12.5 5C12.5 5.99456 12.1049 6.94839 11.4017 7.65165C10.6984 8.35491 9.74456 8.75 8.75 8.75C7.75544 8.75 6.80161 8.35491 6.09835 7.65165C5.39509 6.94839 5 5.99456 5 5ZM2.51125 11.25C2.182 11.2485 1.8557 11.3121 1.55109 11.4371C1.24647 11.562 0.969546 11.7459 0.736206 11.9782C0.502867 12.2105 0.317711 12.4866 0.191372 12.7907C0.0650321 13.0947 -3.33358e-06 13.4207 1.28158e-10 13.75C1.28159e-10 15.8638 1.04125 17.4575 2.66875 18.4963C4.27125 19.5175 6.43125 20 8.75 20C11.0688 20 13.2288 19.5175 14.8312 18.4963C16.4587 17.4588 17.5 15.8625 17.5 13.75C17.5 13.087 17.2366 12.4511 16.7678 11.9822C16.2989 11.5134 15.663 11.25 15 11.25H2.51125ZM1.25 13.75C1.25 13.0588 1.81 12.5 2.51125 12.5H15C15.3315 12.5 15.6495 12.6317 15.8839 12.8661C16.1183 13.1005 16.25 13.4185 16.25 13.75C16.25 15.3862 15.4725 16.605 14.1587 17.4412C12.8212 18.295 10.9187 18.75 8.75 18.75C6.58125 18.75 4.67875 18.295 3.34125 17.4412C2.02875 16.6038 1.25 15.3875 1.25 13.75Z" fill="black"/>
</svg>
