<svg width="18" height="18" viewBox="0 0 18 18" fill="none" xmlns="http://www.w3.org/2000/svg">
<g clip-path="url(#clip0_4116_47714)">
<path fill-rule="evenodd" clip-rule="evenodd" d="M4.53125 8.98586C4.53125 8.67823 4.78063 8.42884 5.08827 8.42884H7.39956C7.95185 8.42884 8.39956 7.98113 8.39956 7.42884V5.11952C8.39956 4.81188 8.64895 4.5625 8.95658 4.5625C9.26421 4.5625 9.51359 4.81188 9.51359 5.11952V7.42884C9.51359 7.98113 9.96131 8.42884 10.5136 8.42884H12.9613C13.2689 8.42884 13.5183 8.67823 13.5183 8.98586C13.5183 9.29349 13.2689 9.54288 12.9613 9.54288H10.5136C9.96131 9.54288 9.51359 9.99059 9.51359 10.5429V12.9925C9.51359 13.3002 9.26421 13.5496 8.95658 13.5496C8.64895 13.5496 8.39956 13.3002 8.39956 12.9925V10.5429C8.39956 9.99059 7.95185 9.54288 7.39956 9.54288H5.08827C4.78063 9.54288 4.53125 9.29349 4.53125 8.98586Z" fill="#FEFEFE"/>
<path d="M9.03994 15.7735C10.7778 15.7569 12.4985 15.0369 13.7357 13.8143C15.2052 12.362 15.9621 10.2135 15.6982 8.16234C15.2457 4.647 12.3562 2.26172 8.99662 2.26172C6.44428 2.26172 3.96337 3.85837 2.87522 6.17362C2.04244 7.94606 2.04075 10.0861 2.87522 11.8619C3.95578 14.1608 6.39563 15.7491 8.95303 15.7735C8.982 15.7738 9.01097 15.7738 9.03994 15.7735ZM8.96034 14.6477C6.36441 14.6227 3.94256 12.6151 3.46106 10.0414C3.12131 8.22675 3.76228 6.26334 5.09738 4.97466C6.65634 3.46997 9.10603 2.96569 11.1431 3.81872C12.9659 4.58203 14.33 6.35391 14.5814 8.30606C14.7968 9.97922 14.1964 11.7328 13.0162 12.9411C11.9812 14.0005 10.5297 14.6331 9.03263 14.6477C9.00872 14.6477 8.98453 14.6477 8.96034 14.6477Z" fill="#FEFEFE"/>
</g>
<defs>
<clipPath id="clip0_4116_47714">
<rect width="18" height="18" fill="white"/>
</clipPath>
</defs>
</svg>
