<svg width="19" height="20" viewBox="0 0 19 20" fill="none" xmlns="http://www.w3.org/2000/svg">
<path d="M9.5 3.66732C8.66015 3.66732 7.85469 4.00095 7.26083 4.59481C6.66696 5.18868 6.33333 5.99413 6.33333 6.83398C6.33333 7.67384 6.66696 8.47929 7.26083 9.07316C7.85469 9.66702 8.66015 10.0007 9.5 10.0007C10.3399 10.0007 11.1453 9.66702 11.7392 9.07316C12.333 8.47929 12.6667 7.67384 12.6667 6.83398C12.6667 5.99413 12.333 5.18868 11.7392 4.59481C11.1453 4.00095 10.3399 3.66732 9.5 3.66732ZM4.75 6.83398C4.75 5.57421 5.25045 4.36602 6.14124 3.47523C7.03204 2.58443 8.24022 2.08398 9.5 2.08398C10.7598 2.08398 11.968 2.58443 12.8588 3.47523C13.7496 4.36602 14.25 5.57421 14.25 6.83398C14.25 8.09376 13.7496 9.30194 12.8588 10.1927C11.968 11.0835 10.7598 11.584 9.5 11.584C8.24022 11.584 7.03204 11.0835 6.14124 10.1927C5.25045 9.30194 4.75 8.09376 4.75 6.83398ZM6.33333 14.7506C5.70344 14.7506 5.09935 15.0009 4.65395 15.4463C4.20856 15.8917 3.95833 16.4958 3.95833 17.1256C3.95833 17.3356 3.87493 17.537 3.72646 17.6854C3.57799 17.8339 3.37663 17.9173 3.16667 17.9173C2.9567 17.9173 2.75534 17.8339 2.60687 17.6854C2.45841 17.537 2.375 17.3356 2.375 17.1256C2.375 16.0758 2.79204 15.069 3.53437 14.3267C4.2767 13.5844 5.28352 13.1673 6.33333 13.1673H12.6667C13.7165 13.1673 14.7233 13.5844 15.4656 14.3267C16.208 15.069 16.625 16.0758 16.625 17.1256C16.625 17.3356 16.5416 17.537 16.3931 17.6854C16.2447 17.8339 16.0433 17.9173 15.8333 17.9173C15.6234 17.9173 15.422 17.8339 15.2735 17.6854C15.1251 17.537 15.0417 17.3356 15.0417 17.1256C15.0417 16.4958 14.7914 15.8917 14.346 15.4463C13.9006 15.0009 13.2966 14.7506 12.6667 14.7506H6.33333Z" fill="#D7AD45"/>
</svg>
