<svg width="378" height="565" viewBox="0 0 378 565" fill="none" xmlns="http://www.w3.org/2000/svg">
<path d="M10.9414 9.20312C10.9414 9.20312 50.9136 31.8129 63.9571 81.7121C70.0055 104.9 86.9937 104.269 100.984 116.1C132.804 143.021 106.927 159.742 125.335 175.148C125.335 156.535 133.856 157.323 131.752 139.972C183.558 187.82 156.524 245.607 117.183 248.183C92.937 249.76 83.8906 235.669 83.8906 235.669C83.8906 235.669 67.2706 262.432 127.807 299.817C205.701 347.876 156.156 393.727 156.156 393.727C156.156 393.727 31.6638 341.935 22.7753 224.206C21.6708 209.273 21.25 177.777 21.6708 164.369C28.5607 175.674 34.3462 186.506 50.7558 189.292C33.5572 171.678 22.9331 136.291 29.1919 106.635C41.7095 46.851 10.9414 9.20312 10.9414 9.20312Z" fill="#F6EEE3" stroke="#D7AD45" stroke-opacity="0.16" stroke-width="4" stroke-miterlimit="10"/>
<path d="M50.8594 118.098C59.0116 137.868 84.415 151.802 95.3021 173.991C107.978 199.808 82.5741 231.567 82.5741 231.567C82.5741 231.567 67.2164 262.432 127.753 299.817C205.646 347.876 192.34 348.244 192.34 348.244C192.34 348.244 191.866 364.386 157.259 351.399C112.764 334.731 36.9217 282.939 61.0102 211.166C77.7354 161.214 57.0656 146.965 50.8594 118.098Z" fill="#F6EEE3" stroke="#D7AD45" stroke-opacity="0.16" stroke-width="4" stroke-miterlimit="10"/>
<path d="M163.258 706.057C163.258 706.057 211.856 710.263 260.927 687.811C248.251 682.764 243.255 677.926 240.046 673.352C257.455 681.028 272.918 682.606 284.647 674.614C299.058 665.044 312.838 652.582 324.619 636.44C327.933 631.918 331.141 627.133 334.139 622.085C339.293 613.462 351.022 589.538 361.12 576.445C354.441 582.071 334.56 596.899 320.254 599.265C329.353 594.638 355.703 576.866 361.067 547.631C365.485 520.026 364.591 490.423 356.281 461.03C353.967 452.88 346.183 434.582 347.13 415.022C343.764 434.792 336.19 452.828 329.353 461.661C333.087 453.511 343.606 430.481 328.301 402.035C314.521 382.054 296.218 362.967 272.708 345.405C250.46 326.844 254.615 307.442 254.826 301.29C242.361 321.849 241.992 344.459 249.882 363.808C234.314 347.35 241.309 312.91 219.85 293.928C177.932 256.806 222.48 236.878 185.032 177.094C188.188 230.306 163.679 237.404 151.266 253.441C137.276 271.529 140.695 293.823 156.263 309.65C138.854 307.284 134.225 296.925 130.702 286.988C127.493 296.4 125.284 310.334 125.337 320.587C125.758 373.483 145.901 387.89 159.208 392.675C171.094 396.934 201.126 405.452 209.068 377.69C235.418 398.775 272.182 442.364 240.625 543.162C220.06 608.782 181.035 611.464 156.999 616.722C109.453 627.186 163.31 706.109 163.31 706.109L163.258 706.057Z" fill="#F6EEE3" stroke="#D7AD45" stroke-opacity="0.16" stroke-width="4" stroke-miterlimit="10"/>
<path d="M148.584 673.3C148.584 673.3 283.28 681.029 313.574 548.999C340.555 431.586 225.215 382.738 202.757 368.016C205.912 383.685 190.502 405.874 152.897 390.888C203.125 412.341 322.568 546.528 167.202 626.503L148.531 673.3H148.584Z" fill="#F6EEE3" stroke="#D7AD45" stroke-opacity="0.16" stroke-width="4" stroke-miterlimit="10"/>
<path d="M26.4554 284.148C43.9169 329.421 54.9618 330.104 77.3673 347.614C102.508 367.226 106.452 382.317 112.553 399.984C108.451 388.311 108.083 377.585 111.081 366.385C120.706 381.949 142.795 389.152 156.049 393.674C173.826 399.774 190.289 406.399 204.963 414.128C211.905 417.809 233.101 434.004 231.418 465.868C236.94 451.829 233.101 430.165 230.103 420.596C233.574 426.432 242.778 439.367 249.3 448.043C266.025 470.442 275.913 497.311 271.916 534.854C268.129 563.616 248.143 568.663 232.733 572.291C247.091 570.504 255.086 567.927 265.973 562.669C245.198 619.562 175.141 633.338 160.888 633.338C133.644 633.338 121.968 653.476 119.601 647.903C117.234 642.277 76.368 631.077 75.3161 626.345C71.687 610.675 144.794 574.29 144.794 574.29C144.794 574.29 218.69 571.24 205.962 503.621C195.916 450.409 145.951 451.198 145.951 451.198C145.951 451.198 168.409 477.856 145.11 495.891C112.974 520.71 50.8594 483.482 37.8685 444.678C43.128 445.729 54.9092 445.992 61.0103 444.467C45.337 438.999 29.874 425.012 22.4581 397.355C14.5689 367.962 15.8838 331.366 26.4554 284.148Z" fill="#F6EEE3" stroke="#D7AD45" stroke-opacity="0.16" stroke-width="4" stroke-miterlimit="10"/>
<path d="M125.281 426.904C158.153 430.953 223.266 431.058 229.735 503.62C235.994 574.446 171.197 588.485 153.788 591.43C135.274 594.532 103.402 608.15 93.1458 621.979C90.6212 625.397 70.3722 600.999 72.1604 596.214C85.6247 560.302 139.219 555.885 139.219 555.885C139.219 555.885 193.918 550.995 193.339 507.879C192.655 456.507 152.631 457.822 148.581 458.768C139.429 493.314 57.4338 474.332 58.1175 379.371C68.6891 400.982 90.0427 422.593 125.281 426.957V426.904Z" fill="#F6EEE3" stroke="#D7AD45" stroke-opacity="0.16" stroke-width="4" stroke-miterlimit="10"/>
<path d="M172.985 372.485C172.985 372.485 166.463 361.495 174.195 353.24C180.506 346.51 198.125 346.3 202.754 367.963" fill="#F6EEE3"/>
<path d="M172.985 372.485C172.985 372.485 166.463 361.495 174.195 353.24C180.506 346.51 198.125 346.3 202.754 367.963" stroke="#D7AD45" stroke-opacity="0.16" stroke-width="4" stroke-miterlimit="10"/>
</svg>
