<svg width="18" height="18" viewBox="0 0 18 18" fill="none" xmlns="http://www.w3.org/2000/svg">
<path d="M11.994 10.0273C12.33 9.01877 11.5008 8.56005 11.2111 8.75215C10.9496 8.91279 10.9778 9.22743 11.135 9.2324C11.2939 9.23737 11.2211 9.19597 11.2211 9.19597C11.2211 9.19597 11.1797 8.94259 11.466 8.94756C11.7524 8.95253 12.196 9.61494 11.4545 10.4993C10.7129 11.3836 10.0641 10.8586 10.0079 10.7758C9.94993 10.6914 9.75959 10.4214 9.98469 9.95774C10.1039 9.8385 9.85062 9.77226 9.64373 9.99748C9.43518 10.2227 9.11243 10.8056 9.5378 10.9249C9.68345 10.794 10.0377 11.1087 9.78772 11.4068C9.5378 11.7048 8.29975 12.2298 7.17756 11.0342C6.05538 9.8385 7.67411 7.58134 8.42058 8.20732C8.6523 8.25534 8.15244 7.29154 7.24874 8.34974C6.94419 8.71241 6.66613 9.26055 6.66613 9.26055C6.66613 9.26055 6.36158 8.98068 6.47247 8.40604C6.48902 8.31496 6.51716 8.2156 6.55854 8.10796C6.65123 7.8728 6.81012 7.59956 7.06501 7.28822C8.16237 5.95678 9.96482 5.56099 11.4578 6.81295C12.9507 8.0649 12.858 10.0339 11.4098 11.7628C11.4098 11.7628 9.14387 13.4155 7.28184 11.8025C5.40325 10.173 6.46916 8.07649 6.46916 8.07649" stroke="#D7AD45" stroke-width="0.5"/>
<path d="M7.19159 11.7617C7.19159 11.7617 5.26831 12.4291 5.88899 14.3219C6.44677 15.3785 6.32264 14.1 7.00456 13.8765C7.68648 13.6529 7.81061 14.2656 7.31572 14.4892C6.81918 14.7111 5.76485 15.8239 9.1761 17.6058H9.41941C12.829 15.8239 11.7763 14.7111 11.2798 14.4892C10.7832 14.2656 10.9074 13.6546 11.5893 13.8765C12.2712 14.0984 12.1471 15.3785 12.7049 14.3219C13.3255 12.4291 11.4023 11.7617 11.4023 11.7617" stroke="#D7AD45" stroke-width="0.5" stroke-linecap="round" stroke-linejoin="round"/>
<path d="M7.19159 6.84411C7.19159 6.84411 5.26831 6.17673 5.88899 4.2839C6.44677 3.22735 6.32264 4.50581 7.00456 4.72937C7.68648 4.95293 7.81061 4.3402 7.31572 4.11664C6.81918 3.89473 5.76485 2.78188 9.1761 1H9.41941C12.829 2.78188 11.7763 3.89473 11.2798 4.11664C10.7832 4.3402 10.9074 4.95128 11.5893 4.72937C12.2712 4.50746 12.1471 3.22735 12.7049 4.2839C13.3255 6.17673 11.4023 6.84411 11.4023 6.84411" stroke="#D7AD45" stroke-width="0.5" stroke-linecap="round" stroke-linejoin="round"/>
<path d="M11.8398 7.2236C11.8398 7.2236 12.5069 5.2993 14.3987 5.92031C15.4547 6.47839 14.1769 6.35418 13.9535 7.03647C13.73 7.71875 14.3424 7.84295 14.5659 7.34614C14.7877 6.84934 15.9016 5.79445 17.6808 9.20752V9.45095C15.9016 12.8624 14.7877 11.8091 14.5659 11.3123C14.3441 10.8155 13.7317 10.9397 13.9535 11.622C14.1752 12.3043 15.4547 12.1801 14.3987 12.7382C12.5069 13.3592 11.8398 11.4349 11.8398 11.4349" stroke="#D7AD45" stroke-width="0.5" stroke-linecap="round" stroke-linejoin="round"/>
<path d="M6.841 7.2236C6.841 7.2236 6.17398 5.2993 4.28215 5.92031C3.22617 6.47839 4.50394 6.35418 4.72738 7.03647C4.95083 7.71875 4.33842 7.84295 4.11498 7.34614C3.89319 6.84934 2.77928 5.79445 1 9.20752V9.45095C2.77928 12.8624 3.89319 11.8091 4.11498 11.3123C4.33677 10.8155 4.94917 10.9397 4.72738 11.622C4.50559 12.3043 3.22617 12.1801 4.28215 12.7382C6.17398 13.3592 6.841 11.4349 6.841 11.4349" stroke="#D7AD45" stroke-width="0.5" stroke-linecap="round" stroke-linejoin="round"/>
</svg>
