<svg width="44" height="44" viewBox="0 0 44 44" fill="none" xmlns="http://www.w3.org/2000/svg">
<rect width="44" height="44" rx="9" fill="#F6EEE3"/>
<path d="M11.1221 16.0311C11.1221 15.1516 11.4715 14.3081 12.0934 13.6861C12.7153 13.0642 13.5588 12.7148 14.4383 12.7148H29.0297C29.9092 12.7148 30.7527 13.0642 31.3746 13.6861C31.9966 14.3081 32.3459 15.1516 32.3459 16.0311V24.1301C31.9427 23.7971 31.4966 23.5197 31.0195 23.3056V16.0311C31.0195 15.5034 30.8098 14.9973 30.4367 14.6241C30.0635 14.251 29.5574 14.0413 29.0297 14.0413H14.4383C13.9106 14.0413 13.4045 14.251 13.0313 14.6241C12.6582 14.9973 12.4486 15.5034 12.4486 16.0311V24.2553C12.4486 24.783 12.6582 25.2891 13.0313 25.6623C13.4045 26.0354 13.9106 26.2451 14.4383 26.2451H21.6831L23.0096 27.5716H14.4383C13.5588 27.5716 12.7153 27.2222 12.0934 26.6003C11.4715 25.9783 11.1221 25.1348 11.1221 24.2553V16.0311ZM26.642 22.2656C26.4823 22.2656 26.3353 22.2088 26.2207 22.1144C26.1845 21.8939 26.1052 21.6828 25.9873 21.493C26.0132 21.3381 26.0932 21.1974 26.2131 21.096C26.333 20.9946 26.485 20.939 26.642 20.9391H29.0297C29.2056 20.9391 29.3743 21.009 29.4987 21.1334C29.6231 21.2577 29.693 21.4264 29.693 21.6023C29.693 21.7782 29.6231 21.9469 29.4987 22.0713C29.3743 22.1957 29.2056 22.2656 29.0297 22.2656H26.642ZM23.2027 20.1432L23.8628 20.8033C23.652 20.8895 23.4607 21.0173 23.3003 21.1789L22.8313 21.648L22.2646 21.0813L21.2745 22.0714C21.2129 22.133 21.1398 22.1818 21.0593 22.2152C20.9788 22.2485 20.8926 22.2657 20.8055 22.2657C20.7184 22.2657 20.6321 22.2485 20.5516 22.2152C20.4711 22.1818 20.398 22.133 20.3364 22.0714C20.2748 22.0098 20.226 21.9367 20.1926 21.8562C20.1593 21.7757 20.1421 21.6895 20.1421 21.6023C20.1421 21.5152 20.1593 21.429 20.1926 21.3485C20.226 21.268 20.2748 21.1949 20.3364 21.1333L21.3265 20.1432L20.3364 19.1531C20.212 19.0287 20.1421 18.86 20.1421 18.6841C20.1421 18.5081 20.212 18.3394 20.3364 18.215C20.4608 18.0906 20.6295 18.0207 20.8055 18.0207C20.9814 18.0207 21.1501 18.0906 21.2745 18.215L22.2646 19.2051L23.2547 18.215C23.3791 18.0906 23.5478 18.0207 23.7237 18.0207C23.8997 18.0207 24.0684 18.0906 24.1928 18.215C24.3172 18.3394 24.3871 18.5081 24.3871 18.6841C24.3871 18.86 24.3172 19.0287 24.1928 19.1531L23.2027 20.1432ZM14.4999 18.215C14.5614 18.1534 14.6346 18.1045 14.715 18.0712C14.7955 18.0379 14.8818 18.0207 14.9689 18.0207C15.056 18.0207 15.1423 18.0379 15.2228 18.0712C15.3032 18.1045 15.3764 18.1534 15.4379 18.215L16.428 19.2051L17.4181 18.215C17.5425 18.0906 17.7113 18.0207 17.8872 18.0207C18.0631 18.0207 18.2318 18.0906 18.3562 18.215C18.4806 18.3394 18.5505 18.5081 18.5505 18.6841C18.5505 18.86 18.4806 19.0287 18.3562 19.1531L17.3661 20.1432L18.3562 21.1333C18.4178 21.1949 18.4667 21.268 18.5 21.3485C18.5334 21.429 18.5505 21.5152 18.5505 21.6023C18.5505 21.6895 18.5334 21.7757 18.5 21.8562C18.4667 21.9367 18.4178 22.0098 18.3562 22.0714C18.2946 22.133 18.2215 22.1818 18.141 22.2152C18.0605 22.2485 17.9743 22.2657 17.8872 22.2657C17.8001 22.2657 17.7138 22.2485 17.6333 22.2152C17.5529 22.1818 17.4797 22.133 17.4181 22.0714L16.428 21.0813L15.4379 22.0714C15.3135 22.1958 15.1448 22.2657 14.9689 22.2657C14.793 22.2657 14.6242 22.1958 14.4999 22.0714C14.3755 21.947 14.3056 21.7783 14.3056 21.6023C14.3056 21.4264 14.3755 21.2577 14.4999 21.1333L15.4899 20.1432L14.4999 19.1531C14.4382 19.0915 14.3894 19.0184 14.356 18.9379C14.3227 18.8574 14.3055 18.7712 14.3055 18.6841C14.3055 18.5969 14.3227 18.5107 14.356 18.4302C14.3894 18.3497 14.4382 18.2766 14.4999 18.215ZM24.9887 22.8673C25.1131 22.7429 25.183 22.5742 25.183 22.3982C25.183 22.2223 25.1131 22.0536 24.9887 21.9292C24.8643 21.8048 24.6956 21.7349 24.5196 21.7349C24.3437 21.7349 24.175 21.8048 24.0506 21.9292L21.9282 24.0516C21.8666 24.1132 21.8177 24.1863 21.7844 24.2668C21.751 24.3473 21.7339 24.4335 21.7339 24.5206C21.7339 24.6077 21.751 24.694 21.7844 24.7745C21.8177 24.855 21.8666 24.9281 21.9282 24.9897L24.0506 27.1121C24.175 27.2365 24.3437 27.3063 24.5196 27.3063C24.6956 27.3063 24.8643 27.2365 24.9887 27.1121C25.1131 26.9877 25.183 26.8189 25.183 26.643C25.183 26.4671 25.1131 26.2984 24.9887 26.174L23.9986 25.1839H28.6318C29.29 25.184 29.9344 25.3724 30.489 25.727C31.0436 26.0815 31.4851 26.5873 31.7615 27.1847C32.0378 27.7821 32.1375 28.4462 32.0486 29.0984C31.9598 29.7506 31.6861 30.3637 31.26 30.8654C30.8339 31.3671 30.2731 31.7364 29.6439 31.9296C29.0147 32.1229 28.3433 32.1321 27.7091 31.956C27.0748 31.78 26.5042 31.4262 26.0645 30.9363C25.6249 30.4465 25.3346 29.841 25.228 29.1915C25.214 29.1055 25.1832 29.0231 25.1373 28.949C25.0915 28.8749 25.0315 28.8106 24.9608 28.7597C24.8901 28.7088 24.8101 28.6724 24.7253 28.6524C24.6405 28.6324 24.5526 28.6294 24.4666 28.6434C24.3806 28.6574 24.2982 28.6882 24.2241 28.734C24.1501 28.7799 24.0857 28.8398 24.0348 28.9106C23.9839 28.9813 23.9475 29.0613 23.9275 29.1461C23.9075 29.2309 23.9045 29.3188 23.9185 29.4048C24.2878 31.6752 26.2568 33.4081 28.6318 33.4081C29.8983 33.4081 31.1129 32.905 32.0085 32.0095C32.904 31.1139 33.4071 29.8993 33.4071 28.6328C33.4071 27.3662 32.904 26.1516 32.0085 25.2561C31.1129 24.3605 29.8983 23.8574 28.6318 23.8574H23.9986L24.9887 22.8673Z" fill="#D7AD45"/>
</svg>
