<svg width="27" height="25" viewBox="0 0 27 25" fill="none" xmlns="http://www.w3.org/2000/svg">
<path d="M13.1834 16.1539C15.2021 16.1539 16.8385 14.5176 16.8385 12.4988C16.8385 10.4801 15.2021 8.84375 13.1834 8.84375C11.1647 8.84375 9.52832 10.4801 9.52832 12.4988C9.52832 14.5176 11.1647 16.1539 13.1834 16.1539Z" stroke="#2B2B2B" stroke-width="1.9375" stroke-miterlimit="10" stroke-linecap="round" stroke-linejoin="round"/>
<path d="M1 13.5721V11.4278C1 10.1607 2.03561 9.11297 3.31489 9.11297C5.52013 9.11297 6.42172 7.55346 5.31301 5.64063C4.67946 4.5441 5.05715 3.11862 6.16587 2.48507L8.27364 1.27889C9.23615 0.706254 10.4789 1.0474 11.0515 2.0099L11.1855 2.24139C12.2821 4.15423 14.0852 4.15423 15.1939 2.24139L15.328 2.0099C15.9006 1.0474 17.1433 0.706254 18.1058 1.27889L20.2136 2.48507C21.3223 3.11862 21.7 4.5441 21.0665 5.64063C19.9578 7.55346 20.8593 9.11297 23.0646 9.11297C24.3317 9.11297 25.3795 10.1485 25.3795 11.4278V13.5721C25.3795 14.8392 24.3439 15.887 23.0646 15.887C20.8593 15.887 19.9578 17.4465 21.0665 19.3594C21.7 20.4681 21.3223 21.8814 20.2136 22.5149L18.1058 23.7211C17.1433 24.2937 15.9006 23.9526 15.328 22.9901L15.1939 22.7586C14.0974 20.8458 12.2942 20.8458 11.1855 22.7586L11.0515 22.9901C10.4789 23.9526 9.23615 24.2937 8.27364 23.7211L6.16587 22.5149C5.05715 21.8814 4.67946 20.4559 5.31301 19.3594C6.42172 17.4465 5.52013 15.887 3.31489 15.887C2.03561 15.887 1 14.8392 1 13.5721Z" stroke="#2B2B2B" stroke-width="1.9375" stroke-miterlimit="10" stroke-linecap="round" stroke-linejoin="round"/>
</svg>
