<svg width="30" height="26" viewBox="0 0 30 26" fill="none" xmlns="http://www.w3.org/2000/svg">
<path d="M10.5236 1.14375C10.3084 1.35898 10.3141 1.55723 10.5293 1.9707C10.8012 2.48613 10.7559 2.87695 10.365 3.41504C10.1271 3.74922 10.0195 4.14004 10.0195 4.69512C10.0195 5.27285 10.1668 5.71465 10.4783 6.04316C10.6539 6.23574 10.7219 6.27539 10.9201 6.27539C11.1977 6.27539 11.4186 6.08848 11.4695 5.8166C11.4979 5.66934 11.4639 5.56172 11.3279 5.32383C11.1807 5.06328 11.1523 4.95566 11.1523 4.64414C11.1523 4.31562 11.175 4.24766 11.3563 3.98145C11.7414 3.4207 11.8037 3.22812 11.8037 2.56543C11.8037 2.00469 11.7924 1.94805 11.6168 1.59121C11.3902 1.13242 11.2146 0.979492 10.9145 0.979492C10.7445 0.979492 10.6539 1.01914 10.5236 1.14375Z" fill="black"/>
<path d="M14.4885 1.14471C14.2732 1.35994 14.2789 1.55818 14.4941 1.97166C14.766 2.48709 14.7207 2.87791 14.3299 3.416C14.092 3.75018 13.9844 4.141 13.9844 4.70174C13.9844 5.85154 14.7037 6.65018 15.2701 6.12342C15.4854 5.91951 15.4967 5.67596 15.2928 5.32478C15.1455 5.06424 15.1172 4.95662 15.1172 4.6451C15.1172 4.31658 15.1398 4.24861 15.3211 3.9824C15.7063 3.42166 15.7686 3.22908 15.7686 2.56639C15.7686 2.00564 15.7572 1.949 15.5816 1.59217C15.3551 1.13338 15.1795 0.980449 14.8793 0.980449C14.7094 0.980449 14.6188 1.0201 14.4885 1.14471Z" fill="black"/>
<path d="M18.4533 1.14375C18.2381 1.35898 18.2438 1.55723 18.459 1.9707C18.7309 2.48613 18.6855 2.87695 18.2947 3.41504C18.0568 3.74922 17.9492 4.14004 17.9492 4.69512C17.9492 5.27285 18.0965 5.71465 18.408 6.04316C18.5836 6.23574 18.6516 6.27539 18.8498 6.27539C19.1273 6.27539 19.3482 6.08848 19.3992 5.8166C19.4275 5.66934 19.3936 5.56172 19.2576 5.32383C19.1104 5.06328 19.082 4.95566 19.082 4.64414C19.082 4.31562 19.1047 4.24766 19.2859 3.98145C19.6711 3.4207 19.7334 3.22812 19.7334 2.56543C19.7334 2.00469 19.7221 1.94805 19.5465 1.59121C19.3199 1.13242 19.1443 0.979492 18.8441 0.979492C18.6742 0.979492 18.5836 1.01914 18.4533 1.14375Z" fill="black"/>
<path d="M18.3165 7.80469C18.2882 7.81602 18.1409 7.83867 17.9936 7.86133C17.801 7.88399 17.6028 7.98027 17.2686 8.20684C16.7079 8.58633 16.5436 8.65996 15.8923 8.80156C15.6147 8.86387 15.2919 8.96016 15.1729 9.02246C14.918 9.15273 14.6235 9.49258 14.5782 9.71348C14.5442 9.86074 14.5216 9.87207 14.2383 9.87207C13.8532 9.87207 13.7286 9.92305 13.1225 10.3082C12.7147 10.5631 12.5505 10.6311 12.188 10.6934C11.4743 10.8236 11.4516 10.818 11.4063 10.5348C11.3497 10.2063 11.1911 9.91172 10.9249 9.64551C10.619 9.33965 10.3698 9.22637 9.65612 9.0791C9.12936 8.96582 8.9821 8.90918 8.62526 8.67695C7.90592 8.20684 7.78132 8.15586 7.35651 8.18418C7.01667 8.20117 6.92604 8.23516 6.52956 8.48438C5.84987 8.90918 5.73659 8.94883 5.07389 9.04512C4.15632 9.18106 4.00905 9.28301 3.58425 10.0986C3.44831 10.3648 3.30104 10.6254 3.26139 10.6764C3.21608 10.7273 2.89323 10.9369 2.53639 11.1352C1.71511 11.5939 1.62448 11.7186 1.49421 12.6191C1.39792 13.2875 1.35827 13.3951 0.927801 14.0805C0.695574 14.4543 0.644597 14.5789 0.627605 14.8621C0.599285 15.2473 0.650261 15.4059 0.990105 15.9383C1.35827 16.516 1.42057 16.6633 1.52819 17.1787C1.58483 17.4449 1.63014 17.6941 1.63581 17.7281C1.63581 17.7791 1.52253 17.8018 1.24499 17.8018C0.916472 17.8018 0.825847 17.8244 0.701238 17.9264C0.401043 18.1926 0.401043 18.1926 1.67546 21.6193C2.68366 24.3324 2.87624 24.8025 3.01218 24.9045L3.17077 25.0234H15.003H26.8352L26.9938 24.9045C27.1298 24.8025 27.3167 24.3381 28.3079 21.676C29.571 18.2889 29.5993 18.1813 29.3161 17.9377C29.1745 17.8188 29.1008 17.8018 28.676 17.8018C28.4155 17.8018 28.2003 17.7791 28.2003 17.7508C28.2003 17.7225 28.3702 17.4789 28.5741 17.207C29.1801 16.4027 29.2028 16.2781 28.9309 15.3662C28.8346 15.0434 28.7553 14.6979 28.7553 14.6016C28.7553 14.4996 28.8346 14.1768 28.9309 13.8766C29.2085 13.0156 29.1688 12.8117 28.5741 12.0301C28.2286 11.5713 28.1549 11.3957 27.9794 10.6367C27.8038 9.8834 27.4809 9.55488 26.7842 9.41895C26.0706 9.27168 25.793 9.16406 25.3173 8.84688C24.7508 8.46172 24.3034 8.32012 23.8673 8.37676C23.4764 8.42773 23.3971 8.46172 22.8194 8.84688C22.253 9.2207 22.0151 9.30567 21.8678 9.17539C21.6866 9.0168 21.4147 8.91484 20.9106 8.80156C20.2592 8.65996 20.095 8.59199 19.5342 8.20684C19.2001 7.98027 19.0018 7.88399 18.8092 7.86133C18.662 7.83867 18.5034 7.81602 18.4581 7.80469C18.4128 7.79336 18.3505 7.79336 18.3165 7.80469ZM19.1151 9.28301C19.6758 9.65117 19.7438 9.67949 20.5255 9.87207L21.1485 10.0193L21.2901 10.6424C21.46 11.3504 21.5337 11.509 21.9358 12.0527C22.1001 12.268 22.253 12.4832 22.2757 12.5172C22.2983 12.5568 22.236 12.84 22.1341 13.1402C21.9018 13.8709 21.9018 14.2107 22.1341 14.9641L22.3153 15.5418L21.9188 16.0799C21.5337 16.601 21.4657 16.7426 21.2731 17.4902L21.1995 17.7734L19.7155 17.7904C18.8999 17.7961 18.2315 17.7848 18.2315 17.7621C18.2315 17.7338 18.2712 17.4506 18.3165 17.1221C18.3901 16.6066 18.4354 16.4764 18.6393 16.1309C19.1604 15.2529 19.2057 15.1396 19.1831 14.7658C19.1604 14.4146 19.1208 14.3297 18.577 13.4688C18.4524 13.2648 18.3618 13.0043 18.2655 12.5625C18.1182 11.8488 18.0276 11.6506 17.7217 11.3447C17.4159 11.0389 17.1667 10.9256 16.4757 10.7783C16.1471 10.7104 15.8073 10.6141 15.7223 10.5688C15.5751 10.4951 15.5637 10.4668 15.5977 10.2799C15.6204 10.1666 15.6544 10.0533 15.6714 10.0363C15.694 10.0137 15.9602 9.9457 16.2717 9.87207C16.9684 9.71348 17.127 9.65117 17.6991 9.27734C17.954 9.11309 18.2089 8.96582 18.2655 8.94883C18.4581 8.90352 18.645 8.97715 19.1151 9.28301ZM7.87194 9.54356C8.43835 9.91172 8.84616 10.0816 9.42389 10.1893C10.1262 10.3195 10.2169 10.4102 10.3641 11.1012C10.5057 11.7979 10.602 12.0414 10.9532 12.5965C11.1231 12.8684 11.2647 13.1176 11.2647 13.1459C11.2647 13.1799 11.1514 13.3838 11.0155 13.5934C10.602 14.2447 10.5284 14.4316 10.4264 15.1227L10.3301 15.774L9.82604 16.0289C9.15768 16.3631 8.8405 16.6689 8.51764 17.2977L8.2571 17.8018H5.65729H3.05749L2.91022 17.6715C2.79128 17.5695 2.7403 17.4336 2.62702 16.9182C2.48542 16.2498 2.38913 16.0176 1.99831 15.4059C1.86237 15.1963 1.74909 14.9924 1.74909 14.9584C1.74909 14.9244 1.89069 14.6752 2.06061 14.4033C2.44011 13.8029 2.46843 13.718 2.59303 12.9477L2.68932 12.3359L3.22175 12.0527C3.90143 11.6959 4.16198 11.4354 4.50182 10.7727L4.77936 10.2402L5.28913 10.1666C6.01413 10.059 6.28034 9.9627 6.83542 9.61719C7.10729 9.44727 7.36784 9.30567 7.41882 9.30567C7.46979 9.30567 7.6737 9.41328 7.87194 9.54356ZM24.7735 9.84375C25.3229 10.2119 25.4022 10.2459 26.1895 10.4328L26.8069 10.5857L26.9542 11.2031C27.1241 11.9168 27.1977 12.0754 27.5999 12.6191C27.7641 12.8344 27.9171 13.0496 27.9397 13.0836C27.9624 13.1232 27.9001 13.4064 27.7981 13.7066C27.5659 14.4373 27.5659 14.7771 27.7981 15.5305L27.9794 16.1082L27.6678 16.5217C27.277 17.0371 27.1524 17.258 27.0618 17.5639L26.9938 17.8018L24.6942 17.7904C22.4286 17.7734 22.3946 17.7734 22.4116 17.6602C22.4682 17.3033 22.5758 17.0881 22.91 16.6463C23.5161 15.842 23.5387 15.7117 23.2669 14.7998C23.1706 14.477 23.0913 14.1314 23.0913 14.0352C23.0913 13.9332 23.1706 13.6104 23.2669 13.3102C23.5387 12.4605 23.5048 12.2566 22.9667 11.543C22.6098 11.0672 22.5022 10.8689 22.4342 10.5688L22.3833 10.3422L22.6382 10.2516C22.7798 10.1949 23.0969 10.0193 23.3518 9.84941C23.6067 9.68516 23.8503 9.53223 23.8956 9.51523C24.0655 9.44727 24.326 9.54356 24.7735 9.84375ZM14.6688 11.2428C15.2352 11.6109 15.643 11.7809 16.2208 11.8885C16.9231 12.0188 17.0137 12.1094 17.161 12.8004C17.3026 13.4971 17.3932 13.7236 17.7501 14.29C17.92 14.5619 18.0616 14.8111 18.0616 14.8451C18.0616 14.8791 17.9483 15.083 17.8124 15.2926C17.3932 15.9439 17.3253 16.1309 17.2233 16.8219L17.127 17.4789L16.7872 17.6432L16.4473 17.8018H13.0092C11.1118 17.8018 9.5655 17.7791 9.5655 17.7508C9.5655 17.7281 9.62214 17.6205 9.69577 17.5129C9.78073 17.3826 9.99596 17.224 10.3585 17.0314C11.3044 16.516 11.3837 16.4027 11.5196 15.4455C11.5932 14.9018 11.6329 14.7828 11.8424 14.4316C12.3635 13.5537 12.4089 13.4404 12.3862 13.0666C12.3692 12.7834 12.3239 12.6531 12.1257 12.3303C11.9954 12.1094 11.8878 11.9168 11.8878 11.8998C11.8878 11.8828 12.0577 11.8488 12.2729 11.8262C12.794 11.7695 13.0716 11.6676 13.638 11.3107C13.9042 11.1465 14.1647 11.0049 14.2157 11.0049C14.2667 11.0049 14.4706 11.1125 14.6688 11.2428ZM28.087 18.9742C28.087 19.0025 27.8831 19.552 27.6395 20.209L27.1977 21.3984L19.6815 21.4268L12.1596 21.4551L12.0237 21.6137C11.7518 21.9309 11.9104 22.384 12.3296 22.5029C12.4655 22.5369 14.952 22.5596 19.6589 22.5596H26.7729L26.62 22.9674C26.535 23.1939 26.4217 23.4998 26.3651 23.6471L26.2631 23.9189H15.003H3.74284L3.64089 23.6471C3.58425 23.4998 3.47096 23.1939 3.386 22.9674L3.23307 22.5596H5.24948C6.46159 22.5596 7.35651 22.5369 7.48112 22.5029C7.90026 22.384 8.05885 21.9309 7.78698 21.6137L7.65104 21.4551L5.22682 21.4268L2.80827 21.3984L2.36647 20.209C2.12292 19.552 1.91901 19.0025 1.91901 18.9742C1.91901 18.9516 7.80964 18.9346 15.003 18.9346C22.202 18.9346 28.087 18.9516 28.087 18.9742Z" fill="black"/>
<path d="M19.9472 12.3521C19.8792 12.4031 19.7942 12.5334 19.7546 12.6297C19.6243 13.0092 20.0038 13.417 20.4173 13.3377C20.8194 13.264 20.978 12.7146 20.6835 12.4088C20.5022 12.2219 20.1511 12.1935 19.9472 12.3521Z" fill="black"/>
<path d="M6.92697 11.34C6.859 11.3684 6.75138 11.4646 6.67775 11.5553C6.41154 11.8951 6.67208 12.4219 7.10822 12.4219C7.36876 12.4219 7.5047 12.3426 7.61232 12.1387C7.73693 11.8951 7.71427 11.7082 7.54435 11.5156C7.37443 11.3344 7.11954 11.2607 6.92697 11.34Z" fill="black"/>
<path d="M6.92695 13.8886C6.75703 13.9622 6.56445 14.2227 6.56445 14.387C6.56445 14.4606 6.6041 14.5966 6.64941 14.6872C6.89863 15.1686 7.60664 15.027 7.68027 14.4833C7.70293 14.285 7.68594 14.2227 7.55 14.0698C7.37441 13.8829 7.11953 13.8093 6.92695 13.8886Z" fill="black"/>
<path d="M4.34825 15.5297C3.84981 16.0338 4.5918 16.7701 5.12989 16.3057C5.26016 16.1924 5.28848 16.1244 5.28848 15.9035C5.28848 15.6826 5.26016 15.6146 5.12989 15.5014C4.89766 15.3031 4.56915 15.3144 4.34825 15.5297Z" fill="black"/>
<path d="M24.9373 12.0135C24.6541 12.2401 24.6258 12.6309 24.875 12.8575C25.2658 13.22 25.8209 12.9594 25.8209 12.4213C25.8209 12.1551 25.5547 11.9116 25.2715 11.9116C25.1526 11.9116 24.9996 11.9569 24.9373 12.0135Z" fill="black"/>
<path d="M25.056 15.673C24.8748 15.8543 24.8294 16.0639 24.9144 16.2791C25.0107 16.5113 25.1806 16.6133 25.4582 16.6133C25.6564 16.6133 25.7244 16.585 25.8433 16.4377C25.9396 16.3301 25.9906 16.1941 25.9906 16.0752C25.9906 15.9562 25.9396 15.8203 25.8433 15.7127C25.7187 15.5654 25.6564 15.5371 25.4468 15.5371C25.2543 15.5371 25.158 15.5711 25.056 15.673Z" fill="black"/>
<path d="M14.261 13.0953C13.7852 13.5711 14.4479 14.3187 14.986 13.9166C15.4164 13.5937 15.2012 12.931 14.6631 12.931C14.4762 12.931 14.3912 12.965 14.261 13.0953Z" fill="black"/>
<path d="M13.5596 15.3783C13.3613 15.4859 13.248 15.6728 13.248 15.8937C13.248 16.4714 14.0467 16.6527 14.2959 16.1316C14.4035 15.8994 14.4035 15.8541 14.2959 15.6502C14.1486 15.3726 13.8031 15.2423 13.5596 15.3783Z" fill="black"/>
<path d="M9.50254 21.5902C9.00411 22.0943 9.7461 22.8307 10.2842 22.3662C10.4145 22.2529 10.4428 22.185 10.4428 21.9641C10.4428 21.7432 10.4145 21.6752 10.2842 21.5619C10.052 21.3637 9.72344 21.375 9.50254 21.5902Z" fill="black"/>
</svg>
