<svg width="21" height="19" viewBox="0 0 21 19" fill="none" xmlns="http://www.w3.org/2000/svg">
<path d="M4.01813 16.8852L4.93207 13.2027C5.12866 12.4106 4.84854 11.5764 4.21375 11.0635L1.23904 8.65981C0.466411 8.0355 0.851581 6.7879 1.84168 6.7078L6.00333 6.3711C6.76397 6.30956 7.43136 5.84023 7.74653 5.14522L9.43585 1.41989C9.82626 0.558943 11.0491 0.558944 11.4395 1.41989L13.1288 5.14522C13.444 5.84023 14.1113 6.30956 14.872 6.3711L19.0336 6.7078C20.0237 6.7879 20.4089 8.0355 19.6363 8.65981L16.6616 11.0635C16.0268 11.5764 15.7467 12.4106 15.9432 13.2027L16.8572 16.8852C17.0894 17.821 16.091 18.5815 15.2505 18.109L11.4668 15.9817C10.8278 15.6224 10.0476 15.6224 9.40849 15.9817L5.62483 18.109C4.78437 18.5815 3.78587 17.821 4.01813 16.8852Z" fill="url(#paint0_linear_3919_40147)" stroke="#FFD233"/>
<defs>
<linearGradient id="paint0_linear_3919_40147" x1="3.5" y1="11" x2="17.5" y2="11" gradientUnits="userSpaceOnUse">
<stop offset="0.5" stop-color="#FFD233"/>
<stop offset="0.5001" stop-color="white"/>
</linearGradient>
</defs>
</svg>
