<svg width="18" height="18" viewBox="0 0 18 18" fill="none" xmlns="http://www.w3.org/2000/svg">
<path d="M7.30847 4.22133C7.95054 2.62064 8.27158 1.8203 8.79316 1.70937C8.9303 1.68021 9.07205 1.68021 9.20919 1.70937C9.73077 1.8203 10.0518 2.62064 10.6939 4.22133C11.059 5.13161 11.2416 5.58675 11.5832 5.89632C11.679 5.98315 11.783 6.06048 11.8938 6.12723C12.2886 6.3652 12.7815 6.40935 13.7673 6.49763C15.4361 6.64708 16.2704 6.72181 16.5252 7.19755C16.578 7.29608 16.6139 7.40276 16.6314 7.51316C16.7159 8.04618 16.1025 8.60424 14.8757 9.72036L14.535 10.0303C13.9615 10.5521 13.6747 10.813 13.5088 11.1386C13.4093 11.3339 13.3426 11.5443 13.3113 11.7612C13.2592 12.1229 13.3432 12.5014 13.5111 13.2584L13.5712 13.5289C13.8723 14.8864 14.0229 15.5652 13.835 15.8988C13.6661 16.1985 13.355 16.3904 13.0114 16.4068C12.6289 16.425 12.0899 15.9858 11.012 15.1074C10.3017 14.5287 9.94664 14.2394 9.55243 14.1263C9.19219 14.023 8.81016 14.023 8.44991 14.1263C8.0557 14.2394 7.7006 14.5287 6.99039 15.1074C5.91241 15.9858 5.37343 16.425 4.99091 16.4068C4.64731 16.3904 4.33626 16.1985 4.16739 15.8988C3.9794 15.5652 4.13 14.8864 4.4312 13.5289L4.4912 13.2584C4.65916 12.5014 4.74313 12.1229 4.69102 11.7612C4.65976 11.5443 4.59304 11.3339 4.49354 11.1386C4.32767 10.813 4.0409 10.5521 3.46735 10.0303L3.12668 9.72036C1.89989 8.60424 1.2865 8.04618 1.37097 7.51316C1.38846 7.40276 1.42434 7.29608 1.47711 7.19755C1.73191 6.72181 2.56629 6.64708 4.23506 6.49763C5.22084 6.40935 5.71373 6.3652 6.10857 6.12723C6.21932 6.06048 6.32333 5.98315 6.41915 5.89632C6.76076 5.58675 6.94333 5.13161 7.30847 4.22133Z" fill="#E4E4E5" stroke="#E4E4E5" stroke-width="2"/>
</svg>
