<svg width="25" height="22" viewBox="0 0 25 22" fill="none" xmlns="http://www.w3.org/2000/svg">
<path d="M13.1595 0.314447C14.0993 1.53658 14.6304 3.04642 15.2269 4.41328C15.3636 4.72015 15.3636 4.72015 15.503 5.03323C15.5889 5.22879 15.6748 5.42436 15.7634 5.62585C15.841 5.80246 15.9186 5.97908 15.9985 6.16105C16.1667 6.61025 16.1667 6.61025 16.1667 7.1349C16.505 7.13735 16.505 7.13735 16.8501 7.13986C17.689 7.14684 18.5277 7.15835 19.3664 7.17119C19.7291 7.17612 20.0917 7.17984 20.4544 7.1823C20.9765 7.18605 21.4984 7.19421 22.0205 7.20322C22.2627 7.20354 22.2627 7.20354 22.5097 7.20387C23.5166 7.22664 24.0568 7.34874 24.7872 8.00932C25.0169 8.42005 25.0152 8.66908 24.9869 9.1242C24.5116 10.2168 23.1962 10.9631 22.181 11.6819C21.9735 11.8326 21.7662 11.9836 21.5592 12.1348C21.2029 12.3921 20.8448 12.6474 20.484 12.8999C19.9073 13.3037 19.34 13.7162 18.7729 14.1302C18.9982 14.8626 19.2238 15.5949 19.4495 16.3272C19.5131 16.5338 19.5766 16.7404 19.6421 16.9533C20.0192 18.1803 20.0192 18.1803 20.4174 19.402C20.5961 19.9607 20.6634 20.3742 20.5772 20.9507C20.2407 21.4225 19.9812 21.7322 19.4119 21.9891C18.0711 22.0225 16.912 21.3724 15.7908 20.8086C15.6401 20.7341 15.4895 20.6596 15.3342 20.5828C15.1836 20.5083 15.0329 20.4338 14.8777 20.3571C14.6518 20.2463 14.6518 20.2463 14.4213 20.1332C14.1058 19.9742 13.7946 19.8085 13.4874 19.6375C13.3332 19.5543 13.179 19.4712 13.0201 19.3856C12.8831 19.3086 12.7461 19.2316 12.605 19.1522C11.9435 18.9672 11.5831 19.1412 10.9543 19.3767C10.5585 19.5561 10.168 19.7445 9.78272 19.9403C9.45749 20.1032 9.45749 20.1032 9.12568 20.2693C8.67375 20.4978 8.22215 20.7269 7.77089 20.9565C7.55407 21.0648 7.33725 21.1731 7.11386 21.2848C6.81983 21.4339 6.81983 21.4339 6.51987 21.5861C5.90914 21.8389 5.41196 21.9522 4.73945 22C4.03196 21.7195 3.7716 21.5205 3.33611 20.9507C3.2348 19.495 3.88175 18.0172 4.35103 16.6442C4.42754 16.4163 4.5039 16.1884 4.58009 15.9604C4.76529 15.4082 4.9521 14.8565 5.14041 14.3051C3.65189 12.9929 2.07002 11.7932 0.418222 10.6401C-0.831104 9.72957 -0.831104 9.72957 -0.98747 9.19525C-0.987212 9.06359 -0.986953 8.93194 -0.986687 8.7963C-0.99108 8.66464 -0.995474 8.53299 -1 8.39734C-0.806195 7.8009 -0.467593 7.63782 0.128469 7.30979C0.716511 7.20618 1.29426 7.20401 1.89283 7.20322C2.0605 7.20033 2.22818 7.19743 2.40093 7.19445C2.93403 7.18599 3.46702 7.18224 4.00019 7.17862C4.36265 7.1737 4.7251 7.16846 5.08755 7.16291C5.9739 7.15001 6.86018 7.14133 7.74662 7.1349C7.76902 6.98705 7.79142 6.83919 7.8145 6.68685C8.03642 5.68057 8.50998 4.75101 8.94601 3.80332C9.11208 3.44112 9.2746 3.07779 9.43697 2.71431C9.54287 2.4822 9.64898 2.25016 9.75531 2.0182C9.85062 1.80874 9.94593 1.59928 10.0441 1.38347C10.3511 0.842072 10.6223 0.520443 11.1547 0.139564C12.0011 -0.106538 12.3504 -0.0141368 13.1595 0.314447Z" fill="#D7AD45"/>
</svg>
