<svg width="25" height="25" viewBox="0 0 25 25" fill="none" xmlns="http://www.w3.org/2000/svg">
<path d="M4.64147 1.41158C5.02863 1.40789 5.41578 1.4042 5.81468 1.40039C6.23217 1.40276 6.64967 1.40513 7.07982 1.40758C7.5089 1.40646 7.93798 1.40534 8.38006 1.40418C9.28764 1.40338 10.1952 1.40555 11.1028 1.41044C12.4943 1.41671 13.8854 1.4105 15.2768 1.403C16.1578 1.40378 17.0387 1.40528 17.9197 1.40758C18.3372 1.40521 18.7547 1.40283 19.1848 1.40039C19.7655 1.40593 19.7655 1.40593 20.358 1.41158C20.6989 1.41252 21.0397 1.41345 21.3908 1.41441C22.4516 1.59491 22.7998 1.88127 23.4372 2.73509C23.5703 3.69287 23.5703 3.69287 23.5517 4.81487C23.546 5.41723 23.546 5.41723 23.5402 6.03175C23.5304 6.45045 23.5206 6.86914 23.5105 7.30052C23.5026 7.93536 23.5026 7.93536 23.4945 8.58302C23.4806 9.6287 23.4614 10.674 23.4372 11.7195C23.0505 11.7195 22.6638 11.7195 22.2654 11.7195C22.2556 11.4869 22.2458 11.2543 22.2357 11.0147C22.1905 9.96373 22.1425 8.9129 22.0945 7.86205C22.0791 7.49597 22.0638 7.1299 22.0479 6.75273C22.0316 6.40277 22.0152 6.05281 21.9983 5.69225C21.9769 5.20743 21.9769 5.20743 21.9549 4.71282C21.9207 3.88283 21.9207 3.88283 21.4841 3.12572C20.2943 2.9423 20.2943 2.9423 18.9206 2.88158C17.6759 2.80907 17.6759 2.80907 16.406 2.73509C16.406 5.05541 16.406 7.37572 16.406 9.76634C15.0117 10.1149 14.4741 10.1685 13.1345 9.96166C11.6605 9.76707 10.4495 9.8639 8.98412 10.157C8.59349 9.76634 8.59349 9.76634 8.54915 9.07655C8.55119 8.78403 8.55324 8.4915 8.55535 8.19011C8.5566 7.87414 8.55786 7.55817 8.55916 7.23262C8.56243 6.90054 8.56571 6.56845 8.56908 6.2263C8.57084 5.89271 8.5726 5.55911 8.57442 5.21541C8.57904 4.38863 8.58604 3.56186 8.59349 2.73509C7.75513 2.7899 6.91694 2.84735 6.07884 2.90599C5.61206 2.93772 5.14528 2.96944 4.66435 3.00212C3.56001 2.99938 3.56001 2.99938 3.12474 3.51634C3.08843 4.07998 3.07886 4.64537 3.0804 5.21016C3.08043 5.56988 3.08046 5.9296 3.08049 6.30022C3.0825 6.69125 3.08452 7.08228 3.0866 7.48515C3.08715 7.88344 3.0877 8.28172 3.08827 8.69207C3.09046 9.96977 3.09537 11.2474 3.10033 12.5251C3.10229 13.389 3.10407 14.2529 3.10567 15.1168C3.10999 17.2396 3.11653 19.3623 3.12474 21.4851C4.04247 21.944 4.668 21.954 5.69127 21.9993C6.21621 22.0239 6.21621 22.0239 6.75176 22.0489C7.11783 22.0643 7.4839 22.0796 7.86107 22.0954C8.41471 22.1207 8.41471 22.1207 8.97954 22.1466C9.89246 22.1881 10.8054 22.2279 11.7185 22.2663C11.7185 22.6531 11.7185 23.0398 11.7185 23.4382C10.2456 23.4722 8.77274 23.4931 7.29955 23.5115C6.88085 23.5213 6.46216 23.5311 6.03078 23.5412C5.62921 23.545 5.22763 23.5488 4.81389 23.5527C4.44363 23.5588 4.07337 23.5649 3.69189 23.5713C2.53007 23.4099 2.26804 23.1847 1.56224 22.2663C1.41343 21.3918 1.41343 21.3918 1.41061 20.359C1.40691 19.9718 1.40322 19.5847 1.39941 19.1858C1.40179 18.7683 1.40416 18.3508 1.4066 17.9206C1.40548 17.4916 1.40436 17.0625 1.4032 16.6204C1.40241 15.7128 1.40457 14.8052 1.40946 13.8977C1.41573 12.5062 1.40952 11.1151 1.40202 9.72362C1.4028 8.84268 1.4043 7.96174 1.4066 7.0808C1.40423 6.6633 1.40186 6.2458 1.39941 5.81565C1.40311 5.42849 1.4068 5.04133 1.41061 4.64244C1.41154 4.30161 1.41247 3.96077 1.41343 3.60961C1.56224 2.73509 1.56224 2.73509 2.03845 2.03942C2.95322 1.41324 3.53647 1.41461 4.64147 1.41158ZM10.156 2.73509C10.156 4.53978 10.156 6.34447 10.156 8.20384C11.7029 8.20384 13.2497 8.20384 14.8435 8.20384C14.8435 6.39916 14.8435 4.59447 14.8435 2.73509C13.2966 2.73509 11.7497 2.73509 10.156 2.73509Z" fill="#D7AD45"/>
<path d="M20.3857 12.182C21.7998 13.0933 22.6866 14.1226 23.4375 15.6244C23.6432 17.6881 23.6882 19.4012 22.7783 21.2884C21.1905 23.005 20.1313 23.5097 17.7979 23.6078C15.865 23.5531 14.7519 23.1979 13.2812 21.8744C12.166 20.6053 11.7631 19.592 11.5967 17.8949C11.7472 16.0581 12.1475 14.7446 13.2812 13.2806C15.4698 11.5858 17.7731 11.2086 20.3857 12.182ZM13.5254 15.5511C13.0776 17.1183 12.8972 18.4269 13.6963 19.9106C14.6842 21.2179 15.5505 22.0266 17.1875 22.3382C18.8752 22.406 19.8281 21.8209 21.0938 20.7025C22.1568 19.468 22.2622 18.8584 22.3145 17.2113C22.0242 15.5489 21.2372 14.6935 19.9081 13.6987C17.4618 12.3661 15.1129 13.4584 13.5254 15.5511Z" fill="#D7AD45"/>
<path d="M19.1406 15.625C19.5273 15.7539 19.9141 15.8828 20.3125 16.0156C19.7775 17.5762 19.0401 18.6719 17.9688 19.9219C16.1133 19.6289 16.1133 19.6289 15.2344 18.75C15.3809 17.9199 15.3809 17.9199 15.625 17.1875C16.5918 17.5742 16.5918 17.5742 17.5781 17.9688C17.6909 17.7271 17.8037 17.4854 17.9199 17.2363C18.3594 16.4062 18.3594 16.4062 19.1406 15.625Z" fill="#D7AD45"/>
</svg>
