<svg width="18" height="18" viewBox="0 0 18 18" fill="none" xmlns="http://www.w3.org/2000/svg">
<path d="M12.4877 7.00794C12.4888 7.13784 12.4394 7.26302 12.3499 7.35704L8.3535 11.3534C8.35348 11.3534 8.35346 11.3534 8.35345 11.3534C8.25969 11.4471 8.13256 11.4998 8 11.4998C7.86744 11.4998 7.74031 11.4471 7.64655 11.3534C7.64654 11.3534 7.64652 11.3534 7.6465 11.3534L5.65014 9.35704C5.56064 9.26302 5.51118 9.13784 5.51231 9.00794C5.51345 8.87685 5.56603 8.75144 5.65873 8.65873C5.75144 8.56603 5.87684 8.51345 6.00794 8.51231C6.13784 8.51118 6.26303 8.56065 6.35705 8.65015L7.64645 9.93955L8 10.2931L8.35355 9.93955L11.643 6.65014C11.737 6.56064 11.8622 6.51118 11.9921 6.51231C12.1232 6.51345 12.2486 6.56603 12.3413 6.65873C12.434 6.75144 12.4866 6.87684 12.4877 7.00794ZM9 17.5C11.2543 17.5 13.4163 16.6045 15.0104 15.0104C16.6045 13.4163 17.5 11.2543 17.5 9C17.5 6.74566 16.6045 4.58365 15.0104 2.98959C13.4163 1.39553 11.2543 0.5 9 0.5C6.74566 0.5 4.58365 1.39553 2.98959 2.98959C1.39553 4.58365 0.5 6.74566 0.5 9C0.5 11.2543 1.39553 13.4163 2.98959 15.0104C4.58365 16.6045 6.74566 17.5 9 17.5Z" stroke="#979797"/>
</svg>
