<svg width="15" height="16" viewBox="0 0 15 16" fill="none" xmlns="http://www.w3.org/2000/svg">
<path d="M13.1253 4.70508C13.1128 4.70508 13.094 4.70508 13.0753 4.70508C9.76903 4.37383 6.46903 4.24883 3.20028 4.58008L1.92528 4.70508C1.66278 4.73008 1.43153 4.54258 1.40653 4.28008C1.38153 4.01758 1.56903 3.79258 1.82528 3.76758L3.10028 3.64258C6.42528 3.30508 9.79403 3.43633 13.169 3.76758C13.4253 3.79258 13.6128 4.02383 13.5878 4.28008C13.569 4.52383 13.3628 4.70508 13.1253 4.70508Z" fill="#FEFEFE"/>
<path d="M5.31296 4.075C5.28796 4.075 5.26296 4.075 5.23171 4.06875C4.98171 4.025 4.80671 3.78125 4.85046 3.53125L4.98796 2.7125C5.08796 2.1125 5.22546 1.28125 6.68171 1.28125H8.31921C9.78171 1.28125 9.91921 2.14375 10.013 2.71875L10.1505 3.53125C10.1942 3.7875 10.0192 4.03125 9.76921 4.06875C9.51296 4.1125 9.26921 3.9375 9.23171 3.6875L9.09421 2.875C9.00671 2.33125 8.98796 2.225 8.32546 2.225H6.68796C6.02546 2.225 6.01296 2.3125 5.91921 2.86875L5.77546 3.68125C5.73796 3.9125 5.53796 4.075 5.31296 4.075Z" fill="#FEFEFE"/>
<path d="M9.50552 14.7178H5.49302C3.31177 14.7178 3.22427 13.5115 3.15552 12.5365L2.74927 6.24276C2.73052 5.98651 2.93052 5.76151 3.18677 5.74276C3.44927 5.73026 3.66802 5.92401 3.68677 6.18026L4.09302 12.474C4.16177 13.424 4.18677 13.7803 5.49302 13.7803H9.50552C10.818 13.7803 10.843 13.424 10.9055 12.474L11.3118 6.18026C11.3305 5.92401 11.5555 5.73026 11.8118 5.74276C12.068 5.76151 12.268 5.98026 12.2493 6.24276L11.843 12.5365C11.7743 13.5115 11.6868 14.7178 9.50552 14.7178Z" fill="#FEFEFE"/>
<path d="M8.53828 11.2812H6.45703C6.20078 11.2812 5.98828 11.0687 5.98828 10.8125C5.98828 10.5563 6.20078 10.3438 6.45703 10.3438H8.53828C8.79453 10.3438 9.00703 10.5563 9.00703 10.8125C9.00703 11.0687 8.79453 11.2812 8.53828 11.2812Z" fill="#FEFEFE"/>
<path d="M9.0625 8.78125H5.9375C5.68125 8.78125 5.46875 8.56875 5.46875 8.3125C5.46875 8.05625 5.68125 7.84375 5.9375 7.84375H9.0625C9.31875 7.84375 9.53125 8.05625 9.53125 8.3125C9.53125 8.56875 9.31875 8.78125 9.0625 8.78125Z" fill="#FEFEFE"/>
</svg>
