<svg width="153" height="23" viewBox="0 0 153 23" fill="none" xmlns="http://www.w3.org/2000/svg">
<path d="M26.1852 15.8828C25.9398 15.3657 25.8301 14.7748 25.9241 14.073C26.1069 13.213 26.3889 12.4162 26.7754 11.667C31.1152 2.90819 47.1848 1.4097 47.1848 1.4097C66.0797 0.175024 70.0018 7.18734 69.725 7.18734C69.6623 7.18734 69.4638 6.95517 69.1975 6.3906" stroke="#BC9C61"/>
<path d="M67.4922 13.5014C63.8626 13.1743 62.2697 10.4094 62.4734 8.11421C62.6771 5.81899 64.4057 5.34939 64.4057 5.34939C64.4057 5.34939 61.502 3.55542 54.0548 3.18079C46.6075 2.822 41.4007 5.39688 41.0299 8.20919C40.6748 11.0057 43.7508 11.1745 42.8839 9.4122C42.0013 7.66572 43.192 6.43105 44.7379 6.4627C46.2837 6.47853 48.075 8.31999 47.8453 10.9582C47.5998 13.5964 45.4638 17.1104 39.0715 16.8888C32.674 16.6567 33.1858 12.1929 33.2015 11.9554C31.7339 11.8288 31.2535 13.4064 31.2535 13.4064C31.2535 13.4064 33.3529 12.8893 33.0918 15.8863C32.8463 18.572 27.5298 18.5245 26.2033 15.8863" stroke="#BC9C61"/>
<path d="M26.2412 15.8335L26.1942 15.881H26.1785C25.4369 16.5036 18.2978 22.2496 8.59966 20.176C10.8714 19.4425 11.4407 18.6775 10.4536 17.8016C9.97317 17.9599 8.56833 20.5981 4.69326 19.3951C0.828629 18.192 0.134038 15.1634 1.23076 12.8418C2.32748 10.5202 4.58359 11.0795 5.19984 11.8129C5.80042 12.5621 5.18417 14.0765 3.77933 13.8126C4.29113 14.2031 4.92303 15.1687 5.75863 14.5936C6.59423 14.0184 5.32517 11.7549 7.92074 10.3777C10.5006 8.99004 14.1773 10.7682 14.5637 12.8418C14.9345 14.8996 12.527 16.9943 10.9968 15.1845C10.9654 14.6358 10.6886 14.2189 10.4275 14.9998C10.1821 15.7649 13.2059 19.1682 19.6034 16.5933C21.7655 15.8282 24.6222 13.3483 24.6222 13.3483L26.6172 11.6018" stroke="#BC9C61"/>
<path d="M83.2968 7.143C83.2655 7.19049 83.2811 7.20631 83.3281 7.15883C83.4221 7.09551 83.5893 6.84752 83.8086 6.39375" stroke="#BC9C61"/>
<path d="M85.5066 13.5014C85.6006 13.5014 85.6789 13.4856 85.752 13.4697C89.2145 13.0476 90.729 10.362 90.5254 8.11421C90.3269 5.81899 88.593 5.34939 88.593 5.34939C88.593 5.34939 91.4967 3.55542 98.944 3.18079C106.391 2.822 111.598 5.39688 111.969 8.20919C112.324 11.0057 109.248 11.1745 110.131 9.4122C110.997 7.66572 109.807 6.43105 108.261 6.4627C106.715 6.47853 104.939 8.31999 105.169 10.9582C105.399 13.5964 107.535 17.1104 113.927 16.8888C120.325 16.6567 119.813 12.1929 119.797 11.9554C121.265 11.8288 121.761 13.4064 121.761 13.4064C121.761 13.4064 119.646 12.8893 119.907 15.8863C120.152 18.572 125.453 18.5245 126.811 15.8863C127.072 15.3851 127.182 14.7783 127.088 14.0765C126.905 13.2165 126.607 12.4197 126.221 11.6705C121.881 2.9117 105.812 1.41321 105.812 1.41321C88.0604 0.24185 83.5168 6.36245 83.287 7.12753" stroke="#BC9C61"/>
<path d="M126.759 15.8335C126.759 15.8335 126.775 15.8493 126.822 15.881C127.563 16.5036 134.702 22.2496 144.401 20.176C142.129 19.4425 141.559 18.6775 142.547 17.8016C143.027 17.9599 144.448 20.5981 148.307 19.3951C152.166 18.192 152.866 15.1634 151.769 12.8365C150.688 10.5096 148.417 11.0742 147.816 11.8076C147.2 12.5569 147.816 14.0712 149.221 13.8074C148.709 14.1978 148.077 15.1634 147.242 14.5883C146.406 14.0132 147.675 11.7496 145.079 10.3724C142.5 8.98476 138.823 10.7629 138.452 12.8365C138.066 14.8943 140.478 16.989 142.003 15.1792C142.035 14.6305 142.312 14.2137 142.573 14.9946C142.818 15.7596 139.794 19.1629 133.397 16.588C131.235 15.823 128.378 13.3431 128.378 13.3431L126.383 11.5966" stroke="#BC9C61"/>
<path d="M71.9445 16.8069L71.9289 16.8702C71.8035 17.477 71.8035 18.0257 71.9602 18.4636C72.4093 19.788 74.2006 19.4134 74.2006 19.4134C74.2006 19.4134 75.1407 21.7878 76.7962 21.7403C78.4517 21.8194 79.4074 19.4134 79.4074 19.4134C79.4074 19.4134 81.1988 19.788 81.6479 18.4636C81.8046 18.0099 81.8202 17.4506 81.6636 16.8227L81.7106 16.9177C82.2537 17.0285 82.7603 16.9968 83.1467 16.8702C84.4732 16.4006 84.1024 14.5908 84.1024 14.5908C84.1024 14.5908 85.0738 14.2003 85.758 13.4669C86.1444 13.0606 86.4212 12.5752 86.4056 11.9842V11.9526C86.4526 10.28 84.1024 9.33023 84.1024 9.33023C84.1024 9.33023 84.4419 7.7051 83.3295 7.16163C83.3295 7.16163 83.3139 7.1458 83.2982 7.1458V7.12997C83.2512 7.11415 83.2042 7.08249 83.1415 7.06666C82.7394 6.9242 82.2432 6.90837 81.6897 7.01917" stroke="#BC9C61"/>
<path d="M71.9114 7.05217C71.2952 6.9097 70.7364 6.90971 70.3029 7.068C70.1932 7.09966 70.1045 7.14714 70.0261 7.21046C69.0391 7.80141 69.3629 9.33156 69.3629 9.33156C69.3629 9.33156 66.9814 10.2971 67.0597 11.9856C67.0441 12.5343 67.2895 12.9986 67.629 13.3733C68.2923 14.1542 69.3576 14.5921 69.3576 14.5921C69.3576 14.5921 68.9712 16.4019 70.2977 16.8715C70.7312 17.014 71.3004 17.0298 71.9219 16.8715" stroke="#BC9C61"/>
<path d="M81.6963 7.00289C81.8059 6.42776 81.806 5.89485 81.6493 5.47274C81.2001 4.14836 79.4088 4.52299 79.4088 4.52299C79.4088 4.52299 78.4531 2.11696 76.7976 2.1961C75.1421 2.14861 74.202 4.52299 74.202 4.52299C74.202 4.52299 72.4107 4.14836 71.9616 5.47274C71.8049 5.91067 71.8049 6.46997 71.9303 7.08203" stroke="#BC9C61"/>
<path d="M76.4092 9.51738C76.0384 9.56486 75.6833 9.6915 75.3908 9.892C74.7276 10.3299 74.2784 11.095 74.2784 11.9656C74.2784 12.6357 74.5395 13.2319 74.973 13.6804C75.4221 14.15 76.0384 14.4297 76.733 14.4297C77.4276 14.4297 78.0177 14.15 78.4616 13.7121C78.8951 13.2583 79.1719 12.6515 79.1719 11.9656C79.1719 11.7176 79.1405 11.4802 79.0622 11.2639C78.9525 10.8576 78.7384 10.483 78.446 10.2033C77.9968 9.74954 77.3962 9.48572 76.733 9.48572" stroke="#BC9C61"/>
<path d="M75.7604 11.9709C75.7604 12.546 76.1939 13.0156 76.7318 13.0156C77.2697 13.0156 77.6875 12.546 77.6875 11.9709C77.6875 11.3958 77.254 10.9262 76.7318 10.9262C76.2095 10.9262 75.7604 11.3958 75.7604 11.9709Z" stroke="#BC9C61"/>
<path d="M81.7078 16.918C81.7078 16.918 81.9376 13.578 78.4646 13.7205H78.4333" stroke="#BC9C61"/>
<path d="M71.9437 16.8047C71.9437 16.8047 72.0378 13.7127 74.9258 13.7127" stroke="#BC9C61"/>
<path d="M78.5877 10.0308C78.5877 10.0308 81.7264 10.1416 81.6951 7.01795V7.00212" stroke="#BC9C61"/>
<path d="M71.912 7.0509C71.912 7.0509 71.912 7.06673 71.9277 7.08256C72.0374 7.40969 73.0558 10.1745 75.3902 9.88959C75.4372 9.88959 75.4842 9.88959 75.5469 9.87376" stroke="#BC9C61"/>
<path d="M77.3677 9.41016C77.3677 9.41016 79.1904 7.5687 78.8979 5.56895" stroke="#BC9C61"/>
<path d="M74.4783 5.72581C74.4783 5.72581 74.2798 9.51953 76.4106 9.51953C76.5203 9.51953 76.6247 9.5037 76.7344 9.48787" stroke="#BC9C61"/>
<path d="M77.83 14.1834C77.83 14.1834 79.3445 15.8666 79.1879 18.3359" stroke="#BC9C61"/>
<path d="M75.8516 14.6372C75.8516 14.6372 74.3214 15.2598 74.4781 18.3359" stroke="#BC9C61"/>
<path d="M74.168 11.1094C74.168 11.1094 72.7945 9.8747 71.8805 9.8747" stroke="#BC9C61"/>
<path d="M79.0533 11.2656H79.069C79.2675 11.234 81.064 10.9227 81.4766 10.3317" stroke="#BC9C61"/>
<path d="M79.1735 11.9685C79.1735 11.9685 80.8708 11.7205 81.4766 12.7969" stroke="#BC9C61"/>
<path d="M74.2812 11.9705C74.2812 11.9705 72.9547 12.3293 72.1975 12.6406" stroke="#BC9C61"/>
</svg>
