<svg width="28" height="28" viewBox="0 0 28 28" fill="none" xmlns="http://www.w3.org/2000/svg">
<path d="M24.5 23.3358C24.5 21.304 22.5521 19.5754 19.8333 18.9347M17.5 23.3359C17.5 20.7587 14.366 18.6693 10.5 18.6693C6.634 18.6693 3.5 20.7587 3.5 23.3359M17.5 15.1693C20.0773 15.1693 22.1667 13.0799 22.1667 10.5026C22.1667 7.92527 20.0773 5.83594 17.5 5.83594M10.5 15.1693C7.92267 15.1693 5.83333 13.0799 5.83333 10.5026C5.83333 7.92527 7.92267 5.83594 10.5 5.83594C13.0773 5.83594 15.1667 7.92527 15.1667 10.5026C15.1667 13.0799 13.0773 15.1693 10.5 15.1693Z" stroke="black" stroke-width="2" stroke-linecap="round" stroke-linejoin="round"/>
</svg>
