<svg width="34" height="34" viewBox="0 0 34 34" fill="none" xmlns="http://www.w3.org/2000/svg">
<path d="M6.96448 0.012619C4.69873 0.235142 2.90364 1.34775 1.61752 3.31708C-0.270608 6.21544 -0.522358 10.0428 0.949834 13.6477C2.72851 18.0203 6.67989 21.97 12.7493 25.4358C13.718 25.9921 13.9095 26.0589 14.216 25.9643C14.6155 25.8419 16.5967 24.6737 18.047 23.7001C25.7527 18.5376 29.2718 11.9899 27.5861 5.9651C27.3125 4.986 26.9349 4.16266 26.3547 3.2837C25.6269 2.16553 24.5159 1.18086 23.3885 0.641245C22.4252 0.185074 21.6262 0.012619 20.4277 0.012619C18.1838 0.0181828 16.1534 0.891582 14.3966 2.61057L13.9971 2.99998L13.603 2.61057C12.2239 1.26431 10.6641 0.42985 8.92376 0.118317C8.4312 0.0293083 7.35853 -0.0263214 6.96448 0.012619ZM8.67748 2.01532C10.3029 2.31017 11.9776 3.38384 13.0174 4.79685C13.4279 5.35316 13.6195 5.48667 13.9971 5.48667C14.3528 5.48667 14.5553 5.35316 14.9165 4.88586C16.3176 3.06118 17.9594 2.10989 19.9953 1.92631C22.2611 1.72604 24.1437 2.87203 25.2656 5.14733C26.0647 6.75505 26.3164 8.70769 25.9826 10.6659C25.3094 14.6546 22.1297 18.6823 16.8703 22.2037C15.9618 22.8156 14.6921 23.6 14.2269 23.8392L13.9971 23.956L13.7672 23.8392C13.2856 23.5889 11.786 22.6599 10.9487 22.0869C5.68931 18.5042 2.64094 14.5656 1.97325 10.5157C1.84738 9.72017 1.84738 8.23483 1.97873 7.48938C2.31257 5.57568 3.25937 3.84001 4.45792 2.93879C5.7112 1.99863 7.01921 1.70935 8.67748 2.01532Z" fill="black"/>
</svg>
