<svg width="153" height="23" viewBox="0 0 153 23" fill="none" xmlns="http://www.w3.org/2000/svg">
<path d="M26.1852 15.8789C25.9398 15.3618 25.8301 14.7709 25.9241 14.0691C26.1069 13.2091 26.3889 12.4123 26.7754 11.6631C31.1152 2.90428 47.1848 1.40579 47.1848 1.40579C66.0797 0.171118 70.0018 7.18343 69.725 7.18343C69.6623 7.18343 69.4638 6.95127 69.1975 6.3867" stroke="#BC9C61"/>
<path d="M67.4941 13.4955C63.8645 13.1684 62.2717 10.4036 62.4753 8.10835C62.679 5.81313 64.4077 5.34353 64.4077 5.34353C64.4077 5.34353 61.504 3.54956 54.0567 3.17493C46.6095 2.81614 41.4027 5.39102 41.0319 8.20333C40.6768 10.9998 43.7528 11.1687 42.8859 9.40634C42.0033 7.65986 43.194 6.42519 44.7398 6.45685C46.2857 6.47267 48.077 8.31413 47.8472 10.9523C47.6018 13.5905 45.4658 17.1046 39.0735 16.883C32.6759 16.6508 33.1877 12.187 33.2034 11.9496C31.7359 11.8229 31.2554 13.4006 31.2554 13.4006C31.2554 13.4006 33.3549 12.8835 33.0937 15.8805C32.8483 18.5661 27.5318 18.5187 26.2053 15.8805" stroke="#BC9C61"/>
<path d="M26.2412 15.8316L26.1942 15.879H26.1785C25.4369 16.5017 18.2978 22.2476 8.59966 20.174C10.8714 19.4406 11.4407 18.6755 10.4536 17.7996C9.97317 17.9579 8.56833 20.5961 4.69326 19.3931C0.828629 18.1901 0.134038 15.1615 1.23076 12.8398C2.32748 10.5182 4.58359 11.0775 5.19984 11.8109C5.80042 12.5602 5.18417 14.0745 3.77933 13.8107C4.29113 14.2011 4.92303 15.1667 5.75863 14.5916C6.59423 14.0165 5.32517 11.7529 7.92074 10.3758C10.5006 8.98808 14.1773 10.7662 14.5637 12.8398C14.9345 14.8976 12.527 16.9924 10.9968 15.1826C10.9654 14.6338 10.6886 14.217 10.4275 14.9979C10.1821 15.763 13.2059 19.1662 19.6034 16.5913C21.7655 15.8263 24.6222 13.3464 24.6222 13.3464L26.6172 11.5999" stroke="#BC9C61"/>
<path d="M83.2968 7.14104C83.2655 7.18853 83.2811 7.20436 83.3281 7.15687C83.4221 7.09356 83.5893 6.84557 83.8086 6.3918" stroke="#BC9C61"/>
<path d="M85.5066 13.4955C85.6006 13.4955 85.6789 13.4797 85.752 13.4639C89.2145 13.0418 90.729 10.3561 90.5254 8.10835C90.3269 5.81313 88.593 5.34353 88.593 5.34353C88.593 5.34353 91.4967 3.54956 98.944 3.17493C106.391 2.81614 111.598 5.39102 111.969 8.20333C112.324 10.9998 109.248 11.1687 110.131 9.40634C110.997 7.65986 109.807 6.42519 108.261 6.45685C106.715 6.47267 104.939 8.31413 105.169 10.9523C105.399 13.5905 107.535 17.1046 113.927 16.883C120.325 16.6508 119.813 12.187 119.797 11.9496C121.265 11.8229 121.761 13.4006 121.761 13.4006C121.761 13.4006 119.646 12.8835 119.907 15.8805C120.152 18.5661 125.453 18.5187 126.811 15.8805C127.072 15.3792 127.182 14.7724 127.088 14.0707C126.905 13.2106 126.607 12.4139 126.221 11.6646C121.881 2.90584 105.812 1.40735 105.812 1.40735C88.0604 0.235991 83.5168 6.35659 83.287 7.12167" stroke="#BC9C61"/>
<path d="M126.759 15.8316C126.759 15.8316 126.775 15.8474 126.822 15.879C127.563 16.5017 134.702 22.2476 144.401 20.174C142.129 19.4406 141.559 18.6755 142.547 17.7996C143.027 17.9579 144.448 20.5961 148.307 19.3931C152.166 18.1901 152.866 15.1614 151.769 12.8346C150.688 10.5077 148.417 11.0723 147.816 11.8057C147.2 12.5549 147.816 14.0692 149.221 13.8054C148.709 14.1959 148.077 15.1615 147.242 14.5863C146.406 14.0112 147.675 11.7476 145.079 10.3705C142.5 8.98281 138.823 10.7609 138.452 12.8346C138.066 14.8924 140.478 16.9871 142.003 15.1773C142.035 14.6285 142.312 14.2117 142.573 14.9926C142.818 15.7577 139.794 19.1609 133.397 16.5861C131.235 15.821 128.378 13.3411 128.378 13.3411L126.383 11.5946" stroke="#BC9C61"/>
<path d="M71.9445 16.803L71.9289 16.8663C71.8035 17.4731 71.8035 18.0218 71.9602 18.4597C72.4093 19.7841 74.2006 19.4095 74.2006 19.4095C74.2006 19.4095 75.1407 21.7839 76.7962 21.7364C78.4517 21.8155 79.4074 19.4095 79.4074 19.4095C79.4074 19.4095 81.1988 19.7841 81.6479 18.4597C81.8046 18.006 81.8202 17.4467 81.6636 16.8188L81.7106 16.9138C82.2537 17.0246 82.7603 16.9929 83.1467 16.8663C84.4732 16.3967 84.1024 14.5869 84.1024 14.5869C84.1024 14.5869 85.0738 14.1964 85.758 13.463C86.1444 13.0567 86.4212 12.5713 86.4056 11.9803V11.9487C86.4526 10.2761 84.1024 9.32632 84.1024 9.32632C84.1024 9.32632 84.4419 7.70119 83.3295 7.15773C83.3295 7.15773 83.3139 7.1419 83.2982 7.1419V7.12607C83.2512 7.11024 83.2042 7.07858 83.1415 7.06275C82.7394 6.92029 82.2432 6.90446 81.6897 7.01526" stroke="#BC9C61"/>
<path d="M71.9134 7.04631C71.2971 6.90385 70.7383 6.90385 70.3049 7.06214C70.1952 7.0938 70.1064 7.14128 70.0281 7.2046C69.041 7.79555 69.3648 9.3257 69.3648 9.3257C69.3648 9.3257 66.9834 10.2913 67.0617 11.9797C67.046 12.5285 67.2915 12.9928 67.631 13.3674C68.2942 14.1483 69.3596 14.5863 69.3596 14.5863C69.3596 14.5863 68.9731 16.3961 70.2996 16.8657C70.7331 17.0081 71.3024 17.0239 71.9238 16.8657" stroke="#BC9C61"/>
<path d="M81.6943 6.99898C81.804 6.42385 81.804 5.89094 81.6473 5.46883C81.1982 4.14446 79.4069 4.51908 79.4069 4.51908C79.4069 4.51908 78.4512 2.11305 76.7956 2.1922C75.1401 2.14471 74.2001 4.51908 74.2001 4.51908C74.2001 4.51908 72.4088 4.14446 71.9596 5.46883C71.803 5.90677 71.803 6.46606 71.9283 7.07812" stroke="#BC9C61"/>
<path d="M76.4092 9.51152C76.0384 9.559 75.6833 9.68564 75.3908 9.88614C74.7276 10.3241 74.2784 11.0892 74.2784 11.9598C74.2784 12.6299 74.5395 13.2261 74.973 13.6746C75.4221 14.1442 76.0384 14.4238 76.733 14.4238C77.4276 14.4238 78.0177 14.1442 78.4616 13.7062C78.8951 13.2525 79.1719 12.6457 79.1719 11.9598C79.1719 11.7118 79.1405 11.4743 79.0622 11.258C78.9525 10.8517 78.7384 10.4771 78.446 10.1974C77.9968 9.74368 77.3962 9.47986 76.733 9.47986" stroke="#BC9C61"/>
<path d="M75.7624 11.965C75.7624 12.5402 76.1958 13.0098 76.7337 13.0098C77.2717 13.0098 77.6895 12.5402 77.6895 11.965C77.6895 11.3899 77.256 10.9203 76.7337 10.9203C76.2115 10.9203 75.7624 11.3899 75.7624 11.965Z" stroke="#BC9C61"/>
<path d="M81.7098 16.9141C81.7098 16.9141 81.9395 13.5741 78.4666 13.7166H78.4353" stroke="#BC9C61"/>
<path d="M71.9437 16.8027C71.9437 16.8027 72.0378 13.7108 74.9258 13.7108" stroke="#BC9C61"/>
<path d="M78.5877 10.0288C78.5877 10.0288 81.7264 10.1396 81.6951 7.016V7.00017" stroke="#BC9C61"/>
<path d="M71.912 7.04699C71.912 7.04699 71.912 7.06282 71.9277 7.07865C72.0374 7.40579 73.0558 10.1706 75.3902 9.88569C75.4372 9.88569 75.4842 9.88569 75.5469 9.86986" stroke="#BC9C61"/>
<path d="M77.3658 9.40625C77.3658 9.40625 79.1884 7.56479 78.896 5.56504" stroke="#BC9C61"/>
<path d="M74.4763 5.72191C74.4763 5.72191 74.2779 9.51562 76.4086 9.51562C76.5183 9.51562 76.6227 9.4998 76.7324 9.48397" stroke="#BC9C61"/>
<path d="M77.83 14.1815C77.83 14.1815 79.3445 15.8646 79.1879 18.334" stroke="#BC9C61"/>
<path d="M75.8496 14.6352C75.8496 14.6352 74.3194 15.2579 74.4761 18.334" stroke="#BC9C61"/>
<path d="M74.168 11.1035C74.168 11.1035 72.7945 9.86884 71.8805 9.86884" stroke="#BC9C61"/>
<path d="M79.0514 11.2637H79.0671C79.2655 11.232 81.062 10.9207 81.4746 10.3298" stroke="#BC9C61"/>
<path d="M79.1715 11.9646C79.1715 11.9646 80.8688 11.7166 81.4746 12.793" stroke="#BC9C61"/>
<path d="M74.2793 11.9647C74.2793 11.9647 72.9528 12.3235 72.1955 12.6348" stroke="#BC9C61"/>
</svg>
