<svg width="378" height="565" viewBox="0 0 378 565" fill="none" xmlns="http://www.w3.org/2000/svg">
<path d="M10.9395 9.20117C10.9395 9.20117 50.9116 31.8109 63.9552 81.7101C70.0036 104.898 86.9918 104.267 100.982 116.098C132.802 143.019 106.925 159.74 125.333 175.146C125.333 156.533 133.854 157.321 131.75 139.97C183.556 187.818 156.522 245.605 117.181 248.181C92.935 249.759 83.8887 235.667 83.8887 235.667C83.8887 235.667 67.2687 262.43 127.805 299.815C205.699 347.874 156.154 393.725 156.154 393.725C156.154 393.725 31.6619 341.933 22.7733 224.204C21.6688 209.271 21.2481 177.775 21.6688 164.367C28.5588 175.672 34.3442 186.504 50.7538 189.291C33.5553 171.676 22.9311 136.289 29.1899 106.633C41.7075 46.8491 10.9395 9.20117 10.9395 9.20117Z" fill="#F5F5F5" stroke="#D7AD45" stroke-opacity="0.16" stroke-width="4" stroke-miterlimit="10"/>
<path d="M50.8594 118.096C59.0116 137.866 84.415 151.8 95.3021 173.989C107.978 199.806 82.5741 231.565 82.5741 231.565C82.5741 231.565 67.2164 262.43 127.753 299.815C205.646 347.874 192.34 348.242 192.34 348.242C192.34 348.242 191.866 364.384 157.259 351.397C112.764 334.729 36.9217 282.937 61.0102 211.164C77.7354 161.212 57.0656 146.963 50.8594 118.096Z" fill="#F5F5F5" stroke="#D7AD45" stroke-opacity="0.16" stroke-width="4" stroke-miterlimit="10"/>
<path d="M163.254 706.055C163.254 706.055 211.852 710.261 260.923 687.809C248.247 682.762 243.251 677.924 240.043 673.35C257.451 681.026 272.914 682.604 284.643 674.612C299.054 665.042 312.834 652.58 324.615 636.438C327.929 631.916 331.137 627.131 334.135 622.083C339.289 613.46 351.018 589.536 361.116 576.443C354.437 582.069 334.556 596.897 320.25 599.263C329.349 594.636 355.699 576.864 361.064 547.629C365.482 520.024 364.587 490.421 356.277 461.028C353.963 452.878 346.179 434.58 347.126 415.02C343.76 434.79 336.186 452.826 329.349 461.659C333.083 453.509 343.602 430.479 328.297 402.033C314.517 382.052 296.214 362.965 272.704 345.403C250.456 326.842 254.611 307.44 254.822 301.288C242.357 321.847 241.989 344.457 249.878 363.806C234.31 347.349 241.305 312.908 219.846 293.926C177.928 256.804 222.476 236.876 185.028 177.092C188.184 230.304 163.675 237.402 151.262 253.439C137.272 271.527 140.691 293.821 156.259 309.648C138.85 307.282 134.222 296.924 130.698 286.986C127.489 296.398 125.28 310.332 125.333 320.585C125.754 373.481 145.898 387.888 159.204 392.673C171.091 396.932 201.122 405.45 209.064 377.688C235.414 398.773 272.178 442.362 240.621 543.16C220.056 608.78 181.031 611.462 156.995 616.72C109.449 627.184 163.307 706.108 163.307 706.108L163.254 706.055Z" fill="#F5F5F5" stroke="#D7AD45" stroke-opacity="0.16" stroke-width="4" stroke-miterlimit="10"/>
<path d="M148.58 673.298C148.58 673.298 283.276 681.027 313.57 548.997C340.552 431.584 225.211 382.736 202.753 368.014C205.908 383.683 190.498 405.872 152.893 390.886C203.121 412.339 322.564 546.526 167.199 626.501L148.527 673.298H148.58Z" fill="#F5F5F5" stroke="#D7AD45" stroke-opacity="0.16" stroke-width="4" stroke-miterlimit="10"/>
<path d="M26.4554 284.146C43.9169 329.419 54.9618 330.102 77.3673 347.612C102.508 367.224 106.452 382.315 112.553 399.982C108.451 388.309 108.083 377.583 111.081 366.383C120.706 381.947 142.795 389.15 156.049 393.672C173.826 399.772 190.289 406.397 204.963 414.126C211.905 417.807 233.101 434.002 231.418 465.866C236.94 451.827 233.101 430.163 230.103 420.594C233.574 426.43 242.778 439.365 249.3 448.041C266.025 470.44 275.913 497.309 271.916 534.852C268.129 563.614 248.143 568.661 232.733 572.289C247.091 570.502 255.086 567.925 265.973 562.667C245.198 619.56 175.141 633.336 160.888 633.336C133.644 633.336 121.968 653.474 119.601 647.901C117.234 642.275 76.368 631.075 75.3161 626.343C71.687 610.673 144.794 574.288 144.794 574.288C144.794 574.288 218.69 571.238 205.962 503.619C195.916 450.407 145.951 451.196 145.951 451.196C145.951 451.196 168.409 477.854 145.11 495.889C112.974 520.708 50.8594 483.48 37.8685 444.676C43.128 445.727 54.9092 445.99 61.0103 444.465C45.337 438.997 29.874 425.011 22.4581 397.353C14.5689 367.96 15.8838 331.364 26.4554 284.146Z" fill="#F5F5F5" stroke="#D7AD45" stroke-opacity="0.16" stroke-width="4" stroke-miterlimit="10"/>
<path d="M125.281 426.904C158.153 430.953 223.266 431.058 229.735 503.62C235.994 574.446 171.197 588.485 153.788 591.43C135.274 594.532 103.402 608.15 93.1458 621.979C90.6212 625.397 70.3722 600.999 72.1604 596.214C85.6247 560.302 139.219 555.885 139.219 555.885C139.219 555.885 193.918 550.995 193.339 507.879C192.655 456.507 152.631 457.822 148.581 458.768C139.429 493.314 57.4338 474.332 58.1175 379.371C68.6891 400.982 90.0427 422.593 125.281 426.957V426.904Z" fill="#F5F5F5" stroke="#D7AD45" stroke-opacity="0.16" stroke-width="4" stroke-miterlimit="10"/>
<path d="M172.985 372.483C172.985 372.483 166.463 361.493 174.195 353.238C180.506 346.508 198.125 346.298 202.754 367.961" fill="#F5F5F5"/>
<path d="M172.985 372.483C172.985 372.483 166.463 361.493 174.195 353.238C180.506 346.508 198.125 346.298 202.754 367.961" stroke="#D7AD45" stroke-opacity="0.16" stroke-width="4" stroke-miterlimit="10"/>
<path d="M346.417 394.374C343.257 390.516 340.451 388.328 337.998 387.807C335.546 387.287 333.211 387.208 330.994 387.571V394.48L320.584 383.207L330.994 372.521V379.088C335.094 379.12 338.579 380.591 341.451 383.501C344.322 386.41 345.978 390.035 346.417 394.374Z" stroke="#AC1927" stroke-width="2.58333" stroke-linejoin="round"/>
</svg>
