<svg width="307" height="304" viewBox="0 0 307 304" fill="none" xmlns="http://www.w3.org/2000/svg">
<g clip-path="url(#clip0_3490_24812)">
<path d="M-184.39 133.111C-183.954 134.191 -183.448 135.219 -183.116 136.317C-181.999 140.184 -180.429 143.39 -175.561 143.268C-170.78 143.146 -166.401 140.01 -165.023 135.55C-162.266 126.508 -167.169 117.972 -176.381 115.411C-186.152 112.71 -194.789 115.62 -202.902 120.62C-212.499 126.526 -219.338 135.202 -225.759 144.244C-234.919 157.153 -241.183 171.474 -246.61 186.213C-247.447 188.512 -248.354 190.795 -250.169 192.885C-252.699 170.481 -248.895 149 -242.282 127.676C-235.617 106.229 -223.386 88.0238 -209.794 69.4523C-215.151 65.0272 -220.49 61.1421 -225.201 56.595C-233.105 48.9469 -241.026 41.2465 -248.145 32.8841C-253.414 26.6994 -253.1 24.7481 -248.197 18.2673C-238.461 5.44489 -226.317 -4.92104 -213.72 -14.8166C-212.15 -16.0361 -210.649 -17.3253 -208.695 -18.9281C-238.409 -54.8342 -253.03 -95.4442 -248.476 -142.343C-247.674 -140.41 -246.732 -138.511 -246.086 -136.507C-239.578 -116.403 -230.016 -97.8659 -216.006 -82.0121C-206.811 -71.6113 -196.01 -63.3012 -180.83 -63.9806C-168.826 -64.5207 -163.976 -69.573 -164.307 -81.472C-164.499 -88.1097 -167.692 -91.7683 -174.061 -92.6568C-178.458 -93.2665 -179.923 -91.8205 -182.226 -84.6602C-182.401 -84.1201 -182.732 -83.6149 -183.186 -82.709C-189.171 -79.4337 -195.173 -80.7229 -201.07 -83.8065C-212.411 -89.7125 -221.327 -98.5279 -228.638 -108.72C-242.719 -128.336 -250.099 -150.357 -250.169 -174.608C-250.221 -197.257 -250.204 -219.905 -250.134 -242.553C-250.134 -245.654 -249.715 -248.738 -249.436 -252.518C-245.615 -252.902 -242.527 -253.477 -239.456 -253.494C-218.518 -253.564 -197.563 -253.947 -176.643 -253.424C-147.313 -252.693 -120.46 -244.208 -98.2489 -224.452C-91.8629 -218.773 -86.8379 -211.333 -82.1793 -204.086C-78.7595 -198.755 -77.1368 -192.361 -80.2077 -185.636C-81.2197 -185.201 -82.2316 -184.504 -83.3134 -184.382C-87.0473 -183.912 -90.2054 -182.936 -90.5194 -178.406C-90.851 -173.511 -88.1465 -168.633 -83.6449 -167.431C-71.0649 -164.068 -62.8643 -170.671 -61.8 -181.717C-60.4914 -195.427 -67.1565 -205.828 -76.1423 -214.94C-88.5478 -227.518 -103.518 -236.403 -119.797 -243.093C-126.689 -245.933 -133.703 -248.494 -141.101 -251.351C-131.173 -255.794 -98.8596 -251.996 -75.3571 -244.365C-54.088 -237.449 -35.2266 -226.334 -17.1505 -211.682C-12.7536 -216.961 -8.86267 -222.292 -4.30873 -226.961C3.56033 -235.062 11.4643 -243.18 20.0661 -250.463C26.1031 -255.585 29.2787 -254.888 35.6298 -250.079C46.8315 -241.595 56.2185 -231.368 64.6808 -220.219C66.8967 -217.309 69.5488 -214.713 72.3579 -211.595C108.615 -241.595 149.583 -254.975 196.152 -251.229C194.18 -250.306 192.296 -249.104 190.219 -248.511C170.678 -242.849 153.09 -233.494 137.387 -220.672C128.977 -213.807 121.945 -205.724 118.421 -195.131C116.432 -189.173 116.1 -183.18 118.072 -177.204C120.916 -168.528 130.966 -163.79 139.306 -167.326C143.389 -169.051 145.378 -172.622 145.762 -176.96C146.093 -180.741 143.755 -182.797 140.58 -184.173C138.992 -184.852 137.404 -185.514 136.096 -186.055C132.903 -190.375 133.758 -194.556 135.066 -198.842C138.434 -209.835 145.832 -218.006 154.189 -225.306C169.875 -238.999 188.3 -247.292 208.714 -250.916C216.967 -252.379 225.412 -253.285 233.787 -253.442C253.556 -253.808 273.342 -253.633 293.11 -253.511C296.757 -253.494 300.386 -252.727 304.696 -252.24C304.923 -248.233 305.254 -245.114 305.272 -242.013C305.324 -219.94 305.359 -197.884 305.272 -175.811C305.167 -146.124 295.187 -120.079 275.244 -98.1272C268.823 -91.054 261.18 -84.9041 251.619 -82.3431C247.623 -81.2804 243.279 -81.4895 239.318 -81.141C238.254 -83.2665 237.608 -84.2247 237.242 -85.2874C235.183 -91.385 233.264 -93.2665 229.443 -92.7787C223.964 -92.0993 219.846 -87.8484 219.462 -82.4999C218.642 -70.8099 224.383 -64.5556 236.108 -63.9981C252.474 -63.2315 263.396 -72.7786 272.853 -84.0679C286.41 -100.27 296.007 -118.755 301.887 -139.103C302.183 -140.148 302.881 -141.089 303.527 -142.343C307.714 -130.253 304.678 -100.531 296.844 -76.925C289.83 -55.775 278.594 -36.9247 263.292 -18.0918C265.385 -16.8549 267.357 -16.1058 268.823 -14.7991C279.135 -5.47852 289.359 3.9292 299.531 13.3892C300.997 14.7481 302.201 16.4554 303.352 18.1279C308.238 25.236 308.203 26.5774 303.091 33.5287C294.053 45.8284 282.223 55.271 270.55 64.8529C268.788 66.299 267.043 67.7449 264.74 69.6613C294.157 105.707 308.412 146.474 304.905 193.146C304.207 191.857 303.3 190.638 302.846 189.279C296.53 170.428 288.365 152.467 275.436 137.188C270.236 131.055 264.059 125.637 257.761 120.585C251.671 115.689 244.029 114.331 236.369 114.47C225.482 114.662 218.52 122.937 219.794 133.425C220.3 137.571 222.359 140.411 226.092 142.136C232.007 144.871 235.828 143.111 237.905 136.7C238.254 135.637 238.515 134.54 238.725 133.791C242.982 130.411 247.222 131.09 251.514 132.397C261.582 135.481 269.59 141.857 276.465 149.348C292.866 167.188 302.271 188.495 305.167 212.485C306.249 221.37 306.528 230.394 306.633 239.349C306.842 256.771 306.737 274.192 306.633 291.614C306.633 294.698 306.109 297.799 305.76 301.544C302.62 301.91 300.124 302.45 297.612 302.45C273.481 302.503 249.333 302.729 225.203 302.381C196.675 301.98 171.864 291.562 151.014 272.38C144.261 266.161 138.224 258.844 135.293 249.68C133.74 244.837 132.815 240.098 136.078 235.655C136.689 235.307 137.16 234.924 137.701 234.75C144.453 232.676 146.181 230.934 145.744 226.614C145.238 221.631 140.458 217.119 135.328 216.788C124.248 216.056 117.67 221.788 116.99 232.92C116.135 246.927 123.184 257.485 132.763 266.422C143.86 276.771 156.422 285.203 170.503 291.109C177.447 294.018 184.636 296.335 191.702 298.983C192.959 299.454 194.075 300.238 195.035 301.405C148.519 305.865 108.353 290.638 72.0787 261.492C65.9894 268.652 60.4758 275.673 54.3864 282.119C48.4366 288.426 42.1728 294.506 35.5251 300.063C28.9472 305.569 26.1555 305.098 19.3333 299.994C9.00409 292.259 0.472015 282.833 -7.39703 272.711C-10.0491 269.297 -12.963 266.091 -16.2432 262.224C-18.7208 263.722 -20.9891 264.854 -22.9607 266.352C-48.1905 285.656 -76.4738 297.868 -108.002 301.753C-118.454 303.043 -129.184 301.962 -140.054 300.638C-138.013 299.872 -136.006 298.966 -133.913 298.339C-114.441 292.503 -96.9054 282.851 -81.3767 269.959C-72.4084 262.52 -64.6789 253.669 -62.5328 241.492C-62.0268 238.652 -61.6953 235.725 -61.8523 232.851C-62.5502 220.847 -68.8141 215.603 -80.7486 216.77C-85.7212 217.258 -89.3853 220.464 -90.4497 225.307C-91.3918 229.54 -89.9437 232.154 -85.5816 234.122C-78.934 237.119 -77.4858 239.819 -79.3178 246.945C-82.2665 258.408 -89.6121 267.276 -98.1966 274.61C-119.937 293.182 -145.219 302.816 -174.13 302.555C-198.819 302.328 -223.526 302.503 -249.401 302.503C-250.064 299.854 -251.408 296.945 -251.425 294.053C-251.582 270.534 -252.298 246.98 -251.251 223.512C-250.012 195.464 -240.276 170.185 -221.153 149.209C-214.523 141.927 -206.863 135.533 -197.022 132.606C-193.062 131.421 -189.153 130.411 -184.355 133.111H-184.39ZM-8.77545 -80.8448C-1.34259 -82.3605 5.16553 -83.9111 11.726 -84.9564C15.3726 -85.5313 17.3792 -87.2735 18.5656 -90.6533C22.9451 -103.092 24.9516 -116.089 25.0563 -129.086C25.1784 -145.636 20.0138 -160.967 10.4174 -174.765C-13.3992 -209.016 -45.5035 -231.595 -85.5293 -242.989C-95.8062 -245.916 -106.258 -248.267 -119.239 -248.093C-113.132 -244.923 -108.822 -242.727 -104.53 -240.463C-91.8804 -233.738 -80.103 -225.811 -70.524 -215.027C-62.6026 -206.107 -57.1937 -196.194 -57.6648 -183.668C-58.2057 -168.581 -68.5175 -160.009 -83.1913 -162.953C-89.1934 -164.155 -93.852 -169.33 -94.6372 -175.689C-95.4572 -182.326 -93.7473 -185.218 -86.9775 -188.563C-85.7038 -189.19 -84.4475 -189.835 -83.1215 -190.497C-83.1738 -199.8 -87.5533 -206.804 -93.2762 -213.18C-113.795 -235.985 -139.74 -247.466 -170.239 -248.267C-192.904 -248.86 -215.604 -248.459 -238.287 -248.424C-240.764 -248.424 -243.225 -247.902 -246.156 -247.571C-246.156 -243.808 -246.156 -240.916 -246.156 -238.041C-246.156 -217.71 -246.051 -197.396 -246.191 -177.065C-246.278 -163.25 -243.765 -149.939 -239.002 -137.047C-232.093 -118.389 -221.17 -102.57 -204.804 -90.8798C-199.831 -87.3257 -194.422 -84.6602 -187.81 -85.4964C-186.641 -87.7439 -185.611 -89.7996 -184.512 -91.8031C-182.279 -95.8624 -178.649 -97.2909 -174.253 -96.9251C-166.61 -96.2979 -160.102 -90.6707 -159.701 -83.1097C-159.125 -72.465 -162.876 -61.4893 -177.847 -60.1304C-188.089 -59.2071 -197.389 -61.4371 -205.868 -67.4301C-220.001 -77.4302 -229.545 -91.1759 -237.798 -105.984C-240.52 -110.88 -242.719 -116.072 -245.161 -121.124C-244.777 -100.34 -239.805 -80.7577 -231.342 -62.1514C-219.705 -36.6285 -202.536 -15.3044 -180.639 2.25671C-157.363 20.9154 -131.313 27.2395 -102.21 19.8875C-96.3645 18.4066 -90.5718 16.7516 -84.6569 15.1488C-82.6504 6.24631 -80.8183 -1.88966 -78.8467 -10.705C-82.5631 -12.0639 -85.7038 -13.4402 -88.984 -14.3462C-99.383 -17.2208 -107.81 -23.0745 -115.296 -30.6878C-124.91 -40.4788 -131.295 -52.0816 -134.715 -65.2001C-139.985 -85.4093 -145.027 -105.671 -149.843 -125.984C-152.163 -135.775 -153.803 -145.723 -155.601 -154.922C-152.757 -158.685 -150 -157.814 -147.069 -157.152C-132.622 -153.894 -118.087 -151.089 -103.728 -147.518C-86.5413 -143.249 -69.1631 -139.364 -52.5176 -133.458C-34.3193 -126.995 -20.9018 -114.295 -13.7656 -95.8624C-11.8987 -91.0366 -10.4854 -86.0365 -8.77545 -80.81V-80.8448ZM63.756 -80.9145C64.4016 -82.2908 65.0821 -83.2839 65.3263 -84.3815C71.4855 -111.246 88.3228 -128.615 114.373 -135.828C144.279 -144.103 174.673 -150.619 204.876 -157.779C206.341 -158.128 208.104 -157.239 210.442 -156.786C210.285 -154.173 210.354 -151.943 209.97 -149.783C209.273 -145.793 208.365 -141.821 207.423 -137.884C201.438 -113.075 196.099 -88.0923 189.207 -63.5451C182.664 -40.2871 168.497 -22.8828 144.942 -14.4507C141.19 -13.1092 137.334 -12.0988 133.653 -10.9664C135.886 -1.87222 137.945 6.50763 140.161 15.5844C146.774 17.2394 153.16 18.9815 159.616 20.4101C182.734 25.4973 204.893 23.0757 224.697 9.60867C235.2 2.46576 245.373 -5.58304 254.149 -14.712C273.743 -35.0954 287.806 -58.9806 295.274 -86.4721C298.327 -97.7265 300.735 -109.103 300.491 -120.897C299.304 -119.469 298.659 -117.901 297.943 -116.368C290.319 -99.9042 280.792 -84.6951 267.322 -72.3431C257.743 -63.5625 246.559 -58.7367 233.141 -60.0607C219.375 -61.4196 210.773 -74.6079 215.746 -87.1341C218.119 -93.1097 222.795 -96.2282 229.041 -96.9077C235.131 -97.5697 238.952 -94.5906 241.028 -88.9982C241.517 -87.6916 242.459 -86.5592 243.226 -85.2874C252.84 -85.4442 260.011 -90.0435 266.572 -96.0192C289.621 -116.977 300.212 -143.598 301.136 -174.138C301.799 -196.177 301.293 -218.267 301.241 -240.323C301.241 -242.814 300.805 -245.306 300.578 -247.884C298.048 -248.146 296.338 -248.459 294.628 -248.459C270.498 -248.424 246.332 -249.208 222.254 -248.093C192.243 -246.7 166.612 -234.853 146.966 -211.543C142.08 -205.741 138.102 -199.365 138.486 -191.002C140.004 -190.079 141.452 -189.173 142.918 -188.302C148.536 -185.044 150.543 -181.298 149.775 -175.584C148.937 -169.521 143.93 -163.755 138.12 -163.006C122.887 -161.037 114.111 -166.699 112.872 -182.849C111.913 -195.305 117.147 -205.462 125.121 -214.4C135.694 -226.281 148.693 -234.957 162.791 -242.118C166.071 -243.79 169.351 -245.48 172.632 -247.153C159.72 -247.588 147.524 -245.323 135.607 -241.56C101.077 -230.689 72.5324 -210.968 50.3036 -182.518C42.0856 -171.995 35.2809 -160.532 32.3321 -147.1C28.0399 -127.465 31.2154 -108.545 37.078 -89.8519C37.6887 -87.8832 40.4803 -85.81 42.6265 -85.2351C49.3265 -83.4755 56.2185 -82.4128 63.756 -80.932V-80.9145ZM243.698 136.16C242.668 138.007 241.866 139.226 241.29 140.515C239.196 145.359 235.654 147.693 230.315 147.24C224.4 146.752 219.445 144.174 216.81 139C211.506 128.616 218.066 114.975 229.285 111.665C240.452 108.355 250.59 110.846 260.011 116.926C271.196 124.156 279.658 134.122 286.637 145.237C291.837 153.547 296.216 162.362 300.962 170.951C300.857 162.885 300.247 154.836 298.537 147.031C291.784 116.299 277.215 89.5047 256.051 66.3512C244.832 54.0863 232.147 43.25 217.124 35.9503C192.906 24.1732 168.043 26.7865 143.336 34.696C141.435 35.3057 139.114 37.4312 138.66 39.2604C136.863 46.4556 135.729 53.825 134.333 61.2641C135.904 62.0132 136.863 62.6752 137.945 62.9365C166.961 70.0098 183.676 89.5395 191.039 117.24C198.176 144.104 203.968 171.317 210.162 198.425C210.808 201.265 210.25 204.383 210.25 208.286C206.673 207.763 204.143 207.519 201.665 206.997C192.575 205.08 183.467 203.286 174.446 201.073C153.317 195.864 131.908 191.509 111.25 184.784C88.4276 177.362 72.7941 161.543 66.0417 137.902C65.4485 135.794 64.5586 133.773 63.6688 131.334C54.5783 133.407 46.2033 135.324 38.0551 137.188C37.235 139.261 36.6418 140.585 36.223 141.944C35.3855 144.714 34.548 147.502 33.885 150.306C28.7902 171.962 28.1271 193.338 38.2644 213.913C44.6155 226.805 53.7059 237.851 63.7735 247.885C86.8572 270.917 114.216 286.858 146.111 294.332C155.044 296.422 164.152 298.565 175.249 298.147C169.91 295.551 166.211 293.896 162.634 291.997C149.269 284.854 136.514 276.788 126.185 265.516C118.124 256.718 112.541 246.892 112.82 234.401C113.169 218.617 121.509 211.126 137.422 212.816C143.441 213.46 148.344 218.199 149.635 224.628C150.926 231.039 148.641 235.324 142.22 238.547C140.964 239.175 139.672 239.767 138.259 240.446C138.329 249.715 142.621 256.718 148.362 263.095C169.16 286.144 195.471 297.468 226.197 298.304C248.845 298.931 271.527 298.478 294.21 298.426C296.425 298.426 298.641 297.886 301.032 297.59C301.276 295.011 301.642 293.025 301.642 291.056C301.642 267.555 302.183 244.018 301.381 220.551C300.351 190.063 288.016 164.488 264.757 144.47C258.982 139.505 252.456 135.881 243.75 136.16H243.698ZM-78.9339 61.4731C-80.1728 55.7936 -82.092 50.5323 -82.2665 45.2187C-82.5108 37.6228 -86.489 34.5914 -93.1192 32.8144C-106.153 29.3301 -119.326 28.0409 -132.796 28.4764C-144.434 28.8597 -155.164 31.9085 -165.075 37.797C-203.112 60.3581 -227.329 93.6684 -240.311 135.428C-243.731 146.456 -246.627 157.728 -246.051 169.575C-245.493 169.435 -245.057 169.453 -244.969 169.279C-243.696 167.014 -242.422 164.749 -241.27 162.432C-233.96 147.78 -225.288 134.122 -212.987 123.059C-203.53 114.557 -192.8 109.365 -179.784 110.358C-166.017 111.404 -158.026 121.369 -161.114 136.805C-162.231 142.362 -167.744 146.404 -173.834 147.171C-179.731 147.902 -184.023 145.794 -186.623 140.359C-187.216 139.104 -188.036 137.937 -188.857 136.561C-197.598 135.846 -204.228 139.958 -210.248 145.097C-233.419 164.906 -245.057 190.516 -246.191 220.586C-247.063 244.07 -246.47 267.607 -246.47 291.126C-246.47 293.321 -245.894 295.516 -245.58 297.868C-243.26 298.112 -241.55 298.426 -239.857 298.426C-216.006 298.426 -192.137 299.175 -168.338 298.165C-138.327 296.893 -112.556 285.29 -92.5958 262.311C-87.2741 256.178 -83.0517 249.297 -83.1564 240.324C-84.6395 239.662 -85.9132 239 -87.2392 238.513C-92.5085 236.544 -95.1955 232.938 -94.7593 227.188C-94.2882 220.882 -91.4965 215.847 -85.6689 213.425C-72.5305 207.99 -59.0258 216.544 -57.7695 230.725C-56.9145 240.359 -58.7117 249.523 -64.6091 257.102C-69.8959 263.913 -75.6712 270.795 -82.5457 275.847C-93.9044 284.192 -106.345 291.074 -117.424 298.008C-104.757 298.6 -85.3723 293.652 -70.4542 287.99C-43.3574 277.729 -20.5005 261.457 -1.20299 239.662C17.8852 218.094 28.4412 194.227 23.9396 164.993C22.474 155.55 21.1828 146.09 16.4195 136.979C8.13168 135.15 -0.208466 133.32 -8.35669 131.526C-9.29889 133.094 -9.96191 133.791 -10.1364 134.575C-16.5573 163.129 -35.5582 179.697 -62.655 187.014C-91.4965 194.801 -120.757 201.004 -149.878 207.798C-151.396 208.147 -153.158 207.519 -155.67 207.241C-155.531 204.279 -155.81 201.7 -155.234 199.331C-148.081 169.749 -141.415 140.045 -133.354 110.707C-126.933 87.2921 -111.178 71.8042 -87.8499 64.2954C-85.1454 63.4243 -82.441 62.5707 -78.9165 61.4557L-78.9339 61.4731ZM27.8829 132.745C87.9041 131.508 134.612 86.1423 134.979 25.8457C135.345 -32.639 90.0851 -82.709 25.475 -81.8553C-32.6095 -81.0888 -78.4978 -36.7331 -79.754 23.0234C-81.0801 86.0377 -31.6324 132.101 27.8829 132.745ZM-150.017 -152.831C-149.721 -149.242 -149.79 -147.239 -149.372 -145.34C-146.091 -130.34 -142.986 -115.288 -139.287 -100.375C-135.727 -86.0365 -132.377 -71.5417 -127.387 -57.674C-118.995 -34.294 -102.053 -20.2521 -76.5785 -15.7051C-74.6592 -19.7992 -72.862 -23.632 -70.9079 -27.848C-89.4551 -34.9735 -102.559 -47.552 -109.014 -65.5312C-115.557 -83.7717 -120.233 -102.674 -125.573 -121.35C-126.148 -123.336 -125.642 -125.636 -125.642 -128.005C-122.484 -128.005 -120.373 -128.458 -118.541 -127.936C-100.412 -122.779 -82.0048 -118.319 -64.3125 -111.925C-47.0739 -105.706 -33.8657 -94.0679 -27.0959 -76.3152C-26.712 -75.3222 -25.892 -74.5034 -25.1766 -73.4581C-23.013 -74.3466 -21.1112 -75.0608 -19.2791 -75.8971C-17.2552 -76.8378 -15.2836 -77.9006 -13.2596 -78.9285C-18.4591 -108.11 -36.2735 -125.183 -63.2831 -132.796C-86.7332 -139.399 -110.585 -144.573 -134.297 -150.253C-139.008 -151.385 -143.876 -151.838 -150.017 -152.814V-152.831ZM205.696 -152.117C202.258 -152.117 200.2 -152.5 198.333 -152.065C170.678 -145.462 142.778 -139.713 115.507 -131.786C91.3588 -124.765 74.8181 -108.824 69.4266 -83.2142C69.1126 -81.6811 69.3917 -80.026 69.3917 -78.4581C73.3175 -76.6462 76.7199 -75.0957 79.9129 -73.6148C80.5061 -74.0504 80.8027 -74.1723 80.9249 -74.3988C81.3436 -75.1479 81.7101 -75.9319 82.059 -76.7333C89.0906 -93.0226 100.903 -105.009 117.321 -111.019C135.537 -117.674 154.416 -122.535 173.05 -127.971C175.319 -128.633 177.936 -128.058 181.042 -128.058C180.763 -125.026 180.745 -123.058 180.396 -121.159C177.011 -102.256 171.166 -84.0679 164.396 -66.1409C160.052 -54.6426 153.055 -45.1826 143.563 -37.7087C138.416 -33.6669 132.362 -30.7574 126.447 -27.186C127.755 -24.1372 129.081 -20.949 130.512 -17.7957C130.861 -17.0465 131.577 -16.4716 132.362 -15.5134C158.883 -20.949 176.697 -36.5066 184.304 -62.3604C190.847 -84.5905 195.872 -107.256 201.369 -129.765C203.079 -136.751 204.108 -143.894 205.678 -152.152L205.696 -152.117ZM68.7462 129.296C70.0199 134.435 70.6306 139.035 72.2881 143.233C80.8551 164.941 97.675 177.397 119.555 183.251C140.283 188.791 161.203 193.617 182.089 198.565C190.045 200.446 198.141 201.822 207.563 203.721C200.182 173.39 193.325 144.679 186.154 116.038C182.612 101.874 175.022 89.9053 163.978 80.4105C154.817 72.5359 144.191 67.7275 131.559 66.9784C129.605 70.9854 127.895 74.4697 126.203 77.954C127.72 78.9122 128.401 79.5046 129.186 79.8008C144.052 85.4106 154.782 95.6371 161.605 109.731C171.131 129.4 176.749 150.394 181.303 171.683C181.705 173.53 181.356 175.533 181.356 178.53C177.692 178.268 174.499 178.547 171.637 177.728C154.625 172.868 137.491 168.338 120.794 162.554C103.695 156.631 90.7481 145.306 82.8965 128.651C82.1986 127.17 80.9772 125.933 79.6512 124.104C76.2663 125.707 73.1954 127.17 68.7462 129.278V129.296ZM-151.937 203.495C-149.703 203.147 -148.621 203.042 -147.557 202.781C-117.372 195.551 -86.8728 189.366 -57.1065 180.69C-36.605 174.714 -22.2628 160.219 -15.7721 139.191C-14.795 136.021 -14.6903 132.589 -14.132 128.913C-18.2148 127.118 -21.5125 125.672 -25.1243 124.104C-26.7993 127.205 -28.0555 129.453 -29.242 131.735C-36.2386 145.15 -46.69 155.306 -60.7706 160.376C-79.0212 166.962 -97.7953 172.136 -116.412 177.693C-119.204 178.53 -122.397 178.059 -126.375 178.233C-126.026 173.913 -126.305 170.655 -125.433 167.746C-120.338 150.533 -115.261 133.303 -109.573 116.264C-106.816 107.989 -101.756 100.898 -95.7538 94.3305C-88.9142 86.8391 -80.4519 82.1353 -70.9428 77.9192C-72.9144 74.0516 -74.7115 70.515 -76.6308 66.7693C-79.8064 67.1352 -82.4759 67.0829 -84.9012 67.7972C-104.146 73.4418 -118.611 85.2363 -125.974 103.79C-131.383 117.449 -134.872 131.927 -138.519 146.23C-143.282 164.941 -147.348 183.826 -151.902 203.478L-151.937 203.495ZM123.271 -32.1512C126.237 -33.0223 128.244 -33.3707 130.041 -34.1547C143.197 -39.8864 152.34 -49.869 158.063 -62.6392C162.564 -72.6741 166.263 -83.1097 169.439 -93.6498C172.387 -103.476 175.615 -113.389 176.296 -123.998C156.108 -120.375 137.334 -114.469 118.944 -107.204C109.26 -103.371 101.077 -97.4652 94.5518 -89.4686C90.2072 -84.1201 86.0546 -78.4581 85.3567 -70.4789C100.379 -60.5486 113.588 -48.5101 123.254 -32.1686L123.271 -32.1512ZM-121.333 -124.12C-120.652 -120.183 -120.39 -116.751 -119.448 -113.511C-115.749 -100.723 -111.928 -87.9703 -107.95 -75.2525C-105.176 -66.35 -101.407 -57.8482 -95.4747 -50.5485C-88.4431 -41.9073 -80.26 -34.8341 -68.343 -32.2731C-58.2057 -48.0398 -45.2243 -60.6531 -29.4513 -71.1061C-31.1787 -75.1654 -32.2954 -78.7542 -34.1449 -81.9424C-40.1121 -92.2561 -48.5046 -100.34 -59.3398 -105.183C-78.934 -113.946 -99.4703 -119.904 -121.333 -124.12ZM177.465 174.104C172.893 152.519 167.188 132.519 158.883 113.338C155.254 104.94 149.548 97.9193 142.516 92.1353C136.951 87.5534 131.036 83.3025 122.8 83.7729C113.361 99.4525 99.8386 111.16 85.3044 121.526C89.9455 138.947 101.688 149.261 116.275 155.934C135.31 164.645 155.445 170.428 177.465 174.104ZM-122.92 174.035C-118.925 173.442 -116.395 173.268 -113.952 172.693C-96.4343 168.617 -79.2306 163.617 -62.62 156.578C-53.582 152.745 -46.0095 147.136 -39.6933 139.836C-35.1743 134.609 -31.2659 128.86 -30.4982 120.864C-45.9921 111.108 -58.4325 98.0064 -68.7966 82.6753C-84.1335 86.7869 -94.3929 96.212 -101.285 109.121C-105.612 117.24 -108.875 126.021 -111.719 134.784C-115.784 147.327 -119.012 160.15 -122.92 174.035ZM67.804 -209.173C55.6776 -224.487 44.3887 -240.166 27.2024 -250.201C9.85907 -239.574 -1.58687 -224.469 -13.1375 -208.738C-7.08299 -202.326 -1.18555 -196.734 3.90927 -190.515C8.8645 -184.487 13.4533 -178.041 17.3792 -171.316C21.3224 -164.556 24.2537 -157.204 28.3016 -148.685C31.2678 -161.699 36.9558 -171.804 44.127 -180.967C51.4203 -190.288 59.3068 -199.138 67.7865 -209.173H67.804ZM-206.287 66.0202C-189.275 47.8842 -171.007 33.0931 -145.742 25.1837C-171.077 17.4485 -188.909 2.11734 -205.868 -15.3044C-222.252 -2.91754 -238.025 8.96408 -248.11 26.3858C-236.751 42.9538 -222.27 54.3302 -206.287 66.0202ZM202.032 25.2185C222.917 31.6472 239.807 43.9294 254.794 59.2257C256.958 61.4383 259.383 63.3895 261.948 65.724C277.686 53.6682 293.372 42.7796 303.178 25.4276C291.837 8.70276 277.076 -3.59697 260.901 -15.1998C243.715 2.23932 226.075 18.0757 202.014 25.2185H202.032ZM27.5164 200.237C19.7346 223.652 4.32803 241.283 -12.9106 258.286C-1.22044 274.488 10.8362 289.401 28.0923 300.325C44.0223 288.652 56.9164 274.576 68.0482 258.217C50.6351 241.056 35.2808 223.443 27.5164 200.22V200.237ZM-102.838 24.7307C-102.942 25.114 -103.065 25.5147 -103.169 25.898C-97.1497 27.5182 -91.1301 29.1384 -84.7616 30.8283V20.1314C-91.2523 21.7865 -97.045 23.2499 -102.82 24.7133L-102.838 24.7307ZM139.952 20.1314V30.9851C146.477 29.1384 152.357 27.4834 159.982 25.3231M28.511 -104.329C27.9178 -104.364 27.3071 -104.399 26.7139 -104.434C25.3006 -98.9983 23.8698 -93.5453 22.2297 -87.2386H32.8556C31.2852 -93.4059 29.9069 -98.8763 28.511 -104.329ZM26.7313 154.732C27.2373 154.662 27.7607 154.61 28.2667 154.54C29.6975 148.982 31.1282 143.442 32.6985 137.345H22.317" fill="#D7AD45" fill-opacity="0.2"/>
<path d="M-51.3652 25.0442C-53.1275 -17.4474 -14.8988 -54.4337 28.5293 -53.9981C71.2246 -53.5626 107.464 -16.7331 106.836 26.072C106.26 65.2012 76.7208 104.801 27.0811 104.679C-21.1103 104.574 -52.6913 65.2186 -51.3478 25.0442H-51.3652ZM27.3603 99.9924C68.8343 101.334 102.928 65.5671 102.771 25.1661C102.614 -13.4752 70.5442 -49.7472 26.9067 -49.7124C-12.3514 -49.6776 -47.4045 -16.4021 -47.5615 25.6017C-47.7011 65.9503 -12.8574 101.316 27.3603 100.01V99.9924Z" fill="#D7AD45" fill-opacity="0.2"/>
</g>
<defs>
<clipPath id="clip0_3490_24812">
<rect width="559" height="558" fill="white" transform="translate(-252 -254)"/>
</clipPath>
</defs>
</svg>
