<svg width="378" height="565" viewBox="0 0 378 565" fill="none" xmlns="http://www.w3.org/2000/svg">
<path d="M367.061 9.20117C367.061 9.20117 327.088 31.8109 314.045 81.7101C307.996 104.898 291.008 104.267 277.018 116.098C245.198 143.019 271.075 159.74 252.667 175.146C252.667 156.533 244.146 157.321 246.25 139.97C194.444 187.818 221.478 245.605 260.819 248.181C285.065 249.759 294.111 235.667 294.111 235.667C294.111 235.667 310.731 262.43 250.195 299.815C172.301 347.874 221.846 393.725 221.846 393.725C221.846 393.725 346.338 341.933 355.227 224.204C356.331 209.271 356.752 177.775 356.331 164.367C349.441 175.672 343.656 186.504 327.246 189.291C344.445 171.676 355.069 136.289 348.81 106.633C336.292 46.8491 367.061 9.20117 367.061 9.20117Z" fill="#F5F5F5" stroke="#D7AD45" stroke-opacity="0.16" stroke-width="4" stroke-miterlimit="10"/>
<path d="M327.141 118.096C318.988 137.866 293.585 151.8 282.698 173.989C270.022 199.806 295.426 231.565 295.426 231.565C295.426 231.565 310.784 262.43 250.247 299.815C172.354 347.874 185.66 348.242 185.66 348.242C185.66 348.242 186.134 364.384 220.741 351.397C265.236 334.729 341.078 282.937 316.99 211.164C300.265 161.212 320.934 146.963 327.141 118.096Z" fill="#F5F5F5" stroke="#D7AD45" stroke-opacity="0.16" stroke-width="4" stroke-miterlimit="10"/>
<path d="M214.746 706.055C214.746 706.055 166.148 710.261 117.077 687.809C129.753 682.762 134.749 677.924 137.957 673.35C120.549 681.026 105.086 682.604 93.3569 674.612C78.9459 665.042 65.166 652.58 53.3847 636.438C50.0713 631.916 46.863 627.131 43.8651 622.083C38.7108 613.46 26.9821 589.536 16.8838 576.443C23.5634 582.069 43.4443 596.897 57.7501 599.263C48.6512 594.636 22.3011 576.864 16.9364 547.629C12.5184 520.024 13.4126 490.421 21.7226 461.028C24.0368 452.878 31.8208 434.58 30.8741 415.02C34.2402 434.79 41.8139 452.826 48.6512 461.659C44.917 453.509 34.398 430.479 49.7031 402.033C63.483 382.052 81.786 362.965 105.296 345.403C127.544 326.842 123.389 307.44 123.178 301.288C135.643 321.847 136.011 344.457 128.122 363.806C143.69 347.349 136.695 312.908 158.154 293.926C200.072 256.804 155.524 236.876 192.972 177.092C189.816 230.304 214.325 237.402 226.738 253.439C240.728 271.527 237.309 293.821 221.741 309.648C239.15 307.282 243.778 296.924 247.302 286.986C250.511 296.398 252.72 310.332 252.667 320.585C252.246 373.481 232.102 387.888 218.796 392.673C206.909 396.932 176.878 405.45 168.936 377.688C142.586 398.773 105.822 442.362 137.379 543.16C157.944 608.78 196.969 611.462 221.005 616.72C268.551 627.184 214.693 706.108 214.693 706.108L214.746 706.055Z" fill="#F5F5F5" stroke="#D7AD45" stroke-opacity="0.16" stroke-width="4" stroke-miterlimit="10"/>
<path d="M229.42 673.298C229.42 673.298 94.7244 681.027 64.4297 548.997C37.4485 431.584 152.789 382.736 175.247 368.014C172.092 383.683 187.502 405.872 225.107 390.886C174.879 412.339 55.4359 546.526 210.801 626.501L229.473 673.298H229.42Z" fill="#F5F5F5" stroke="#D7AD45" stroke-opacity="0.16" stroke-width="4" stroke-miterlimit="10"/>
<path d="M351.545 284.146C334.083 329.419 323.038 330.102 300.633 347.612C275.492 367.224 271.548 382.315 265.447 399.982C269.549 388.309 269.917 377.583 266.919 366.383C257.294 381.947 235.205 389.15 221.951 393.672C204.174 399.772 187.711 406.397 173.037 414.126C166.095 417.807 144.899 434.002 146.582 465.866C141.06 451.827 144.899 430.163 147.897 420.594C144.426 426.43 135.222 439.365 128.7 448.041C111.975 470.44 102.087 497.309 106.084 534.852C109.871 563.614 129.857 568.661 145.267 572.289C130.909 570.502 122.914 567.925 112.027 562.667C132.802 619.56 202.859 633.336 217.112 633.336C244.356 633.336 256.032 653.474 258.399 647.901C260.766 642.275 301.632 631.075 302.684 626.343C306.313 610.673 233.206 574.288 233.206 574.288C233.206 574.288 159.31 571.238 172.038 503.619C182.084 450.407 232.049 451.196 232.049 451.196C232.049 451.196 209.591 477.854 232.89 495.889C265.026 520.708 327.141 483.48 340.132 444.676C334.872 445.727 323.091 445.99 316.99 444.465C332.663 438.997 348.126 425.011 355.542 397.353C363.431 367.96 362.116 331.364 351.545 284.146Z" fill="#F5F5F5" stroke="#D7AD45" stroke-opacity="0.16" stroke-width="4" stroke-miterlimit="10"/>
<path d="M252.719 426.904C219.847 430.953 154.734 431.058 148.265 503.62C142.006 574.446 206.803 588.485 224.212 591.43C242.726 594.532 274.598 608.15 284.854 621.979C287.379 625.397 307.628 600.999 305.84 596.214C292.375 560.302 238.781 555.885 238.781 555.885C238.781 555.885 184.082 550.995 184.661 507.879C185.345 456.507 225.369 457.822 229.419 458.768C238.571 493.314 320.566 474.332 319.882 379.371C309.311 400.982 287.957 422.593 252.719 426.957V426.904Z" fill="#F5F5F5" stroke="#D7AD45" stroke-opacity="0.16" stroke-width="4" stroke-miterlimit="10"/>
<path d="M205.015 372.483C205.015 372.483 211.537 361.493 203.805 353.238C197.494 346.508 179.875 346.298 175.246 367.961" fill="#F5F5F5"/>
<path d="M205.015 372.483C205.015 372.483 211.537 361.493 203.805 353.238C197.494 346.508 179.875 346.298 175.246 367.961" stroke="#D7AD45" stroke-opacity="0.16" stroke-width="4" stroke-miterlimit="10"/>
</svg>
