<svg width="308" height="304" viewBox="0 0 308 304" fill="none" xmlns="http://www.w3.org/2000/svg">
<g clip-path="url(#clip0_3490_24817)">
<path d="M67.6102 133.111C68.0463 134.191 68.5523 135.219 68.8839 136.317C70.0005 140.184 71.5709 143.39 76.4389 143.268C81.2196 143.146 85.5991 140.01 86.9775 135.55C89.7342 126.508 84.8314 117.972 75.6188 115.411C65.8479 112.71 57.2111 115.62 49.0978 120.62C39.5014 126.526 32.6617 135.202 26.2409 144.244C17.0807 157.153 10.8168 171.474 5.39048 186.213C4.55297 188.512 3.64567 190.795 1.83108 192.885C-0.698886 170.481 3.10479 149 9.71759 127.676C16.3827 106.229 28.6138 88.0238 42.2058 69.4523C36.8493 65.0272 31.5102 61.1421 26.7992 56.595C18.8953 48.9469 10.9738 41.2465 3.85505 32.8841C-1.41425 26.6994 -1.10019 24.7481 3.80271 18.2673C13.5387 5.44489 25.6825 -4.92104 38.28 -14.8166C39.8503 -16.0361 41.3509 -17.3253 43.305 -18.9281C13.591 -54.8342 -1.0304 -95.4442 3.52354 -142.343C4.32615 -140.41 5.26834 -138.511 5.91392 -136.507C12.422 -116.403 21.9836 -97.8659 35.9943 -82.0121C45.1894 -71.6113 55.9898 -63.3012 71.1695 -63.9806C83.1738 -64.5207 88.0243 -69.573 87.6928 -81.472C87.5009 -88.1097 84.3079 -91.7683 77.9394 -92.6568C73.5425 -93.2665 72.0769 -91.8205 69.7737 -84.6602C69.5992 -84.1201 69.2677 -83.6149 68.8141 -82.709C62.8294 -79.4337 56.8273 -80.7229 50.9298 -83.8065C39.5886 -89.7125 30.6727 -98.5279 23.3619 -108.72C9.28139 -128.336 1.90087 -150.357 1.83108 -174.608C1.77873 -197.257 1.79618 -219.905 1.86598 -242.553C1.86598 -245.654 2.28473 -248.738 2.5639 -252.518C6.38501 -252.902 9.47332 -253.477 12.5442 -253.494C33.4818 -253.564 54.4369 -253.947 75.3571 -253.424C104.687 -252.693 131.54 -244.208 153.751 -224.452C160.137 -218.773 165.162 -211.333 169.821 -204.086C173.241 -198.755 174.863 -192.361 171.792 -185.636C170.78 -185.201 169.768 -184.504 168.687 -184.382C164.953 -183.912 161.795 -182.936 161.481 -178.406C161.149 -173.511 163.853 -168.633 168.355 -167.431C180.935 -164.068 189.136 -170.671 190.2 -181.717C191.509 -195.427 184.843 -205.828 175.858 -214.94C163.452 -227.518 148.482 -236.403 132.203 -243.093C125.311 -245.933 118.297 -248.494 110.899 -251.351C120.827 -255.794 153.14 -251.996 176.643 -244.365C197.912 -237.449 216.773 -226.334 234.85 -211.682C239.246 -216.961 243.137 -222.292 247.691 -226.961C255.56 -235.062 263.464 -243.18 272.066 -250.463C278.103 -255.585 281.279 -254.888 287.63 -250.079C298.831 -241.595 308.218 -231.368 316.681 -220.219C318.897 -217.309 321.549 -214.713 324.358 -211.595C360.615 -241.595 401.583 -254.975 448.152 -251.229C446.18 -250.306 444.296 -249.104 442.219 -248.511C422.678 -242.849 405.09 -233.494 389.387 -220.672C380.977 -213.807 373.945 -205.724 370.421 -195.131C368.432 -189.173 368.1 -183.18 370.072 -177.204C372.916 -168.528 382.966 -163.79 391.306 -167.326C395.389 -169.051 397.378 -172.622 397.762 -176.96C398.093 -180.741 395.755 -182.797 392.58 -184.173C390.992 -184.852 389.404 -185.514 388.096 -186.055C384.903 -190.375 385.758 -194.556 387.066 -198.842C390.434 -209.835 397.832 -218.006 406.189 -225.306C421.875 -238.999 440.3 -247.292 460.714 -250.916C468.967 -252.379 477.412 -253.285 485.787 -253.442C505.556 -253.808 525.342 -253.633 545.11 -253.511C548.757 -253.494 552.386 -252.727 556.696 -252.24C556.923 -248.233 557.254 -245.114 557.272 -242.013C557.324 -219.94 557.359 -197.884 557.272 -175.811C557.167 -146.124 547.187 -120.079 527.244 -98.1272C520.823 -91.054 513.18 -84.9041 503.619 -82.3431C499.623 -81.2804 495.279 -81.4895 491.318 -81.141C490.254 -83.2665 489.608 -84.2247 489.242 -85.2874C487.183 -91.385 485.264 -93.2665 481.443 -92.7787C475.964 -92.0993 471.846 -87.8484 471.462 -82.4999C470.642 -70.8099 476.383 -64.5556 488.108 -63.9981C504.474 -63.2315 515.396 -72.7786 524.853 -84.0679C538.41 -100.27 548.007 -118.755 553.887 -139.103C554.183 -140.148 554.881 -141.089 555.527 -142.343C559.714 -130.253 556.678 -100.531 548.844 -76.925C541.83 -55.775 530.594 -36.9247 515.292 -18.0918C517.385 -16.8549 519.357 -16.1058 520.823 -14.7991C531.135 -5.47852 541.359 3.9292 551.531 13.3892C552.997 14.7481 554.201 16.4554 555.352 18.1279C560.238 25.236 560.203 26.5774 555.091 33.5287C546.053 45.8284 534.223 55.271 522.55 64.8529C520.788 66.299 519.043 67.7449 516.74 69.6613C546.157 105.707 560.412 146.474 556.905 193.146C556.207 191.857 555.3 190.638 554.846 189.279C548.53 170.428 540.365 152.467 527.436 137.188C522.236 131.055 516.059 125.637 509.761 120.585C503.671 115.689 496.029 114.331 488.369 114.47C477.482 114.662 470.52 122.937 471.794 133.425C472.3 137.571 474.359 140.411 478.092 142.136C484.007 144.871 487.828 143.111 489.905 136.7C490.254 135.637 490.515 134.54 490.725 133.791C494.982 130.411 499.222 131.09 503.514 132.397C513.582 135.481 521.59 141.857 528.465 149.348C544.866 167.188 554.271 188.495 557.167 212.485C558.249 221.37 558.528 230.394 558.633 239.349C558.842 256.771 558.737 274.192 558.633 291.614C558.633 294.698 558.109 297.799 557.76 301.544C554.62 301.91 552.124 302.45 549.612 302.45C525.481 302.503 501.333 302.729 477.203 302.381C448.675 301.98 423.864 291.562 403.014 272.38C396.261 266.161 390.224 258.844 387.293 249.68C385.74 244.837 384.815 240.098 388.078 235.655C388.689 235.307 389.16 234.924 389.701 234.75C396.453 232.676 398.181 230.934 397.744 226.614C397.238 221.631 392.458 217.119 387.328 216.788C376.248 216.056 369.67 221.788 368.99 232.92C368.135 246.927 375.184 257.485 384.763 266.422C395.86 276.771 408.422 285.203 422.503 291.109C429.447 294.018 436.636 296.335 443.702 298.983C444.959 299.454 446.075 300.238 447.035 301.405C400.519 305.865 360.353 290.638 324.079 261.492C317.989 268.652 312.476 275.673 306.386 282.119C300.437 288.426 294.173 294.506 287.525 300.063C280.947 305.569 278.156 305.098 271.333 299.994C261.004 292.259 252.472 282.833 244.603 272.711C241.951 269.297 239.037 266.091 235.757 262.224C233.279 263.722 231.011 264.854 229.039 266.352C203.809 285.656 175.526 297.868 143.998 301.753C133.546 303.043 122.816 301.962 111.946 300.638C113.987 299.872 115.994 298.966 118.087 298.339C137.559 292.503 155.095 282.851 170.623 269.959C179.592 262.52 187.321 253.669 189.467 241.492C189.973 238.652 190.305 235.725 190.148 232.851C189.45 220.847 183.186 215.603 171.251 216.77C166.279 217.258 162.615 220.464 161.55 225.307C160.608 229.54 162.056 232.154 166.418 234.122C173.066 237.119 174.514 239.819 172.682 246.945C169.733 258.408 162.388 267.276 153.803 274.61C132.063 293.182 106.781 302.816 77.8696 302.555C53.1806 302.328 28.4742 302.503 2.59879 302.503C1.93577 299.854 0.592269 296.945 0.574821 294.053C0.417788 270.534 -0.297581 246.98 0.749301 223.512C1.98811 195.464 11.7241 170.185 30.8472 149.209C37.4774 141.927 45.1371 135.533 54.9778 132.606C58.9385 131.421 62.8468 130.411 67.6451 133.111H67.6102ZM243.225 -80.8448C250.657 -82.3605 257.166 -83.9111 263.726 -84.9564C267.373 -85.5313 269.379 -87.2735 270.566 -90.6533C274.945 -103.092 276.952 -116.089 277.056 -129.086C277.178 -145.636 272.014 -160.967 262.417 -174.765C238.601 -209.016 206.496 -231.595 166.471 -242.989C156.194 -245.916 145.742 -248.267 132.761 -248.093C138.868 -244.923 143.178 -242.727 147.47 -240.463C160.12 -233.738 171.897 -225.811 181.476 -215.027C189.397 -206.107 194.806 -196.194 194.335 -183.668C193.794 -168.581 183.483 -160.009 168.809 -162.953C162.807 -164.155 158.148 -169.33 157.363 -175.689C156.543 -182.326 158.253 -185.218 165.023 -188.563C166.296 -189.19 167.552 -189.835 168.879 -190.497C168.826 -199.8 164.447 -206.804 158.724 -213.18C138.205 -235.985 112.26 -247.466 81.7605 -248.267C59.0955 -248.86 36.3956 -248.459 13.7132 -248.424C11.2356 -248.424 8.77539 -247.902 5.84413 -247.571C5.84413 -243.808 5.84413 -240.916 5.84413 -238.041C5.84413 -217.71 5.94881 -197.396 5.80923 -177.065C5.72199 -163.25 8.2345 -149.939 12.9978 -137.047C19.9072 -118.389 30.8297 -102.57 47.196 -90.8798C52.1686 -87.3257 57.5775 -84.6602 64.1903 -85.4964C65.3594 -87.7439 66.3888 -89.7996 67.488 -91.8031C69.7214 -95.8624 73.3506 -97.2909 77.7475 -96.9251C85.3897 -96.2979 91.8978 -90.6707 92.2991 -83.1097C92.8749 -72.465 89.1236 -61.4893 74.1532 -60.1304C63.9112 -59.2071 54.6114 -61.4371 46.1316 -67.4301C31.9987 -77.4302 22.4547 -91.1759 14.2017 -105.984C11.4798 -110.88 9.28139 -116.072 6.83866 -121.124C7.22252 -100.34 12.1952 -80.7577 20.6575 -62.1514C32.2953 -36.6285 49.4642 -15.3044 71.3615 2.25671C94.6372 20.9154 120.687 27.2395 149.79 19.8875C155.635 18.4066 161.428 16.7516 167.343 15.1488C169.35 6.24631 171.182 -1.88966 173.153 -10.705C169.437 -12.0639 166.296 -13.4402 163.016 -14.3462C152.617 -17.2208 144.19 -23.0745 136.704 -30.6878C127.09 -40.4788 120.705 -52.0816 117.285 -65.2001C112.015 -85.4093 106.973 -105.671 102.157 -125.984C99.8367 -135.775 98.1965 -145.723 96.3994 -154.922C99.2434 -158.685 102 -157.814 104.931 -157.152C119.378 -153.894 133.913 -151.089 148.272 -147.518C165.459 -143.249 182.837 -139.364 199.482 -133.458C217.681 -126.995 231.098 -114.295 238.234 -95.8624C240.101 -91.0366 241.515 -86.0365 243.225 -80.81V-80.8448ZM315.756 -80.9145C316.402 -82.2908 317.082 -83.2839 317.326 -84.3815C323.485 -111.246 340.323 -128.615 366.373 -135.828C396.279 -144.103 426.673 -150.619 456.876 -157.779C458.341 -158.128 460.104 -157.239 462.442 -156.786C462.285 -154.173 462.354 -151.943 461.97 -149.783C461.273 -145.793 460.365 -141.821 459.423 -137.884C453.438 -113.075 448.099 -88.0923 441.207 -63.5451C434.664 -40.2871 420.497 -22.8828 396.942 -14.4507C393.19 -13.1092 389.334 -12.0988 385.653 -10.9664C387.886 -1.87222 389.945 6.50763 392.161 15.5844C398.774 17.2394 405.16 18.9815 411.616 20.4101C434.734 25.4973 456.893 23.0757 476.697 9.60867C487.2 2.46576 497.373 -5.58304 506.149 -14.712C525.743 -35.0954 539.806 -58.9806 547.274 -86.4721C550.327 -97.7265 552.735 -109.103 552.491 -120.897C551.304 -119.469 550.659 -117.901 549.943 -116.368C542.319 -99.9042 532.792 -84.6951 519.322 -72.3431C509.743 -63.5625 498.559 -58.7367 485.141 -60.0607C471.375 -61.4196 462.773 -74.6079 467.746 -87.1341C470.119 -93.1097 474.795 -96.2282 481.041 -96.9077C487.131 -97.5697 490.952 -94.5906 493.028 -88.9982C493.517 -87.6916 494.459 -86.5592 495.226 -85.2874C504.84 -85.4442 512.011 -90.0435 518.572 -96.0192C541.621 -116.977 552.212 -143.598 553.136 -174.138C553.799 -196.177 553.293 -218.267 553.241 -240.323C553.241 -242.814 552.805 -245.306 552.578 -247.884C550.048 -248.146 548.338 -248.459 546.628 -248.459C522.498 -248.424 498.332 -249.208 474.254 -248.093C444.243 -246.7 418.612 -234.853 398.966 -211.543C394.08 -205.741 390.102 -199.365 390.486 -191.002C392.004 -190.079 393.452 -189.173 394.918 -188.302C400.536 -185.044 402.543 -181.298 401.775 -175.584C400.937 -169.521 395.93 -163.755 390.12 -163.006C374.887 -161.037 366.111 -166.699 364.872 -182.849C363.913 -195.305 369.147 -205.462 377.121 -214.4C387.694 -226.281 400.693 -234.957 414.791 -242.118C418.071 -243.79 421.351 -245.48 424.632 -247.153C411.72 -247.588 399.524 -245.323 387.607 -241.56C353.077 -230.689 324.532 -210.968 302.304 -182.518C294.086 -171.995 287.281 -160.532 284.332 -147.1C280.04 -127.465 283.215 -108.545 289.078 -89.8519C289.689 -87.8832 292.48 -85.81 294.626 -85.2351C301.327 -83.4755 308.218 -82.4128 315.756 -80.932V-80.9145ZM495.698 136.16C494.668 138.007 493.866 139.226 493.29 140.515C491.196 145.359 487.654 147.693 482.315 147.24C476.4 146.752 471.445 144.174 468.81 139C463.506 128.616 470.066 114.975 481.285 111.665C492.452 108.355 502.59 110.846 512.011 116.926C523.196 124.156 531.658 134.122 538.637 145.237C543.837 153.547 548.216 162.362 552.962 170.951C552.857 162.885 552.247 154.836 550.537 147.031C543.784 116.299 529.215 89.5047 508.051 66.3512C496.832 54.0863 484.147 43.25 469.124 35.9503C444.906 24.1732 420.043 26.7865 395.336 34.696C393.435 35.3057 391.114 37.4312 390.66 39.2604C388.863 46.4556 387.729 53.825 386.333 61.2641C387.904 62.0132 388.863 62.6752 389.945 62.9365C418.961 70.0098 435.676 89.5395 443.039 117.24C450.176 144.104 455.968 171.317 462.162 198.425C462.808 201.265 462.25 204.383 462.25 208.286C458.673 207.763 456.143 207.519 453.665 206.997C444.575 205.08 435.467 203.286 426.446 201.073C405.317 195.864 383.908 191.509 363.25 184.784C340.428 177.362 324.794 161.543 318.042 137.902C317.448 135.794 316.559 133.773 315.669 131.334C306.578 133.407 298.203 135.324 290.055 137.188C289.235 139.261 288.642 140.585 288.223 141.944C287.386 144.714 286.548 147.502 285.885 150.306C280.79 171.962 280.127 193.338 290.264 213.913C296.616 226.805 305.706 237.851 315.773 247.885C338.857 270.917 366.216 286.858 398.111 294.332C407.044 296.422 416.152 298.565 427.249 298.147C421.91 295.551 418.211 293.896 414.634 291.997C401.269 284.854 388.514 276.788 378.185 265.516C370.124 256.718 364.541 246.892 364.82 234.401C365.169 218.617 373.509 211.126 389.422 212.816C395.441 213.46 400.344 218.199 401.635 224.628C402.926 231.039 400.641 235.324 394.22 238.547C392.964 239.175 391.672 239.767 390.259 240.446C390.329 249.715 394.621 256.718 400.362 263.095C421.16 286.144 447.471 297.468 478.197 298.304C500.845 298.931 523.527 298.478 546.21 298.426C548.425 298.426 550.641 297.886 553.032 297.59C553.276 295.011 553.642 293.025 553.642 291.056C553.642 267.555 554.183 244.018 553.381 220.551C552.351 190.063 540.016 164.488 516.757 144.47C510.982 139.505 504.456 135.881 495.75 136.16H495.698ZM173.066 61.4731C171.827 55.7936 169.908 50.5323 169.733 45.2187C169.489 37.6228 165.511 34.5914 158.881 32.8144C145.847 29.3301 132.674 28.0409 119.204 28.4764C107.566 28.8597 96.8356 31.9085 86.9251 37.797C48.8884 60.3581 24.6705 93.6684 11.6892 135.428C8.2694 146.456 5.37303 157.728 5.94881 169.575C6.50715 169.435 6.94335 169.453 7.03059 169.279C8.3043 167.014 9.578 164.749 10.7296 162.432C18.0403 147.78 26.712 134.122 39.0128 123.059C48.4697 114.557 59.2002 109.365 72.2164 110.358C85.9829 111.404 93.9741 121.369 90.8858 136.805C89.7691 142.362 84.2556 146.404 78.1662 147.171C72.2688 147.902 67.9766 145.794 65.3768 140.359C64.7836 139.104 63.9635 137.937 63.1435 136.561C54.402 135.846 47.7717 139.958 41.7522 145.097C18.5812 164.906 6.94335 190.516 5.80923 220.586C4.93683 244.07 5.53006 267.607 5.53006 291.126C5.53006 293.321 6.10585 295.516 6.41991 297.868C8.7405 298.112 10.4504 298.426 12.1429 298.426C35.9943 298.426 59.8632 299.175 83.6623 298.165C113.673 296.893 139.444 285.29 159.404 262.311C164.726 256.178 168.948 249.297 168.844 240.324C167.361 239.662 166.087 239 164.761 238.513C159.491 236.544 156.804 232.938 157.241 227.188C157.712 220.882 160.503 215.847 166.331 213.425C179.469 207.99 192.974 216.544 194.23 230.725C195.085 240.359 193.288 249.523 187.391 257.102C182.104 263.913 176.329 270.795 169.454 275.847C158.096 284.192 145.655 291.074 134.576 298.008C147.243 298.6 166.628 293.652 181.546 287.99C208.643 277.729 231.499 261.457 250.797 239.662C269.885 218.094 280.441 194.227 275.94 164.993C274.474 155.55 273.183 146.09 268.419 136.979C260.132 135.15 251.792 133.32 243.643 131.526C242.701 133.094 242.038 133.791 241.864 134.575C235.443 163.129 216.442 179.697 189.345 187.014C160.503 194.801 131.243 201.004 102.122 207.798C100.604 208.147 98.8421 207.519 96.3296 207.241C96.4692 204.279 96.19 201.7 96.7658 199.331C103.919 169.749 110.585 140.045 118.646 110.707C125.067 87.2921 140.822 71.8042 164.15 64.2954C166.855 63.4243 169.559 62.5707 173.083 61.4557L173.066 61.4731ZM279.883 132.745C339.904 131.508 386.612 86.1423 386.979 25.8457C387.345 -32.639 342.085 -82.709 277.475 -81.8553C219.391 -81.0888 173.502 -36.7331 172.246 23.0234C170.92 86.0377 220.368 132.101 279.883 132.745ZM101.983 -152.831C102.279 -149.242 102.21 -147.239 102.628 -145.34C105.909 -130.34 109.014 -115.288 112.713 -100.375C116.273 -86.0365 119.623 -71.5417 124.613 -57.674C133.005 -34.294 149.947 -20.2521 175.422 -15.7051C177.341 -19.7992 179.138 -23.632 181.092 -27.848C162.545 -34.9735 149.441 -47.552 142.986 -65.5312C136.443 -83.7717 131.767 -102.674 126.427 -121.35C125.852 -123.336 126.358 -125.636 126.358 -128.005C129.516 -128.005 131.627 -128.458 133.459 -127.936C151.588 -122.779 169.995 -118.319 187.688 -111.925C204.926 -105.706 218.134 -94.0679 224.904 -76.3152C225.288 -75.3222 226.108 -74.5034 226.823 -73.4581C228.987 -74.3466 230.889 -75.0608 232.721 -75.8971C234.745 -76.8378 236.716 -77.9006 238.74 -78.9285C233.541 -108.11 215.726 -125.183 188.717 -132.796C165.267 -139.399 141.415 -144.573 117.703 -150.253C112.992 -151.385 108.124 -151.838 101.983 -152.814V-152.831ZM457.696 -152.117C454.258 -152.117 452.2 -152.5 450.333 -152.065C422.678 -145.462 394.778 -139.713 367.507 -131.786C343.359 -124.765 326.818 -108.824 321.427 -83.2142C321.113 -81.6811 321.392 -80.026 321.392 -78.4581C325.318 -76.6462 328.72 -75.0957 331.913 -73.6148C332.506 -74.0504 332.803 -74.1723 332.925 -74.3988C333.344 -75.1479 333.71 -75.9319 334.059 -76.7333C341.091 -93.0226 352.903 -105.009 369.321 -111.019C387.537 -117.674 406.416 -122.535 425.05 -127.971C427.319 -128.633 429.936 -128.058 433.042 -128.058C432.763 -125.026 432.745 -123.058 432.396 -121.159C429.011 -102.256 423.166 -84.0679 416.396 -66.1409C412.052 -54.6426 405.055 -45.1826 395.563 -37.7087C390.416 -33.6669 384.362 -30.7574 378.447 -27.186C379.755 -24.1372 381.081 -20.949 382.512 -17.7957C382.861 -17.0465 383.577 -16.4716 384.362 -15.5134C410.883 -20.949 428.697 -36.5066 436.304 -62.3604C442.847 -84.5905 447.872 -107.256 453.369 -129.765C455.079 -136.751 456.108 -143.894 457.678 -152.152L457.696 -152.117ZM320.746 129.296C322.02 134.435 322.631 139.035 324.288 143.233C332.855 164.941 349.675 177.397 371.555 183.251C392.283 188.791 413.203 193.617 434.089 198.565C442.045 200.446 450.141 201.822 459.563 203.721C452.182 173.39 445.325 144.679 438.154 116.038C434.612 101.874 427.022 89.9053 415.978 80.4105C406.817 72.5359 396.191 67.7275 383.559 66.9784C381.605 70.9854 379.895 74.4697 378.203 77.954C379.72 78.9122 380.401 79.5046 381.186 79.8008C396.052 85.4106 406.782 95.6371 413.605 109.731C423.131 129.4 428.749 150.394 433.303 171.683C433.705 173.53 433.356 175.533 433.356 178.53C429.692 178.268 426.499 178.547 423.637 177.728C406.625 172.868 389.491 168.338 372.794 162.554C355.695 156.631 342.748 145.306 334.897 128.651C334.199 127.17 332.977 125.933 331.651 124.104C328.266 125.707 325.195 127.17 320.746 129.278V129.296ZM100.063 203.495C102.297 203.147 103.379 203.042 104.443 202.781C134.628 195.551 165.127 189.366 194.894 180.69C215.395 174.714 229.737 160.219 236.228 139.191C237.205 136.021 237.31 132.589 237.868 128.913C233.785 127.118 230.488 125.672 226.876 124.104C225.201 127.205 223.945 129.453 222.758 131.735C215.761 145.15 205.31 155.306 191.229 160.376C172.979 166.962 154.205 172.136 135.588 177.693C132.796 178.53 129.603 178.059 125.625 178.233C125.974 173.913 125.695 170.655 126.567 167.746C131.662 150.533 136.739 133.303 142.427 116.264C145.184 107.989 150.244 100.898 156.246 94.3305C163.086 86.8391 171.548 82.1353 181.057 77.9192C179.086 74.0516 177.288 70.515 175.369 66.7693C172.194 67.1352 169.524 67.0829 167.099 67.7972C147.854 73.4418 133.389 85.2363 126.026 103.79C120.617 117.449 117.128 131.927 113.481 146.23C108.718 164.941 104.652 183.826 100.098 203.478L100.063 203.495ZM375.271 -32.1512C378.237 -33.0223 380.244 -33.3707 382.041 -34.1547C395.197 -39.8864 404.34 -49.869 410.063 -62.6392C414.564 -72.6741 418.263 -83.1097 421.439 -93.6498C424.387 -103.476 427.615 -113.389 428.296 -123.998C408.108 -120.375 389.334 -114.469 370.944 -107.204C361.26 -103.371 353.077 -97.4652 346.552 -89.4686C342.207 -84.1201 338.055 -78.4581 337.357 -70.4789C352.379 -60.5486 365.588 -48.5101 375.254 -32.1686L375.271 -32.1512ZM130.667 -124.12C131.348 -120.183 131.61 -116.751 132.552 -113.511C136.251 -100.723 140.072 -87.9703 144.05 -75.2525C146.824 -66.35 150.593 -57.8482 156.525 -50.5485C163.557 -41.9073 171.74 -34.8341 183.657 -32.2731C193.794 -48.0398 206.776 -60.6531 222.549 -71.1061C220.821 -75.1654 219.705 -78.7542 217.855 -81.9424C211.888 -92.2561 203.495 -100.34 192.66 -105.183C173.066 -113.946 152.53 -119.904 130.667 -124.12ZM429.465 174.104C424.893 152.519 419.188 132.519 410.883 113.338C407.254 104.94 401.548 97.9193 394.516 92.1353C388.951 87.5534 383.036 83.3025 374.8 83.7729C365.361 99.4525 351.839 111.16 337.304 121.526C341.946 138.947 353.688 149.261 368.275 155.934C387.31 164.645 407.445 170.428 429.465 174.104ZM129.08 174.035C133.075 173.442 135.605 173.268 138.048 172.693C155.566 168.617 172.769 163.617 189.38 156.578C198.418 152.745 205.99 147.136 212.307 139.836C216.826 134.609 220.734 128.86 221.502 120.864C206.008 111.108 193.567 98.0064 183.203 82.6753C167.867 86.7869 157.607 96.212 150.715 109.121C146.388 117.24 143.125 126.021 140.281 134.784C136.216 147.327 132.988 160.15 129.08 174.035ZM319.804 -209.173C307.678 -224.487 296.389 -240.166 279.202 -250.201C261.859 -239.574 250.413 -224.469 238.863 -208.738C244.917 -202.326 250.814 -196.734 255.909 -190.515C260.865 -184.487 265.453 -178.041 269.379 -171.316C273.322 -164.556 276.254 -157.204 280.302 -148.685C283.268 -161.699 288.956 -171.804 296.127 -180.967C303.42 -190.288 311.307 -199.138 319.786 -209.173H319.804ZM45.7129 66.0202C62.7247 47.8842 80.9928 33.0931 106.258 25.1837C80.923 17.4485 63.0911 2.11734 46.1316 -15.3044C29.7479 -2.91754 13.9749 8.96408 3.88995 26.3858C15.2486 42.9538 29.7305 54.3302 45.7129 66.0202ZM454.032 25.2185C474.917 31.6472 491.807 43.9294 506.794 59.2257C508.958 61.4383 511.383 63.3895 513.948 65.724C529.686 53.6682 545.372 42.7796 555.178 25.4276C543.837 8.70276 529.076 -3.59697 512.901 -15.1998C495.715 2.23932 478.075 18.0757 454.014 25.2185H454.032ZM279.516 200.237C271.735 223.652 256.328 241.283 239.089 258.286C250.78 274.488 262.836 289.401 280.092 300.325C296.022 288.652 308.916 274.576 320.048 258.217C302.635 241.056 287.281 223.443 279.516 200.22V200.237ZM149.162 24.7307C149.058 25.114 148.935 25.5147 148.831 25.898C154.85 27.5182 160.87 29.1384 167.238 30.8283V20.1314C160.748 21.7865 154.955 23.2499 149.18 24.7133L149.162 24.7307ZM391.952 20.1314V30.9851C398.477 29.1384 404.357 27.4834 411.982 25.3231M280.511 -104.329C279.918 -104.364 279.307 -104.399 278.714 -104.434C277.301 -98.9983 275.87 -93.5453 274.23 -87.2386H284.856C283.285 -93.4059 281.907 -98.8763 280.511 -104.329ZM278.731 154.732C279.237 154.662 279.761 154.61 280.267 154.54C281.697 148.982 283.128 143.442 284.699 137.345H274.317" fill="#D7AD45" fill-opacity="0.2"/>
<path d="M200.635 25.0442C198.873 -17.4474 237.101 -54.4337 280.529 -53.9981C323.225 -53.5626 359.464 -16.7331 358.836 26.072C358.26 65.2012 328.721 104.801 279.081 104.679C230.89 104.574 199.309 65.2186 200.652 25.0442H200.635ZM279.36 99.9924C320.834 101.334 354.928 65.5671 354.771 25.1661C354.614 -13.4752 322.544 -49.7472 278.907 -49.7124C239.649 -49.6776 204.595 -16.4021 204.438 25.6017C204.299 65.9503 239.143 101.316 279.36 100.01V99.9924Z" fill="#D7AD45" fill-opacity="0.2"/>
</g>
<defs>
<clipPath id="clip0_3490_24817">
<rect width="559" height="558" fill="white" transform="translate(0 -254)"/>
</clipPath>
</defs>
</svg>
