<svg width="483" height="181" viewBox="0 0 483 181" fill="none" xmlns="http://www.w3.org/2000/svg">
<g filter="url(#filter0_b_7065_23454)">
<rect width="481.368" height="177.188" rx="23" transform="matrix(0.999989 -0.00458951 -0.000180028 1 0.806641 3.11719)" fill="#D9D9D9" fill-opacity="0.1"/>
</g>
<path d="M50.7293 34.8651L58.3346 34.8725L58.336 34.5092C58.0277 33.4464 57.0148 32.7579 55.2974 32.4437L59.1383 27.1974C60.7895 28.4725 61.9744 29.1104 62.6932 29.1111C62.826 29.1112 62.9432 29.0879 63.045 29.0411C62.8843 30.1581 62.5614 30.8102 62.0763 30.9972C61.959 31.0362 61.8417 31.0556 61.7246 31.0555C61.1933 31.0549 60.3781 30.7494 59.279 30.139L58.3606 31.2514C59.7642 31.9012 60.5376 32.9098 60.6806 34.2771L60.6623 38.9178C60.3375 42.0347 58.572 43.9862 55.3658 44.7721L50.8425 44.7677C50.3738 44.7672 49.8237 44.6026 49.1922 44.2739C48.5607 43.9373 47.9336 43.4953 47.3107 42.9478C46.6879 42.4003 46.1473 41.7982 45.689 41.1415C45.2385 40.4848 44.9559 39.8322 44.8413 39.1836L48.4633 35.9527C47.6261 34.3113 46.4272 33.2554 44.8666 32.7851L48.7089 27.1872C50.5632 28.4625 51.8614 29.1005 52.6036 29.1012C52.7442 29.1014 52.8654 29.078 52.9671 29.0313C52.8065 30.1483 52.4445 30.8003 51.8813 30.9873C51.7483 31.0262 51.6155 31.0456 51.4827 31.0455C50.8889 31.0449 50.0112 30.7393 48.8496 30.1288L47.695 31.7097C48.7311 32.4373 49.5291 33.153 50.0888 33.8566C50.3531 34.1928 50.5666 34.529 50.7293 34.8651ZM58.3186 38.9155L58.3253 37.2163L50.3685 37.2085C50.2743 37.3256 50.1723 37.4349 50.0625 37.5364L47.8976 39.7374C48.5107 40.7693 49.4954 41.6648 50.8518 42.4239L55.3751 42.4283C56.9478 41.8049 57.929 40.6339 58.3186 38.9155ZM53.5852 50.5478L53.5772 52.5751C53.2031 54.3482 51.976 55.4564 49.8962 55.8997L46.9432 55.8968C46.6385 55.8966 46.2834 55.8064 45.8779 55.6263C45.4645 55.4462 45.0554 55.1919 44.6504 54.8633C44.2455 54.5348 43.8955 54.1478 43.6004 53.7021C43.2974 53.2643 43.1079 52.7837 43.0319 52.2602L44.9485 50.6097C44.7092 49.8751 44.0745 49.3705 43.0444 49.0961L45.5529 45.9344C46.7532 46.6465 47.5994 47.0028 48.0916 47.0033C48.1931 47.0034 48.2713 46.9918 48.3261 46.9684C48.2916 47.773 48.149 48.2924 47.8981 48.5266C47.7962 48.6124 47.6515 48.6552 47.464 48.6551C47.128 48.6547 46.6559 48.5332 46.0475 48.2904L45.6942 48.7119C46.1541 48.978 46.5669 49.2909 46.9327 49.6507C47.2984 50.0182 47.4806 50.37 47.4793 50.7059C47.478 51.034 46.8154 51.6545 45.4915 52.5673L46.9524 53.5531L49.9055 53.556L51.2336 52.5729L51.2434 50.0767C51.2454 49.5846 51.1802 49.2603 51.048 49.1039C50.8764 49.049 50.7908 48.9513 50.7914 48.8107C50.7919 48.67 50.8862 48.549 51.0741 48.4476C53.854 46.7785 55.3925 45.944 55.6893 45.9443C56.0018 45.9446 57.6471 46.7431 60.6251 48.3398L60.5978 55.2422C60.596 55.6875 60.3842 55.91 59.9624 55.9096C59.7514 55.9093 59.4859 55.8778 59.1659 55.815C58.8458 55.7522 58.5298 55.6621 58.2177 55.5446C57.8979 55.4271 57.6328 55.2901 57.4225 55.1336C57.2044 54.9772 57.0957 54.8052 57.0964 54.6177C57.0979 54.2505 57.2906 53.9108 57.6747 53.5987C58.0665 53.2788 58.2632 52.9391 58.2646 52.5797L58.2765 49.5797L55.6446 48.3584L53.1543 49.8911C53.4425 50.0867 53.5862 50.3056 53.5852 50.5478ZM57.186 58.6491C55.9236 59.8119 54.5801 60.7481 53.1554 61.4577L53.1552 61.5163C53.1542 61.7819 53.3996 61.9345 53.8917 61.974L53.9971 61.9741C54.5206 61.9746 55.2325 61.7058 56.1331 61.1676C57.1197 60.5826 58.1306 59.8141 59.1656 58.8619C60.1613 57.9566 60.749 57.5041 60.9287 57.5043C60.9443 57.5043 60.956 57.5082 60.9638 57.516C61.1041 57.5865 61.1737 57.7701 61.1726 58.067C61.1714 58.3717 61.0254 58.727 60.7348 59.133C58.6295 62.0607 56.2761 63.5232 53.6746 63.5207C52.3465 63.5194 51.4067 63.1318 50.8551 62.3578C50.692 62.1076 50.6109 61.8771 50.6117 61.6661C50.6137 61.1505 51.0493 60.6587 51.9183 60.1908C53.8999 58.8881 55.0476 58.0923 55.3612 57.8035C54.9714 57.6156 54.7769 57.4123 54.7777 57.1936C54.7781 57.1076 54.8057 57.0256 54.8607 56.9476C55.0416 56.643 55.5383 56.4912 56.3508 56.492C57.0539 56.4927 57.5139 56.708 57.731 57.1379C57.7852 57.2473 57.8121 57.3684 57.8116 57.5012C57.8103 57.8372 57.6017 58.2198 57.186 58.6491ZM71.1557 37.5569L68.9908 39.758C69.6039 40.7898 70.5886 41.6853 71.945 42.4445L76.4683 42.4489C78.041 41.8254 79.0222 40.6545 79.4118 38.9361L79.4292 34.5298C79.1209 33.467 78.108 32.7785 76.3905 32.4643L80.2315 27.218C81.8827 28.4931 83.0676 29.1309 83.7863 29.1316C83.9191 29.1318 84.0364 29.1084 84.1382 29.0617C83.9775 30.1787 83.6546 30.8308 83.1695 31.0178C83.0522 31.0567 82.9349 31.0762 82.8177 31.076C82.2865 31.0755 81.4713 30.77 80.3722 30.1596L79.4538 31.272C80.8574 31.9218 81.6308 32.9304 81.7738 34.2977L81.7555 38.9384C81.4307 42.0553 79.6652 44.0067 76.459 44.7927L71.9357 44.7883C71.467 44.7878 70.9168 44.6232 70.2853 44.2945C69.6539 43.9579 69.0267 43.5159 68.4039 42.9684C67.7811 42.4209 67.2405 41.8188 66.7822 41.1621C66.3317 40.5054 66.0491 39.8528 65.9345 39.2042L69.5565 35.9733C68.7193 34.3319 67.5203 33.276 65.9597 32.8057L69.8021 27.2078C71.6564 28.4831 72.9546 29.1211 73.6968 29.1218C73.8374 29.1219 73.9586 29.0986 74.0603 29.0518C73.8997 30.1689 73.5377 30.8209 72.9745 31.0078C72.8415 31.0468 72.7086 31.0662 72.5758 31.066C71.9821 31.0655 71.1044 30.7599 69.9428 30.1494L68.7881 31.7303C69.8087 32.4423 70.6067 33.1579 71.1819 33.8772C71.7572 34.5965 72.0437 35.2492 72.0414 35.8351C72.0391 36.4211 71.7438 36.995 71.1557 37.5569ZM95.0219 14.9158C95.2091 14.9942 95.302 15.2091 95.3006 15.5607C95.298 16.2247 94.9339 17.4119 94.2085 19.1221L92.5644 22.9761L89.9032 23.243L89.9926 24.3447L91.2002 24.1935C91.2627 24.1857 91.3213 24.1819 91.376 24.1819C91.4386 24.1742 91.4972 24.1703 91.5519 24.1704C92.1456 24.171 92.4807 24.3862 92.5571 24.8159C92.5647 24.855 92.5685 24.9058 92.5682 24.9683C92.5666 25.3823 92.2218 25.6359 91.534 25.729L89.2125 26.0431C89.1578 26.0509 89.0796 26.0547 88.9781 26.0546C88.3531 26.054 88.003 25.6748 87.9279 24.9169L87.6919 22.3502C87.6843 22.2955 87.6808 22.2135 87.6812 22.1041C87.6839 21.4088 88.0292 21.0224 88.717 20.9449L91.1555 20.6661L92.6676 17.6089C93.5654 15.7894 94.2877 14.88 94.8346 14.8805C94.9049 14.8806 94.9673 14.8924 95.0219 14.9158ZM91.16 31.4123L91.1302 38.9475C91.1274 39.6507 91.5153 40.3347 92.2939 40.9995C93.0726 41.6643 93.4607 42.2897 93.4584 42.8756C93.4533 44.1647 93.0015 44.8088 92.1031 44.8079C91.5563 44.8074 91.0256 44.6663 90.5111 44.3845C90.0044 44.1028 89.5883 43.6219 89.2629 42.9419C88.9375 42.254 88.7772 41.3125 88.7819 40.1171L88.8328 27.2264L89.8406 27.2274C91.435 29.0414 92.572 29.9488 93.2516 29.9495C93.3298 29.9496 93.4158 29.9301 93.5097 29.8911C93.349 31.0082 92.9871 31.6602 92.4238 31.8471C92.3456 31.8705 92.2675 31.8821 92.1893 31.8821C91.8847 31.8818 91.5415 31.7252 91.16 31.4123ZM98.1895 31.8059C98.1938 30.7121 98.5137 29.8296 99.1492 29.1584C99.7924 28.4871 100.646 27.9996 101.71 27.696C102.781 27.3923 103.957 27.2411 105.239 27.2424C106.2 27.2433 107.105 27.3184 107.956 27.4677C108.807 27.6092 109.552 27.8677 110.192 28.2433C110.839 28.619 111.344 29.1429 111.709 29.8151C112.073 30.4874 112.253 31.3509 112.249 32.4056C112.238 35.2025 109.634 37.95 104.436 40.648L105.532 41.9499L110.955 36.5997C110.963 36.6622 110.967 36.7286 110.966 36.7989C110.974 36.8614 110.978 36.9239 110.977 36.9864C110.972 38.2364 110.306 39.7944 108.978 41.6603C107.502 43.737 106.415 44.7907 105.72 44.8212C105.025 44.8206 103.989 44.0422 102.612 42.4861C101.873 41.6573 101.505 40.9421 101.507 40.3405C101.509 39.8092 101.796 39.3642 102.368 39.0054C107.385 36.604 109.898 34.4033 109.906 32.4033C109.913 30.5283 108.354 29.5892 105.229 29.5862C102.104 29.5831 100.539 30.3238 100.533 31.8082C100.529 32.8238 100.902 33.332 101.652 33.3327C101.656 32.3952 102.072 31.8526 102.901 31.705C103.034 31.6817 103.163 31.6701 103.288 31.6702C103.897 31.6708 104.314 31.972 104.538 32.5738C104.623 32.8473 104.665 33.0935 104.664 33.3122C104.662 33.7497 104.496 34.1636 104.167 34.5539C103.649 35.1472 102.808 35.4433 101.644 35.4421C99.3314 35.4399 98.1799 34.2278 98.1895 31.8059ZM110.721 48.4941C109.859 49.0246 109.428 49.5593 109.426 50.0984L110.011 50.0989C111.965 50.1008 112.937 51.0784 112.93 53.0315C112.922 54.9847 111.941 55.9603 109.988 55.9584C108.035 55.9565 107.063 54.7836 107.073 52.4398C106.791 52.4396 106.411 52.7478 105.932 53.3645C105.453 53.9813 104.776 54.2892 103.901 54.2883C103.198 54.2877 102.563 53.9784 101.995 53.3607C101.808 53.1574 101.532 52.9735 101.165 52.8091C100.798 52.6525 100.397 52.5036 99.9598 52.3626C99.5229 52.2294 99.1093 52.1 98.7192 51.9747C98.3213 51.8493 97.9937 51.7161 97.7364 51.5753C97.4791 51.4422 97.3508 51.2975 97.3514 51.1413C97.3533 50.6725 97.9443 50.3801 99.1244 50.2641C99.2182 50.2564 99.3119 50.2487 99.4057 50.2409C99.4995 50.241 99.5893 50.2411 99.6752 50.2412C100.613 50.2421 101.44 50.4968 102.157 51.0053C102.998 51.6155 103.583 51.9208 103.911 51.9211C104.215 51.9136 104.623 51.6093 105.133 51.0082C105.643 50.3994 106.293 50.0953 107.082 50.0961C107.085 49.2601 107.217 48.5845 107.477 48.0691C107.729 47.5537 108.05 47.1751 108.442 46.9333C108.834 46.6993 109.24 46.5825 109.662 46.5829C110.295 46.5835 110.648 47.2206 110.721 48.4941ZM109.986 53.6146C110.384 53.615 110.584 53.4199 110.586 53.0292C110.587 52.6386 110.393 52.4431 110.002 52.4427L109.416 52.4421C109.413 53.2234 109.603 53.6142 109.986 53.6146ZM122.205 33.7512L122.184 39.095C122.175 41.2044 121.818 42.6885 121.111 43.5472C120.405 44.4059 119.641 44.8348 118.821 44.834C117.923 44.8331 117.476 44.1882 117.481 42.8991C117.483 42.3131 117.877 41.6885 118.66 41.0252C119.444 40.3619 119.838 39.6787 119.84 38.9756L119.858 34.5693C119.862 33.5146 119.083 32.8263 117.522 32.5045L120.894 27.2577C121.82 28.3836 122.712 28.947 123.571 28.9478C124.11 28.9483 124.639 28.7262 125.156 28.2814C125.152 29.2501 124.829 30.078 124.185 30.7648C123.887 31.0849 123.519 31.2447 123.082 31.2442C122.551 31.2437 121.907 31.0126 121.151 30.5509L120.467 31.5464C121.629 32.11 122.208 32.845 122.205 33.7512ZM143.298 33.7718L143.277 38.9984C142.952 42.1153 141.187 44.0668 137.981 44.8527L133.457 44.8483C132.989 44.8478 132.439 44.6832 131.807 44.3545C131.176 44.0179 130.549 43.5759 129.926 43.0284C129.303 42.4809 128.762 41.8788 128.304 41.2221C127.853 40.5654 127.571 39.9128 127.456 39.2642L131.078 36.0334C130.241 34.3919 129.042 33.336 127.482 32.8657L131.324 27.2678C133.178 28.5431 134.476 29.1811 135.219 29.1818C135.359 29.182 135.48 29.1586 135.582 29.1119C135.421 30.2289 135.059 30.8809 134.496 31.0679C134.363 31.1068 134.23 31.1262 134.098 31.1261C133.504 31.1255 132.626 30.8199 131.465 30.2094L130.31 31.7904C131.346 32.5179 132.144 33.2336 132.704 33.9373C132.968 34.2735 133.182 34.6096 133.344 34.9457L140.95 34.9531L140.951 34.5898C140.954 33.707 140.558 33.1324 139.762 32.866C139.497 32.772 139.365 32.6039 139.366 32.3617C139.367 32.1195 139.512 31.9009 139.802 31.7059C144.095 28.7569 146.46 27.2826 146.898 27.283C147.359 27.2835 149.872 28.6922 154.439 31.5092L154.391 43.6968C154.388 44.4781 154.07 44.8684 153.437 44.8678C153.016 44.8674 152.559 44.7693 152.068 44.5735C151.576 44.3777 151.155 44.1077 150.805 43.7637C150.463 43.4196 150.292 43.0327 150.294 42.603C150.297 41.9545 150.592 41.3493 151.18 40.7874C151.768 40.2255 152.064 39.632 152.066 39.007L152.09 32.8898L146.817 29.8963L143.01 32.6114C143.203 32.9553 143.3 33.3421 143.298 33.7718ZM140.934 38.9961L140.94 37.2969L132.983 37.2891C132.889 37.4062 132.787 37.5155 132.677 37.617L130.513 39.818C131.126 40.8499 132.11 41.7454 133.467 42.5045L137.99 42.5089C139.563 41.8855 140.544 40.7145 140.934 38.9961ZM165.718 41.9501L164.359 41.9487L164.353 43.4136C164.349 44.3902 163.957 44.8781 163.175 44.8773C162.66 44.8768 162.18 44.6849 161.736 44.3017C161.293 43.9184 160.935 43.4337 160.664 42.8475C160.393 42.2535 160.259 41.64 160.261 41.0072C160.265 40.0697 160.853 39.6015 162.024 39.6027L162.045 34.3292C161.66 32.8678 161.077 32.1329 160.296 32.1243C160.3 31.0462 160.581 30.355 161.136 30.0509C165.808 28.2195 168.249 27.3039 168.46 27.3041C168.663 27.3043 170.706 28.2243 174.589 30.064C175.221 30.3693 175.535 30.8267 175.533 31.436L175.529 32.4673C175.521 34.4986 174.833 35.5135 173.466 35.5122C172.099 35.5109 171.417 35.1196 171.42 34.3383C171.423 33.5571 171.718 33.1667 172.304 33.1673C172.889 33.1679 173.184 32.7853 173.187 32.0197C170.232 30.4621 168.653 29.6832 168.45 29.683C168.263 29.6828 166.502 30.3686 163.169 31.7404C163.988 32.1006 164.394 32.9643 164.389 34.3315L164.368 39.605L165.692 39.6062C167.255 39.6078 168.467 40.3394 169.328 41.8012C169.623 42.2937 170.157 42.5403 170.931 42.5411C171.477 42.5416 171.986 42.2999 172.457 41.816C172.731 41.5272 173.006 41.2111 173.281 40.8676C173.563 40.5241 173.842 40.2314 174.116 39.9895C174.391 39.7397 174.657 39.615 174.915 39.6152C175.305 39.6156 175.499 39.9518 175.497 40.6236C175.495 40.9596 175.361 41.3696 175.093 41.8537C174.834 42.33 174.484 42.8024 174.045 43.2707C173.605 43.7312 173.116 44.1175 172.575 44.4294C172.043 44.7336 171.499 44.8854 170.945 44.8849C169.609 44.8836 168.549 44.2732 167.765 43.0536C167.299 42.3188 166.617 41.9509 165.718 41.9501ZM194.806 32.4744L189.145 29.6681L184.226 31.8664L184.75 32.7224L183.412 33.4008L181.392 31.4769L181.395 30.7972C186.083 28.4815 188.662 27.3238 189.131 27.3243C189.6 27.3247 191.495 28.1703 194.816 29.8611C197.65 28.4107 199.282 27.6271 199.712 27.5104C200.134 27.3936 200.381 27.3352 200.451 27.3353C200.537 27.3354 200.783 27.4059 201.188 27.547C201.586 27.688 203.777 28.9089 207.76 31.2097L207.71 43.7489C207.707 44.5301 207.389 44.9204 206.756 44.9198C206.334 44.9194 205.878 44.8213 205.386 44.6255C204.895 44.4297 204.474 44.1598 204.124 43.8157C203.782 43.4716 203.611 43.0847 203.613 42.655C203.616 42.0066 203.911 41.4014 204.499 40.8394C205.087 40.2775 205.382 39.684 205.385 39.059L205.411 32.473L200.195 29.8546L194.806 32.4744ZM185.523 35.9576C186.099 36.38 186.386 37.017 186.382 37.8686L186.373 40.2124C186.367 41.853 186.092 43.0442 185.55 43.7858C185.016 44.5275 184.378 44.898 183.636 44.8973C182.495 44.8962 181.928 44.13 181.934 42.5987C183.327 41.9438 184.027 40.8351 184.033 39.2726L184.039 37.8663C184.042 37.0226 183.545 36.2877 182.547 35.6617C182.55 35.0523 182.844 34.5956 183.432 34.2914L189.596 31.3091L195.736 34.3035C196.321 34.6087 196.612 35.066 196.609 35.6754L196.578 43.738C196.575 44.5193 196.257 44.9096 195.624 44.909C195.202 44.9086 194.745 44.8104 194.254 44.6147C193.762 44.4189 193.342 44.1489 192.991 43.8048C192.649 43.4607 192.479 43.0738 192.48 42.6441C192.483 41.9957 192.778 41.3905 193.367 40.8286C193.955 40.2666 194.25 39.6732 194.252 39.0482L194.263 36.2591L189.585 33.9224L185.523 35.9576ZM228.851 31.6404L228.803 43.7694C228.8 44.5507 228.482 44.941 227.849 44.9404C227.428 44.94 226.971 44.8419 226.48 44.6461C225.988 44.4503 225.567 44.1804 225.217 43.8363C224.875 43.4922 224.704 43.1053 224.706 42.6756C224.709 42.0271 225.004 41.422 225.592 40.86C226.18 40.2981 226.476 39.7046 226.478 39.0796L226.506 32.0131L224.625 30.4644L221.805 32.3953L219.001 30.4589L217.131 32.004L217.109 37.5939C217.361 37.2504 217.779 37.0789 218.365 37.0795C220.42 37.0815 221.443 38.1372 221.435 40.2466C221.431 41.0513 221.264 41.8128 220.933 42.5313C220.61 43.2419 220.194 43.8196 219.684 44.2645C219.183 44.7093 218.654 44.9314 218.1 44.9309C217.725 44.9305 217.339 44.8012 216.941 44.543C216.552 44.277 216.19 43.929 215.855 43.499C215.521 43.069 215.254 42.6 215.052 42.0919C214.851 41.5839 214.752 41.0838 214.754 40.5916L214.789 31.6267C214.791 31.0251 215.134 30.4395 215.816 29.8699L218.849 27.3533L221.817 29.4421L224.79 27.3591L227.815 29.8816C228.508 30.4604 228.854 31.0467 228.851 31.6404ZM217.097 40.5939C217.249 41.6878 217.586 42.3522 218.109 42.5871C218.296 42.5873 218.465 42.4547 218.614 42.1892C218.764 41.9159 218.879 41.5957 218.958 41.2286C219.045 40.8614 219.09 40.5334 219.091 40.2443C219.093 39.6193 218.848 39.3065 218.356 39.3061C217.52 39.3053 217.101 39.7345 217.097 40.5939ZM245.345 33.2268C244.604 32.7808 243.488 32.4203 241.997 32.1454L245.625 27.3794C247.222 28.5372 248.372 29.1165 249.076 29.1172C249.185 29.1173 249.298 29.0978 249.416 29.0589C249.263 30.0666 248.94 30.6952 248.447 30.9447C248.298 31.0227 248.119 31.0616 247.908 31.0614C247.416 31.0609 246.702 30.8414 245.766 30.403L245.435 31.0707C246.675 31.5797 247.486 32.1274 247.866 32.7137C248.114 33.1124 248.273 33.6242 248.34 34.2493C248.372 34.265 248.403 34.2806 248.434 34.2963C248.465 34.3119 248.496 34.3276 248.528 34.3433C249.501 35.1333 249.986 35.9072 249.983 36.665C249.982 37.0635 249.851 37.4579 249.592 37.8482L248.437 39.5932C249.096 40.8439 250.185 41.8528 251.706 42.6199L255.292 42.6234C256.786 41.9999 257.728 40.8289 258.118 39.1105L258.135 34.7042C257.827 33.6414 256.814 32.9529 255.097 32.6387L258.938 27.3924C260.589 28.6674 261.774 29.3053 262.492 29.306C262.625 29.3062 262.743 29.2828 262.844 29.2361C262.684 30.3531 262.361 31.0051 261.876 31.1922C261.758 31.2311 261.641 31.2505 261.524 31.2504C260.993 31.2499 260.177 30.9444 259.078 30.334L258.16 31.4464C259.564 32.0962 260.337 33.1048 260.48 34.4721L260.462 39.1128C260.137 42.2375 258.41 44.189 255.282 44.9672L251.696 44.9637C251.321 44.9633 250.873 44.8535 250.35 44.6342C249.828 44.415 249.29 44.1176 248.737 43.742C248.183 43.3665 247.665 42.9402 247.183 42.4631C246.708 41.9861 246.32 41.4818 246.017 40.9503C245.722 40.4187 245.576 39.8951 245.578 39.3795L247.347 36.4281C245.484 35.5981 243.872 35.1825 242.513 35.1811C241.849 35.1805 241.235 35.2815 240.672 35.484C239.029 36.0996 238.205 36.9113 238.201 37.9192C238.194 39.7161 238.635 40.8376 239.524 41.2838C240.335 41.6986 240.738 42.3436 240.735 43.2186C240.734 43.3201 240.73 43.3983 240.722 43.4529C240.632 44.4529 240.22 44.9525 239.486 44.9518C238.994 44.9513 238.463 44.8219 237.894 44.5635C237.324 44.2973 236.838 43.9101 236.433 43.4019C236.037 42.8937 235.84 42.2763 235.843 41.5497L235.857 37.9169C235.864 36.3075 236.756 35.0232 238.533 34.064C239.793 33.3933 241.302 33.0588 243.06 33.0606C243.748 33.0612 244.509 33.1167 245.345 33.2268ZM271.622 35.0806L279.227 35.0881L279.228 34.7248C278.92 33.662 277.907 32.9735 276.19 32.6593L280.031 27.413C281.682 28.688 282.867 29.3259 283.586 29.3266C283.718 29.3267 283.836 29.3034 283.937 29.2566C283.777 30.3737 283.454 31.0257 282.969 31.2128C282.851 31.2517 282.734 31.2711 282.617 31.271C282.086 31.2705 281.271 30.965 280.171 30.3545L279.253 31.4669C280.657 32.1168 281.43 33.1253 281.573 34.4927L281.555 39.1334C281.23 42.2503 279.464 44.2017 276.258 44.9876L271.735 44.9832C271.266 44.9828 270.716 44.8182 270.085 44.4894C269.453 44.1529 268.826 43.7108 268.203 43.1634C267.58 42.6159 267.04 42.0138 266.581 41.3571C266.131 40.7004 265.848 40.0477 265.734 39.3992L269.356 36.1683C268.519 34.5268 267.32 33.471 265.759 33.0007L269.601 27.4028C271.456 28.678 272.754 29.316 273.496 29.3168C273.637 29.3169 273.758 29.2936 273.86 29.2468C273.699 30.3639 273.337 31.0159 272.774 31.2028C272.641 31.2417 272.508 31.2611 272.375 31.261C271.781 31.2604 270.904 30.9549 269.742 30.3444L268.587 31.9253C269.624 32.6529 270.422 33.3685 270.981 34.0722C271.246 34.4084 271.459 34.7445 271.622 35.0806ZM279.211 39.1311L279.218 37.4318L271.261 37.4241C271.167 37.5412 271.065 37.6504 270.955 37.7519L268.79 39.9529C269.403 40.9848 270.388 41.8803 271.744 42.6395L276.268 42.6439C277.84 42.0204 278.821 40.8495 279.211 39.1311ZM290.95 33.9159L290.873 53.5333C290.399 54.7985 289.485 55.6648 288.132 56.1322L285.025 53.6565L283.26 55.4712C282.961 55.9084 282.464 56.1267 281.769 56.126C281.066 56.1253 280.438 55.9138 279.885 55.4913L278.226 54.2241C277.673 53.8017 277.397 53.3561 277.399 52.8873C277.402 52.192 277.619 51.6063 278.05 51.1301L280.475 48.4723C280.734 48.1757 281 48.0275 281.274 48.0277C281.508 48.028 281.75 48.1415 281.999 48.3683C282.287 48.6342 282.43 48.9234 282.429 49.2359C282.428 49.4859 282.329 49.7436 282.133 50.0091L279.944 52.4562L281.497 53.8054L284.92 50.5977L288.529 53.531L288.603 34.7339C288.607 33.6792 287.829 32.991 286.268 32.6691L289.64 27.4223C291.166 28.6973 292.273 29.3351 292.96 29.3358C293.093 29.3359 293.21 29.3126 293.312 29.2658C293.152 30.3828 292.829 31.0349 292.344 31.2219C292.226 31.2608 292.113 31.2803 292.004 31.2802C291.496 31.2797 290.755 30.9743 289.781 30.3639L289.097 31.3594C290.337 32.0012 290.954 32.8534 290.95 33.9159ZM287.453 58.8738C286.191 60.0366 284.847 60.9728 283.423 61.6824L283.422 61.741C283.421 62.0066 283.667 62.1592 284.159 62.1987L284.264 62.1988C284.788 62.1993 285.5 61.9305 286.4 61.3923C287.387 60.8073 288.398 60.0388 289.433 59.0866C290.429 58.1813 291.016 57.7288 291.196 57.729C291.212 57.729 291.223 57.7329 291.231 57.7407C291.371 57.8112 291.441 57.9948 291.44 58.2917C291.439 58.5964 291.293 58.9517 291.002 59.3577C288.897 62.2854 286.543 63.7479 283.942 63.7454C282.614 63.7441 281.674 63.3565 281.122 62.5825C280.959 62.3323 280.878 62.1018 280.879 61.8908C280.881 61.3752 281.316 60.8834 282.186 60.4155C284.167 59.1127 285.315 58.317 285.628 58.0282C285.239 57.8403 285.044 57.637 285.045 57.4183C285.045 57.3323 285.073 57.2503 285.128 57.1723C285.309 56.8677 285.806 56.7159 286.618 56.7167C287.321 56.7174 287.781 56.9327 287.998 57.3626C288.052 57.472 288.079 57.5931 288.079 57.7259C288.077 58.0619 287.869 58.4445 287.453 58.8738ZM300.911 33.9256L300.89 39.2694C300.881 41.3788 300.524 42.8629 299.817 43.7216C299.111 44.5803 298.348 45.0092 297.527 45.0084C296.629 45.0075 296.182 44.3625 296.187 43.0735C296.19 42.4875 296.583 41.8629 297.367 41.1996C298.15 40.5363 298.544 39.8531 298.546 39.1499L298.564 34.7436C298.568 33.6889 297.79 33.0007 296.228 32.6788L299.601 27.4321C300.526 28.558 301.418 29.1214 302.277 29.1222C302.816 29.1227 303.345 28.9006 303.862 28.4558C303.858 29.4245 303.535 30.2523 302.891 30.9392C302.593 31.2592 302.225 31.419 301.788 31.4186C301.257 31.4181 300.613 31.187 299.857 30.7253L299.173 31.7208C300.335 32.2844 300.914 33.0194 300.911 33.9256ZM314.157 15.1297C314.344 15.208 314.437 15.4229 314.435 15.7745C314.433 16.4386 314.069 17.6257 313.343 19.336L311.699 23.1899L309.038 23.4568L309.127 24.5585L310.335 24.4073C310.397 24.3996 310.456 24.3957 310.511 24.3958C310.573 24.388 310.632 24.3842 310.687 24.3842C311.28 24.3848 311.615 24.6 311.692 25.0298C311.699 25.0688 311.703 25.1196 311.703 25.1821C311.701 25.5962 311.357 25.8498 310.669 25.9428L308.347 26.257C308.292 26.2647 308.214 26.2686 308.113 26.2685C307.488 26.2679 307.138 25.8886 307.063 25.1307L306.827 22.564C306.819 22.5093 306.815 22.4273 306.816 22.3179C306.819 21.6226 307.164 21.2362 307.852 21.1588L310.29 20.8799L311.802 17.8227C312.7 16.0033 313.422 15.0938 313.969 15.0943C314.04 15.0944 314.102 15.1062 314.157 15.1297ZM310.295 31.6261L310.265 39.1614C310.262 39.8645 310.65 40.5485 311.429 41.2133C312.207 41.8782 312.595 42.5035 312.593 43.0895C312.588 44.3786 312.136 45.0227 311.238 45.0218C310.691 45.0212 310.16 44.8801 309.646 44.5983C309.139 44.3166 308.723 43.8357 308.398 43.1557C308.072 42.4679 307.912 41.5263 307.917 40.331L307.968 27.4402L308.975 27.4412C310.57 29.2553 311.707 30.1627 312.386 30.1633C312.464 30.1634 312.55 30.1439 312.644 30.105C312.484 31.222 312.122 31.874 311.559 32.061C311.48 32.0843 311.402 32.096 311.324 32.0959C311.019 32.0956 310.676 31.939 310.295 31.6261ZM320.758 37.8005L318.593 40.0015C319.207 41.0334 320.191 41.9289 321.548 42.6881L326.071 42.6925C327.644 42.069 328.625 40.8981 329.014 39.1797L329.032 34.7734C328.724 33.7106 327.711 33.0221 325.993 32.7079L329.834 27.4616C331.485 28.7366 332.67 29.3745 333.389 29.3752C333.522 29.3753 333.639 29.352 333.741 29.3052C333.58 30.4223 333.257 31.0743 332.772 31.2614C332.655 31.3003 332.538 31.3197 332.42 31.3196C331.889 31.3191 331.074 31.0136 329.975 30.4031L329.056 31.5155C330.46 32.1654 331.233 33.1739 331.376 34.5413L331.358 39.182C331.033 42.2989 329.268 44.2503 326.062 45.0362L321.538 45.0318C321.07 45.0314 320.519 44.8668 319.888 44.538C319.257 44.2015 318.629 43.7594 318.007 43.212C317.384 42.6645 316.843 42.0624 316.385 41.4057C315.934 40.749 315.652 40.0963 315.537 39.4478L319.159 36.2169C318.322 34.5754 317.123 33.5195 315.562 33.0493L319.405 27.4514C321.259 28.7266 322.557 29.3646 323.299 29.3654C323.44 29.3655 323.561 29.3422 323.663 29.2954C323.502 30.4124 323.14 31.0644 322.577 31.2514C322.444 31.2903 322.311 31.3097 322.178 31.3096C321.585 31.309 320.707 31.0035 319.545 30.393L318.391 31.9739C319.411 32.6858 320.209 33.4015 320.785 34.1208C321.36 34.8401 321.646 35.4927 321.644 36.0787C321.642 36.6646 321.346 37.2386 320.758 37.8005ZM341.852 37.8211L339.687 40.0221C340.3 41.054 341.284 41.9495 342.641 42.7086L347.164 42.7131C348.737 42.0896 349.718 40.9186 350.108 39.2003L350.125 34.794C349.817 33.7311 348.804 33.0426 347.086 32.7285L350.927 27.4821C352.578 28.7572 353.763 29.3951 354.482 29.3958C354.615 29.3959 354.732 29.3726 354.834 29.3258C354.673 30.4429 354.35 31.0949 353.865 31.2819C353.748 31.3209 353.631 31.3403 353.514 31.3402C352.982 31.3397 352.167 31.0342 351.068 30.4237L350.15 31.5361C351.553 32.1859 352.327 33.1945 352.47 34.5619L352.451 39.2025C352.126 42.3195 350.361 44.2709 347.155 45.0568L342.632 45.0524C342.163 45.052 341.613 44.8874 340.981 44.5586C340.35 44.2221 339.723 43.78 339.1 43.2325C338.477 42.685 337.936 42.0829 337.478 41.4262C337.027 40.7695 336.745 40.1169 336.63 39.4684L340.252 36.2375C339.415 34.596 338.216 33.5401 336.656 33.0699L340.498 27.472C342.352 28.7472 343.65 29.3852 344.393 29.3859C344.533 29.3861 344.654 29.3628 344.756 29.316C344.595 30.433 344.234 31.085 343.67 31.272C343.537 31.3109 343.404 31.3303 343.272 31.3302C342.678 31.3296 341.8 31.0241 340.639 30.4135L339.484 31.9945C340.505 32.7064 341.302 33.422 341.878 34.1414C342.453 34.8607 342.74 35.5133 342.737 36.0993C342.735 36.6852 342.44 37.2591 341.852 37.8211ZM371.201 39.2208L371.207 37.5216L362.419 37.513L362.411 39.3294C362.403 41.4388 362.046 42.9229 361.339 43.7816C360.633 44.6403 359.869 45.0692 359.049 45.0684C358.151 45.0676 357.704 44.4226 357.709 43.1335C357.711 42.5476 358.104 41.9229 358.888 41.2596C359.672 40.5963 360.065 39.9131 360.068 39.21L360.086 34.8037C360.09 33.749 359.311 33.0607 357.75 32.7389L361.122 27.4921C362.977 28.7674 364.275 29.4053 365.017 29.4061C365.158 29.4062 365.279 29.3829 365.381 29.3361C365.22 30.4532 364.858 31.1052 364.295 31.2921C364.162 31.331 364.029 31.3504 363.896 31.3503C363.302 31.3497 362.425 31.0442 361.263 30.4337L360.579 31.4291C361.819 32.071 362.437 32.9231 362.433 33.9856L362.428 35.1692L371.217 35.1778L371.218 34.8145C371.222 33.7598 370.444 33.0716 368.883 32.7497L372.255 27.503C373.781 28.7779 374.888 29.4157 375.575 29.4164C375.708 29.4165 375.825 29.3932 375.927 29.3464C375.767 30.4634 375.444 31.1155 374.959 31.3025C374.841 31.3415 374.728 31.3609 374.618 31.3608C374.111 31.3603 373.37 31.0549 372.396 30.4445L371.712 31.44C372.952 32.0818 373.569 32.934 373.565 33.9965L373.544 39.3403C373.536 41.4497 373.178 42.9338 372.472 43.7925C371.765 44.6511 371.002 45.0801 370.182 45.0793C369.283 45.0784 368.836 44.4334 368.842 43.1444C368.844 42.5584 369.237 41.9338 370.021 41.2705C370.805 40.6072 371.198 39.924 371.201 39.2208ZM405.205 34.0274L405.184 39.254C404.859 42.3787 403.133 44.3302 400.005 45.1084L396.419 45.1049C396.044 45.1045 395.595 44.9947 395.073 44.7755C394.55 44.5562 394.012 44.2588 393.459 43.8832C392.906 43.5077 392.388 43.0814 391.906 42.6044C391.431 42.1273 391.042 41.623 390.74 41.0915C390.445 40.5599 390.299 40.0364 390.301 39.5207L392.07 36.5693C390.206 35.7393 388.595 35.3237 387.235 35.3224C386.571 35.3217 385.958 35.4227 385.394 35.6253C383.751 36.2409 382.928 37.0526 382.924 38.0604C382.917 39.8573 383.358 40.9788 384.246 41.425C385.057 41.8399 385.461 42.4848 385.458 43.3598C385.457 43.4614 385.453 43.5395 385.445 43.5942C385.355 44.5941 384.943 45.0937 384.209 45.093C383.716 45.0925 383.186 44.9631 382.616 44.7047C382.047 44.4385 381.56 44.0513 381.156 43.5431C380.76 43.0349 380.563 42.4175 380.566 41.6909L380.58 38.0581C380.587 36.4487 381.478 35.1644 383.255 34.2052C384.516 33.5345 386.025 33.2001 387.783 33.2018C388.47 33.2024 389.232 33.2579 390.067 33.3681C389.327 32.922 388.211 32.5616 386.72 32.2867L390.348 27.5206C391.945 28.6784 393.095 29.2577 393.798 29.2584C393.908 29.2585 394.021 29.2391 394.138 29.2001C393.986 30.2078 393.663 30.8364 393.17 31.0859C393.021 31.1639 392.841 31.2028 392.63 31.2026C392.138 31.2021 391.424 30.9826 390.489 30.5442L390.158 31.2119C391.398 31.7209 392.208 32.2686 392.589 32.8549C392.837 33.2536 392.995 33.7655 393.063 34.3905C393.094 34.4062 393.125 34.4219 393.157 34.4375C393.188 34.4532 393.219 34.4688 393.25 34.4845C394.224 35.2745 394.709 36.0484 394.706 36.8062C394.704 37.2047 394.574 37.5991 394.314 37.9895L393.159 39.7345C393.818 40.9851 394.908 41.994 396.428 42.7611L400.014 42.7646C401.509 42.1411 402.451 40.9701 402.841 39.2517L402.858 34.8454C402.861 33.9626 402.465 33.388 401.669 33.1216C401.404 33.0276 401.272 32.8595 401.273 32.6173C401.274 32.3751 401.419 32.1565 401.709 31.9614C406.002 29.0125 408.367 27.5382 408.805 27.5386C409.266 27.5391 411.779 28.9478 416.346 31.7648L416.298 43.9524C416.295 44.7337 415.977 45.124 415.344 45.1234C414.923 45.123 414.466 45.0249 413.974 44.8291C413.483 44.6333 413.062 44.3633 412.712 44.0192C412.37 43.6751 412.199 43.2882 412.201 42.8586C412.204 42.2101 412.499 41.6049 413.087 41.043C413.675 40.481 413.971 39.8876 413.973 39.2626L413.997 33.1453L408.724 30.1519L404.916 32.8669C405.11 33.2109 405.207 33.5977 405.205 34.0274ZM397.891 46.2782C398.516 46.2788 398.827 46.6541 398.824 47.4042C398.823 47.5838 398.803 47.8104 398.763 48.0838C398.539 49.2945 398.137 50.3762 397.555 51.3288C396.965 52.2813 396.321 53.0346 395.624 53.5886C395.623 53.7917 396.037 53.8937 396.865 53.8945C398.021 53.8956 398.895 53.166 399.487 51.7056C399.089 51.549 398.891 51.1308 398.894 50.4511C398.897 49.7636 399.055 49.2872 399.368 49.0219C399.682 48.7644 400.151 48.6359 400.776 48.6365C401.315 48.6371 401.721 48.7859 401.993 49.0831C402.258 49.388 402.389 49.728 402.388 50.103C402.387 50.3061 402.319 50.5834 402.185 50.9348C402.787 50.9354 403.086 51.1935 403.084 51.7092C403.082 52.2248 402.722 52.5291 402.003 52.6222C401.893 52.6221 401.788 52.6181 401.686 52.6101C401.585 52.61 401.487 52.6021 401.393 52.5864C401.283 52.7894 401.165 53.0042 401.039 53.2306C400.906 53.4649 400.768 53.7069 400.626 53.9568C400.343 54.48 399.857 54.9873 399.167 55.4788C398.454 55.9859 397.684 56.2391 396.856 56.2383C395.613 56.2371 394.681 55.9549 394.058 55.3918C393.435 54.8365 393.125 54.2346 393.128 53.5862C393.131 52.8284 393.371 52.2934 393.849 51.9814C394.335 51.6616 394.801 51.1698 395.249 50.5062C395.697 49.8347 396.048 48.964 396.303 47.8939C396.565 46.816 397.094 46.2775 397.891 46.2782ZM426.298 34.048L426.277 39.3918C426.269 41.5012 425.911 42.9852 425.205 43.8439C424.498 44.7026 423.735 45.1316 422.915 45.1308C422.016 45.1299 421.569 44.4849 421.575 43.1958C421.577 42.6099 421.97 41.9853 422.754 41.322C423.538 40.6586 423.931 39.9754 423.934 39.2723L423.951 34.866C423.955 33.8113 423.177 33.123 421.616 32.8012L424.988 27.5544C425.913 28.6803 426.805 29.2437 427.665 29.2445C428.204 29.2451 428.732 29.0229 429.249 28.5781C429.245 29.5469 428.922 30.3747 428.279 31.0616C427.98 31.3816 427.613 31.5414 427.175 31.541C426.644 31.5405 426 31.3094 425.244 30.8477L424.561 31.8431C425.723 32.4068 426.302 33.1417 426.298 34.048ZM433.258 52.1722L433.326 34.8751C433.33 33.8204 432.552 33.1322 430.99 32.8103L434.363 27.5636C435.889 28.8385 436.996 29.4763 437.683 29.477C437.816 29.4771 437.933 29.4538 438.035 29.407C437.874 30.5241 437.512 31.1761 436.949 31.363C436.816 31.4019 436.691 31.4214 436.574 31.4212C436.05 31.4207 435.36 31.1154 434.503 30.5051L433.82 31.5006C435.059 32.1424 435.677 32.9946 435.673 34.0571L435.601 52.1745C435.59 54.9089 434.218 56.2748 431.484 56.2721L427.968 56.2687C425.234 56.266 423.872 54.8975 423.883 52.163L423.895 49.1161C423.899 48.0224 424.487 47.4761 425.659 47.4772C426.831 47.4784 427.415 47.8696 427.412 48.6508C427.409 49.4321 427.017 49.8223 426.236 49.8216L426.226 52.1653C426.222 53.3372 426.805 53.9237 427.977 53.9249L431.493 53.9283C432.665 53.9295 433.253 53.3441 433.258 52.1722ZM25.1815 70.8485C25.3687 70.9268 25.4616 71.1417 25.4602 71.4933C25.4576 72.1574 25.0935 73.3445 24.368 75.0548L22.7239 78.9087L20.0628 79.1756L20.1522 80.2773L21.3598 80.1261C21.4223 80.1184 21.4809 80.1145 21.5356 80.1146C21.5981 80.1068 21.6567 80.103 21.7114 80.103C22.3051 80.1036 22.6402 80.3188 22.7167 80.7486C22.7243 80.7876 22.728 80.8384 22.7278 80.9009C22.7261 81.315 22.3814 81.5686 21.6935 81.6616L19.372 81.9758C19.3173 81.9835 19.2392 81.9874 19.1376 81.9873C18.5126 81.9867 18.1626 81.6074 18.0875 80.8495L17.8515 78.2828C17.8439 78.2281 17.8403 78.1461 17.8408 78.0367C17.8435 77.3414 18.1888 76.955 18.8766 76.8776L21.3151 76.5987L22.8272 73.5415C23.7249 71.7221 24.4473 70.8126 24.9941 70.8131C25.0644 70.8132 25.1269 70.825 25.1815 70.8485ZM21.3195 87.3449L21.2898 94.8802C21.287 95.5833 21.6749 96.2673 22.4535 96.9321C23.2321 97.5969 23.6203 98.2223 23.6179 98.8083C23.6129 100.097 23.1611 100.741 22.2627 100.741C21.7158 100.74 21.1851 100.599 20.6706 100.317C20.164 100.035 19.7479 99.5545 19.4225 98.8745C19.0971 98.1867 18.9367 97.2451 18.9415 96.0498L18.9924 83.159L20.0002 83.16C21.5945 84.9741 22.7315 85.8815 23.4112 85.8821C23.4893 85.8822 23.5753 85.8627 23.6692 85.8238C23.5086 86.9408 23.1466 87.5928 22.5834 87.7798C22.5052 87.8031 22.427 87.8148 22.3489 87.8147C22.0442 87.8144 21.7011 87.6578 21.3195 87.3449ZM31.9883 86.1014L30.0011 87.8104L31.8099 89.7224C32.3854 90.3714 32.6721 90.985 32.6698 91.5631C32.6675 92.149 32.4388 92.6918 31.9837 93.1914L30.0656 95.2051C30.4595 96.354 31.1243 97.1671 32.0598 97.6446L35.6214 94.9059L38.4218 97.9438C38.7421 97.9441 39.1067 97.6046 39.5156 96.9253C39.9168 96.246 40.325 95.7386 40.7404 95.4031C41.1558 95.0675 41.5353 94.8999 41.8791 94.9003C42.215 94.9006 42.3816 95.2367 42.379 95.9086C42.3773 96.3226 42.2622 96.803 42.0334 97.3497C41.8047 97.8963 41.4979 98.4312 41.1131 98.9543C40.736 99.4695 40.3125 99.8988 39.8424 100.242C39.3801 100.585 38.9107 100.757 38.4341 100.756C37.9263 100.756 36.8514 99.9501 35.2094 98.3391L32.0945 100.75C31.7195 100.75 31.3099 100.601 30.8658 100.304C30.4216 100.006 29.9818 99.6231 29.5461 99.1539C29.1105 98.6769 28.7102 98.1648 28.3452 97.6176C27.9802 97.0625 27.6894 96.5271 27.4727 96.0112C27.2559 95.4954 27.1483 95.0539 27.1498 94.6867L30.1849 91.7013L28.051 89.0273C27.4677 88.3549 27.1767 87.8624 27.178 87.5499C27.1792 87.2452 27.5443 86.7651 28.2735 86.1095L28.7909 85.6413L30.7196 83.9088C31.2606 83.4171 31.6561 83.1714 31.9061 83.1716C32.1561 83.1719 32.7639 83.5631 33.7295 84.3453C34.6795 85.1275 36.053 85.5194 37.8498 85.5212C39.3341 85.5226 40.0792 84.7968 40.0849 83.3437C40.0881 82.5312 39.8956 81.8122 39.5075 81.1868C39.3833 80.9914 39.3214 80.8273 39.322 80.6944C39.3231 80.3976 39.6206 80.2494 40.2143 80.25C41.6986 80.2514 42.4367 81.2834 42.4286 83.346C42.4167 86.3616 40.8873 87.8679 37.8405 87.865C35.6375 87.8628 33.6867 87.275 31.9883 86.1014ZM61.1532 89.669L56.4805 85.9495L51.7784 89.6599L51.7568 95.1443C51.7555 95.4568 52.1598 95.9533 52.9696 96.6338C53.5458 97.1265 53.8325 97.7127 53.8298 98.3924C53.8289 98.6346 53.7848 98.908 53.6977 99.2126C53.3811 100.251 52.8517 100.77 52.1095 100.77C51.3674 100.769 50.7279 100.475 50.1912 99.8889C49.6623 99.3025 49.4 98.4623 49.4043 97.3686L49.4329 90.1263C49.4368 89.1497 49.7326 88.4235 50.3204 87.9475L56.4914 83.1956L62.6247 87.9595C62.983 88.2489 63.3137 88.5852 63.6168 88.9683C63.9278 89.3436 64.1802 89.7227 64.374 90.1057C64.5679 90.4809 64.6642 90.8209 64.663 91.1256C64.66 91.8678 64.3762 92.5316 63.8114 93.117L61.8698 95.1424C62.5601 96.4244 63.5752 97.523 64.9153 98.4384L69.2043 98.4426C70.4645 97.8188 71.2894 96.6477 71.679 94.9293L71.6964 90.523C71.3881 89.4602 70.3753 88.7717 68.6578 88.4576L72.4987 83.2112C74.1499 84.4863 75.3349 85.1242 76.0536 85.1249C76.1864 85.125 76.3037 85.1017 76.4054 85.0549C76.2448 86.172 75.9219 86.824 75.4368 87.011C75.3194 87.05 75.2022 87.0694 75.085 87.0693C74.5538 87.0688 73.7386 86.7633 72.6395 86.1528L71.721 87.2652C73.1247 87.915 73.898 88.9236 74.0411 90.291L74.0227 94.9316C73.6979 98.0564 72.0886 100.008 69.195 100.786L64.9061 100.782C64.203 100.782 63.5123 100.586 62.8342 100.194C62.1639 99.7951 61.5449 99.2828 60.9771 98.6572C60.4092 98.0317 59.9353 97.3593 59.5554 96.6402C59.1754 95.9211 58.9281 95.2372 58.8135 94.5887L62.1781 91.2638L62.1782 91.2521C62.1803 90.7208 61.8386 90.1931 61.1532 89.669ZM84.5161 93.5708L82.3512 95.7718C82.9643 96.8037 83.9491 97.6992 85.3054 98.4583L89.8287 98.4627C91.4015 97.8393 92.3826 96.6683 92.7722 94.9499L92.7896 90.5436C92.4813 89.4808 91.4684 88.7923 89.751 88.4781L93.5919 83.2318C95.2431 84.5069 96.428 85.1448 97.1468 85.1455C97.2796 85.1456 97.3969 85.1223 97.4986 85.0755C97.338 86.1925 97.0151 86.8446 96.53 87.0316C96.4126 87.0706 96.2954 87.09 96.1782 87.0899C95.6469 87.0893 94.8318 86.7839 93.7326 86.1734L92.8142 87.2858C94.2179 87.9356 94.9912 88.9442 95.1342 90.3115L95.1159 94.9522C94.7911 98.0691 93.0256 100.021 89.8195 100.807L85.2961 100.802C84.8274 100.802 84.2773 100.637 83.6458 100.308C83.0143 99.9717 82.3872 99.5297 81.7643 98.9822C81.1415 98.4347 80.6009 97.8326 80.1426 97.1759C79.6921 96.5192 79.4095 95.8666 79.2949 95.218L82.917 91.9871C82.0797 90.3457 80.8808 89.2898 79.3202 88.8195L83.1625 83.2216C85.0168 84.4969 86.315 85.1349 87.0572 85.1356C87.1978 85.1358 87.319 85.1124 87.4208 85.0657C87.2601 86.1827 86.8982 86.8347 86.3349 87.0217C86.202 87.0606 86.0691 87.08 85.9363 87.0799C85.3425 87.0793 84.4649 86.7737 83.3032 86.1632L82.1486 87.7441C83.1692 88.4561 83.9671 89.1717 84.5424 89.891C85.1177 90.6104 85.4041 91.263 85.4018 91.8489C85.3995 92.4349 85.1043 93.0088 84.5161 93.5708ZM104.848 78.5669L105.048 78.5671C105.743 78.6538 106.089 78.8846 106.088 79.2596L106.088 79.3065C106.086 79.6815 106.241 79.9511 106.553 80.1155C106.857 80.2799 107.443 80.3625 108.31 80.3633C108.849 80.3638 109.338 80.2432 109.776 80.0015C110.215 79.7519 110.603 79.4359 110.94 79.0534C111.278 78.6631 111.568 78.2532 111.812 77.8237C112.064 77.3943 112.268 76.9999 112.426 76.6407C112.615 76.2034 112.773 75.7426 112.9 75.2584C113.035 74.7741 113.185 74.3602 113.351 74.0166C113.516 73.673 113.735 73.5013 114.009 73.5016C114.438 73.502 114.652 73.9202 114.648 74.7561C114.645 75.5843 114.469 76.6193 114.12 77.8611C113.883 78.689 113.505 79.4621 112.986 80.1804C112.468 80.8986 111.817 81.48 111.034 81.9246C110.251 82.3691 109.34 82.5909 108.301 82.5899C107.575 82.5892 106.868 82.4752 106.181 82.248C105.503 82.0208 104.945 81.6882 104.51 81.2503C104.074 80.8123 103.857 80.2809 103.86 79.6558C103.925 78.9293 104.255 78.5664 104.848 78.5669ZM125.023 88.7469L119.983 85.8709L116.032 89.289C115.74 90.1871 115.148 90.6358 114.258 90.6349C112.945 90.6336 112.275 90.2423 112.247 89.461L112.247 89.3439C112.25 88.6407 112.525 88.2894 113.071 88.29C113.642 88.2905 113.928 88.1033 113.929 87.7283L113.929 87.7166C113.923 87.3494 113.53 86.8998 112.751 86.3677C111.995 85.8514 111.094 85.5927 110.047 85.5917L107.528 85.5892C106.34 85.588 105.118 86.4814 103.861 88.2692C104.266 88.5196 104.671 88.856 105.076 89.2783C105.48 89.6927 105.818 90.1306 106.09 90.5918C106.362 91.053 106.497 91.4789 106.495 91.8695C106.493 92.4555 106.197 93.0294 105.609 93.5913L103.774 95.5115C104.167 96.7384 104.754 97.5906 105.533 98.0679L109.447 94.9779L112.248 98.0158C112.568 98.0162 112.933 97.7548 113.341 97.2317C113.608 96.8804 113.879 96.533 114.154 96.1896C114.428 95.8383 114.699 95.5495 114.966 95.3231C115.232 95.089 115.479 94.9721 115.705 94.9723C116.041 94.9726 116.208 95.3087 116.205 95.9806C116.204 96.3166 116.089 96.754 115.86 97.2928C115.631 97.8316 115.325 98.3704 114.94 98.9091C114.563 99.4478 114.139 99.9044 113.669 100.279C113.206 100.646 112.737 100.829 112.26 100.828C111.745 100.828 110.748 99.9441 109.271 98.177L105.921 100.822C105.452 100.822 104.933 100.634 104.364 100.258C103.795 99.8748 103.254 99.3821 102.741 98.78C102.228 98.1701 101.805 97.5135 101.472 96.81C101.139 96.0987 100.973 95.415 100.976 94.7587L104.01 92.0077C103.274 90.5617 102.27 89.5685 100.999 89.0282C101.001 88.3719 101.344 87.5949 102.027 86.6971C103.747 84.3941 105.584 83.2435 107.537 83.2454L110.056 83.2479C111.744 83.2495 113.199 83.665 114.422 84.4943C115.124 84.9716 115.618 85.5229 115.904 86.1482C118.271 84.2208 119.658 83.2572 120.064 83.2576C120.533 83.2581 122.968 84.6667 127.371 87.4836L127.323 99.6712C127.32 100.452 127.002 100.843 126.369 100.842C125.947 100.842 125.491 100.744 124.999 100.548C124.508 100.352 124.087 100.082 123.737 99.738C123.395 99.3939 123.224 99.007 123.226 98.5773C123.228 97.9289 123.524 97.3237 124.112 96.7618C124.7 96.1998 124.995 95.6064 124.998 94.9814L125.023 88.7469ZM109.132 106.603L109.124 108.63C108.75 110.403 107.523 111.511 105.443 111.955L102.49 111.952C102.185 111.952 101.83 111.861 101.425 111.681C101.011 111.501 100.602 111.247 100.197 110.918C99.7923 110.59 99.4423 110.203 99.1472 109.757C98.8442 109.319 98.6547 108.839 98.5787 108.315L100.495 106.665C100.256 105.93 99.6213 105.426 98.5912 105.151L101.1 101.989C102.3 102.702 103.146 103.058 103.638 103.058C103.74 103.058 103.818 103.047 103.873 103.023C103.838 103.828 103.696 104.347 103.445 104.582C103.343 104.667 103.198 104.71 103.011 104.71C102.675 104.71 102.203 104.588 101.594 104.345L101.241 104.767C101.701 105.033 102.114 105.346 102.479 105.706C102.845 106.073 103.027 106.425 103.026 106.761C103.025 107.089 102.362 107.709 101.038 108.622L102.499 109.608L105.452 109.611L106.78 108.628L106.79 106.132C106.792 105.64 106.727 105.315 106.595 105.159C106.423 105.104 106.338 105.006 106.338 104.866C106.339 104.725 106.433 104.604 106.621 104.503C109.401 102.833 110.939 101.999 111.236 101.999C111.549 102 113.194 102.798 116.172 104.395L116.145 111.297C116.143 111.742 115.931 111.965 115.509 111.965C115.298 111.964 115.033 111.933 114.713 111.87C114.393 111.807 114.077 111.717 113.765 111.6C113.445 111.482 113.18 111.345 112.969 111.189C112.751 111.032 112.642 110.86 112.643 110.673C112.645 110.305 112.837 109.966 113.221 109.654C113.613 109.334 113.81 108.994 113.811 108.635L113.823 105.635L111.191 104.413L108.701 105.946C108.989 106.142 109.133 106.361 109.132 106.603ZM157.248 88.7784L152.209 85.9023L148.458 89.1448L148.416 99.6918C148.413 100.473 148.095 100.863 147.462 100.863C147.041 100.862 146.584 100.764 146.093 100.568C145.601 100.373 145.18 100.103 144.83 99.7586C144.488 99.4145 144.317 99.0276 144.319 98.5979C144.322 97.9495 144.617 97.3443 145.205 96.7824C145.793 96.2204 146.089 95.627 146.091 95.002L146.119 87.9355L144.238 86.3867L141.418 88.3176L138.614 86.3813L136.744 87.9263L136.722 93.5162C136.974 93.1727 137.392 93.0013 137.978 93.0018C140.033 93.0038 141.056 94.0595 141.048 96.1689C141.044 96.9736 140.877 97.7352 140.546 98.4536C140.223 99.1643 139.807 99.742 139.297 100.187C138.796 100.632 138.267 100.854 137.713 100.853C137.338 100.853 136.952 100.724 136.554 100.465C136.165 100.199 135.803 99.8514 135.468 99.4213C135.134 98.9913 134.866 98.5223 134.665 98.0143C134.464 97.5063 134.365 97.0062 134.367 96.514L134.402 87.549C134.404 86.9475 134.747 86.3619 135.428 85.7922L138.462 83.2756L141.43 85.3645L144.403 83.2814L147.428 85.8039C147.654 85.9916 147.829 86.1637 147.953 86.3201C150.43 84.299 151.876 83.2887 152.29 83.2891C152.758 83.2895 155.194 84.6982 159.597 87.515L159.549 99.7027C159.546 100.484 159.228 100.874 158.595 100.874C158.173 100.873 157.716 100.775 157.225 100.579C156.734 100.384 156.313 100.114 155.963 99.7695C155.62 99.4254 155.45 99.0385 155.452 98.6088C155.454 97.9604 155.75 97.3552 156.338 96.7932C156.926 96.2313 157.221 95.6378 157.224 95.0128L157.248 88.7784ZM136.71 96.5163C136.862 97.6102 137.199 98.2746 137.722 98.5095C137.909 98.5096 138.078 98.377 138.227 98.1115C138.377 97.8382 138.491 97.518 138.571 97.1509C138.658 96.7838 138.703 96.4557 138.704 96.1666C138.706 95.5416 138.461 95.2289 137.969 95.2284C137.133 95.2276 136.714 95.6569 136.71 96.5163ZM157.183 105.232C157.185 104.669 156.804 104.388 156.038 104.387C155.366 104.386 155.032 103.995 155.035 103.214C155.038 102.433 155.376 102.042 156.047 102.043C158.375 102.045 159.535 103.109 159.527 105.234C159.522 106.586 158.712 107.761 157.099 108.759C155.486 109.75 152.55 110.243 148.293 110.239C146.277 110.237 144.485 110.047 142.916 109.671C141.355 109.294 139.936 108.695 138.658 107.874C137.387 107.052 136.169 105.977 135.002 104.648C134.559 104.186 134.338 103.729 134.34 103.276C134.342 102.83 134.721 102.608 135.479 102.609C136.229 102.61 136.771 102.833 137.105 103.278C137.962 104.115 138.791 104.827 139.593 105.414C140.395 106 141.226 106.474 142.083 106.834C142.941 107.202 143.874 107.469 144.881 107.634C145.896 107.807 147.036 107.894 148.302 107.895C151.81 107.898 154.166 107.608 155.372 107.023C156.577 106.43 157.181 105.833 157.183 105.232ZM180.69 87.5942L180.642 99.7232C180.639 100.504 180.321 100.895 179.688 100.894C179.266 100.894 178.81 100.796 178.318 100.6C177.827 100.404 177.406 100.134 177.056 99.79C176.713 99.446 176.543 99.0591 176.545 98.6294C176.547 97.9809 176.843 97.3757 177.431 96.8138C178.019 96.2519 178.314 95.6584 178.317 95.0334L178.345 87.9669L176.464 86.4182L173.644 88.3491L170.839 86.4127L168.97 87.9578L168.948 93.5477C169.199 93.2042 169.618 93.0327 170.204 93.0333C172.258 93.0353 173.282 94.091 173.273 96.2004C173.27 97.0051 173.103 97.7666 172.772 98.4851C172.449 99.1957 172.033 99.7734 171.523 100.218C171.021 100.663 170.493 100.885 169.938 100.885C169.563 100.884 169.177 100.755 168.78 100.497C168.39 100.231 168.028 99.8828 167.694 99.4528C167.36 99.0228 167.092 98.5537 166.891 98.0457C166.69 97.5377 166.59 97.0376 166.592 96.5454L166.628 87.5805C166.63 86.9789 166.972 86.3933 167.654 85.8236L170.687 83.307L173.656 85.3959L176.629 83.3128L179.654 85.8354C180.347 86.4142 180.692 87.0005 180.69 87.5942ZM168.936 96.5477C169.088 97.6416 169.425 98.306 169.948 98.5409C170.135 98.5411 170.304 98.4084 170.453 98.143C170.603 97.8697 170.717 97.5495 170.797 97.1823C170.884 96.8152 170.928 96.4871 170.93 96.1981C170.932 95.5731 170.687 95.2603 170.195 95.2599C169.359 95.259 168.939 95.6883 168.936 96.5477ZM180.28 72.7694L180.258 78.2421C180.256 78.8905 179.688 79.2142 178.555 79.2131L169.708 79.2045C167.989 79.2028 167.131 78.8113 167.134 78.0301C167.137 77.2488 167.375 76.4678 167.847 75.687L169.262 73.3446C169.734 72.5638 170.169 72.1736 170.567 72.174C170.958 72.1743 171.461 72.3467 172.077 72.6911L177.923 75.9898L177.936 72.7671C177.939 71.9858 178.331 71.5956 179.112 71.5963C179.894 71.5971 180.283 71.9881 180.28 72.7694ZM175.107 76.866L170.874 74.7641L169.717 76.8607L175.107 76.866ZM190.121 73.3649L189.994 105.592C191.167 107.163 192.568 108.532 194.196 109.698L202.165 109.705C203.731 108.59 204.876 107.579 205.598 106.673C205.952 106.221 206.312 105.994 206.679 105.995C206.913 105.995 207.144 106.081 207.369 106.253C207.65 106.449 207.79 106.707 207.788 107.027C207.787 107.394 207.594 107.832 207.209 108.339C206.306 109.502 204.856 110.739 202.858 112.05L193.484 112.041C191.146 110.476 189.201 108.521 187.648 106.175L187.779 72.7767C189.351 70.4344 191.312 68.4832 193.662 66.923L203.037 66.9321C205.024 68.2466 206.464 69.4863 207.358 70.6512C207.739 71.1594 207.928 71.5971 207.927 71.9643C207.926 72.2768 207.784 72.5345 207.502 72.7373C207.275 72.909 207.044 72.9947 206.809 72.9945C206.442 72.9941 206.084 72.7672 205.734 72.3137C205.019 71.4068 203.882 70.3939 202.324 69.2752L194.356 69.2674C192.718 70.4299 191.307 71.7958 190.121 73.3649ZM200.529 93.684L198.364 95.885C198.977 96.9169 199.962 97.8124 201.318 98.5715L205.841 98.5759C207.414 97.9525 208.395 96.7815 208.785 95.0631L208.802 90.6568C208.494 89.594 207.481 88.9055 205.763 88.5913L209.604 83.345C211.256 84.6201 212.441 85.258 213.159 85.2587C213.292 85.2588 213.409 85.2355 213.511 85.1887C213.35 86.3057 213.028 86.9578 212.542 87.1448C212.425 87.1838 212.308 87.2032 212.191 87.2031C211.659 87.2025 210.844 86.8971 209.745 86.2866L208.827 87.399C210.23 88.0488 211.004 89.0574 211.147 90.4247L211.128 95.0654C210.804 98.1823 209.038 100.134 205.832 100.92L201.309 100.915C200.84 100.915 200.29 100.75 199.658 100.421C199.027 100.085 198.4 99.6429 197.777 99.0954C197.154 98.5479 196.613 97.9458 196.155 97.2891C195.705 96.6324 195.422 95.9798 195.307 95.3312L198.929 92.1003C198.092 90.4589 196.893 89.403 195.333 88.9327L199.175 83.3348C201.029 84.6101 202.328 85.2481 203.07 85.2488C203.21 85.249 203.332 85.2256 203.433 85.1789C203.273 86.2959 202.911 86.9479 202.347 87.1349C202.214 87.1738 202.082 87.1932 201.949 87.1931C201.355 87.1925 200.477 86.8869 199.316 86.2764L198.161 87.8574C199.182 88.5693 199.98 89.2849 200.555 90.0042C201.13 90.7236 201.417 91.3762 201.414 91.9621C201.412 92.5481 201.117 93.122 200.529 93.684ZM256.852 89.6725L256.812 99.7976C256.809 100.579 256.491 100.969 255.858 100.969C255.436 100.968 254.979 100.87 254.488 100.674C253.997 100.478 253.576 100.208 253.226 99.8644C252.883 99.5203 252.713 99.1334 252.715 98.7037C252.717 98.0553 253.013 97.4501 253.601 96.8881C254.189 96.3262 254.484 95.7327 254.487 95.1077L254.506 90.1624L248.756 86.2661L243.457 89.718L245.136 91.8876C245.564 92.3724 245.776 93.0015 245.773 93.775C245.771 94.3062 245.671 94.8882 245.473 95.5208C245.141 96.583 244.684 97.524 244.103 98.3437C243.522 99.1635 242.89 99.8035 242.209 100.264C241.527 100.724 240.866 100.954 240.226 100.953C239.319 100.952 238.01 100.068 236.299 98.301L233.3 100.947C232.925 100.946 232.5 100.817 232.024 100.559C231.549 100.3 231.07 99.956 230.587 99.5259C230.104 99.0957 229.657 98.6148 229.245 98.0831C228.833 97.5515 228.503 97.0082 228.255 96.4532C228.008 95.8983 227.885 95.3747 227.887 94.8826L231.01 90.2918L225.588 86.3607L220.524 89.6956L220.502 95.3089C220.501 95.6214 220.905 96.1179 221.715 96.7984C222.291 97.2912 222.578 97.8774 222.575 98.5571C222.574 98.7993 222.53 99.0727 222.443 99.3773C222.127 100.416 221.597 100.935 220.855 100.934C220.113 100.934 219.473 100.64 218.937 100.054C218.408 99.4671 218.145 98.627 218.15 97.5332L218.182 89.33C218.185 88.6113 218.825 87.8424 220.101 87.0233L225.834 83.3609C230.899 86.8737 233.551 88.9192 233.79 89.4976C233.876 89.7086 233.918 89.9196 233.917 90.1306C233.915 90.5837 233.745 91.0835 233.407 91.6301L230.684 95.6353C231.406 96.8704 232.149 97.7227 232.912 98.1922L236.827 94.985C238.568 97.4008 239.696 98.609 240.211 98.6095C240.532 98.6098 241.1 98.1338 241.916 97.1814C242.725 96.2369 243.191 94.9326 243.314 93.2687L240.725 90.1138C241.019 88.8718 241.789 87.8491 243.034 87.0457L248.767 83.3832L254.46 86.9748C255.73 87.7729 256.485 88.4651 256.725 89.0512C256.795 89.231 256.837 89.4381 256.852 89.6725ZM256.45 72.8437L256.428 78.3164C256.425 78.9649 255.858 79.2885 254.725 79.2874L245.877 79.2788C244.159 79.2771 243.301 78.8856 243.304 78.1044C243.307 77.3231 243.545 76.5421 244.016 75.7613L245.432 73.4189C245.904 72.6381 246.339 72.2479 246.737 72.2483C247.128 72.2487 247.631 72.421 248.247 72.7654L254.093 76.0641L254.106 72.8414C254.109 72.0602 254.501 71.6699 255.282 71.6707C256.064 71.6714 256.453 72.0624 256.45 72.8437ZM251.277 76.9403L247.043 74.8385L245.887 76.935L251.277 76.9403ZM264.742 88.6606L262.723 86.7367L262.725 86.0922L265.663 84.1029C266.321 83.6347 266.79 83.4008 267.072 83.4011C267.376 83.4014 268.652 83.8167 270.899 84.647C272.753 83.8207 273.833 83.4077 274.138 83.408C274.419 83.4083 274.981 83.6432 275.823 84.1128C276.641 84.5901 277.744 85.06 279.133 85.5223C278.41 86.6622 277.744 87.2319 277.134 87.2313C277.033 87.2312 276.924 87.2115 276.806 87.1724C276.12 86.9451 275.188 86.4442 274.012 85.6696L270.889 87.1432L267.285 85.8623L265.499 87.0441L266.081 87.9822L264.742 88.6606ZM270.913 90.0026L266.216 92.3301L266.209 94.1113C266.46 93.7678 266.879 93.5964 267.465 93.5969C269.52 93.5989 270.543 94.6546 270.534 96.764C270.533 97.2094 270.437 97.678 270.248 98.17C270.058 98.662 269.802 99.1227 269.48 99.5521C269.166 99.9737 268.809 100.317 268.41 100.582C268.018 100.848 267.615 100.98 267.201 100.98C266.826 100.979 266.44 100.842 266.043 100.568C265.653 100.294 265.291 99.9504 264.957 99.536C264.623 99.1216 264.355 98.6955 264.154 98.2578C263.952 97.8201 263.852 97.4372 263.853 97.1091L263.875 91.7418C263.877 91.1325 264.172 90.6757 264.759 90.3716L270.923 87.3893L277.063 90.3836C277.648 90.6889 277.939 91.1462 277.937 91.7556L277.905 99.8181C277.902 100.599 277.584 100.99 276.951 100.989C276.529 100.989 276.073 100.891 275.581 100.695C275.09 100.499 274.669 100.229 274.319 99.885C273.976 99.5409 273.806 99.154 273.808 98.7243C273.81 98.0758 274.106 97.4707 274.694 96.9087C275.282 96.3468 275.577 95.7533 275.58 95.1283L275.591 92.3392L270.913 90.0026ZM266.197 97.1114C266.343 97.8928 266.68 98.4009 267.211 98.6358C267.492 98.6361 267.723 98.4332 267.904 98.0271C268.094 97.621 268.189 97.1993 268.191 96.7617C268.193 96.1367 267.948 95.824 267.456 95.8235C266.62 95.8227 266.201 96.252 266.197 97.1114ZM297.226 88.5751L291.566 85.7688L286.647 87.9671L287.171 88.8231L285.832 89.5015L283.813 87.5776L283.815 86.898C288.504 84.5822 291.083 83.4245 291.551 83.425C292.02 83.4254 293.915 84.2711 297.237 85.9618C300.07 84.5114 301.702 83.7279 302.132 83.6111C302.555 83.4943 302.801 83.436 302.871 83.436C302.957 83.4361 303.203 83.5067 303.609 83.6477C304.007 83.7887 306.197 85.0096 310.18 87.3104L310.131 99.8496C310.128 100.631 309.81 101.021 309.177 101.021C308.755 101.02 308.298 100.922 307.807 100.726C307.316 100.53 306.895 100.261 306.545 99.9164C306.202 99.5723 306.032 99.1854 306.033 98.7557C306.036 98.1073 306.331 97.5021 306.92 96.9402C307.508 96.3782 307.803 95.7848 307.805 95.1598L307.831 88.5738L302.615 85.9553L297.226 88.5751ZM287.943 92.0583C288.52 92.4807 288.806 93.1178 288.803 93.9693L288.794 96.3131C288.787 97.9537 288.513 99.1449 287.971 99.8866C287.437 100.628 286.799 100.999 286.056 100.998C284.916 100.997 284.348 100.231 284.355 98.6994C285.748 98.0445 286.447 96.9358 286.454 95.3733L286.459 93.967C286.462 93.1233 285.965 92.3884 284.968 91.7624C284.97 91.153 285.265 90.6963 285.852 90.3922L292.016 87.4099L298.157 90.4042C298.741 90.7094 299.032 91.1668 299.03 91.7761L298.998 99.8387C298.995 100.62 298.677 101.01 298.044 101.01C297.622 101.009 297.166 100.911 296.674 100.715C296.183 100.52 295.762 100.25 295.412 99.9055C295.07 99.5615 294.899 99.1746 294.901 98.7449C294.904 98.0964 295.199 97.4912 295.787 96.9293C296.375 96.3674 296.67 95.7739 296.673 95.1489L296.684 92.3598L292.006 90.0232L287.943 92.0583ZM331.272 87.7411L331.224 99.8702C331.221 100.651 330.903 101.042 330.27 101.041C329.848 101.041 329.391 100.943 328.9 100.747C328.409 100.551 327.988 100.281 327.638 99.937C327.295 99.5929 327.125 99.206 327.127 98.7763C327.129 98.1279 327.425 97.5227 328.013 96.9608C328.601 96.3988 328.896 95.8053 328.899 95.1803L328.927 88.1139L327.046 86.5651L324.226 88.496L321.421 86.5596L319.552 88.1047L319.53 93.6946C319.781 93.3511 320.2 93.1796 320.786 93.1802C322.84 93.1822 323.863 94.2379 323.855 96.3473C323.852 97.152 323.685 97.9136 323.354 98.632C323.031 99.3426 322.614 99.9204 322.105 100.365C321.603 100.81 321.075 101.032 320.52 101.032C320.145 101.031 319.759 100.902 319.362 100.644C318.972 100.378 318.61 100.03 318.276 99.5997C317.942 99.1697 317.674 98.7007 317.473 98.1927C317.272 97.6847 317.172 97.1846 317.174 96.6924L317.21 87.7274C317.212 87.1259 317.554 86.5402 318.236 85.9706L321.269 83.454L324.238 85.5428L327.211 83.4598L330.236 85.9823C330.929 86.5611 331.274 87.1474 331.272 87.7411ZM319.518 96.6946C319.67 97.7886 320.007 98.453 320.53 98.6878C320.717 98.688 320.886 98.5554 321.035 98.2899C321.184 98.0166 321.299 97.6964 321.379 97.3293C321.466 96.9622 321.51 96.6341 321.511 96.345C321.514 95.72 321.269 95.4073 320.777 95.4068C319.941 95.406 319.521 95.8353 319.518 96.6946ZM335.134 71.1509C335.197 71.1276 335.259 71.1159 335.322 71.116C335.869 71.1165 336.584 72.0274 337.467 73.8486L338.955 76.9086L341.391 77.1923C342.078 77.2711 342.421 77.6581 342.418 78.3535C342.418 78.4628 342.413 78.5449 342.405 78.5995L342.149 81.1657C342.068 81.9235 341.715 82.302 341.09 82.3014C340.988 82.3013 340.91 82.2973 340.856 82.2895L338.537 81.9708C337.849 81.8764 337.507 81.6221 337.508 81.2081C337.509 81.1456 337.513 81.0948 337.521 81.0557C337.6 80.6261 337.937 80.4116 338.531 80.4122C338.586 80.4122 338.64 80.4162 338.695 80.4241C338.757 80.4241 338.82 80.4281 338.882 80.436L340.089 80.5895L340.187 79.488L337.528 79.2159L335.914 75.3588C335.202 73.6471 334.848 72.4593 334.85 71.7952C334.852 71.4436 334.946 71.2289 335.134 71.1509ZM340.647 87.6565L340.617 95.1918C340.614 95.8949 341.002 96.5789 341.781 97.2437C342.559 97.9086 342.948 98.5339 342.945 99.1199C342.94 100.409 342.488 101.053 341.59 101.052C341.043 101.052 340.512 100.911 339.998 100.629C339.491 100.347 339.075 99.8661 338.75 99.1861C338.424 98.4983 338.264 97.5567 338.269 96.3614L338.32 83.4706L339.327 83.4716C340.922 85.2857 342.059 86.1931 342.739 86.1937C342.817 86.1938 342.903 86.1743 342.997 86.1354C342.836 87.2524 342.474 87.9044 341.911 88.0914C341.833 88.1147 341.754 88.1264 341.676 88.1263C341.372 88.126 341.028 87.9694 340.647 87.6565ZM351.926 98.1325L350.566 98.1312L350.56 99.5961C350.557 100.573 350.164 101.061 349.383 101.06C348.867 101.059 348.387 100.867 347.944 100.484C347.5 100.101 347.142 99.6162 346.871 99.03C346.6 98.4359 346.466 97.8225 346.468 97.1897C346.472 96.2522 347.06 95.784 348.232 95.7852L348.253 90.5117C347.868 89.0503 347.285 88.3154 346.504 88.3068C346.508 87.2287 346.788 86.5375 347.344 86.2334C352.015 84.402 354.456 83.4864 354.667 83.4866C354.87 83.4868 356.913 84.4067 360.796 86.2465C361.428 86.5518 361.743 87.0091 361.74 87.6185L361.736 88.6498C361.728 90.6811 361.041 91.696 359.673 91.6947C358.306 91.6934 357.624 91.3021 357.627 90.5208C357.63 89.7396 357.925 89.3492 358.511 89.3498C359.097 89.3504 359.391 88.9678 359.394 88.2022C356.44 86.6446 354.861 85.8657 354.658 85.8655C354.47 85.8653 352.71 86.5511 349.376 87.9229C350.195 88.2831 350.602 89.1467 350.596 90.5139L350.575 95.7874L351.9 95.7887C353.462 95.7903 354.674 96.5219 355.535 97.9837C355.83 98.4762 356.364 98.7228 357.138 98.7236C357.685 98.7241 358.194 98.4824 358.664 97.9985C358.939 97.7097 359.213 97.3935 359.488 97.0501C359.771 96.7066 360.049 96.4139 360.324 96.172C360.598 95.9222 360.864 95.7975 361.122 95.7977C361.513 95.7981 361.707 96.1342 361.704 96.8061C361.703 97.1421 361.568 97.5521 361.301 98.0362C361.041 98.5125 360.691 98.9849 360.252 99.4532C359.813 99.9137 359.323 100.3 358.783 100.612C358.25 100.916 357.707 101.068 357.152 101.067C355.816 101.066 354.756 100.456 353.972 99.2361C353.506 98.5013 352.824 98.1334 351.926 98.1325ZM377.926 90.0015L377.905 95.3453C377.896 97.4547 377.539 98.9388 376.832 99.7975C376.126 100.656 375.363 101.085 374.542 101.084C373.644 101.083 373.197 100.438 373.202 99.1494C373.205 98.5635 373.598 97.9388 374.382 97.2755C375.165 96.6122 375.559 95.929 375.561 95.2259L375.579 90.8196C375.583 89.7649 374.805 89.0766 373.243 88.7548L376.616 83.508C377.541 84.6339 378.433 85.1973 379.292 85.1981C379.831 85.1987 380.36 84.9765 380.877 84.5317C380.873 85.5005 380.55 86.3283 379.906 87.0152C379.608 87.3352 379.24 87.495 378.803 87.4946C378.272 87.494 377.628 87.2629 376.872 86.8013L376.188 87.7967C377.35 88.3603 377.929 89.0953 377.926 90.0015ZM394.428 89.3731C393.687 88.9271 392.572 88.5666 391.081 88.2917L394.709 83.5256C396.306 84.6835 397.456 85.2627 398.159 85.2634C398.268 85.2635 398.382 85.2441 398.499 85.2051C398.347 86.2128 398.024 86.8414 397.531 87.0909C397.382 87.1689 397.202 87.2078 396.991 87.2076C396.499 87.2071 395.785 86.9877 394.849 86.5493L394.518 87.2169C395.759 87.7259 396.569 88.2736 396.949 88.8599C397.198 89.2586 397.356 89.7705 397.424 90.3956C397.455 90.4112 397.486 90.4269 397.517 90.4425C397.549 90.4582 397.58 90.4739 397.611 90.4895C398.584 91.2795 399.07 92.0535 399.067 92.8113C399.065 93.2097 398.935 93.6041 398.675 93.9945L397.52 95.7395C398.179 96.9902 399.269 97.999 400.789 98.7662L404.375 98.7697C405.87 98.1461 406.812 96.9751 407.201 95.2567L407.219 90.8505C406.91 89.7876 405.897 89.0991 404.18 88.785L408.021 83.5386C409.672 84.8137 410.857 85.4516 411.576 85.4523C411.709 85.4524 411.826 85.4291 411.928 85.3823C411.767 86.4994 411.444 87.1514 410.959 87.3384C410.842 87.3774 410.724 87.3968 410.607 87.3967C410.076 87.3962 409.261 87.0907 408.162 86.4802L407.243 87.5926C408.647 88.2424 409.42 89.251 409.563 90.6184L409.545 95.259C409.22 98.3838 407.494 100.335 404.366 101.113L400.78 101.11C400.405 101.11 399.956 101 399.433 100.78C398.911 100.561 398.373 100.264 397.82 99.8883C397.267 99.5127 396.749 99.0864 396.266 98.6094C395.792 98.1324 395.403 97.6281 395.1 97.0965C394.806 96.565 394.659 96.0414 394.661 95.5258L396.431 92.5743C394.567 91.7444 392.955 91.3287 391.596 91.3274C390.932 91.3268 390.318 91.4277 389.755 91.6303C388.112 92.2459 387.288 93.0576 387.285 94.0654C387.277 95.8623 387.718 96.9839 388.607 97.43C389.418 97.8449 389.822 98.4898 389.818 99.3648C389.818 99.4664 389.814 99.5445 389.806 99.5992C389.716 100.599 389.304 101.099 388.569 101.098C388.077 101.098 387.546 100.968 386.977 100.71C386.408 100.444 385.921 100.056 385.517 99.5481C385.12 99.0399 384.924 98.4226 384.926 97.696L384.941 94.0631C384.947 92.4537 385.839 91.1694 387.616 90.2102C388.877 89.5396 390.386 89.2051 392.143 89.2068C392.831 89.2075 393.592 89.2629 394.428 89.3731ZM439.452 89.0538L434.412 86.1777L430.461 89.5958C430.169 90.4939 429.577 90.9426 428.687 90.9417C427.374 90.9404 426.704 90.5492 426.676 89.7679L426.676 89.6507C426.679 88.9475 426.954 88.5962 427.5 88.5968C428.071 88.5973 428.357 88.4101 428.358 88.0351L428.358 88.0234C428.352 87.6562 427.959 87.2066 427.18 86.6746C426.424 86.1582 425.523 85.8995 424.476 85.8985L421.957 85.896C420.769 85.8949 419.547 86.7882 418.29 88.5761C418.695 88.8265 419.1 89.1628 419.505 89.5851C419.909 89.9995 420.247 90.4374 420.519 90.8986C420.791 91.3598 420.926 91.7857 420.924 92.1763C420.922 92.7623 420.626 93.3362 420.038 93.8982L418.203 95.8183C418.596 97.0452 419.183 97.8974 419.962 98.3747L423.877 95.2847L426.677 98.3227C426.997 98.323 427.362 98.0616 427.77 97.5386C428.037 97.1873 428.308 96.8399 428.583 96.4964C428.857 96.1451 429.128 95.8563 429.395 95.63C429.661 95.3959 429.908 95.2789 430.134 95.2791C430.47 95.2795 430.637 95.6156 430.634 96.2874C430.633 96.6234 430.518 97.0608 430.289 97.5996C430.06 98.1385 429.754 98.6772 429.369 99.2159C428.992 99.7546 428.568 100.211 428.098 100.586C427.635 100.953 427.166 101.136 426.689 101.135C426.174 101.135 425.177 100.251 423.7 98.4838L420.35 101.129C419.881 101.129 419.362 100.941 418.793 100.565C418.224 100.182 417.683 99.6889 417.17 99.0868C416.657 98.477 416.234 97.8203 415.901 97.1168C415.568 96.4056 415.402 95.7218 415.405 95.0655L418.439 92.3145C417.703 90.8685 416.699 89.8753 415.428 89.335C415.43 88.6787 415.773 87.9017 416.456 87.0039C418.176 84.7009 420.013 83.5503 421.966 83.5522L424.485 83.5547C426.173 83.5563 427.628 83.9718 428.851 84.8012C428.922 84.8403 428.984 84.8833 429.038 84.9303C429.063 84.6334 429.076 84.3522 429.077 84.0865C429.077 84.0006 429.078 83.9225 429.078 83.8522C429.078 83.774 429.075 83.6959 429.067 83.6178C429.037 83.2271 428.996 82.8482 428.943 82.4809C428.889 82.1137 428.82 81.7581 428.736 81.4143C428.682 81.2189 428.655 81.0314 428.656 80.8517C428.658 80.4767 428.791 80.2268 429.057 80.1021C429.151 80.0631 429.23 80.0437 429.292 80.0437C429.597 80.044 429.9 80.3373 430.203 80.9235C430.575 81.6739 430.887 82.6781 431.14 83.9362C431.224 84.4129 431.265 84.8738 431.263 85.3192C431.263 85.3817 431.263 85.4481 431.263 85.5184C431.262 85.5887 431.258 85.6551 431.25 85.7176C433.068 84.2818 434.149 83.5641 434.493 83.5645C434.962 83.5649 437.397 84.9736 441.8 87.7904L441.752 99.978C441.749 100.759 441.431 101.15 440.798 101.149C440.376 101.149 439.92 101.05 439.428 100.855C438.937 100.659 438.516 100.389 438.166 100.045C437.824 99.7008 437.653 99.3139 437.655 98.8842C437.657 98.2357 437.953 97.6305 438.541 97.0686C439.129 96.5067 439.424 95.9132 439.427 95.2882L439.452 89.0538ZM449.683 88.8411L447.663 86.9172L447.665 86.2727L450.603 84.2833C451.261 83.8152 451.731 83.5813 452.012 83.5816C452.317 83.5819 453.592 83.9972 455.839 84.8275C457.694 84.0012 458.773 83.5882 459.078 83.5885C459.359 83.5887 459.921 83.8237 460.763 84.2932C461.581 84.7706 462.685 85.2404 464.074 85.7027C463.35 86.8427 462.684 87.4123 462.075 87.4117C461.973 87.4116 461.864 87.392 461.747 87.3528C461.06 87.1256 460.129 86.6247 458.952 85.8501L455.829 87.3236L452.225 86.0427L450.439 87.2246L451.021 88.1627L449.683 88.8411ZM455.853 90.1831L451.156 92.5105L451.149 94.2918C451.401 93.9483 451.819 93.7768 452.405 93.7774C454.46 93.7794 455.483 94.8351 455.475 96.9445C455.473 97.3898 455.377 97.8585 455.188 98.3505C454.998 98.8425 454.743 99.3032 454.421 99.7326C454.107 100.154 453.75 100.498 453.35 100.763C452.959 101.028 452.556 101.16 452.142 101.16C451.767 101.16 451.381 101.023 450.983 100.749C450.594 100.475 450.232 100.131 449.897 99.7164C449.563 99.302 449.295 98.876 449.094 98.4383C448.893 98.0006 448.792 97.6177 448.794 97.2896L448.815 91.9223C448.817 91.3129 449.112 90.8562 449.699 90.5521L455.863 87.5698L462.004 90.5641C462.588 90.8693 462.88 91.3266 462.877 91.936L462.845 99.9986C462.842 100.78 462.524 101.17 461.891 101.17C461.47 101.169 461.013 101.071 460.522 100.875C460.03 100.679 459.609 100.41 459.259 100.065C458.917 99.7213 458.746 99.3344 458.748 98.9048C458.751 98.2563 459.046 97.6511 459.634 97.0892C460.222 96.5273 460.518 95.9338 460.52 95.3088L460.531 92.5197L455.853 90.1831ZM451.137 97.2918C451.283 98.0732 451.621 98.5814 452.151 98.8163C452.432 98.8166 452.663 98.6137 452.845 98.2076C453.034 97.8015 453.129 97.3797 453.131 96.9422C453.133 96.3172 452.889 96.0045 452.396 96.004C451.561 96.0032 451.141 96.4325 451.137 97.2918ZM449.338 78.3054C449.341 77.5242 449.578 76.7432 450.05 75.9624L451.465 73.62C451.937 72.8392 452.372 72.4489 452.771 72.4493C453.161 72.4497 453.665 72.6221 454.28 72.9664L460.629 76.5469C461.838 77.2122 462.444 77.869 462.45 78.5175C462.457 78.5253 462.461 78.5331 462.461 78.5409C462.459 79.1737 461.891 79.4896 460.758 79.4885L451.911 79.4798C450.192 79.4782 449.334 79.0867 449.338 78.3054ZM457.311 77.1413L453.077 75.0395L451.92 77.1361L457.311 77.1413ZM99.0818 129.277L98.9545 161.504C100.128 163.075 101.529 164.444 103.157 165.609L111.125 165.617C112.692 164.502 113.837 163.491 114.559 162.585C114.913 162.133 115.273 161.906 115.64 161.907C115.874 161.907 116.104 161.993 116.33 162.165C116.611 162.361 116.75 162.619 116.749 162.939C116.748 163.306 116.555 163.744 116.17 164.251C115.267 165.414 113.817 166.651 111.819 167.962L102.445 167.953C100.107 166.388 98.1617 164.433 96.6085 162.087L96.7404 128.689C98.3121 126.346 100.273 124.395 102.623 122.835L111.998 122.844C113.984 124.159 115.425 125.398 116.319 126.563C116.699 127.071 116.889 127.509 116.888 127.876C116.886 128.189 116.745 128.446 116.463 128.649C116.236 128.821 116.005 128.907 115.77 128.906C115.403 128.906 115.045 128.679 114.695 128.226C113.98 127.319 112.843 126.306 111.285 125.187L103.317 125.179C101.679 126.342 100.268 127.708 99.0818 129.277ZM120.119 143.536L120.071 155.665C120.068 156.446 119.75 156.836 119.117 156.836C118.695 156.835 118.238 156.737 117.747 156.542C117.256 156.346 116.835 156.076 116.485 155.732C116.142 155.388 115.972 155.001 115.974 154.571C115.976 153.923 116.272 153.317 116.86 152.755C117.448 152.194 117.743 151.6 117.746 150.975L117.774 143.909L115.893 142.36L113.073 144.291L110.268 142.354L108.399 143.899L108.377 149.489C108.628 149.146 109.047 148.974 109.633 148.975C111.687 148.977 112.71 150.033 112.702 152.142C112.699 152.947 112.532 153.708 112.201 154.427C111.878 155.137 111.461 155.715 110.952 156.16C110.45 156.605 109.922 156.827 109.367 156.826C108.992 156.826 108.606 156.697 108.209 156.439C107.819 156.172 107.457 155.824 107.123 155.394C106.789 154.964 106.521 154.495 106.32 153.987C106.119 153.479 106.019 152.979 106.021 152.487L106.057 143.522C106.059 142.921 106.401 142.335 107.083 141.765L110.116 139.249L113.085 141.338L116.058 139.255L119.083 141.777C119.776 142.356 120.121 142.942 120.119 143.536ZM108.365 152.489C108.517 153.583 108.854 154.248 109.376 154.483C109.564 154.483 109.732 154.35 109.882 154.085C110.031 153.811 110.146 153.491 110.226 153.124C110.313 152.757 110.357 152.429 110.358 152.14C110.361 151.515 110.116 151.202 109.624 151.202C108.788 151.201 108.368 151.63 108.365 152.489ZM131.25 146.945L138.855 146.953L138.856 146.589C138.548 145.527 137.535 144.838 135.818 144.524L139.659 139.278C141.31 140.553 142.495 141.19 143.213 141.191C143.346 141.191 143.463 141.168 143.565 141.121C143.405 142.238 143.082 142.89 142.597 143.077C142.479 143.116 142.362 143.136 142.245 143.136C141.714 143.135 140.898 142.83 139.799 142.219L138.881 143.332C140.284 143.981 141.058 144.99 141.201 146.357L141.182 150.998C140.858 154.115 139.092 156.066 135.886 156.852L131.363 156.848C130.894 156.847 130.344 156.683 129.712 156.354C129.081 156.017 128.454 155.575 127.831 155.028C127.208 154.48 126.668 153.878 126.209 153.222C125.759 152.565 125.476 151.912 125.361 151.264L128.984 148.033C128.146 146.391 126.947 145.336 125.387 144.865L129.229 139.267C131.083 140.543 132.382 141.181 133.124 141.181C133.264 141.181 133.386 141.158 133.487 141.111C133.327 142.228 132.965 142.88 132.402 143.067C132.269 143.106 132.136 143.126 132.003 143.126C131.409 143.125 130.531 142.819 129.37 142.209L128.215 143.79C129.251 144.517 130.049 145.233 130.609 145.937C130.873 146.273 131.087 146.609 131.25 146.945ZM138.839 150.996L138.846 149.296L130.889 149.289C130.794 149.406 130.692 149.515 130.583 149.616L128.418 151.818C129.031 152.849 130.016 153.745 131.372 154.504L135.895 154.508C137.468 153.885 138.449 152.714 138.839 150.996ZM149.927 144.315C150.333 144.565 150.738 144.902 151.142 145.324C151.547 145.738 151.885 146.176 152.156 146.638C152.428 147.099 152.563 147.525 152.562 147.915C152.559 148.501 152.264 149.075 151.676 149.637L149.84 151.557C150.234 152.776 150.977 153.629 152.068 154.114L154.677 152.359C155.977 151.462 157.198 151.014 158.338 151.015C159.096 151.015 159.767 151.18 160.352 151.509C160.944 151.83 161.411 152.26 161.753 152.799C162.095 153.331 162.264 153.909 162.262 154.534C162.256 156.073 161.76 156.842 160.776 156.841C159.776 156.84 159.227 156.484 159.128 155.773C159.653 155.344 159.917 154.93 159.918 154.532C159.921 153.751 159.391 153.359 158.329 153.358C157.415 153.358 156.582 153.65 155.83 154.235L152.456 156.868C151.518 156.867 150.341 156.261 148.924 155.049C147.665 153.532 147.037 152.117 147.042 150.804L150.077 148.053C149.34 146.607 148.336 145.614 147.065 145.074C147.068 144.418 147.411 143.641 148.094 142.743C149.814 140.44 151.65 139.289 153.603 139.291L156.123 139.294C157.81 139.295 159.266 139.711 160.489 140.54C161.19 141.017 161.684 141.569 161.971 142.194C164.338 140.266 165.724 139.303 166.13 139.303C166.599 139.304 169.035 140.712 173.438 143.529L173.39 155.717C173.387 156.498 173.069 156.889 172.436 156.888C172.014 156.887 171.557 156.789 171.066 156.594C170.575 156.398 170.154 156.128 169.804 155.784C169.461 155.44 169.291 155.053 169.293 154.623C169.295 153.975 169.59 153.369 170.179 152.808C170.767 152.246 171.062 151.652 171.064 151.027L171.089 144.793L166.05 141.917L162.099 145.335C161.806 146.233 161.215 146.681 160.324 146.681C159.012 146.679 158.341 146.288 158.313 145.507L158.314 145.39C158.316 144.686 158.591 144.335 159.138 144.336C159.708 144.336 159.994 144.149 159.996 143.774L159.996 143.762C159.989 143.395 159.597 142.945 158.818 142.413C158.062 141.897 157.16 141.638 156.114 141.637L153.594 141.635C152.407 141.634 151.184 142.527 149.927 144.315ZM169.088 132.275C169.084 133.259 168.843 133.993 168.364 134.477C167.878 134.961 167.139 135.203 166.147 135.202C165.17 135.201 164.441 134.958 163.958 134.473C163.468 133.98 163.225 133.246 163.229 132.269C163.232 131.293 163.481 130.558 163.976 130.067C164.462 129.583 165.193 129.341 166.17 129.342C167.162 129.343 167.899 129.586 168.382 130.071C168.856 130.556 169.092 131.291 169.088 132.275ZM165.279 132.271C165.278 132.552 165.355 132.771 165.511 132.928C165.659 133.076 165.874 133.151 166.155 133.151C166.459 133.151 166.682 133.077 166.824 132.929C166.965 132.773 167.036 132.554 167.037 132.273C167.038 131.976 166.969 131.757 166.829 131.616C166.689 131.468 166.466 131.393 166.162 131.393C165.88 131.393 165.665 131.467 165.516 131.615C165.36 131.756 165.281 131.974 165.279 132.271ZM183.141 134.644L183.34 134.644C184.035 134.731 184.382 134.962 184.38 135.337L184.38 135.384C184.378 135.759 184.534 136.028 184.845 136.193C185.149 136.357 185.735 136.44 186.602 136.441C187.141 136.441 187.63 136.32 188.068 136.079C188.507 135.829 188.895 135.513 189.232 135.131C189.57 134.74 189.86 134.33 190.104 133.901C190.356 133.471 190.561 133.077 190.718 132.718C190.908 132.281 191.066 131.82 191.193 131.336C191.327 130.851 191.477 130.437 191.643 130.094C191.808 129.75 192.028 129.579 192.301 129.579C192.731 129.579 192.944 129.997 192.941 130.833C192.937 131.661 192.761 132.696 192.413 133.938C192.175 134.766 191.797 135.539 191.279 136.258C190.76 136.976 190.109 137.557 189.326 138.002C188.543 138.446 187.632 138.668 186.593 138.667C185.867 138.666 185.16 138.552 184.474 138.325C183.795 138.098 183.238 137.765 182.802 137.327C182.366 136.89 182.15 136.358 182.152 135.733C182.217 135.007 182.547 134.644 183.141 134.644ZM182.153 144.346C182.558 144.597 182.963 144.933 183.368 145.355C183.772 145.77 184.111 146.208 184.382 146.669C184.654 147.13 184.789 147.556 184.787 147.947C184.785 148.533 184.49 149.107 183.902 149.669L182.066 151.589C182.46 152.816 183.046 153.668 183.825 154.145L187.74 151.055L190.54 154.093C190.861 154.093 191.225 153.832 191.633 153.309C191.9 152.958 192.171 152.61 192.446 152.267C192.721 151.915 192.991 151.627 193.258 151.4C193.524 151.166 193.771 151.049 193.997 151.049C194.333 151.05 194.5 151.386 194.497 152.058C194.496 152.394 194.381 152.831 194.152 153.37C193.924 153.909 193.617 154.448 193.232 154.986C192.855 155.525 192.431 155.982 191.961 156.356C191.499 156.723 191.029 156.906 190.553 156.906C190.037 156.905 189.04 156.021 187.563 154.254L184.213 156.899C183.744 156.899 183.225 156.711 182.657 156.335C182.088 155.952 181.547 155.459 181.034 154.857C180.52 154.247 180.097 153.591 179.764 152.887C179.431 152.176 179.266 151.492 179.268 150.836L182.302 148.085C181.566 146.639 180.562 145.646 179.291 145.105C179.293 144.449 179.636 143.672 180.32 142.774C182.04 140.471 183.876 139.321 185.829 139.323L188.349 139.325C190.036 139.327 191.491 139.742 192.715 140.572C193.93 141.401 194.535 142.476 194.53 143.796C194.522 145.741 193.862 146.713 192.55 146.712C191.237 146.711 190.567 146.32 190.539 145.538L190.539 145.421C190.542 144.718 190.817 144.367 191.364 144.367C191.934 144.368 192.22 144.18 192.221 143.805L192.221 143.794C192.215 143.427 191.822 142.977 191.043 142.445C190.287 141.929 189.386 141.67 188.339 141.669L185.82 141.666C184.632 141.665 183.41 142.559 182.153 144.346ZM202.413 144.601L200.394 142.677L200.396 142.032L203.334 140.043C203.992 139.575 204.461 139.341 204.743 139.341C205.047 139.341 206.323 139.757 208.57 140.587C210.424 139.761 211.504 139.348 211.809 139.348C212.09 139.348 212.652 139.583 213.494 140.053C214.312 140.53 215.416 141 216.804 141.462C216.081 142.602 215.415 143.172 214.805 143.171C214.704 143.171 214.595 143.152 214.478 143.112C213.791 142.885 212.859 142.384 211.683 141.61L208.56 143.083L204.956 141.802L203.17 142.984L203.752 143.922L202.413 144.601ZM201.523 153.518L201.546 147.682C201.548 147.072 201.843 146.616 202.43 146.312L208.594 143.329L214.734 146.324C215.319 146.629 215.61 147.086 215.608 147.696L215.576 155.758C215.573 156.539 215.255 156.93 214.622 156.929C214.2 156.929 213.744 156.831 213.252 156.635C212.761 156.439 212.34 156.169 211.99 155.825C211.648 155.481 211.477 155.094 211.479 154.664C211.481 154.016 211.777 153.411 212.365 152.849C212.953 152.287 213.248 151.693 213.251 151.068L213.262 148.279L208.584 145.943L203.887 148.27L203.875 151.294C203.874 151.606 204.278 152.103 205.088 152.783C205.664 153.276 205.951 153.862 205.948 154.542C205.947 154.784 205.903 155.057 205.816 155.362C205.499 156.401 204.97 156.92 204.228 156.919C203.486 156.918 202.846 156.625 202.31 156.038C201.781 155.452 201.518 154.612 201.523 153.518ZM211.274 132.316C211.27 133.3 211.029 134.035 210.551 134.519C210.064 135.002 209.325 135.244 208.333 135.243C207.356 135.242 206.627 134.999 206.145 134.514C205.654 134.022 205.411 133.287 205.415 132.31C205.419 131.334 205.668 130.6 206.162 130.108C206.648 129.624 207.38 129.383 208.356 129.384C209.348 129.384 210.086 129.627 210.568 130.112C211.043 130.597 211.278 131.332 211.274 132.316ZM207.466 132.312C207.465 132.594 207.542 132.812 207.697 132.969C207.845 133.117 208.06 133.192 208.341 133.192C208.646 133.192 208.869 133.118 209.01 132.97C209.151 132.814 209.222 132.595 209.223 132.314C209.225 132.017 209.155 131.798 209.015 131.658C208.875 131.509 208.653 131.435 208.348 131.434C208.067 131.434 207.852 131.508 207.703 131.656C207.546 131.797 207.467 132.015 207.466 132.312ZM226.903 154.011L225.544 154.01L225.538 155.475C225.534 156.451 225.141 156.939 224.36 156.939C223.845 156.938 223.365 156.746 222.921 156.363C222.477 155.98 222.12 155.495 221.849 154.909C221.578 154.315 221.443 153.701 221.446 153.068C221.45 152.131 222.037 151.663 223.209 151.664L223.23 146.39C222.845 144.929 222.262 144.194 221.481 144.186C221.485 143.107 221.765 142.416 222.321 142.112C226.992 140.281 229.433 139.365 229.644 139.365C229.847 139.366 231.891 140.286 235.774 142.125C236.406 142.431 236.72 142.888 236.718 143.497L236.714 144.529C236.706 146.56 236.018 147.575 234.651 147.573C233.284 147.572 232.602 147.181 232.605 146.4C232.608 145.618 232.902 145.228 233.488 145.229C234.074 145.229 234.369 144.847 234.372 144.081C231.417 142.523 229.838 141.744 229.635 141.744C229.447 141.744 227.687 142.43 224.354 143.802C225.172 144.162 225.579 145.026 225.574 146.393L225.553 151.666L226.877 151.668C228.44 151.669 229.651 152.401 230.513 153.863C230.808 154.355 231.342 154.602 232.115 154.602C232.662 154.603 233.171 154.361 233.642 153.877C233.916 153.588 234.191 153.272 234.466 152.929C234.748 152.585 235.027 152.293 235.301 152.051C235.576 151.801 235.842 151.676 236.099 151.677C236.49 151.677 236.684 152.013 236.681 152.685C236.68 153.021 236.546 153.431 236.278 153.915C236.018 154.391 235.669 154.864 235.23 155.332C234.79 155.792 234.3 156.179 233.76 156.491C233.228 156.795 232.684 156.947 232.13 156.946C230.794 156.945 229.734 156.334 228.949 155.115C228.484 154.38 227.801 154.012 226.903 154.011ZM223.161 134.086C223.165 133.304 223.402 132.523 223.874 131.742L225.289 129.4C225.761 128.619 226.196 128.229 226.595 128.229C226.985 128.23 227.489 128.402 228.104 128.747L234.453 132.327C235.662 132.992 236.268 133.649 236.274 134.298C236.281 134.305 236.285 134.313 236.285 134.321C236.283 134.954 235.715 135.27 234.582 135.269L225.735 135.26C224.016 135.258 223.158 134.867 223.161 134.086ZM231.135 132.921L226.901 130.82L225.744 132.916L231.135 132.921ZM244.6 144.642L242.58 142.718L242.583 142.073L245.52 140.084C246.178 139.616 246.648 139.382 246.929 139.382C247.234 139.383 248.509 139.798 250.756 140.628C252.611 139.802 253.691 139.389 253.995 139.389C254.277 139.389 254.838 139.624 255.68 140.094C256.498 140.571 257.602 141.041 258.991 141.503C258.267 142.643 257.601 143.213 256.992 143.212C256.89 143.212 256.781 143.193 256.664 143.153C255.977 142.926 255.046 142.425 253.869 141.651L250.746 143.124L247.142 141.843L245.356 143.025L245.938 143.963L244.6 144.642ZM250.77 145.984L246.073 148.311L246.066 150.092C246.318 149.749 246.736 149.577 247.322 149.578C249.377 149.58 250.4 150.636 250.392 152.745C250.39 153.19 250.294 153.659 250.105 154.151C249.916 154.643 249.66 155.104 249.338 155.533C249.024 155.955 248.667 156.298 248.267 156.563C247.876 156.829 247.473 156.961 247.059 156.961C246.684 156.96 246.298 156.823 245.9 156.549C245.511 156.276 245.149 155.931 244.815 155.517C244.48 155.103 244.212 154.677 244.011 154.239C243.81 153.801 243.71 153.418 243.711 153.09L243.732 147.723C243.735 147.114 244.029 146.657 244.616 146.353L250.78 143.37L256.921 146.365C257.505 146.67 257.797 147.127 257.794 147.737L257.762 155.799C257.759 156.581 257.441 156.971 256.809 156.97C256.387 156.97 255.93 156.872 255.439 156.676C254.947 156.48 254.526 156.21 254.176 155.866C253.834 155.522 253.664 155.135 253.665 154.705C253.668 154.057 253.963 153.452 254.551 152.89C255.139 152.328 255.435 151.734 255.437 151.109L255.448 148.32L250.77 145.984ZM246.055 153.092C246.2 153.874 246.538 154.382 247.068 154.617C247.349 154.617 247.581 154.414 247.762 154.008C247.951 153.602 248.046 153.18 248.048 152.743C248.051 152.118 247.806 151.805 247.314 151.805C246.478 151.804 246.058 152.233 246.055 153.092ZM261.673 127.08C261.735 127.057 261.798 127.045 261.86 127.045C262.407 127.046 263.122 127.956 264.006 129.778L265.494 132.838L267.93 133.121C268.617 133.2 268.959 133.587 268.957 134.283C268.956 134.392 268.952 134.474 268.944 134.529L268.688 137.095C268.606 137.853 268.253 138.231 267.628 138.231C267.527 138.23 267.449 138.226 267.394 138.219L265.075 137.9C264.388 137.805 264.045 137.551 264.047 137.137C264.047 137.075 264.051 137.024 264.059 136.985C264.139 136.555 264.476 136.341 265.07 136.341C265.124 136.341 265.179 136.345 265.234 136.353C265.296 136.353 265.359 136.357 265.421 136.365L266.627 136.519L266.726 135.417L264.066 135.145L262.453 131.288C261.741 129.576 261.386 128.388 261.389 127.724C261.39 127.373 261.485 127.158 261.673 127.08ZM267.185 143.586L267.156 151.121C267.153 151.824 267.541 152.508 268.319 153.173C269.098 153.838 269.486 154.463 269.484 155.049C269.479 156.338 269.027 156.982 268.129 156.981C267.582 156.981 267.051 156.84 266.537 156.558C266.03 156.276 265.614 155.795 265.288 155.115C264.963 154.427 264.803 153.486 264.807 152.29L264.858 139.4L265.866 139.401C267.46 141.215 268.597 142.122 269.277 142.123C269.355 142.123 269.441 142.103 269.535 142.064C269.374 143.182 269.013 143.834 268.449 144.02C268.371 144.044 268.293 144.055 268.215 144.055C267.91 144.055 267.567 143.899 267.185 143.586ZM288.248 151.259C288.246 151.97 288.114 152.669 287.853 153.356C287.593 154.035 287.243 154.652 286.803 155.207C286.371 155.753 285.885 156.19 285.345 156.518C284.812 156.837 284.269 156.997 283.714 156.996L278.546 156.991C278.015 156.991 277.484 156.842 276.954 156.545C276.424 156.247 275.922 155.864 275.447 155.395C274.973 154.918 274.553 154.405 274.188 153.858C273.823 153.303 273.536 152.768 273.327 152.252C273.118 151.736 273.014 151.295 273.016 150.927L276.051 147.942L273.917 145.268C273.334 144.596 273.043 144.103 273.044 143.791C273.045 143.486 273.41 143.006 274.139 142.35C276.319 140.391 277.538 139.412 277.795 139.412C278.061 139.413 279.128 140.257 280.996 141.947C282.659 140.261 283.623 139.418 283.889 139.418C284.162 139.419 285.311 140.373 287.335 142.281C287.965 142.805 288.28 143.286 288.278 143.723C288.276 144.153 288.103 144.481 287.759 144.707C287.641 144.777 287.504 144.813 287.348 144.812C287.036 144.812 286.649 144.667 286.19 144.378C285.504 143.955 284.698 143.224 283.773 142.184L280.985 144.912L277.984 142.108L275.621 144.051C276.018 144.364 276.388 144.681 276.73 145.001C277.073 145.322 277.388 145.643 277.676 145.963C278.251 146.612 278.538 147.226 278.536 147.804C278.533 148.39 278.305 148.933 277.85 149.432L275.932 151.446C276.566 152.954 277.542 154.022 278.86 154.648L283.231 154.652C284.256 154.333 284.973 153.838 285.382 153.166C285.735 152.565 285.913 151.999 285.916 151.467C285.916 151.374 285.912 151.303 285.905 151.256C285.908 150.475 285.753 150.084 285.441 150.084C285.214 150.084 284.94 150.318 284.618 150.786C283.915 150.551 283.565 150.16 283.567 149.613C283.572 148.363 284.2 147.739 285.45 147.74C287.325 147.742 288.258 148.915 288.248 151.259ZM277.02 166.553C274.505 166.55 273.251 165.443 273.26 163.232C273.269 161.022 274.531 159.917 277.046 159.92L281.828 159.924L281.83 159.338C281.833 158.635 282.225 158.284 283.006 158.285C283.787 158.286 284.176 158.638 284.174 159.341L284.171 159.927L287.921 159.93C288.702 159.931 289.091 160.322 289.088 161.103C289.085 161.885 288.693 162.275 287.912 162.274L284.162 162.27L284.154 164.216C284.771 164.216 285.201 164.381 285.441 164.709C285.69 165.03 285.813 165.518 285.811 166.174C285.808 166.839 285.65 167.327 285.336 167.639C285.022 167.967 284.549 168.13 283.916 168.13C283.291 168.129 282.784 167.933 282.395 167.542C281.998 167.151 281.801 166.721 281.803 166.253C280.497 166.454 278.903 166.554 277.02 166.553ZM275.604 163.235C275.601 163.883 276.076 164.208 277.029 164.209L281.811 164.213L281.818 162.268L277.037 162.263C276.084 162.263 275.606 162.586 275.604 163.235ZM297.709 129.471L297.582 161.698C298.755 163.269 300.156 164.638 301.784 165.803L309.753 165.811C311.32 164.695 312.464 163.685 313.187 162.779C313.54 162.326 313.9 162.1 314.267 162.101C314.502 162.101 314.732 162.187 314.958 162.359C315.238 162.555 315.378 162.813 315.377 163.133C315.375 163.5 315.182 163.937 314.797 164.445C313.894 165.608 312.444 166.845 310.447 168.156L301.072 168.146C298.734 166.582 296.789 164.627 295.236 162.281L295.368 128.882C296.94 126.54 298.9 124.589 301.25 123.029L310.625 123.038C312.612 124.352 314.052 125.592 314.946 126.757C315.327 127.265 315.517 127.703 315.515 128.07C315.514 128.383 315.372 128.64 315.09 128.843C314.863 129.015 314.632 129.1 314.398 129.1C314.031 129.1 313.672 128.873 313.322 128.42C312.607 127.513 311.471 126.5 309.913 125.381L301.944 125.373C300.307 126.536 298.895 127.902 297.709 129.471ZM308.117 149.79L305.952 151.991C306.565 153.023 307.55 153.918 308.906 154.677L313.43 154.682C315.002 154.058 315.983 152.887 316.373 151.169L316.39 146.763C316.082 145.7 315.069 145.011 313.352 144.697L317.193 139.451C318.844 140.726 320.029 141.364 320.748 141.364C320.88 141.365 320.998 141.341 321.099 141.294C320.939 142.412 320.616 143.064 320.131 143.251C320.013 143.29 319.896 143.309 319.779 143.309C319.248 143.308 318.433 143.003 317.334 142.392L316.415 143.505C317.819 144.155 318.592 145.163 318.735 146.531L318.717 151.171C318.392 154.288 316.626 156.24 313.42 157.025L308.897 157.021C308.428 157.021 307.878 156.856 307.247 156.527C306.615 156.191 305.988 155.749 305.365 155.201C304.742 154.654 304.202 154.052 303.743 153.395C303.293 152.738 303.01 152.086 302.896 151.437L306.518 148.206C305.681 146.565 304.482 145.509 302.921 145.039L306.763 139.441C308.618 140.716 309.916 141.354 310.658 141.355C310.799 141.355 310.92 141.331 311.022 141.285C310.861 142.402 310.499 143.054 309.936 143.241C309.803 143.28 309.67 143.299 309.537 143.299C308.943 143.298 308.066 142.993 306.904 142.382L305.749 143.963C306.77 144.675 307.568 145.391 308.143 146.11C308.719 146.829 309.005 147.482 309.003 148.068C309 148.654 308.705 149.228 308.117 149.79ZM329.989 142.569L328.119 144.114L328.108 147.079C328.577 146.907 328.832 146.685 328.872 146.411C328.88 146.388 328.884 146.353 328.884 146.306C328.885 146.079 328.788 145.884 328.594 145.72C328.729 145.095 329.058 144.783 329.582 144.783L329.605 144.783C330.457 144.792 330.88 145.398 330.875 146.601C330.874 146.953 330.763 147.296 330.543 147.632C330.331 147.968 330.064 148.272 329.743 148.545C329.429 148.811 329.12 149.025 328.814 149.189C328.517 149.345 328.278 149.423 328.098 149.423C327.677 149.422 327.287 149.285 326.928 149.011C326.578 148.73 326.294 148.386 326.077 147.979C325.868 147.573 325.764 147.182 325.765 146.807L325.777 143.737C325.78 143.135 326.122 142.549 326.804 141.98L329.837 139.463L332.805 141.552L335.778 139.469L338.803 141.991C339.496 142.57 339.842 143.157 339.839 143.75L339.838 144.125C339.829 146.438 338.794 148.238 336.735 149.525L330.731 153.327L331.583 154.289L337.469 150.557C337.883 150.456 338.258 150.405 338.594 150.405C339.407 150.406 339.812 150.739 339.809 151.403L339.791 155.879C339.788 156.661 339.396 157.051 338.615 157.05C337.834 157.049 337.445 156.658 337.448 155.877L337.458 153.369L332.735 156.365C332.038 156.817 331.572 157.043 331.338 157.043C331.111 157.043 330.605 156.597 329.82 155.706L328.641 154.38C328.253 153.895 328.059 153.45 328.061 153.044C328.063 152.497 328.397 152.02 329.062 151.615L335.394 147.648C336.788 146.775 337.488 145.6 337.494 144.123L335.614 142.574L332.794 144.505L329.989 142.569ZM326.284 134.186C326.287 133.405 326.524 132.624 326.996 131.843L328.412 129.501C328.883 128.72 329.318 128.33 329.717 128.33C330.108 128.33 330.611 128.503 331.227 128.847L337.576 132.428C338.784 133.093 339.391 133.75 339.396 134.398C339.404 134.406 339.407 134.414 339.407 134.422C339.405 135.054 338.837 135.37 337.705 135.369L328.857 135.361C327.138 135.359 326.281 134.967 326.284 134.186ZM334.257 133.022L330.023 130.92L328.866 133.017L334.257 133.022ZM347.722 144.742L345.702 142.818L345.705 142.174L348.642 140.185C349.3 139.716 349.77 139.483 350.051 139.483C350.356 139.483 351.632 139.898 353.878 140.729C355.733 139.902 356.813 139.489 357.117 139.49C357.399 139.49 357.96 139.725 358.802 140.195C359.621 140.672 360.724 141.142 362.113 141.604C361.39 142.744 360.723 143.314 360.114 143.313C360.012 143.313 359.903 143.293 359.786 143.254C359.1 143.027 358.168 142.526 356.991 141.751L353.868 143.225L350.264 141.944L348.478 143.126L349.061 144.064L347.722 144.742ZM353.892 146.084L349.196 148.412L349.189 150.193C349.44 149.85 349.859 149.678 350.445 149.679C352.499 149.681 353.522 150.736 353.514 152.846C353.512 153.291 353.417 153.76 353.227 154.252C353.038 154.744 352.782 155.204 352.46 155.634C352.146 156.055 351.789 156.399 351.39 156.664C350.998 156.929 350.595 157.062 350.181 157.061C349.806 157.061 349.42 156.924 349.023 156.65C348.633 156.376 348.271 156.032 347.937 155.618C347.603 155.203 347.335 154.777 347.133 154.34C346.932 153.902 346.832 153.519 346.833 153.191L346.854 147.824C346.857 147.214 347.152 146.757 347.739 146.453L353.903 143.471L360.043 146.465C360.628 146.771 360.919 147.228 360.916 147.837L360.885 155.9C360.882 156.681 360.564 157.071 359.931 157.071C359.509 157.07 359.052 156.972 358.561 156.777C358.069 156.581 357.649 156.311 357.298 155.967C356.956 155.623 356.786 155.236 356.787 154.806C356.79 154.158 357.085 153.552 357.674 152.99C358.262 152.429 358.557 151.835 358.559 151.21L358.57 148.421L353.892 146.084ZM349.177 153.193C349.322 153.975 349.66 154.483 350.19 154.718C350.472 154.718 350.703 154.515 350.884 154.109C351.073 153.703 351.169 153.281 351.17 152.844C351.173 152.218 350.928 151.906 350.436 151.905C349.6 151.904 349.18 152.334 349.177 153.193ZM382.415 140.194C382.417 139.741 382.808 139.515 383.589 139.516C384.371 139.516 384.76 139.907 384.757 140.689L384.701 154.693C384.699 155.302 384.564 155.782 384.297 156.134C384.038 156.477 383.693 156.723 383.263 156.871C382.841 157.019 382.379 157.093 381.879 157.092C381.442 157.092 381.122 156.994 380.92 156.798C380.702 156.603 380.593 156.306 380.595 155.907C381.087 155.908 381.502 155.838 381.838 155.698C382.182 155.55 382.356 155.214 382.358 154.69L382.402 143.37C380.936 144.704 379.371 145.371 377.707 145.369C375.363 145.367 374.195 144.389 374.203 142.436C374.211 140.483 375.191 139.507 377.144 139.509C377.926 139.51 378.315 139.901 378.312 140.682C378.308 141.464 377.916 141.854 377.135 141.853C376.744 141.853 376.548 142.048 376.547 142.438C376.545 142.829 376.935 143.025 377.716 143.026C379.419 143.027 380.986 142.083 382.415 140.194Z" fill="#2B2B2B"/>
<defs>
<filter id="filter0_b_7065_23454" x="-34.2207" y="-33.9863" width="551.387" height="249.186" filterUnits="userSpaceOnUse" color-interpolation-filters="sRGB">
<feFlood flood-opacity="0" result="BackgroundImageFix"/>
<feGaussianBlur in="BackgroundImageFix" stdDeviation="17.5"/>
<feComposite in2="SourceAlpha" operator="in" result="effect1_backgroundBlur_7065_23454"/>
<feBlend mode="normal" in="SourceGraphic" in2="effect1_backgroundBlur_7065_23454" result="shape"/>
</filter>
</defs>
</svg>
