<svg width="19" height="20" viewBox="0 0 19 20" fill="none" xmlns="http://www.w3.org/2000/svg">
    <g clip-path="url(#clip0_4116_47156)">
        <path d="M18.1749 10.4523C18.1749 9.67341 18.1131 9.10504 17.9792 8.51562H9.27344V12.0311H14.3835C14.2805 12.9047 13.7242 14.2204 12.4878 15.1045L12.4705 15.2222L15.2231 17.4007L15.4138 17.4201C17.1652 15.7676 18.1749 13.3362 18.1749 10.4523Z" fill="#4285F4"/>
        <path d="M9.27165 19.7165C11.7752 19.7165 13.8769 18.8744 15.412 17.422L12.4861 15.1063C11.7031 15.6642 10.6522 16.0536 9.27165 16.0536C6.81963 16.0536 4.73851 14.4012 3.99664 12.1172L3.8879 12.1266L1.02571 14.3896L0.988281 14.4959C2.51306 17.5903 5.64508 19.7165 9.27165 19.7165Z" fill="#34A853"/>
        <path d="M3.9974 12.1172C3.80165 11.5278 3.68836 10.8962 3.68836 10.2437C3.68836 9.59108 3.80165 8.95958 3.9871 8.37016L3.98191 8.24463L1.08385 5.94531L0.989033 5.99139C0.360597 7.2755 0 8.71751 0 10.2437C0 11.7699 0.360597 13.2118 0.989033 14.4959L3.9974 12.1172Z" fill="#FBBC05"/>
        <path d="M9.27165 4.43235C11.0128 4.43235 12.1873 5.2007 12.857 5.84279L15.4738 3.23247C13.8667 1.7063 11.7752 0.769531 9.27165 0.769531C5.64508 0.769531 2.51306 2.89565 0.988281 5.99009L3.98635 8.36886C4.73851 6.08485 6.81963 4.43235 9.27165 4.43235Z" fill="#EB4335"/>
    </g>
    <defs>
        <clipPath id="clip0_4116_47156">
            <rect y="0.742188" width="18.1739" height="19" rx="9.08696" fill="white"/>
        </clipPath>
    </defs>
</svg>
