<svg width="26" height="26" viewBox="0 0 26 26" fill="none" xmlns="http://www.w3.org/2000/svg">
<path d="M2.12207 7.03107C2.12207 6.15156 2.47146 5.30806 3.09337 4.68615C3.71529 4.06423 4.55878 3.71484 5.4383 3.71484H20.0297C20.9092 3.71484 21.7527 4.06423 22.3746 4.68615C22.9966 5.30806 23.3459 6.15156 23.3459 7.03107V15.1301C22.9427 14.7971 22.4966 14.5197 22.0195 14.3056V7.03107C22.0195 6.50336 21.8098 5.99727 21.4367 5.62412C21.0635 5.25097 20.5574 5.04134 20.0297 5.04134H5.4383C4.91059 5.04134 4.40449 5.25097 4.03134 5.62412C3.6582 5.99727 3.44856 6.50336 3.44856 7.03107V15.2553C3.44856 15.783 3.6582 16.2891 4.03134 16.6623C4.40449 17.0354 4.91059 17.2451 5.4383 17.2451H12.6831L14.0096 18.5716H5.4383C4.55878 18.5716 3.71529 18.2222 3.09337 17.6003C2.47146 16.9783 2.12207 16.1348 2.12207 15.2553V7.03107ZM17.642 13.2656C17.4823 13.2656 17.3353 13.2088 17.2207 13.1144C17.1845 12.8939 17.1052 12.6828 16.9873 12.493C17.0132 12.3381 17.0932 12.1974 17.2131 12.096C17.333 11.9946 17.485 11.939 17.642 11.9391H20.0297C20.2056 11.9391 20.3743 12.009 20.4987 12.1334C20.6231 12.2577 20.693 12.4264 20.693 12.6023C20.693 12.7782 20.6231 12.9469 20.4987 13.0713C20.3743 13.1957 20.2056 13.2656 20.0297 13.2656H17.642ZM14.2027 11.1432L14.8628 11.8033C14.652 11.8895 14.4607 12.0173 14.3003 12.1789L13.8313 12.648L13.2646 12.0813L12.2745 13.0714C12.2129 13.133 12.1398 13.1818 12.0593 13.2152C11.9788 13.2485 11.8926 13.2657 11.8055 13.2657C11.7184 13.2657 11.6321 13.2485 11.5516 13.2152C11.4711 13.1818 11.398 13.133 11.3364 13.0714C11.2748 13.0098 11.226 12.9367 11.1926 12.8562C11.1593 12.7757 11.1421 12.6895 11.1421 12.6023C11.1421 12.5152 11.1593 12.429 11.1926 12.3485C11.226 12.268 11.2748 12.1949 11.3364 12.1333L12.3265 11.1432L11.3364 10.1531C11.212 10.0287 11.1421 9.85999 11.1421 9.68406C11.1421 9.50813 11.212 9.33941 11.3364 9.21501C11.4608 9.09061 11.6295 9.02073 11.8055 9.02073C11.9814 9.02073 12.1501 9.09061 12.2745 9.21501L13.2646 10.2051L14.2547 9.21501C14.3791 9.09061 14.5478 9.02073 14.7237 9.02073C14.8997 9.02073 15.0684 9.09061 15.1928 9.21501C15.3172 9.33941 15.3871 9.50813 15.3871 9.68406C15.3871 9.85999 15.3172 10.0287 15.1928 10.1531L14.2027 11.1432ZM5.49985 9.21501C5.56144 9.1534 5.63456 9.10454 5.71504 9.07119C5.79552 9.03785 5.88178 9.02069 5.9689 9.02069C6.05601 9.02069 6.14227 9.03785 6.22275 9.07119C6.30323 9.10454 6.37636 9.1534 6.43795 9.21501L7.42804 10.2051L8.41813 9.21501C8.54253 9.09061 8.71125 9.02073 8.88718 9.02073C9.06311 9.02073 9.23183 9.09061 9.35623 9.21501C9.48063 9.33941 9.55051 9.50813 9.55051 9.68406C9.55051 9.85999 9.48063 10.0287 9.35623 10.1531L8.36613 11.1432L9.35623 12.1333C9.41783 12.1949 9.46669 12.268 9.50002 12.3485C9.53336 12.429 9.55051 12.5152 9.55051 12.6023C9.55051 12.6895 9.53336 12.7757 9.50002 12.8562C9.46669 12.9367 9.41783 13.0098 9.35623 13.0714C9.29463 13.133 9.22151 13.1818 9.14103 13.2152C9.06055 13.2485 8.97429 13.2657 8.88718 13.2657C8.80007 13.2657 8.71381 13.2485 8.63333 13.2152C8.55286 13.1818 8.47973 13.133 8.41813 13.0714L7.42804 12.0813L6.43795 13.0714C6.31355 13.1958 6.14482 13.2657 5.9689 13.2657C5.79297 13.2657 5.62425 13.1958 5.49985 13.0714C5.37545 12.947 5.30556 12.7783 5.30556 12.6023C5.30556 12.4264 5.37545 12.2577 5.49985 12.1333L6.48994 11.1432L5.49985 10.1531C5.43824 10.0915 5.38937 10.0184 5.35603 9.93791C5.32269 9.85743 5.30553 9.77117 5.30553 9.68406C5.30553 9.59695 5.32269 9.51069 5.35603 9.43021C5.38937 9.34973 5.43824 9.2766 5.49985 9.21501ZM15.9887 13.8673C16.1131 13.7429 16.183 13.5742 16.183 13.3982C16.183 13.2223 16.1131 13.0536 15.9887 12.9292C15.8643 12.8048 15.6956 12.7349 15.5196 12.7349C15.3437 12.7349 15.175 12.8048 15.0506 12.9292L12.9282 15.0516C12.8666 15.1132 12.8177 15.1863 12.7844 15.2668C12.751 15.3473 12.7339 15.4335 12.7339 15.5206C12.7339 15.6077 12.751 15.694 12.7844 15.7745C12.8177 15.855 12.8666 15.9281 12.9282 15.9897L15.0506 18.1121C15.175 18.2365 15.3437 18.3063 15.5196 18.3063C15.6956 18.3063 15.8643 18.2365 15.9887 18.1121C16.1131 17.9877 16.183 17.8189 16.183 17.643C16.183 17.4671 16.1131 17.2984 15.9887 17.174L14.9986 16.1839H19.6318C20.29 16.184 20.9344 16.3724 21.489 16.727C22.0436 17.0815 22.4851 17.5873 22.7615 18.1847C23.0378 18.7821 23.1375 19.4462 23.0486 20.0984C22.9598 20.7506 22.6861 21.3637 22.26 21.8654C21.8339 22.3671 21.2731 22.7364 20.6439 22.9296C20.0147 23.1229 19.3433 23.1321 18.7091 22.956C18.0748 22.78 17.5042 22.4262 17.0645 21.9363C16.6249 21.4465 16.3346 20.841 16.228 20.1915C16.214 20.1055 16.1832 20.0231 16.1373 19.949C16.0915 19.8749 16.0315 19.8106 15.9608 19.7597C15.8901 19.7088 15.8101 19.6724 15.7253 19.6524C15.6405 19.6324 15.5526 19.6294 15.4666 19.6434C15.3806 19.6574 15.2982 19.6882 15.2241 19.734C15.1501 19.7799 15.0857 19.8398 15.0348 19.9106C14.9839 19.9813 14.9475 20.0613 14.9275 20.1461C14.9075 20.2309 14.9045 20.3188 14.9185 20.4048C15.2878 22.6752 17.2568 24.4081 19.6318 24.4081C20.8983 24.4081 22.1129 23.905 23.0085 23.0095C23.904 22.1139 24.4071 20.8993 24.4071 19.6328C24.4071 18.3662 23.904 17.1516 23.0085 16.2561C22.1129 15.3605 20.8983 14.8574 19.6318 14.8574H14.9986L15.9887 13.8673Z" fill="#D7AD45"/>
</svg>
