<svg width="30" height="30" viewBox="0 0 30 30" fill="none" xmlns="http://www.w3.org/2000/svg">
<g clip-path="url(#clip0_2969_20845)">
<path d="M2.7832 1.07812L2.31445 1.86328L1.54102 2.32617C1.11328 2.57812 0.761719 2.79492 0.761719 2.8125C0.761719 2.83008 1.11328 3.04688 1.54102 3.29883L2.31445 3.76172L2.7832 4.54688C3.04102 4.98047 3.26367 5.33203 3.28125 5.33203C3.29883 5.33203 3.51562 4.98047 3.76758 4.55273L4.23047 3.7793L5.01562 3.31055C5.44922 3.05273 5.80078 2.83008 5.80078 2.8125C5.80078 2.79492 5.44922 2.57227 5.01562 2.31445L4.23047 1.8457L3.76758 1.07227C3.51562 0.644531 3.29883 0.292969 3.28125 0.292969C3.26367 0.292969 3.04102 0.644531 2.7832 1.07812ZM3.51562 2.02148C3.66211 2.2793 3.77344 2.39062 4.07812 2.56641C4.2832 2.68359 4.45312 2.79492 4.45312 2.8125C4.45312 2.83008 4.28906 2.93555 4.0957 3.04688C3.89648 3.1582 3.70312 3.30469 3.66211 3.36914C3.62109 3.43359 3.51562 3.60352 3.42773 3.74414L3.26953 3.99609L3.04102 3.61523C2.85938 3.31055 2.74219 3.19336 2.49023 3.04688C2.31445 2.94727 2.16797 2.8418 2.16797 2.8125C2.16797 2.7832 2.31445 2.67773 2.49023 2.57812C2.74805 2.43164 2.85938 2.31445 3.03516 2.02148C3.15234 1.81641 3.26953 1.66406 3.29297 1.67578C3.31641 1.69336 3.41602 1.8457 3.51562 2.02148Z" fill="black"/>
<path d="M19.5 1.38867C18.6914 2.82422 18.7383 2.71875 18.7383 3.14062C18.7383 3.72656 19.1074 4.27734 19.6289 4.46484C19.7988 4.52344 19.8047 4.53516 19.8047 4.89258V5.26172L18.8555 5.28516C17.8242 5.30273 17.7129 5.33203 17.3789 5.66602C17.0156 6.02344 16.9922 6.13477 16.9922 7.91016C16.9922 8.87695 17.0156 9.60938 17.0566 9.75C17.127 10.0137 17.5078 10.4473 17.7539 10.5469L17.9297 10.6172V11.9297V13.2422H16.9336C16.3887 13.2422 15.9375 13.2539 15.9375 13.2656C15.9375 13.2773 16.1074 13.8105 16.3125 14.4492C16.5234 15.0879 16.6875 15.6152 16.6816 15.627C16.6758 15.6328 16.418 15.6797 16.1133 15.7266C10.9512 16.5703 7.14844 21.0469 7.14844 26.2793V26.8359H6.44531H5.74219V27.1348C5.74219 27.2988 5.72461 27.4219 5.69531 27.4102C5.67188 27.3984 5.49023 27.2988 5.28516 27.1875L4.92188 26.9824V24.3516V21.7266L5.41406 21.2051C6.44531 20.127 7.14258 18.7852 7.47656 17.2266C7.56445 16.8398 7.58789 16.4883 7.58203 15.6738C7.58203 14.6602 7.56445 14.5254 7.18945 12.1875C6.97266 10.8516 6.78516 9.69727 6.76758 9.62109L6.73828 9.49219H3.87305H1.00781L0.972656 9.65039C0.955078 9.74414 0.761719 10.9219 0.544922 12.2754C0.175781 14.6074 0.152344 14.7891 0.152344 15.7031C0.158203 16.4707 0.181641 16.793 0.287109 17.2852C0.609375 18.791 1.29492 20.1152 2.32617 21.2051L2.8125 21.7266V24.3574V26.9883L1.99219 27.4512L1.17188 27.9199V28.6641V29.4141H3.86719H6.5625V29.1797C6.5625 29.0508 6.57422 28.9453 6.5918 28.9453C6.60938 28.9453 6.7207 29.0098 6.84375 29.0859C7.37109 29.4316 6.76172 29.4141 17.9297 29.4023L28.1543 29.3848L28.5059 29.2441C28.752 29.1445 28.9629 28.998 29.2148 28.7461C29.6367 28.3184 29.8242 27.9023 29.8711 27.2637L29.9004 26.8359H29.1973H28.4941L28.459 25.9395C28.4238 25.0371 28.3301 24.3516 28.125 23.543C28.0137 23.1211 28.0078 22.875 28.0078 19.2012V15.3047L28.1836 15.2344C28.4297 15.1348 28.8105 14.7012 28.8809 14.4375C28.9219 14.2969 28.9453 13.5586 28.9453 12.5918V10.9688L28.7812 10.6582C28.6641 10.4297 28.541 10.2949 28.3301 10.166C28.0488 9.99023 28.0371 9.99023 27.0879 9.97266L26.1328 9.95508V9.58008C26.1328 9.22266 26.1387 9.21094 26.3086 9.15234C26.8301 8.9707 27.2109 8.39062 27.2051 7.79297C27.1992 7.61133 27.1699 7.39453 27.1289 7.31836C26.918 6.89648 25.8105 4.98047 25.7812 4.98047C25.752 4.98047 24.6445 6.89648 24.4336 7.31836C24.3926 7.39453 24.3633 7.62305 24.3633 7.82812C24.3633 8.41406 24.7324 8.96484 25.2539 9.15234C25.4238 9.21094 25.4297 9.22266 25.4297 9.58594V9.96094H24.4922H23.5547V13.5996C23.5547 15.6621 23.5312 17.2266 23.502 17.2148C23.4727 17.2031 23.2148 17.0625 22.916 16.9043L22.3828 16.6113V10.9395V5.27344H21.4453H20.5078V4.89844C20.5078 4.52344 20.5078 4.52344 20.707 4.45312C21.3984 4.22461 21.791 3.20508 21.4453 2.51367C21.2227 2.07422 20.1914 0.292969 20.1562 0.292969C20.1387 0.292969 19.8398 0.785156 19.5 1.38867ZM20.5312 2.29688C20.9062 2.94727 20.9531 3.16992 20.7832 3.49805C20.6836 3.68555 20.3789 3.86719 20.1562 3.86719C20.0859 3.86719 19.9336 3.82031 19.8223 3.76758C19.5703 3.65039 19.3711 3.25781 19.4297 3.00586C19.4766 2.83008 20.1035 1.69922 20.1562 1.69922C20.1738 1.69922 20.3438 1.96875 20.5312 2.29688ZM21.6797 11.1328C21.6797 13.9688 21.6738 16.2891 21.6621 16.2891C21.6504 16.2891 21.4512 16.2246 21.2168 16.1426C20.7773 15.9961 19.6934 15.7441 19.207 15.6738C19.0488 15.6562 18.9258 15.6211 18.9258 15.5977C18.9258 15.5742 19.0957 15.041 19.3066 14.4141C19.5176 13.7871 19.6875 13.2656 19.6875 13.2598C19.6875 13.248 19.4531 13.2422 19.1602 13.2422H18.6328V11.9297V10.6172L18.8086 10.5469C19.0547 10.4473 19.4355 10.0137 19.5059 9.75C19.541 9.62109 19.5703 9.06445 19.5703 8.50781V7.5H19.2188H18.8672V8.49609C18.8672 9.5918 18.8262 9.76172 18.5449 9.89062C18.2461 10.0254 17.918 9.93164 17.7773 9.66211C17.6602 9.43359 17.6602 6.48633 17.7773 6.27539C17.9355 5.99414 18.0117 5.98242 19.9102 5.97656H21.6797V11.1328ZM26.1562 6.98438C26.5312 7.63477 26.5781 7.85742 26.4082 8.18555C26.3086 8.37305 26.0039 8.55469 25.7812 8.55469C25.7109 8.55469 25.5586 8.50781 25.4473 8.45508C25.1953 8.33789 24.9961 7.94531 25.0547 7.69336C25.1016 7.51758 25.7285 6.38672 25.7812 6.38672C25.7988 6.38672 25.9688 6.65625 26.1562 6.98438ZM6.18164 10.3828C6.19922 10.4883 6.28125 10.998 6.35742 11.5137C6.43945 12.0293 6.52148 12.5215 6.53906 12.6094L6.57422 12.7734H3.87891C1.3418 12.7734 1.18359 12.7676 1.20703 12.668C1.21875 12.6152 1.3125 12.0352 1.41211 11.3789L1.59961 10.1953H3.87305H6.14648L6.18164 10.3828ZM27.9434 10.7461C28.2246 10.8926 28.2422 11.0156 28.2422 12.6562C28.2422 14.2969 28.2246 14.4199 27.9434 14.5664C27.7441 14.666 27.5918 14.6719 27.3926 14.5781C27.1113 14.4492 27.0703 14.2793 27.0703 13.1836V12.1875H26.7188H26.3672V13.1953C26.3672 13.752 26.3965 14.3086 26.4316 14.4375C26.502 14.7012 26.8828 15.1348 27.1289 15.2344L27.3047 15.3047V18.3281C27.3047 19.9863 27.293 21.334 27.2812 21.3223C27.2695 21.3105 27.1348 21.0879 26.9824 20.8301C26.3613 19.7988 25.2949 18.5566 24.5332 17.9883L24.2637 17.7832L24.2578 14.2207V10.6641H26.0156C27.4277 10.6641 27.8086 10.6816 27.9434 10.7461ZM6.70312 13.6641C6.87891 14.666 6.92578 15.2637 6.89648 15.9961C6.81445 17.8594 6.07617 19.5586 4.78125 20.8711L4.45312 21.2109H3.87305H3.29883L2.85938 20.748C1.89844 19.7461 1.23047 18.4512 0.955078 17.0684C0.814453 16.3418 0.814453 15.0527 0.960938 14.1621L1.07812 13.4766H3.87305H6.66797L6.70312 13.6641ZM18.4688 14.7656L18.1934 15.5859H17.8125H17.4316L17.1562 14.7656L16.8867 13.9453H17.8125H18.7383L18.4688 14.7656ZM18.8555 16.3535C23.543 16.8574 27.2051 20.5195 27.709 25.207C27.7441 25.5234 27.7734 26.0156 27.7734 26.3086V26.8359H17.8125H7.85156V26.3086C7.85156 24.375 8.42578 22.4238 9.45703 20.8301C11.4902 17.707 15.1699 15.9492 18.8555 16.3535ZM4.21875 24.375V26.8359H3.86719H3.51562V24.375V21.9141H3.86719H4.21875V24.375ZM5.16797 27.9316C5.83008 28.3066 5.85938 28.3301 5.85938 28.5176V28.7109H3.86719H1.875V28.5176C1.875 28.3418 1.91016 28.3125 2.56641 27.9375L3.25195 27.5449L3.86133 27.5391H4.47656L5.16797 27.9316ZM29.1211 27.5977C29.1211 27.8438 28.6934 28.3594 28.3301 28.5527L28.0957 28.6816H17.8125C7.89844 28.6816 7.52344 28.6758 7.32422 28.5703C6.94336 28.3711 6.50391 27.8496 6.50391 27.5977C6.50391 27.5566 10.0254 27.5391 17.8125 27.5391C25.6699 27.5391 29.1211 27.5566 29.1211 27.5977Z" fill="black"/>
<path d="M26.6895 1.07812L26.2207 1.86328L25.4473 2.32617C25.0195 2.57812 24.668 2.79492 24.668 2.8125C24.668 2.83008 25.0195 3.04688 25.4473 3.29883L26.2207 3.76172L26.6895 4.54688C26.9473 4.98047 27.1699 5.33203 27.1875 5.33203C27.2051 5.33203 27.4219 4.98047 27.6738 4.55273L28.1367 3.7793L28.9219 3.31055C29.3555 3.05273 29.707 2.83008 29.707 2.8125C29.707 2.79492 29.3555 2.57227 28.9219 2.31445L28.1367 1.8457L27.6738 1.07227C27.4219 0.644531 27.2051 0.292969 27.1875 0.292969C27.1699 0.292969 26.9473 0.644531 26.6895 1.07812ZM27.4219 2.02148C27.5684 2.2793 27.6797 2.39062 27.9844 2.56641C28.1895 2.68359 28.3594 2.79492 28.3594 2.8125C28.3594 2.83008 28.1953 2.93555 28.002 3.04688C27.8027 3.1582 27.6094 3.30469 27.5684 3.36914C27.5273 3.43359 27.4219 3.60352 27.334 3.74414L27.1758 3.99609L26.9473 3.61523C26.7656 3.31055 26.6484 3.19336 26.3965 3.04688C26.2207 2.94727 26.0742 2.8418 26.0742 2.8125C26.0742 2.7832 26.2207 2.67773 26.3965 2.57812C26.6543 2.43164 26.7656 2.31445 26.9414 2.02148C27.0586 1.81641 27.1758 1.66406 27.1992 1.67578C27.2227 1.69336 27.3223 1.8457 27.4219 2.02148Z" fill="black"/>
<path d="M11.2207 8.57812L10.752 9.36328L9.97852 9.82617C9.55078 10.0781 9.19922 10.2949 9.19922 10.3125C9.19922 10.3301 9.55078 10.5469 9.97852 10.7988L10.752 11.2617L11.2207 12.0469C11.4785 12.4805 11.7012 12.832 11.7188 12.832C11.7363 12.832 11.9531 12.4805 12.2051 12.0527L12.668 11.2793L13.4531 10.8105C13.8867 10.5527 14.2383 10.3301 14.2383 10.3125C14.2383 10.2949 13.8867 10.0723 13.4531 9.81445L12.668 9.3457L12.2051 8.57227C11.9531 8.14453 11.7363 7.79297 11.7188 7.79297C11.7012 7.79297 11.4785 8.14453 11.2207 8.57812ZM11.9531 9.52148C12.0996 9.7793 12.2109 9.89062 12.5156 10.0664C12.7207 10.1836 12.8906 10.2949 12.8906 10.3125C12.8906 10.3301 12.7266 10.4355 12.5332 10.5469C12.334 10.6582 12.1406 10.8047 12.0996 10.8691C12.0586 10.9336 11.9531 11.1035 11.8652 11.2441L11.707 11.4961L11.4785 11.1152C11.2969 10.8105 11.1797 10.6934 10.9277 10.5469C10.752 10.4473 10.6055 10.3418 10.6055 10.3125C10.6055 10.2832 10.752 10.1777 10.9277 10.0781C11.1855 9.93164 11.2969 9.81445 11.4727 9.52148C11.5898 9.31641 11.707 9.16406 11.7305 9.17578C11.7539 9.19336 11.8535 9.3457 11.9531 9.52148Z" fill="black"/>
</g>
<defs>
<clipPath id="clip0_2969_20845">
<rect width="30" height="30" fill="white"/>
</clipPath>
</defs>
</svg>
