<svg width="31" height="31" viewBox="0 0 31 31" fill="none" xmlns="http://www.w3.org/2000/svg">
<g clip-path="url(#clip0_2969_20870)">
<path d="M26.2044 0.326185C25.9743 0.447279 21.2577 3.75314 21.0519 3.93478C20.9308 4.04982 20.7612 4.42521 20.3798 5.44845L19.8773 6.81075H15.5905H11.3099L11.1646 6.42931C10.8255 5.52716 10.111 4.36466 9.56007 3.81974C9.28155 3.54122 8.68819 3.15978 8.40362 3.07501C8.27647 3.03868 8.17354 2.99025 8.17354 2.96603C8.17354 2.94181 8.22803 2.77228 8.28858 2.58458C8.446 2.14259 8.55499 1.3797 8.50655 1.13146C8.39151 0.586536 7.99796 0.301966 7.36827 0.301966C6.56905 0.301966 5.69112 0.659193 5.14014 1.20411C4.77686 1.5674 4.44991 2.16076 4.38331 2.59064C4.35909 2.7299 4.32276 2.84493 4.29854 2.84493C4.26827 2.84493 4.08663 2.71173 3.89288 2.55431C2.83936 1.68244 2.11885 1.39787 1.73135 1.7006C1.61026 1.79747 1.57393 1.87618 1.57393 2.05177C1.57393 2.35451 1.66475 2.45138 2.07042 2.60275C2.50635 2.76017 3.50538 3.44435 3.51143 3.57755C3.51143 3.60177 3.4085 3.6381 3.28741 3.66232C2.85147 3.73497 2.19756 4.11036 1.87667 4.46154C1.36202 5.02462 1.02901 5.87833 1.02901 6.64122C1.02901 7.27091 1.31358 7.66447 1.8585 7.7795C2.10674 7.82794 2.86963 7.71896 3.31163 7.56154C3.49932 7.50099 3.66885 7.4465 3.69307 7.4465C3.71729 7.4465 3.76573 7.54943 3.80206 7.67657C3.88682 7.96115 4.26827 8.5545 4.54678 8.83302C5.1462 9.43849 6.51456 10.2498 7.43487 10.5404C7.671 10.6192 7.87081 10.6918 7.87081 10.71C7.87081 10.7342 7.9919 11.8059 8.13721 13.0955L8.39756 15.4447L7.93741 15.911L7.4712 16.3832L7.26534 16.1834C6.70225 15.6324 5.75167 15.257 4.80714 15.2086C3.74151 15.1602 1.8585 15.4447 1.58604 15.693C1.25909 16.0018 1.18038 16.4135 1.38624 16.7465C1.48917 16.9221 2.11885 17.467 2.59717 17.794L2.79698 17.9393L2.32471 18.1875C1.59815 18.5629 1.07745 19.1139 0.677838 19.9192C-0.060834 21.4268 -0.194037 23.1342 0.278229 25.1262C1.15616 28.8317 4.25616 31.4352 6.7628 30.5693C7.07764 30.4664 7.13213 30.4604 7.32589 30.5391C8.07667 30.8418 9.28155 30.7692 10.0808 30.3817L10.3532 30.2485L10.4864 30.3756C10.5651 30.4422 10.7226 30.5512 10.8376 30.6117C11.0374 30.7207 11.2917 30.7268 16.2565 30.7268C21.2214 30.7268 21.4757 30.7207 21.6755 30.6117C21.7905 30.5512 21.948 30.4483 22.0146 30.3817C22.1478 30.2666 22.1478 30.2666 22.5474 30.3877C23.3405 30.636 23.9642 30.7207 24.945 30.7207C25.9622 30.7207 26.5737 30.6299 27.4093 30.3574C28.711 29.9336 30.2671 28.9527 30.4972 28.4139C30.594 28.1777 30.6001 27.7721 30.5093 27.5904C30.473 27.5178 28.8927 25.9072 26.9976 24.0061L23.5585 20.5549L24.2185 14.591C24.5878 11.3154 24.8845 8.50001 24.8845 8.34259C24.8845 7.79161 24.5999 7.33751 24.0913 7.05294L23.7644 6.8713L22.3657 6.84103L20.9671 6.81075L21.3607 5.73302L21.7603 4.64923L24.0671 3.03868C26.7735 1.14962 26.8159 1.11935 26.8886 0.919544C26.9673 0.70763 26.8523 0.441225 26.6343 0.332239C26.4284 0.223255 26.4103 0.223255 26.2044 0.326185ZM7.48331 1.64005C7.42881 2.03361 7.24717 2.52404 7.05948 2.77833C6.77491 3.15978 6.17549 3.46251 5.55792 3.52911L5.26729 3.55939V3.35958C5.26729 3.0629 5.48526 2.42111 5.69112 2.11232C5.96358 1.69454 6.67803 1.34337 7.25928 1.33732L7.52569 1.33126L7.48331 1.64005ZM8.21592 4.11642C8.67608 4.32833 9.04542 4.69767 9.48741 5.37579C9.75987 5.78751 10.2321 6.69572 10.2321 6.79865C10.2321 6.81681 9.89913 6.84103 9.49346 6.85314C8.67003 6.88341 8.42178 6.96212 8.06456 7.33146C7.671 7.73712 7.58624 8.16701 7.70128 9.19025C7.74971 9.56564 7.74366 9.57169 7.61046 9.53536C7.27139 9.43243 6.43585 9.00255 6.01807 8.71193C5.19463 8.13673 4.84952 7.7129 4.66182 7.02872C4.59522 6.78048 4.60128 6.74415 4.83741 6.27189C5.10987 5.73302 5.26729 5.19415 5.26729 4.80665V4.55841L5.67901 4.52208C6.15733 4.4797 6.6962 4.30412 7.11397 4.05587C7.4712 3.84396 7.64678 3.85001 8.21592 4.11642ZM4.23799 4.8006C4.23799 5.1215 4.05635 5.66642 3.85655 5.9631C3.57803 6.37482 3.021 6.6715 2.35499 6.75626L2.04014 6.79865L2.07647 6.4172C2.12491 5.88439 2.45186 5.22443 2.79092 4.98829C3.08155 4.78849 3.75967 4.5463 4.04424 4.54025C4.23194 4.54025 4.23799 4.5463 4.23799 4.8006ZM19.3263 8.30626C19.2355 8.54845 18.8782 9.52325 18.5271 10.4738C17.7944 12.4477 17.964 12.2539 17.0739 12.0783C16.1233 11.8906 15.1001 12.042 14.0042 12.5203C12.5692 13.1561 11.6247 13.1076 9.97784 12.3084C9.16046 11.9149 9.02725 11.8301 9.00303 11.6908C8.98487 11.6061 8.9001 10.819 8.80323 9.94708C8.62159 8.23966 8.62764 8.08829 8.9001 7.94904C9.0212 7.88849 10.2019 7.87033 14.2706 7.87033H19.4898L19.3263 8.30626ZM23.7038 8.02169C23.8189 8.13068 23.8552 8.23361 23.8552 8.43947C23.8552 8.69376 23.5888 11.2428 23.5161 11.6727C23.4858 11.8664 23.4435 11.8967 22.6261 12.2963C21.5241 12.8231 21.1669 12.9199 20.3132 12.9199C19.6774 12.9199 18.9388 12.7867 18.8601 12.6475C18.8358 12.6111 20.071 9.17208 20.519 8.0338L20.5857 7.87033H22.069H23.5585L23.7038 8.02169ZM17.0376 13.1076C17.2677 13.1561 17.4675 13.2045 17.4796 13.2227C17.4917 13.2348 16.3413 16.3893 14.9185 20.2279C13.4956 24.0727 12.3028 27.3301 12.2544 27.4693C12.1878 27.6873 12.1939 27.7418 12.2786 27.9174C12.4845 28.311 12.987 28.2807 13.1747 27.8568C13.2232 27.7358 14.4341 24.4904 15.8569 20.6457C17.746 15.5356 18.4665 13.6526 18.5271 13.6647C18.5755 13.6647 18.8358 13.7313 19.1023 13.8039C19.4837 13.9129 19.7501 13.9432 20.3435 13.9432C21.2638 13.9432 21.7724 13.8221 22.6927 13.3801C23.0439 13.2106 23.3345 13.0834 23.3466 13.0955C23.3587 13.1016 23.2013 14.5668 23.0015 16.3408C22.8077 18.1209 22.6442 19.5922 22.6442 19.6104C22.6442 19.6285 22.063 19.0715 21.3607 18.3631C20.6523 17.6608 20.0105 17.0553 19.9378 17.019C19.744 16.9221 19.2718 16.9402 19.0357 17.0492C18.6542 17.2309 17.7884 18.5084 17.4009 19.4651C16.1718 22.4742 16.8015 25.883 19.0114 28.1777C19.5927 28.7772 20.0831 29.1889 20.6159 29.5098L20.9792 29.7277H16.1294H11.2796L11.1161 29.5703C11.0314 29.4795 10.9587 29.3645 10.9587 29.31C10.9587 29.2555 10.553 25.5863 10.0565 21.1604C9.56612 16.7283 9.16651 13.1016 9.17256 13.0895C9.17862 13.0834 9.46924 13.2106 9.82042 13.3801C10.7286 13.816 11.2433 13.9371 12.1696 13.9432C13.0597 13.9492 13.4835 13.8584 14.3796 13.4709C15.3847 13.035 16.1839 12.926 17.0376 13.1076ZM5.27335 16.2863C5.68506 16.3651 6.24815 16.6375 6.58116 16.9221C6.85967 17.1582 6.9626 17.4488 6.84756 17.6668C6.73253 17.8848 6.27237 18.0119 5.63057 18.0059C5.12198 18.0059 5.00089 17.9817 4.58917 17.8061C3.99581 17.5518 2.54268 16.5891 2.54268 16.4438C2.54268 16.4317 2.74249 16.3893 2.98467 16.3469C3.22081 16.3106 3.46299 16.2682 3.51143 16.2561C3.74756 16.2137 4.98272 16.2318 5.27335 16.2863ZM8.62764 17.4791C8.67003 17.8363 8.68819 18.1512 8.66397 18.1754C8.64581 18.1936 8.41573 18.3268 8.16143 18.466C7.64678 18.7385 7.64073 18.7385 7.77393 18.2541C7.91319 17.7213 8.43389 16.7102 8.51866 16.7949C8.53682 16.8131 8.58526 17.1219 8.62764 17.4791ZM19.9136 18.3086L20.2345 18.6356L19.956 19.0291C18.4665 21.1119 18.4302 23.9092 19.8591 26.0404C20.4403 26.9002 21.5544 27.8205 22.505 28.2141C23.4071 28.5895 23.7825 28.6621 24.9148 28.6621C25.7806 28.6621 26.0167 28.6379 26.4103 28.5289C27.27 28.2928 27.9603 27.9477 28.7837 27.3422C28.8321 27.3059 28.9714 27.4088 29.1954 27.6449C29.595 28.0627 29.6011 28.0385 28.9532 28.4744C27.4093 29.5037 25.5687 29.9215 23.8128 29.6369C21.8087 29.31 20.1073 28.2201 18.9872 26.549C17.5462 24.3936 17.4009 21.5539 18.6239 19.2531C18.9206 18.6961 19.4292 17.9877 19.5261 17.9817C19.5624 17.9817 19.738 18.127 19.9136 18.3086ZM5.39444 19.2713C5.84249 19.4953 6.29659 19.6951 6.40557 19.7133L6.59932 19.7496V20.2643C6.59932 20.7244 6.61143 20.785 6.75069 20.9182C6.84756 21.0211 6.9626 21.0695 7.09581 21.0695C7.48331 21.0635 7.62862 20.8334 7.62862 20.2037V19.7496L7.91924 19.677C8.07667 19.6406 8.33096 19.5377 8.49444 19.4529C8.65186 19.3621 8.79112 19.3076 8.80323 19.3197C8.81534 19.3318 9.07569 21.5902 9.37842 24.333C9.82647 28.3473 9.91729 29.3342 9.85674 29.3766C9.54796 29.5764 9.08174 29.6854 8.53682 29.6914C8.02823 29.6975 7.91319 29.6793 7.54991 29.5219C7.32589 29.4311 7.09581 29.3645 7.03526 29.3826C6.98077 29.4068 6.74464 29.4916 6.5085 29.5703C5.47921 29.9397 4.38936 29.6067 3.32979 28.5955C2.68799 27.9901 2.28233 27.4088 1.84639 26.5067C1.23487 25.2352 0.998736 24.0969 1.04717 22.7043C1.0835 21.6871 1.2046 21.1422 1.54971 20.4277C1.7919 19.9313 2.23389 19.4045 2.57901 19.1865C3.05733 18.8959 3.32374 18.8293 3.97159 18.8475L4.57706 18.8596L5.39444 19.2713ZM21.7905 22.0867C20.7491 22.0928 19.8894 22.0867 19.8712 22.0686C19.8106 22.008 19.9862 21.227 20.1679 20.7608C20.2708 20.5004 20.4888 20.0766 20.6523 19.8223L20.961 19.3561L22.3173 20.7123L23.6735 22.0686L21.7905 22.0867ZM22.3112 24.4602L20.9792 25.7983L20.8157 25.5985C20.4403 25.1565 19.9923 24.0969 19.8894 23.4127L19.847 23.1281H21.7421H23.6433L22.3112 24.4602ZM24.3698 27.657C24.3577 27.6752 24.0913 27.6268 23.7825 27.5541C23.1649 27.4088 22.2507 26.9971 21.9177 26.7065L21.7058 26.5248L23.0378 25.1928L24.3698 23.8547L24.388 25.7377C24.394 26.7791 24.388 27.6389 24.3698 27.657ZM27.9118 26.7065C27.4698 27.0879 26.4648 27.5057 25.6898 27.6389L25.4294 27.6813V25.7498V23.8244L26.7796 25.1746L28.1237 26.5248L27.9118 26.7065Z" fill="black"/>
<path d="M7.90117 5.4007C7.71348 5.50969 7.63477 5.64289 7.63477 5.84269C7.63477 6.04855 7.71953 6.18176 7.91328 6.28469C8.11309 6.39367 8.27051 6.36945 8.45215 6.21203C8.89414 5.83058 8.40371 5.11008 7.90117 5.4007Z" fill="black"/>
<path d="M6.30221 6.99904C5.79362 7.42287 6.40514 8.15549 6.92585 7.74377C7.04089 7.65295 7.08327 7.56213 7.08327 7.41682C7.08327 7.13225 7.03483 7.02932 6.83503 6.93244C6.59889 6.80529 6.51413 6.8174 6.30221 6.99904Z" fill="black"/>
<path d="M11.9282 15.0691C11.468 15.2144 11.0442 15.5959 10.8262 16.0742C10.5417 16.6978 10.693 17.4849 11.1895 17.9996C11.5286 18.3508 11.8253 18.484 12.3581 18.5142C12.7637 18.5385 12.8667 18.5203 13.1512 18.3932C13.5569 18.2055 13.902 17.8724 14.0594 17.5152C14.5802 16.3285 13.7386 15.0025 12.4792 15.0207C12.2612 15.0207 12.013 15.0449 11.9282 15.0691ZM12.8546 16.1166C13.1512 16.268 13.2844 16.7947 13.1149 17.1277C12.8425 17.6484 12.0311 17.6303 11.7768 17.0974C11.6618 16.8492 11.6618 16.6857 11.7829 16.4314C11.9645 16.05 12.4489 15.9107 12.8546 16.1166Z" fill="black"/>
<path d="M11.3344 20.2408C11.0317 20.5617 11.2557 21.0703 11.6917 21.0703C11.9762 21.0703 12.17 20.8645 12.17 20.5799C12.17 20.15 11.6251 19.932 11.3344 20.2408Z" fill="black"/>
<path d="M11.825 22.802C11.6979 22.9291 11.6797 22.9957 11.71 23.1774C11.7887 23.6738 12.4063 23.7949 12.6303 23.359C12.9028 22.8383 12.2428 22.3842 11.825 22.802Z" fill="black"/>
<path d="M3.17266 20.0406C2.48242 20.4341 2.05859 21.53 2.05859 22.9468C2.05859 23.6795 2.1252 24.2183 2.27656 24.7451C2.40977 25.2234 2.79727 25.3869 3.11816 25.1144C3.31191 24.9449 3.32402 24.7511 3.17266 24.2183C3.02734 23.6795 3.02129 22.523 3.1666 21.9781C3.3543 21.3 3.52988 20.973 3.80234 20.8338C4.1959 20.6339 4.27461 20.2525 3.97793 19.98C3.80234 19.8105 3.52988 19.8287 3.17266 20.0406Z" fill="black"/>
</g>
<defs>
<clipPath id="clip0_2969_20870">
<rect width="31" height="31" fill="white"/>
</clipPath>
</defs>
</svg>
