<svg width="37" height="37" viewBox="0 0 37 37" fill="none" xmlns="http://www.w3.org/2000/svg">
<path d="M18.4502 0.137305C18.3707 0.216797 18.2768 0.404688 18.2551 0.556446C18.2262 0.708203 18.0889 1.0623 17.9516 1.34414C17.7275 1.79219 17.6914 1.92227 17.6914 2.38477C17.6914 2.84727 17.7203 2.96289 17.9588 3.41816C18.2984 4.06855 18.2984 4.31426 17.9588 4.97188C17.7203 5.4127 17.6914 5.53555 17.6914 5.99805C17.6914 6.46055 17.7275 6.59063 17.9516 7.03867C18.0889 7.32051 18.2262 7.67461 18.2551 7.82637C18.3129 8.15879 18.5297 8.38281 18.7826 8.38281C19.3824 8.37559 19.4836 7.59512 19.0066 6.74238C18.6959 6.19316 18.7031 5.88242 19.0428 5.23203C19.2812 4.77676 19.3102 4.66113 19.3102 4.19141C19.3102 3.72168 19.2812 3.60605 19.0428 3.15078C18.7031 2.50039 18.6959 2.18965 19.0066 1.64043C19.2523 1.19961 19.3752 0.621485 19.2812 0.361328C19.1512 0 18.7248 -0.115624 18.4502 0.137305Z" fill="black"/>
<path d="M13.8964 1.87891C13.4917 2.04512 13.4917 2.68828 13.9036 3.46875C14.0481 3.74336 14.1638 4.06855 14.1638 4.19141C14.1638 4.31426 14.0409 4.64668 13.8964 4.92852C13.6434 5.40547 13.6218 5.49219 13.6218 6.02695C13.6218 6.56172 13.6507 6.65566 13.8964 7.12539C14.0409 7.40723 14.1638 7.7252 14.1638 7.83359C14.1638 8.0793 14.46 8.38281 14.7057 8.38281C14.8141 8.38281 14.9731 8.30332 15.0815 8.19492C15.2477 8.02871 15.2622 7.9709 15.2261 7.6168C15.1971 7.35664 15.096 7.06035 14.9298 6.74961C14.5973 6.1498 14.5973 5.91133 14.9442 5.26094C15.1827 4.79121 15.2116 4.69004 15.2116 4.19141C15.2116 3.69277 15.1827 3.5916 14.9442 3.12187C14.7925 2.84004 14.6696 2.5293 14.6696 2.42812C14.6696 2.15352 14.5973 2.02344 14.3733 1.91504C14.1421 1.79219 14.1204 1.79219 13.8964 1.87891Z" fill="black"/>
<path d="M21.9687 1.90059C21.8748 1.95117 21.7592 2.08125 21.723 2.18965C21.6218 2.47149 21.7736 3.13633 22.0193 3.49766C22.3011 3.90957 22.3011 4.46602 22.0265 4.87793C21.5857 5.53555 21.5785 6.35938 21.9976 7.11094C22.1422 7.37109 22.2578 7.67461 22.2578 7.80469C22.2578 8.0793 22.5396 8.38281 22.7998 8.38281C22.9009 8.38281 23.0672 8.30332 23.1611 8.20215C23.4574 7.91309 23.3924 7.32051 22.9949 6.68457C22.6914 6.20762 22.6986 5.88242 23.0238 5.3043C23.2912 4.83457 23.3056 4.76953 23.3056 4.19141C23.3056 3.61328 23.2912 3.54824 23.0383 3.09297C22.8865 2.83281 22.7636 2.51484 22.7636 2.39922C22.7636 1.98008 22.33 1.7127 21.9687 1.90059Z" fill="black"/>
<path d="M17.0909 9.22149C12.8273 9.48164 9.53917 10.2693 6.75694 11.693C4.2421 12.9793 2.68116 14.5764 2.08135 16.477C1.93682 16.9539 1.91514 17.149 1.9296 18.1391C1.9585 21.0152 2.84737 24.0721 4.37217 26.4857C5.72354 28.6393 7.67471 30.5904 9.77042 31.8912L10.3052 32.2309L10.3919 32.9246C10.6159 34.883 11.7722 35.873 14.6267 36.5668C15.913 36.8775 16.7296 36.957 18.5001 36.957C20.6464 36.957 21.7882 36.798 23.4142 36.2705C25.5243 35.5768 26.406 34.659 26.6083 32.9246L26.695 32.2309L27.2298 31.8912C29.3255 30.5904 31.2767 28.632 32.628 26.4857C34.1456 24.0793 35.0489 20.9936 35.0706 18.1391C35.0851 16.925 34.9911 16.4842 34.5503 15.5736C33.647 13.7453 31.5802 12.141 28.6028 10.9559C27.6995 10.5945 27.4755 10.5801 27.2804 10.8619C27.1214 11.0859 27.1503 11.3678 27.3382 11.5412C27.4249 11.6207 27.8151 11.8086 28.2126 11.9604C29.9036 12.6252 31.3128 13.4707 32.3245 14.4463C34.0444 16.1012 34.4347 17.6982 33.5603 19.5049C33.2712 20.0975 33.1267 20.2926 32.4907 20.9285C30.2433 23.1904 26.2181 24.6791 21.1161 25.1488C20.0466 25.25 17.0548 25.2428 15.8985 25.1488C14.6845 25.0477 12.9284 24.7658 11.7866 24.4984C10.7894 24.2672 10.5653 24.2744 10.4136 24.5635C10.2907 24.7875 10.3196 24.9826 10.5003 25.1777C10.6232 25.315 10.8544 25.4018 11.5987 25.568C14.1858 26.1678 16.8235 26.399 19.8587 26.2979C25.3581 26.11 30.4817 24.4045 33.0689 21.9041C33.394 21.5861 33.5314 21.4922 33.5314 21.5861C33.5314 21.8318 32.8882 23.6168 32.5413 24.3611C30.3011 29.1018 25.8134 32.4043 20.6247 33.1414C19.4829 33.3004 17.5173 33.3004 16.3755 33.1414C14.7567 32.9102 13.1886 32.4332 11.7433 31.725C8.5419 30.1568 5.96924 27.5553 4.45889 24.3611C4.10479 23.6096 3.46885 21.8318 3.46885 21.5789C3.46885 21.485 3.62784 21.5934 4.03252 21.9836C4.35049 22.2799 4.95753 22.7641 5.39112 23.0459C6.14268 23.5445 7.60245 24.3033 8.18057 24.5057C8.5419 24.6285 8.81651 24.5346 8.93213 24.2383C9.09835 23.8408 8.96827 23.7252 7.6169 23.0531C6.07042 22.2799 5.42725 21.8391 4.5167 20.9213C3.67842 20.0902 3.24483 19.3676 3.06417 18.4787C2.71729 16.86 3.5917 15.1473 5.47784 13.7453C9.6042 10.6885 17.3511 9.48887 24.2814 10.8402C25.1991 11.0137 25.3509 11.0281 25.5171 10.9414C25.7267 10.8402 25.7989 10.7029 25.7989 10.45C25.7989 10.1754 25.5532 9.99473 24.9896 9.86465C24.238 9.69844 22.3663 9.4166 21.3907 9.32266C20.4874 9.24317 17.7847 9.17813 17.0909 9.22149ZM12.5888 33.2859C15.7396 34.5072 19.5624 34.6879 22.8505 33.7918C23.7394 33.5461 24.8306 33.1559 25.2931 32.9174L25.5315 32.7945L25.4882 33.0908C25.4015 33.7629 24.8884 34.4494 24.2308 34.7891C22.9011 35.4539 20.5741 35.9164 18.5001 35.9164C16.4261 35.9164 14.0991 35.4539 12.7694 34.7891C12.1118 34.4494 11.5987 33.7629 11.512 33.0908L11.4687 32.7945L11.7071 32.9174C11.83 32.9824 12.2347 33.1486 12.5888 33.2859Z" fill="black"/>
<path d="M15.8985 11.4983C14.8507 11.5922 13.297 11.8379 12.213 12.0836C10.5942 12.4522 8.50577 13.1748 8.1589 13.4856C7.86261 13.7529 8.10831 14.3817 8.513 14.3817C8.59249 14.3817 9.02608 14.2371 9.45968 14.0565C10.9267 13.4567 12.9573 12.958 15.1036 12.669C16.4767 12.4883 20.5597 12.4883 21.9327 12.669C26.088 13.2254 29.3616 14.5045 31.0165 16.2028C31.7753 16.9832 31.9849 17.742 31.6452 18.4647C31.5585 18.6453 31.4718 18.7899 31.4429 18.7899C31.414 18.7899 31.3345 18.6887 31.255 18.5586C30.8359 17.8432 29.47 16.6869 28.256 16.0221C26.6083 15.1188 24.1224 14.3961 21.4991 14.042C20.1767 13.8686 16.8235 13.8686 15.5011 14.042C11.4036 14.5912 8.22394 15.8848 6.45343 17.7276C6.13546 18.06 5.81749 18.4285 5.74523 18.5586C5.66573 18.6887 5.58624 18.7899 5.55734 18.7899C5.52843 18.7899 5.44171 18.6453 5.35499 18.4647C4.9503 17.6119 5.33331 16.7158 6.52569 15.6969C6.87257 15.4006 6.95206 15.1983 6.82921 14.902C6.72081 14.6563 6.48234 14.5551 6.17882 14.6274C6.08487 14.649 5.71632 14.9598 5.36222 15.3067C4.85636 15.8053 4.65401 16.0654 4.43722 16.5135C3.79405 17.8143 4.11202 19.05 5.4128 20.293C8.87433 23.6172 17.5534 25.077 24.5704 23.516C28.928 22.5404 32.086 20.6399 32.7726 18.5658C32.9605 18.0022 32.9026 17.2145 32.6208 16.6219C31.4212 14.0781 26.6661 11.9824 20.9933 11.491C19.9888 11.4115 16.903 11.4115 15.8985 11.4983ZM20.4151 15.0393C23.79 15.3283 26.5939 16.1738 28.6173 17.518C29.7302 18.2623 30.7925 19.4981 30.554 19.7799C30.236 20.1629 28.3716 21.1819 27.1648 21.6371C23.5876 22.9668 18.7097 23.4004 14.4026 22.7645C11.129 22.2875 8.1589 21.1891 6.5546 19.8594L6.35948 19.6932L6.51847 19.368C6.93038 18.5369 8.31788 17.424 9.83546 16.6942C12.6032 15.3717 16.7657 14.7213 20.4151 15.0393Z" fill="black"/>
<path d="M21.3184 16.3037C19.9236 16.6723 19.5623 18.0525 20.668 18.7969C21.0654 19.0643 21.4268 19.1582 22.041 19.1582C23.1178 19.1582 23.8982 18.6018 23.9777 17.7852C24.0428 17.1059 23.5225 16.5277 22.648 16.2965C22.135 16.1664 21.8387 16.1664 21.3184 16.3037ZM22.6914 17.4672C22.8143 17.5322 22.9082 17.6262 22.9082 17.6768C22.9082 17.8285 22.6408 18.002 22.3229 18.0525C21.5568 18.1898 20.7475 17.7563 21.2605 17.4816C21.7014 17.2432 22.3084 17.2359 22.6914 17.4672Z" fill="black"/>
<path d="M13.8386 16.5129C13.4845 16.6141 12.6029 16.8237 11.8875 16.9754C10.5 17.2717 10.1531 17.3874 9.77729 17.6764C9.28589 18.0522 9.07632 18.8905 9.3437 19.4036C9.87124 20.4153 12.0248 21.044 14.1927 20.82C15.9199 20.6465 16.9533 20.1334 17.4085 19.2084C17.5314 18.97 17.6326 18.7098 17.6326 18.6448C17.6326 18.5725 17.7699 18.428 17.9361 18.3124C18.5648 17.8788 18.8249 17.2428 18.4998 16.9465C18.2541 16.7225 17.9289 16.7731 17.6615 17.0766L17.4374 17.344L17.2423 17.0983C17.1339 16.9465 16.8521 16.7514 16.5703 16.6069C16.115 16.3829 16.021 16.3684 15.2839 16.3467C14.6191 16.3323 14.3878 16.3612 13.8386 16.5129ZM16.1656 17.5969C16.9822 18.0811 16.5269 19.1434 15.3417 19.512C14.2794 19.8372 12.8775 19.8661 11.649 19.5842C10.6951 19.3602 10.2253 19.0495 10.3193 18.7026C10.3771 18.4858 10.8468 18.3051 12.0103 18.0739C12.5812 17.9582 13.3833 17.7631 13.8025 17.6403C14.4529 17.4452 14.6552 17.4235 15.2478 17.4379C15.7681 17.4524 15.9921 17.4885 16.1656 17.5969Z" fill="black"/>
<path d="M26.1811 17.6323C25.1621 17.7768 24.4684 18.5573 24.6418 19.345C24.9309 20.6241 27.2434 21.0143 28.2117 19.9375C28.7465 19.3522 28.7176 18.7162 28.1467 18.167C27.6842 17.719 26.9543 17.5239 26.1811 17.6323ZM27.2578 18.8319C27.5252 18.9692 27.5686 19.0631 27.424 19.2221C27.0627 19.6268 25.7258 19.5112 25.7258 19.0776C25.7258 18.7162 26.7158 18.5573 27.2578 18.8319Z" fill="black"/>
<path d="M18.8549 19.4982C18.1322 19.7945 17.7637 20.2426 17.7637 20.8496C17.7637 21.3916 18.1033 21.8324 18.7537 22.1287C19.0428 22.2588 19.2451 22.2949 19.7293 22.2949C20.6615 22.2949 21.3119 21.9697 21.601 21.3627C21.7816 20.9941 21.7889 20.7557 21.6443 20.3943C21.4926 20.033 21.2758 19.8234 20.8494 19.5994C20.358 19.3465 19.3607 19.2959 18.8549 19.4982ZM20.3797 20.5822C20.6832 20.734 20.6977 20.8568 20.4303 21.0592C20.0184 21.3627 18.8621 21.2037 18.8621 20.8496C18.8621 20.5027 19.8738 20.3221 20.3797 20.5822Z" fill="black"/>
</svg>
