<svg width="36" height="35" viewBox="0 0 36 35" fill="none" xmlns="http://www.w3.org/2000/svg">
<path d="M22.2386 1.79785C21.6128 2.40625 21.5636 2.5293 21.8026 2.83008C21.9081 2.95996 22.0065 3.00781 22.1964 3.00781C22.4214 3.00781 22.5198 2.94629 22.9698 2.50879C23.4198 2.07129 23.4831 1.97559 23.4831 1.75684C23.4831 1.57227 23.4339 1.47656 23.3003 1.37402C22.9909 1.1416 22.8644 1.18945 22.2386 1.79785Z" fill="black"/>
<path d="M17.3395 2.39956C16.9949 2.68667 16.791 3.24722 16.791 3.87613C16.791 4.77163 17.3535 5.61245 18.2113 6.00894C18.7387 6.2482 19.6879 6.26187 20.1941 6.03628C20.7988 5.76968 21.073 5.298 20.8902 4.8605C20.841 4.75796 20.2293 4.10855 19.5191 3.43179L18.2395 2.18765H17.909C17.6488 2.18765 17.5363 2.22866 17.3395 2.39956ZM19.6387 5.14077C19.0621 5.35952 18.1621 4.94253 17.9301 4.34097C17.8387 4.11538 17.8246 3.53433 17.902 3.41128C17.9301 3.36343 18.3098 3.68472 18.8512 4.21109C19.5895 4.92202 19.7371 5.09976 19.6387 5.14077Z" fill="black"/>
<path d="M25.5021 4.51172C24.806 4.68262 24.1592 5.21582 23.8498 5.86523C23.4771 6.64453 23.6529 7.86133 24.2013 8.30566C24.3631 8.44238 24.4896 8.47656 24.7709 8.47656H25.1295L26.4513 7.19141L27.7732 5.90625V5.55762C27.7732 5.12012 27.5763 4.86719 27.0631 4.65527C26.6553 4.48438 25.9029 4.41602 25.5021 4.51172ZM26.5568 5.56445C26.5849 5.5918 26.2053 6.00195 25.7131 6.47363C25.2279 6.95215 24.806 7.32129 24.7849 7.30078C24.7568 7.27344 24.7217 7.13672 24.7006 6.98633C24.5951 6.20703 25.3615 5.42773 26.1771 5.48926C26.3599 5.50293 26.5357 5.53711 26.5568 5.56445Z" fill="black"/>
<path d="M11.5653 5.16113C11.263 5.44824 11.3262 5.62598 11.9309 6.22754C12.388 6.68555 12.5005 6.76758 12.7044 6.76758C12.9997 6.76758 13.2177 6.5625 13.2177 6.27539C13.2177 6.09766 13.1262 5.96777 12.6692 5.52344C12.0575 4.92871 11.8606 4.86719 11.5653 5.16113Z" fill="black"/>
<path d="M32.3643 7.38965C31.7385 7.50586 31.6331 7.59472 30.0932 9.33105C29.4252 10.083 28.8276 10.7529 28.7643 10.8145C28.6588 10.9307 28.6307 10.9238 28.3002 10.6914C27.801 10.3359 27.0557 10.0078 26.4088 9.84375C25.3541 9.58398 23.8916 9.69336 22.8862 10.1172C22.2956 10.3633 21.4026 10.9853 20.9667 11.457L20.5448 11.9082L20.1721 11.792C19.9401 11.7236 19.4338 11.6621 18.8784 11.6416C18.0909 11.6074 17.8729 11.6279 17.3666 11.751C15.5526 12.1816 14.0409 13.5078 13.4221 15.1895L13.1971 15.791H11.8471C10.5885 15.791 10.4831 15.7978 10.3073 15.9346C10.1737 16.0371 10.1245 16.1396 10.1245 16.3105C10.1245 16.6728 10.3213 16.8164 10.8206 16.8164H11.2354L13.4713 20.207C14.744 22.1416 15.8409 23.7207 16.0096 23.8916C16.7057 24.5547 17.3948 24.7461 19.1104 24.7461H20.2495V26.0312V27.3232L19.6729 27.5352C18.5549 27.9521 17.5776 28.6289 16.9307 29.4561L16.5581 29.9346H15.7002L14.8354 29.9414V28.998V28.0547L15.0815 27.9385C15.4471 27.7676 15.5596 27.4941 15.5948 26.6465C15.644 25.5732 15.5737 25.1973 15.2924 24.8965C15.0815 24.6709 15.0252 24.6504 14.5963 24.623L14.1323 24.5957V24.3428C14.1323 23.666 13.5487 22.8594 12.8526 22.5518C12.276 22.3057 11.5588 22.3193 10.9823 22.5996C10.4901 22.832 10.4057 22.8047 10.4057 22.4219C10.4057 21.752 9.82212 20.9385 9.12603 20.6377C8.60571 20.4121 7.84634 20.4121 7.32603 20.6377C6.70728 20.9111 6.04634 21.752 6.04634 22.2783C6.04634 22.3535 5.91274 22.4355 5.68071 22.5176C4.94946 22.7637 4.28853 23.625 4.28853 24.3428V24.5957L3.82446 24.623C3.39556 24.6504 3.33931 24.6709 3.12837 24.8965C2.84712 25.1973 2.77681 25.5732 2.82603 26.6465C2.86118 27.4941 2.97368 27.7676 3.33931 27.9385L3.5854 28.0547V28.998V29.9414H2.02446C0.906494 29.9414 0.407275 29.9687 0.280713 30.0303C0.0205564 30.1602 -0.0427248 30.4131 0.0557127 30.9873C0.287744 32.3271 1.36353 33.4209 2.72759 33.6943C2.98774 33.749 6.46118 33.7695 14.5471 33.7695H25.994L26.1838 33.626C26.3948 33.4687 26.4299 33.1338 26.2682 32.9082C26.1698 32.7783 25.9448 32.7783 14.5049 32.7441L2.84712 32.71L2.37603 32.4844C2.09478 32.3545 1.80649 32.1494 1.65884 31.9785C1.42681 31.7187 1.12446 31.1855 1.12446 31.0352C1.12446 30.9873 6.67212 30.9668 17.9995 30.9668C30.3182 30.9668 34.8745 30.9873 34.8745 31.042C34.8745 31.2129 34.4104 31.9443 34.1784 32.1426C34.0448 32.2588 33.7565 32.4365 33.5385 32.5322L33.1518 32.71L30.5995 32.7441C28.1737 32.7783 28.0401 32.7852 27.9416 32.9082C27.7799 33.1338 27.8151 33.4687 28.026 33.626C28.2088 33.7627 28.2932 33.7695 30.5573 33.7695C31.9916 33.7695 33.0393 33.7422 33.2713 33.6943C34.6354 33.4209 35.7112 32.3271 35.9432 30.9873C36.0416 30.4131 35.9784 30.1602 35.7182 30.0303C35.5846 29.9619 34.5721 29.9414 31.3588 29.9414L27.1752 29.9346L26.8588 29.5244C26.1768 28.6289 24.9956 27.8154 23.8565 27.4531L23.4838 27.3301V26.0381V24.7461H24.6299C25.2557 24.7461 25.9588 24.7119 26.1909 24.6777C26.7463 24.5889 27.4143 24.2607 27.794 23.8916C27.9768 23.7139 28.9963 22.21 30.3041 20.207L32.4979 16.8164H32.9127C33.412 16.8164 33.6088 16.6728 33.6088 16.3105C33.6088 16.1396 33.5596 16.0371 33.426 15.9346C33.2502 15.7978 33.1448 15.791 31.9284 15.791H30.6206L30.6135 14.9844C30.6065 14.5332 30.5573 14.0342 30.501 13.8291L30.3956 13.4805L32.1182 12.0176C33.9745 10.4453 34.2698 10.1582 34.4245 9.80273C34.544 9.52246 34.551 8.89355 34.4385 8.53125C34.2065 7.76562 33.2291 7.22558 32.3643 7.38965ZM32.9549 8.4082C33.0112 8.4082 33.1518 8.49707 33.2643 8.60644C33.419 8.76367 33.4682 8.87304 33.4682 9.07812C33.4682 9.22851 33.4471 9.40625 33.419 9.46777C33.3768 9.59082 30.0581 12.4414 29.9666 12.4414C29.9034 12.4346 29.4534 11.7441 29.4604 11.6553C29.4604 11.6143 30.0862 10.8965 30.8385 10.0625C32.1534 8.59961 32.5049 8.29199 32.751 8.37402C32.8073 8.39453 32.8916 8.4082 32.9549 8.4082ZM26.5635 10.9512C28.3354 11.5664 29.601 13.2754 29.601 15.0732C29.601 15.2988 29.5799 15.5518 29.5588 15.6338L29.5166 15.791H26.7956H24.0745L23.9901 15.4629C23.7018 14.4033 22.8088 13.2275 21.7331 12.4961L21.5713 12.3799L21.719 12.1748C22.0706 11.7031 23.1463 11.0605 23.976 10.835C24.5948 10.6709 25.9096 10.7324 26.5635 10.9512ZM20.1229 12.8652C21.4096 13.3369 22.394 14.2598 22.851 15.4424L22.9916 15.791H18.6674C15.0323 15.791 14.3432 15.7773 14.3432 15.6953C14.3432 15.4766 14.9268 14.4922 15.2995 14.0957C15.9182 13.4326 16.551 13.043 17.4721 12.7695C18.112 12.585 19.4831 12.6328 20.1229 12.8652ZM31.2182 16.8437C31.2182 16.8574 30.7049 17.6641 30.0721 18.6348L28.926 20.4053L27.4073 20.4395C26.0432 20.4668 25.8745 20.4873 25.7409 20.6035C25.551 20.7744 25.544 21.1436 25.7338 21.3281C25.8604 21.4512 25.9659 21.4648 27.0346 21.4648C27.6745 21.4648 28.1948 21.4785 28.1948 21.4922C28.1948 21.5127 27.9979 21.8271 27.7659 22.1963C27.2526 22.9961 26.9432 23.3242 26.5143 23.5293L26.1909 23.6865H22.0073C17.3807 23.6865 17.3877 23.6865 16.8745 23.2559C16.6284 23.0576 15.7424 21.8408 15.6299 21.5537C15.6018 21.4854 16.4104 21.4648 19.7151 21.4648C23.744 21.4648 23.8354 21.4648 23.976 21.3281C24.187 21.123 24.1659 20.7607 23.9338 20.583C23.751 20.4395 23.6877 20.4395 19.3073 20.4395H14.8706L13.851 18.8877C13.2885 18.0332 12.7612 17.2197 12.6698 17.0762L12.5081 16.8164H21.8596C27.0065 16.8164 31.2182 16.8301 31.2182 16.8437ZM8.71821 21.6152C8.99243 21.752 9.35103 22.1348 9.35103 22.2852C9.35103 22.3125 9.18227 22.3535 8.9854 22.374C8.78149 22.4014 8.43696 22.5039 8.22603 22.6064L7.83931 22.7979L7.47368 22.627C7.26274 22.5312 7.10806 22.4082 7.10103 22.3467C7.09399 22.0117 7.79009 21.4648 8.22603 21.4648C8.32446 21.4648 8.54946 21.5332 8.71821 21.6152ZM6.89712 23.4883C7.13618 23.584 7.17837 23.625 7.13618 23.748C7.10806 23.8301 7.0729 24.0557 7.05181 24.2471L7.01665 24.6094H6.17993H5.34321V24.4043C5.34321 24.1172 5.50493 23.8301 5.77915 23.6318C6.15181 23.3584 6.46118 23.3242 6.89712 23.4883ZM9.63931 23.4883C9.87837 23.584 9.92056 23.625 9.87837 23.748C9.85024 23.8301 9.81509 24.0557 9.79399 24.2471L9.75884 24.6094H8.92212H8.0854V24.4043C8.0854 24.1172 8.24712 23.8301 8.52134 23.6318C8.89399 23.3584 9.20337 23.3242 9.63931 23.4883ZM12.6346 23.625C12.9159 23.8301 13.0776 24.1172 13.0776 24.4043V24.6094H11.9526H10.8276V24.4043C10.8276 24.0146 11.2284 23.5293 11.6362 23.4268C11.9174 23.3516 12.3956 23.4473 12.6346 23.625ZM22.4291 25.9424V27.1387H21.8666H21.3041V25.9424V24.7461H21.8666H22.4291V25.9424ZM14.4838 26.3184V27.002H13.2604C12.1354 27.002 12.0299 27.0156 11.8541 27.1455C11.6221 27.3232 11.601 27.6855 11.812 27.8906C11.9385 28.0137 12.044 28.0273 12.8315 28.0273H13.7104V28.9844V29.9414H9.2104H4.7104V28.9844V28.0273H7.31196C9.82212 28.0273 9.92056 28.0205 10.0542 27.8906C10.2651 27.6855 10.244 27.3232 10.012 27.1455C9.82915 27.0088 9.75181 27.002 6.88306 27.002H3.93696V26.3184V25.6348H9.2104H14.4838V26.3184ZM22.9073 28.2734C23.8987 28.4717 24.8057 28.9365 25.5229 29.6064L25.8393 29.9072L23.8565 29.9277C22.7596 29.9346 20.9737 29.9346 19.8838 29.9277L17.894 29.9072L18.2104 29.6064C19.4268 28.4512 21.2338 27.9385 22.9073 28.2734Z" fill="black"/>
<path d="M23.5263 12.1748C23.2873 12.3594 23.2732 12.7148 23.4982 12.9199C23.6318 13.043 23.7443 13.0566 24.4123 13.0566C25.0802 13.0566 25.1857 13.043 25.3123 12.9199C25.5232 12.7148 25.5021 12.3525 25.2701 12.1748C25.1084 12.0518 24.9818 12.0312 24.3982 12.0312C23.8146 12.0312 23.6881 12.0518 23.5263 12.1748Z" fill="black"/>
<path d="M26.4091 14.0205C26.1701 14.2051 26.156 14.5605 26.381 14.7656C26.5146 14.8887 26.6271 14.9023 27.2951 14.9023C27.9631 14.9023 28.0685 14.8887 28.1951 14.7656C28.406 14.5605 28.3849 14.1982 28.1529 14.0205C27.9912 13.8975 27.8646 13.877 27.281 13.877C26.6974 13.877 26.5709 13.8975 26.4091 14.0205Z" fill="black"/>
<path d="M14.5462 7.95048C13.836 8.23759 13.4001 8.66825 13.1188 9.36552C12.8446 10.0423 13.0274 11.1497 13.4915 11.5804C13.7446 11.8128 14.1665 11.8811 14.4548 11.7376C14.7923 11.5667 17.0704 9.29032 17.1267 9.07157C17.1899 8.79814 17.0493 8.37431 16.8313 8.21025C16.2759 7.78642 15.2493 7.67021 14.5462 7.95048ZM15.8681 8.87333C15.9313 8.90751 15.6642 9.20829 15.0524 9.80302C14.497 10.3431 14.1313 10.6507 14.1032 10.6028C14.0118 10.4661 14.047 9.78935 14.1524 9.59111C14.3001 9.3245 14.6165 9.02372 14.8696 8.91435C15.1017 8.81864 15.7345 8.7913 15.8681 8.87333Z" fill="black"/>
</svg>
