<svg width="31" height="31" viewBox="0 0 31 31" fill="none" xmlns="http://www.w3.org/2000/svg">
<g clip-path="url(#clip0_2969_20833)">
<path d="M14.5621 0.0353527C10.2693 0.495508 6.83027 3.64395 5.98262 7.88828C5.78887 8.86309 5.78887 10.5221 5.98262 11.4727C6.23691 12.7502 6.75156 14.0156 7.42363 15.0146C7.59922 15.2871 7.75059 15.5172 7.75059 15.5354C7.75059 15.5475 7.22383 15.5596 6.57598 15.5596C5.52246 15.5596 5.38926 15.5717 5.26211 15.6746C5.06836 15.832 5.06836 16.1953 5.26211 16.3527C5.38926 16.4557 5.52852 16.4678 6.9877 16.4678H8.56797L9.04629 16.8916C9.93027 17.6727 11.0201 18.3447 12.007 18.7141L12.5398 18.9139L12.5217 19.2469L12.5035 19.5859L12.0191 19.7494C11.1049 20.0521 10.5902 20.1309 9.47617 20.1309C8.38027 20.1248 8.14414 20.0945 6.14609 19.6465C4.59609 19.3014 4.0209 19.2348 2.96738 19.2711C2.31953 19.2893 1.88965 19.3377 1.58691 19.4164C1.28418 19.5012 1.13281 19.5133 1.1207 19.4709C1.10859 19.4346 1.0541 18.8836 0.999609 18.2479C0.902735 17.1701 0.902735 17.0793 0.993555 16.8977C1.19336 16.5162 1.36289 16.4678 2.51934 16.4678C3.47598 16.4678 3.5668 16.4557 3.71816 16.3406C3.93613 16.1711 3.93613 15.8563 3.71816 15.6867C3.5668 15.5717 3.47598 15.5596 2.47695 15.5596C1.53848 15.5596 1.35684 15.5777 1.06621 15.6807C0.630274 15.8502 0.230664 16.268 0.0853516 16.7281L-0.0175781 17.0672L0.539453 23.0795C0.933008 27.2754 1.13887 29.1947 1.21152 29.4369C1.40527 30.0666 1.82305 30.5146 2.51328 30.8295L2.81602 30.9688H14.3502H25.8844L26.2779 30.7811C26.8773 30.4965 27.0953 30.2361 27.84 28.9283L28.5182 27.7477L29.1721 27.7174C29.935 27.6871 30.2559 27.5721 30.5828 27.2027C31.1641 26.5609 31.1217 25.6285 30.4799 25.0654C30.0742 24.7082 30.0197 24.7021 28.1246 24.7021H26.399L26.175 24.4539C26.0539 24.3207 25.848 24.1572 25.727 24.0906C25.5453 23.9998 25.4787 23.9211 25.4303 23.7455C25.3031 23.2611 24.9338 22.8918 24.4494 22.7586C24.2738 22.7162 24.183 22.6436 24.1104 22.5043C23.85 22.0139 23.3535 21.6748 22.8873 21.6748C22.7844 21.6748 22.6209 21.5658 22.3969 21.3539C22.0154 20.9906 21.6582 20.8574 21.2283 20.918C21.0104 20.9543 20.9438 20.9361 20.7924 20.809C20.3686 20.4578 19.9811 20.3609 19.4967 20.4881C19.1758 20.5729 19.1516 20.5668 18.8549 20.4275C18.4432 20.2338 18.0072 20.2338 17.5955 20.4275C17.2988 20.5668 17.2686 20.5729 16.9537 20.4881C16.4693 20.3609 16.0758 20.4639 15.658 20.809C15.5066 20.9361 15.44 20.9543 15.2221 20.918C14.7982 20.8574 14.4289 20.9906 14.0838 21.3297C13.8416 21.5658 13.7145 21.6445 13.5025 21.6748C13.3512 21.699 13.224 21.7172 13.224 21.7111C13.1998 21.693 13.448 19.2227 13.4723 19.1984C13.4844 19.1863 13.7266 19.2166 13.999 19.259C14.7498 19.3861 16.4148 19.368 17.1656 19.2287C20.1566 18.6777 22.6148 16.8795 24.0922 14.1609C24.4736 13.4707 24.401 13.0771 23.9045 13.0771C23.6441 13.0771 23.5897 13.1377 23.2203 13.8461C22.8207 14.609 22.2879 15.2992 21.5432 16.0137C20.5744 16.9521 19.4482 17.6242 18.1828 18.0359C17.208 18.3508 16.6691 18.4295 15.5006 18.4295C14.3018 18.4295 13.7629 18.3447 12.7275 18.0057C11.4258 17.5818 10.3844 16.9279 9.32481 15.8623C7.99277 14.5363 7.22988 13.1135 6.86055 11.2789C6.71524 10.5342 6.71524 8.83887 6.86055 8.09414C7.22988 6.25957 7.99277 4.83672 9.32481 3.51074C10.6326 2.20293 11.9525 1.48242 13.7871 1.07676C14.6469 0.889063 16.3482 0.889063 17.2383 1.07676C18.3887 1.325 19.3998 1.74883 20.4049 2.41484C21.0467 2.83262 22.3242 4.09805 22.7299 4.70957C24.0801 6.75606 24.5342 8.94785 24.1225 11.3939C24.0922 11.5816 24.1104 11.6422 24.2375 11.7693C24.4373 11.9691 24.6977 11.9752 24.8672 11.7875C25.182 11.4484 25.2729 9.15977 25.0186 7.88828C24.2375 3.96484 21.2465 0.96172 17.3473 0.180664C16.7539 0.0595703 15.1191 -0.0251942 14.5621 0.0353527ZM4.52949 20.252C4.84434 20.3064 5.57695 20.4518 6.16426 20.585C7.75664 20.9361 8.24102 21.0088 9.17344 21.0512C10.1301 21.0875 11.0262 20.9846 11.8859 20.7363C12.1584 20.6576 12.3885 20.5971 12.3945 20.6031C12.4006 20.6092 12.2311 22.4982 12.0131 24.793C11.7648 27.4691 11.5893 29.0615 11.5348 29.2189C11.4318 29.4914 11.1533 29.8063 10.8748 29.9576C10.7053 30.0484 10.3117 30.0605 6.94531 30.0787C4.37813 30.0908 3.13086 30.0727 2.96133 30.0303C2.64043 29.9395 2.21055 29.5459 2.09551 29.225C2.03496 29.0615 1.87148 27.5842 1.63535 25.0352C1.43555 22.8676 1.25391 20.9604 1.23574 20.7908L1.19941 20.476L1.41133 20.4094C2.16211 20.1611 3.53652 20.0945 4.52949 20.252ZM18.5764 21.3055C18.9154 21.475 19.1879 21.5053 19.5572 21.4084C19.9205 21.3115 19.9811 21.3236 20.2838 21.5598C20.5805 21.7838 20.9074 21.8807 21.2586 21.8322C21.5492 21.7898 21.5492 21.7959 21.8701 22.1107C22.1789 22.4256 22.5059 22.583 22.8207 22.583C23.0326 22.583 23.1779 22.692 23.3111 22.9402C23.4625 23.2369 23.7168 23.4488 24.0801 23.5881C24.4676 23.7273 24.4918 23.7516 24.5826 24.0482C24.625 24.1936 24.7098 24.3813 24.7703 24.4721C24.8369 24.5568 24.8854 24.6477 24.8854 24.6658C24.8854 24.684 22.2031 24.7021 18.9215 24.7021H12.9576V24.5205C12.9576 24.1633 13.0848 23.0916 13.1514 22.9281C13.2301 22.7223 13.4178 22.583 13.6176 22.583C13.9445 22.583 14.2654 22.4256 14.5803 22.1107C14.9012 21.7959 14.9012 21.7898 15.1918 21.8322C15.543 21.8807 15.8699 21.7838 16.1666 21.5598C16.4693 21.3236 16.5299 21.3115 16.8932 21.4084C17.2625 21.5053 17.541 21.475 17.8619 21.3055C18.1344 21.1662 18.2979 21.1662 18.5764 21.3055ZM29.8805 25.7436C30.0863 25.9252 30.1469 26.2764 30.0016 26.4943C29.7836 26.8334 29.9471 26.8213 24.074 26.8213H18.6551L18.534 26.9787C18.3705 27.1906 18.3766 27.3238 18.5522 27.5297L18.6975 27.6992L23.0871 27.7295L27.4768 27.7598L26.9682 28.6377C26.4293 29.5822 26.1326 29.9213 25.7572 30.0242C25.5938 30.0727 23.4201 30.0908 18.8186 30.0908H12.1221L12.3037 29.7275C12.4551 29.4248 12.4975 29.225 12.5701 28.559C12.6125 28.123 12.6549 27.7537 12.6549 27.7477C12.6549 27.7416 13.6236 27.7234 14.8104 27.7174L16.9658 27.6992L17.0809 27.5539C17.2141 27.3844 17.2322 27.1361 17.1111 26.9666C17.0264 26.8576 16.9113 26.8516 14.883 26.8213C12.7941 26.791 12.7457 26.791 12.7578 26.6699C12.7639 26.6033 12.7881 26.3369 12.8063 26.0766L12.8486 25.6104H21.2828H29.7231L29.8805 25.7436Z" fill="black"/>
<path d="M2.73672 22.3585C2.62168 22.4796 2.60352 22.5704 2.60352 23.0427C2.60352 23.5391 2.61562 23.6057 2.74277 23.7208C2.89414 23.8661 3.08789 23.8903 3.26953 23.7934C3.59648 23.6179 3.59648 22.4554 3.26953 22.2798C3.08184 22.1768 2.87598 22.2132 2.73672 22.3585Z" fill="black"/>
<path d="M10.3414 22.3035C10.19 22.4186 10.1113 22.6668 10.1113 23.0361C10.1113 23.575 10.2748 23.8475 10.6018 23.8535C10.6865 23.8535 10.8137 23.799 10.8863 23.7324C11.0074 23.6174 11.0195 23.5447 11.0195 23.0361C11.0195 22.5275 11.0074 22.4549 10.8863 22.3398C10.735 22.2006 10.4928 22.1824 10.3414 22.3035Z" fill="black"/>
<path d="M5.50977 23.0664C5.43711 23.1391 5.38867 23.2662 5.38867 23.3934C5.38867 23.5629 5.43711 23.6477 5.66719 23.8414C6.32715 24.4227 7.2959 24.4227 7.95586 23.8414C8.19805 23.6355 8.23438 23.5689 8.23438 23.3691C8.23438 22.9635 7.80449 22.8061 7.46543 23.0906C7.21113 23.3025 7.05371 23.3691 6.81152 23.3691C6.56934 23.3691 6.41191 23.3025 6.15762 23.0906C5.9457 22.915 5.67324 22.9029 5.50977 23.0664Z" fill="black"/>
<path d="M14.774 2.18478C13.8477 2.2756 12.9879 2.52384 12.1402 2.94767C10.6447 3.69845 9.50645 4.83673 8.75566 6.33829C8.22285 7.40392 7.97461 8.46349 7.97461 9.68654C7.97461 10.5402 8.07148 11.176 8.30762 11.9268C8.9252 13.8945 10.2814 15.4869 12.11 16.4072C13.7629 17.2367 15.6398 17.4426 17.4078 16.9824C20.1021 16.2801 22.2152 14.0883 22.857 11.3395C23.2385 9.69865 23.0023 7.80353 22.2152 6.27169C20.8045 3.51075 17.8316 1.87599 14.774 2.18478ZM15.0223 3.34122C15.0223 3.74083 15.1434 4.01329 15.3371 4.0799C15.7246 4.21915 15.9729 3.92853 15.9789 3.34122C15.985 3.10509 15.9971 3.08693 16.1545 3.08693C16.4633 3.08693 17.4078 3.317 17.8922 3.5047C18.4432 3.71661 19.0789 4.07384 19.5451 4.43107L19.866 4.67931L19.5936 4.95782C19.2787 5.27872 19.2242 5.53907 19.4361 5.75099C19.648 5.9629 19.9084 5.90841 20.2293 5.59357L20.5078 5.32111L20.7561 5.642C21.1133 6.10822 21.4705 6.74396 21.6824 7.29493C21.8822 7.80353 22.1002 8.7299 22.1002 9.0629V9.26271H21.7066C21.2646 9.26271 21.0709 9.3838 21.0709 9.66232C21.0709 10.0014 21.3191 10.1709 21.8338 10.1709C22.082 10.1709 22.1002 10.183 22.1002 10.3344C22.1002 10.6492 21.8701 11.5938 21.6824 12.0781C21.4705 12.6291 21.1133 13.2649 20.7561 13.7311L20.5078 14.052L20.2293 13.7795C19.9084 13.4647 19.648 13.4102 19.4361 13.6221C19.2242 13.834 19.2787 14.0943 19.5936 14.4152L19.866 14.6938L19.5451 14.942C19.0789 15.2992 18.4432 15.6565 17.8922 15.8684C17.4078 16.0561 16.4633 16.2861 16.1545 16.2861C15.9971 16.2861 15.985 16.268 15.9789 16.0258C15.9729 15.4445 15.7246 15.1539 15.3371 15.2932C15.1434 15.3598 15.0223 15.6322 15.0223 16.0258C15.0162 16.268 15.0041 16.2861 14.8527 16.2861C14.5379 16.2861 13.5934 16.0561 13.109 15.8684C12.558 15.6565 11.9223 15.2992 11.4561 14.942L11.1352 14.6938L11.4076 14.4152C11.7225 14.0943 11.777 13.834 11.565 13.6221C11.3531 13.4102 11.0928 13.4647 10.7719 13.7795L10.4934 14.052L10.2451 13.7311C9.88789 13.2649 9.53066 12.6291 9.31875 12.0781C9.13105 11.5938 8.90098 10.6492 8.90098 10.3344C8.90098 10.183 8.91914 10.1709 9.16738 10.1709C9.68203 10.1709 9.93027 10.0014 9.93027 9.66232C9.93027 9.3838 9.73652 9.26271 9.29453 9.26271H8.90098V9.0629C8.90098 8.72384 9.11895 7.79747 9.31875 7.28888C9.51855 6.76818 9.96055 5.98712 10.2936 5.56935L10.4934 5.32111L10.7719 5.59357C11.0928 5.90841 11.3531 5.9629 11.565 5.75099C11.777 5.53907 11.7225 5.27872 11.4076 4.95782L11.1352 4.67931L11.4561 4.43107C11.9223 4.07384 12.558 3.71661 13.109 3.5047C13.6115 3.3049 14.4773 3.09904 14.8225 3.09298C15.0102 3.08693 15.0162 3.09298 15.0223 3.34122Z" fill="black"/>
<path d="M15.2164 5.16875L15.0469 5.31406V7.58457C15.0469 9.73398 15.0529 9.86113 15.1619 9.98223C15.2406 10.067 15.3496 10.1094 15.4949 10.1094C15.7008 10.1094 15.8037 10.0246 17.0631 8.75918C18.2195 7.59668 18.4072 7.38477 18.4072 7.22734C18.4072 6.99727 18.1893 6.7793 17.9531 6.7793C17.8139 6.7793 17.6201 6.93672 16.8875 7.66328L15.9914 8.55332L15.9732 6.93672L15.9551 5.31406L15.7855 5.16875C15.5736 4.98711 15.4283 4.98711 15.2164 5.16875Z" fill="black"/>
</g>
<defs>
<clipPath id="clip0_2969_20833">
<rect width="31" height="31" fill="white"/>
</clipPath>
</defs>
</svg>
