<svg width="18" height="18" viewBox="0 0 18 18" fill="none" xmlns="http://www.w3.org/2000/svg">
<g clip-path="url(#clip0_4116_48740)">
<path d="M6.73666 16.6133C7.75374 16.6133 8.57365 16.6133 9.21841 16.5307C9.88786 16.445 10.4516 16.2616 10.8992 15.8353C11.2897 15.4635 11.4869 15.0065 11.5905 14.4696C11.6911 13.9479 11.7104 13.3094 11.7148 12.5433C11.7165 12.2499 11.4682 12.0108 11.1601 12.0091C10.8521 12.0075 10.6009 12.244 10.5992 12.5374C10.5947 13.312 10.5736 13.861 10.4932 14.2777C10.4158 14.6791 10.2914 14.9115 10.1104 15.084C9.90452 15.28 9.6155 15.4078 9.06981 15.4777C8.50798 15.5497 7.76341 15.5508 6.69583 15.5508L5.95208 15.5508C4.8845 15.5508 4.13993 15.5497 3.57811 15.4777C3.03234 15.4078 2.74339 15.28 2.53752 15.084C2.33165 14.8879 2.19748 14.6127 2.12407 14.0929C2.04858 13.5579 2.04739 12.8488 2.04739 11.832L2.04739 6.16536C2.04739 5.14862 2.04858 4.43951 2.12407 3.90444C2.19748 3.38466 2.33166 3.10947 2.53753 2.91341C2.7434 2.71734 3.03234 2.58956 3.57811 2.51964C4.13993 2.44775 4.8845 2.44662 5.95208 2.44662L6.69583 2.44662C7.76341 2.44662 8.50798 2.44775 9.06981 2.51964C9.6155 2.58956 9.90452 2.71734 10.1104 2.91341C10.2914 3.08589 10.4158 3.31822 10.4932 3.7197C10.5736 4.13642 10.5947 4.68544 10.5992 5.46001C10.6009 5.7534 10.8521 5.98991 11.1601 5.98828C11.4682 5.98665 11.7165 5.74745 11.7148 5.45406C11.7104 4.68799 11.6911 4.0495 11.5905 3.52782C11.4869 2.9909 11.2897 2.53395 10.8992 2.16208C10.4516 1.73573 9.88786 1.55235 9.21841 1.46664C8.57365 1.38412 7.75374 1.38412 6.73666 1.38412L5.91125 1.38412C4.8941 1.38412 4.07426 1.38412 3.42943 1.46664C2.75998 1.55235 2.19637 1.73573 1.74863 2.16208C1.30097 2.5885 1.10841 3.12527 1.01842 3.76284C0.931695 4.37696 0.931768 5.15776 0.931768 6.12648L0.931768 11.8709C0.931768 12.8396 0.931694 13.6204 1.01842 14.2345C1.10841 14.8721 1.30097 15.4089 1.74863 15.8353C2.19637 16.2616 2.75998 16.445 3.42943 16.5307C4.07426 16.6133 4.8941 16.6133 5.91125 16.6133L6.73666 16.6133Z" fill="#AC1927"/>
<path d="M6.69531 9.53124C6.38725 9.53124 6.1375 9.29338 6.1375 8.99999C6.1375 8.7066 6.38725 8.46874 6.69531 8.46874L14.8562 8.46874L13.3979 7.27832C13.164 7.08742 13.1369 6.75202 13.3374 6.52925C13.5379 6.30648 13.8901 6.2807 14.124 6.47167L16.7271 8.59667C16.8507 8.69753 16.9219 8.84494 16.9219 8.99999C16.9219 9.15504 16.8507 9.30245 16.7271 9.40332L14.124 11.5283C13.8901 11.7193 13.5379 11.6935 13.3374 11.4707C13.1369 11.248 13.164 10.9126 13.3979 10.7216L14.8562 9.53124L6.69531 9.53124Z" fill="#AC1927"/>
</g>
<defs>
<clipPath id="clip0_4116_48740">
<rect width="17.85" height="17" fill="white" transform="translate(17.8516 17.5) rotate(-180)"/>
</clipPath>
</defs>
</svg>
