<svg width="2" height="10" viewBox="0 0 19 20" fill="none" xmlns="http://www.w3.org/2000/svg">
<path d="M9.5 3.66927C8.66015 3.66927 7.85469 4.0029 7.26083 4.59677C6.66696 5.19063 6.33333 5.99608 6.33333 6.83594C6.33333 7.67579 6.66696 8.48124 7.26083 9.07511C7.85469 9.66897 8.66015 10.0026 9.5 10.0026C10.3399 10.0026 11.1453 9.66897 11.7392 9.07511C12.333 8.48124 12.6667 7.67579 12.6667 6.83594C12.6667 5.99608 12.333 5.19063 11.7392 4.59677C11.1453 4.0029 10.3399 3.66927 9.5 3.66927ZM4.75 6.83594C4.75 5.57616 5.25045 4.36798 6.14124 3.47718C7.03204 2.58638 8.24022 2.08594 9.5 2.08594C10.7598 2.08594 11.968 2.58638 12.8588 3.47718C13.7496 4.36798 14.25 5.57616 14.25 6.83594C14.25 8.09572 13.7496 9.3039 12.8588 10.1947C11.968 11.0855 10.7598 11.5859 9.5 11.5859C8.24022 11.5859 7.03204 11.0855 6.14124 10.1947C5.25045 9.3039 4.75 8.09572 4.75 6.83594ZM6.33333 14.7526C5.70344 14.7526 5.09935 15.0028 4.65395 15.4482C4.20856 15.8936 3.95833 16.4977 3.95833 17.1276C3.95833 17.3376 3.87493 17.5389 3.72646 17.6874C3.57799 17.8359 3.37663 17.9193 3.16667 17.9193C2.9567 17.9193 2.75534 17.8359 2.60687 17.6874C2.45841 17.5389 2.375 17.3376 2.375 17.1276C2.375 16.0778 2.79204 15.071 3.53437 14.3286C4.2767 13.5863 5.28352 13.1693 6.33333 13.1693H12.6667C13.7165 13.1693 14.7233 13.5863 15.4656 14.3286C16.208 15.071 16.625 16.0778 16.625 17.1276C16.625 17.3376 16.5416 17.5389 16.3931 17.6874C16.2447 17.8359 16.0433 17.9193 15.8333 17.9193C15.6234 17.9193 15.422 17.8359 15.2735 17.6874C15.1251 17.5389 15.0417 17.3376 15.0417 17.1276C15.0417 16.4977 14.7914 15.8936 14.346 15.4482C13.9006 15.0028 13.2966 14.7526 12.6667 14.7526H6.33333Z" fill="black"/>
</svg>
