<svg width="22" height="22" viewBox="0 0 22 22" fill="none" xmlns="http://www.w3.org/2000/svg">
<path fill-rule="evenodd" clip-rule="evenodd" d="M21.2505 3.79703C21.4922 3.34706 20.9442 3.48353 20.9442 3.48353C20.9442 3.48353 17.2912 6.99013 16.7835 6.56044C16.2758 6.13075 20.3602 2.76991 19.8769 2.14188C19.4297 1.55647 15.8413 5.73578 15.4102 5.22531C14.9833 4.71588 18.483 1.05803 18.483 1.05803C18.483 1.05803 18.616 0.507345 18.1695 0.748657C12.6671 3.70766 11.9662 6.46625 11.9662 6.46625C11.9662 6.46625 11.7768 7.00353 12.1879 7.41878C12.2281 7.45488 2.14901 17.4769 0.799791 18.8299C0.143229 19.4858 2.55223 21.8552 3.20467 21.1994C4.55423 19.8464 14.5567 9.75147 14.5928 9.78894C15.0077 10.2032 15.5436 10.0131 15.5436 10.0131C15.5436 10.0131 18.2977 9.31009 21.2505 3.79703Z" fill="#B9BABC"/>
<path fill-rule="evenodd" clip-rule="evenodd" d="M11.0098 13.9252C13.692 16.6133 18.2141 21.1436 18.2141 21.1436C18.2141 21.1436 20.1879 20.4977 20.466 18.8305L13.2902 11.6406C12.5294 12.4014 11.7692 13.163 11.0098 13.9252Z" fill="#B9BABC"/>
<path fill-rule="evenodd" clip-rule="evenodd" d="M7.48 11.5957C8.44214 10.6343 9.40315 9.6718 10.363 8.70817L2.56403 0.894388C2.56403 0.894388 2.42309 0.746576 2.11269 1.05836C1.49634 1.67264 0.303874 5.58658 5.3594 10.6497C6.16069 11.4527 6.85781 11.564 7.48 11.5957Z" fill="#B9BABC"/>
</svg>
