<svg width="24" height="24" viewBox="0 0 24 24" fill="none" xmlns="http://www.w3.org/2000/svg">
<g clip-path="url(#clip0_3504_25567)">
<path d="M20.8134 21.2644L19.3178 23.6665C18.9651 24.2329 18.0958 24.0366 18.0206 23.3737L17.3359 17.3359L23.3737 18.0206C24.0366 18.0958 24.2329 18.9651 23.6665 19.3178L21.2644 20.8134C21.0816 20.9272 20.9273 21.0815 20.8134 21.2644Z" fill="#44A5FF"/>
<path d="M17.7248 20.765C18.5983 20.8525 19.4621 20.7291 20.0956 20.0956C20.7291 19.4621 20.8524 18.5983 20.7649 17.7248L17.3359 17.3359L17.7248 20.765Z" fill="#377BFE"/>
<path d="M8.72089 1.61328L12.6037 1.92012C12.8737 1.94145 13.1294 2.04936 13.3331 2.22777L16.0668 4.6227C16.3744 4.89223 16.2487 5.39675 15.8506 5.49041L12.5911 6.25737L8.09961 2.32245L8.72089 1.61328Z" fill="#44A5FF"/>
<path d="M13.9992 7.27734L16.9549 7.69959C17.2909 7.74759 17.5897 7.93875 17.774 8.2237L19.2475 10.5009C19.459 10.8278 19.2034 11.2553 18.8153 11.2236L15.7 10.9693L13.377 7.89956L13.9992 7.27734Z" fill="#44A5FF"/>
<path d="M7.27734 13.9973L7.69959 16.9529C7.74759 17.2889 7.93875 17.5877 8.2237 17.772L10.5009 19.2455C10.8278 19.4571 11.2553 19.2014 11.2236 18.8133L10.9693 15.698L7.89956 13.375L7.27734 13.9973Z" fill="#377BFE"/>
<path d="M10.6382 3.17152C7.43073 -0.0359545 3.15905 -0.964548 1.09712 1.09734C-0.302852 2.49731 -0.323758 4.91592 0.810711 7.32854L5.15195 6.12014C5.6198 5.98992 6.12156 6.12174 6.46491 6.46514L7.57754 7.57777C8.27949 8.27972 9.1448 8.79638 10.0958 9.08133C11.3266 9.45015 12.4065 10.2047 13.176 11.2338L18.9347 18.935C20.1992 17.6706 15.5426 8.07596 10.6382 3.17152Z" fill="#77CEFF"/>
<path d="M13.9902 12.3223L18.9342 18.9338C19.6307 18.2373 18.5304 15.013 16.582 11.4375C15.7817 11.7861 14.9131 12.0836 13.9902 12.3223Z" fill="#5BB0FF"/>
<path d="M10.0956 9.08083C9.14469 8.79588 8.27938 8.27923 7.57742 7.57727L6.4648 6.46465C6.12139 6.12124 5.61964 5.98943 5.15178 6.11965L0.810547 7.32804C1.34698 8.46879 2.14137 9.60822 3.17108 10.6379C8.07552 15.5424 17.6701 20.199 18.9346 18.9345L13.1758 11.2333C12.4063 10.2042 11.3265 9.44969 10.0956 9.08083Z" fill="#CEF3FB"/>
<path d="M13.9899 12.3242C12.3297 12.7537 10.4941 12.9926 8.56311 12.9926C7.56078 12.9926 6.58437 12.9278 5.64453 12.806C10.7607 16.805 17.8587 20.0109 18.9338 18.9358L13.9899 12.3242Z" fill="#AEE8FA"/>
<path d="M5.50134 6.02291C5.44772 5.83016 5.24822 5.71766 5.05528 5.7711L0.662109 6.99388C0.709594 7.10535 0.758719 7.21687 0.811172 7.32843C0.862969 7.43864 0.917953 7.54879 0.974578 7.65885L5.24953 6.46898C5.44223 6.41526 5.55497 6.21562 5.50134 6.02291Z" fill="#377BFE"/>
<path d="M1.8218 2.33372L1.87158 3.32967C1.88128 3.52326 2.04127 3.67373 2.23298 3.67373C2.23908 3.67373 2.24522 3.67359 2.25136 3.67326C2.45114 3.66332 2.60498 3.49326 2.595 3.29343L2.53823 2.15812C2.53373 2.0685 2.49609 1.98365 2.43258 1.92014L1.36795 0.855469C1.27439 0.931172 1.18411 1.01161 1.098 1.09772C1.01189 1.18383 0.931172 1.27383 0.855469 1.36739L1.8218 2.33372Z" fill="#44A5FF"/>
<path d="M6.65713 5.72571C6.61429 5.72571 6.57069 5.71807 6.52827 5.7019C6.34138 5.63069 6.24754 5.42144 6.31874 5.23451L7.10638 3.16695C7.17763 2.98001 7.38679 2.88621 7.57377 2.95742C7.76066 3.02862 7.85451 3.23787 7.78331 3.42481L6.99566 5.49237C6.94058 5.63688 6.80305 5.72571 6.65713 5.72571Z" fill="#377BFE"/>
<path d="M8.63327 5.81857L5.59034 4.5724C5.48229 4.52815 5.35821 4.55309 5.27567 4.63564L4.63564 5.27571C4.55309 5.35826 4.52815 5.48234 4.5724 5.59038L5.81857 8.63332C6.03935 9.17247 6.73793 9.31286 7.14991 8.90093L8.90093 7.14991C9.31286 6.73798 9.17243 6.03935 8.63327 5.81857Z" fill="#44A5FF"/>
</g>
<defs>
<clipPath id="clip0_3504_25567">
<rect width="24" height="24" fill="white"/>
</clipPath>
</defs>
</svg>
