<svg width="24" height="24" viewBox="0 0 24 24" fill="none" xmlns="http://www.w3.org/2000/svg">
<path d="M8.8163 21.8164C9.69539 21.8164 10.408 22.529 10.408 23.4081V23.6418C10.408 23.9085 10.1274 24.0819 9.88889 23.9626L8.9767 23.5065C8.87573 23.456 8.75686 23.456 8.65589 23.5065L7.7437 23.9626C7.5052 24.0819 7.22461 23.9084 7.22461 23.6418V23.4081C7.22461 22.529 7.93725 21.8164 8.8163 21.8164Z" fill="#E41F2D"/>
<path d="M15.1835 21.8164C16.0626 21.8164 16.7752 22.529 16.7752 23.4081V23.6418C16.7752 23.9085 16.4946 24.0819 16.2561 23.9626L15.3439 23.5065C15.2429 23.456 15.124 23.456 15.0231 23.5065L14.1109 23.9626C13.8724 24.0819 13.5918 23.9084 13.5918 23.6418V23.4081C13.5918 22.529 14.3044 21.8164 15.1835 21.8164Z" fill="#E41F2D"/>
<path d="M8.8163 2.16632C7.9372 2.16632 7.22461 1.45368 7.22461 0.574633V0.359149C7.22461 0.092477 7.5052 -0.0809136 7.7437 0.0383364L8.65589 0.49443C8.75686 0.544915 8.87573 0.544915 8.9767 0.49443L9.88889 0.0383364C10.1274 -0.0809136 10.408 0.0925239 10.408 0.359149V0.574633C10.408 1.45368 9.69539 2.16632 8.8163 2.16632Z" fill="#E41F2D"/>
<path d="M15.1835 2.16632C14.3044 2.16632 13.5918 1.45368 13.5918 0.574633V0.359149C13.5918 0.092477 13.8724 -0.0809136 14.1109 0.0383364L15.0231 0.49443C15.124 0.544915 15.2429 0.544915 15.3439 0.49443L16.2561 0.0383364C16.4946 -0.0809136 16.7752 0.0925239 16.7752 0.359149V0.574633C16.7752 1.45368 16.0625 2.16632 15.1835 2.16632Z" fill="#E41F2D"/>
<path d="M8.81623 22.3263C7.05809 22.3263 5.63281 20.901 5.63281 19.1429V18.3675L6.10156 17.4984L5.63281 16.779V13.5924L6.10156 12.7542L5.63281 12.0038V8.81733L6.10156 8.01403L5.63281 7.22873V4.83577C5.63281 3.07762 7.05809 1.65234 8.81623 1.65234C10.5744 1.65234 11.9997 3.07762 11.9997 4.83577V19.1429C11.9997 20.901 10.5744 22.3263 8.81623 22.3263Z" fill="#FD4755"/>
<path d="M7.68251 19.1429V4.83572C7.68251 3.43613 8.58574 2.24747 9.84105 1.82091C9.51945 1.71164 9.17478 1.65234 8.81623 1.65234C7.05809 1.65234 5.63281 3.07762 5.63281 4.83577V7.22873L6.10156 8.01403L5.63281 8.81733V12.0038L6.10156 12.7542L5.63281 13.5924V16.779L6.10156 17.4984L5.63281 18.3675V19.1429C5.63281 20.901 7.05809 22.3263 8.81623 22.3263C9.17478 22.3263 9.51949 22.267 9.84105 22.1577C8.58574 21.7311 7.68251 20.5425 7.68251 19.1429Z" fill="#EF253D"/>
<path d="M15.1834 22.3264C13.4253 22.3264 12 20.9011 12 19.1429V18.3676L12.4688 17.561L12 16.779V13.5925L12.4688 12.777L12 12.0039V8.81737L12.4688 7.98281L12 7.22873V4.83576C12 3.07762 13.4253 1.65234 15.1834 1.65234C16.9416 1.65234 18.3668 3.07762 18.3668 4.83576V19.1429C18.3668 20.9011 16.9416 22.3264 15.1834 22.3264Z" fill="#FD4755"/>
<path d="M14.0497 19.1429V4.83572C14.0497 3.43613 14.9529 2.24747 16.2083 1.82091C15.8866 1.71164 15.542 1.65234 15.1834 1.65234C13.4253 1.65234 12 3.07762 12 4.83577V19.1429C12 20.901 13.4253 22.3263 15.1834 22.3263C15.542 22.3263 15.8867 22.267 16.2083 22.1578C14.9529 21.7311 14.0497 20.5425 14.0497 19.1429Z" fill="#EF253D"/>
<path d="M9.14877 7.41097L5.63281 8.81873V7.23013L8.60061 6.04185C9.08502 5.84788 9.61208 6.20465 9.61208 6.72641C9.61203 7.02782 9.42856 7.2989 9.14877 7.41097Z" fill="#E41F2D"/>
<path d="M9.14877 12.1844L5.63281 13.5922V12.0036L8.60061 10.8153C9.08502 10.6213 9.61208 10.9781 9.61208 11.4998C9.61203 11.8013 9.42856 12.0724 9.14877 12.1844Z" fill="#E41F2D"/>
<path d="M9.14877 16.9617L5.63281 18.3695V16.7809L8.60061 15.5926C9.08502 15.3987 9.61208 15.7554 9.61208 16.2772C9.61203 16.5786 9.42856 16.8497 9.14877 16.9617Z" fill="#E41F2D"/>
<path d="M7.68252 6.41016L5.63281 7.23084V8.81944L7.68252 7.99875V6.41016Z" fill="#C41926"/>
<path d="M7.68252 11.1836L5.63281 12.0043V13.5929L7.68252 12.7722V11.1836Z" fill="#C41926"/>
<path d="M7.68252 15.9609L5.63281 16.7816V18.3702L7.68252 17.5495V15.9609Z" fill="#C41926"/>
<path d="M15.516 7.41097L12 8.81873V7.23013L14.9678 6.04185C15.4522 5.84788 15.9793 6.20465 15.9793 6.72641C15.9793 7.02782 15.7958 7.2989 15.516 7.41097Z" fill="#E41F2D"/>
<path d="M15.516 12.1844L12 13.5922V12.0036L14.9678 10.8153C15.4522 10.6213 15.9793 10.9781 15.9793 11.4998C15.9793 11.8013 15.7958 12.0724 15.516 12.1844Z" fill="#E41F2D"/>
<path d="M15.516 16.9617L12 18.3695V16.7809L14.9678 15.5926C15.4522 15.3987 15.9793 15.7554 15.9793 16.2772C15.9793 16.5786 15.7958 16.8497 15.516 16.9617Z" fill="#E41F2D"/>
<path d="M14.0497 6.41016L12 7.23084V8.81944L14.0497 7.99875V6.41016Z" fill="#C41926"/>
<path d="M14.0497 11.1836L12 12.0043V13.5929L14.0497 12.7722V11.1836Z" fill="#C41926"/>
<path d="M14.0497 15.9609L12 16.7816V18.3702L14.0497 17.5495V15.9609Z" fill="#C41926"/>
</svg>
