<svg width="22" height="22" viewBox="0 0 22 22" fill="none" xmlns="http://www.w3.org/2000/svg">
<path fill-rule="evenodd" clip-rule="evenodd" d="M4.44959 7.33464C3.51093 7.33464 2.75 8.09557 2.75 9.03423V13.6203C2.75 15.2197 2.75 16.0194 3.04709 16.6363C3.34197 17.2486 3.83603 17.7427 4.44835 18.0375C5.06527 18.3346 5.86494 18.3346 7.46429 18.3346H14.5357C16.1351 18.3346 16.9347 18.3346 17.5517 18.0375C18.164 17.7427 18.658 17.2486 18.9529 16.6363C19.25 16.0194 19.25 15.2197 19.25 13.6203V9.03423C19.25 8.09557 18.4891 7.33464 17.5504 7.33464C16.9066 7.33464 16.3181 6.97092 16.0302 6.39512L15.2778 4.89019C15.2215 4.77759 15.1933 4.72129 15.1642 4.67064C14.8281 4.08638 14.2203 3.71073 13.5473 3.67138C13.489 3.66797 13.4261 3.66797 13.3002 3.66797H8.69982C8.57392 3.66797 8.51098 3.66797 8.45265 3.67138C7.77975 3.71073 7.17193 4.08638 6.83581 4.67064C6.80668 4.72128 6.77853 4.77757 6.72224 4.89015L6.72222 4.89019L5.96976 6.39512C5.68186 6.97092 5.09335 7.33464 4.44959 7.33464ZM12.6667 11.918C12.6667 12.8384 11.9205 13.5846 11 13.5846C10.0795 13.5846 9.33333 12.8384 9.33333 11.918C9.33333 10.9975 10.0795 10.2513 11 10.2513C11.9205 10.2513 12.6667 10.9975 12.6667 11.918ZM14.6667 11.918C14.6667 13.943 13.025 15.5846 11 15.5846C8.97496 15.5846 7.33333 13.943 7.33333 11.918C7.33333 9.89293 8.97496 8.2513 11 8.2513C13.025 8.2513 14.6667 9.89293 14.6667 11.918Z" fill="#D7AD45"/>
</svg>
