<svg width="21" height="17" viewBox="0 0 21 17" fill="none" xmlns="http://www.w3.org/2000/svg">
<path d="M1.52083 1.52083V1C1.3827 1 1.25022 1.05487 1.15255 1.15255C1.05487 1.25022 1 1.3827 1 1.52083H1.52083ZM20.2708 1.52083H20.7917C20.7917 1.3827 20.7368 1.25022 20.6391 1.15255C20.5414 1.05487 20.409 1 20.2708 1V1.52083ZM1.52083 2.04167H20.2708V1H1.52083V2.04167ZM19.75 1.52083V14.0208H20.7917V1.52083H19.75ZM18.1875 15.5833H3.60417V16.625H18.1875V15.5833ZM2.04167 14.0208V1.52083H1V14.0208H2.04167ZM3.60417 15.5833C3.18977 15.5833 2.79234 15.4187 2.49931 15.1257C2.20629 14.8327 2.04167 14.4352 2.04167 14.0208H1C1 14.7115 1.27437 15.3739 1.76274 15.8623C2.25112 16.3506 2.9135 16.625 3.60417 16.625V15.5833ZM19.75 14.0208C19.75 14.4352 19.5854 14.8327 19.2924 15.1257C18.9993 15.4187 18.6019 15.5833 18.1875 15.5833V16.625C18.8782 16.625 19.5405 16.3506 20.0289 15.8623C20.5173 15.3739 20.7917 14.7115 20.7917 14.0208H19.75Z" fill="black"/>
<path d="M1.51953 1.52148L10.8945 10.8965L20.2695 1.52148" stroke="black" stroke-width="1.29167" stroke-linecap="round" stroke-linejoin="round"/>
</svg>
