<svg width="22" height="22" viewBox="0 0 22 22" fill="none" xmlns="http://www.w3.org/2000/svg">
<g clip-path="url(#clip0_4116_49124)">
<path d="M11.2866 7.10333C9.13396 7.10333 7.39048 8.84685 7.39048 10.9994C7.39048 13.152 9.13396 14.8956 11.2866 14.8956C13.4392 14.8956 15.1827 13.152 15.1827 10.9995C15.1827 8.8469 13.4391 7.10333 11.2866 7.10333ZM19.9944 10.0254C19.5463 5.96372 16.3223 2.7397 12.2606 2.29167V0.285156H10.3125V2.29167C6.25083 2.7397 3.02681 5.96372 2.57878 10.0254H0.572266V11.9735H2.57878C3.02681 16.0352 6.25087 19.2592 10.3126 19.7073V21.7138H12.2606V19.7073C16.3223 19.2592 19.5463 16.0352 19.9944 11.9735H22.0009V10.0254H19.9944ZM11.2866 17.8176C7.52198 17.8176 4.4684 14.7641 4.4684 10.9995C4.4684 7.23487 7.52198 4.18129 11.2866 4.18129C15.0512 4.18129 18.1047 7.23482 18.1047 10.9995C18.1047 14.7641 15.0512 17.8176 11.2866 17.8176Z" fill="#D7AD45"/>
</g>
<defs>
<clipPath id="clip0_4116_49124">
<rect width="21.4286" height="21.4286" fill="white" transform="translate(0.572266 0.285156)"/>
</clipPath>
</defs>
</svg>
