<svg width="25" height="25" viewBox="0 0 25 25" fill="none" xmlns="http://www.w3.org/2000/svg">
<g clip-path="url(#clip0_3926_30698)">
<path d="M18.1642 8.39916C18.5689 8.58306 18.9544 8.79877 19.3422 9.01561C19.5129 9.1094 19.6836 9.20318 19.8543 9.29692C20.0272 9.39205 20.1998 9.48766 20.3723 9.58338C20.6725 9.74936 20.9736 9.91347 21.2755 10.0765C22.1912 10.5713 23.1011 11.0756 24.0053 11.5913C24.094 11.6419 24.1827 11.6924 24.2741 11.7445C24.3552 11.791 24.4363 11.8375 24.5199 11.8854C24.6274 11.9471 24.6274 11.9471 24.7372 12.01C24.9025 12.1101 24.9025 12.1101 25.0001 12.2077C25.0135 12.4267 25.0199 12.6461 25.0236 12.8655C25.0249 12.9343 25.0261 13.003 25.0275 13.0739C25.0398 13.7939 25.0454 14.514 25.0504 15.2341C25.053 15.5759 25.0578 15.9176 25.0644 16.2594C25.0724 16.6717 25.0766 17.0839 25.078 17.4963C25.0792 17.6535 25.0818 17.8107 25.0857 17.9678C25.1147 19.1927 25.1147 19.1927 24.8456 19.5307C24.641 19.6622 24.4478 19.744 24.2189 19.8249C24.1012 19.8876 23.9844 19.952 23.8688 20.0185C23.7501 20.0812 23.6313 20.1435 23.5124 20.2056C23.4472 20.24 23.3819 20.2744 23.3147 20.3099C23.1036 20.4211 22.8922 20.532 22.6808 20.6428C22.3835 20.7989 22.0864 20.9552 21.7893 21.1116C21.7147 21.1509 21.6401 21.1901 21.5632 21.2306C21.0719 21.4896 20.5834 21.7533 20.0963 22.0203C19.9716 22.0884 19.8469 22.1564 19.7222 22.2244C19.4902 22.351 19.259 22.4788 19.0281 22.6073C17.9592 23.1899 17.9592 23.1899 17.4806 23.1452C17.0903 22.9629 16.7395 22.7314 16.382 22.4922C16.278 22.4249 16.1741 22.3576 16.0671 22.2883C15.8554 22.1512 15.6442 22.0134 15.4334 21.8748C15.0286 21.6094 14.6191 21.3518 14.2091 21.0945C14.0613 21.0009 13.9136 20.9073 13.7658 20.8137C13.3992 20.5821 13.0311 20.3527 12.6626 20.124C12.5567 20.0582 12.4508 19.9923 12.3416 19.9245C12.1344 19.7958 11.927 19.6674 11.7194 19.5392C11.5775 19.451 11.5775 19.451 11.4328 19.3611C11.3489 19.3092 11.2651 19.2573 11.1788 19.2039C11.0992 19.151 11.0196 19.0982 10.9376 19.0437C10.811 18.962 10.811 18.962 10.6819 18.8787C10.4493 18.6531 10.4493 18.6531 10.3906 18.3577C10.3917 18.2423 10.3928 18.127 10.3939 18.0081C10.3938 17.9442 10.3938 17.8803 10.3937 17.8145C10.394 17.6042 10.3978 17.394 10.4017 17.1836C10.4026 17.0375 10.4033 16.8914 10.4038 16.7452C10.4056 16.3612 10.4104 15.9772 10.4158 15.5932C10.4208 15.2011 10.423 14.809 10.4255 14.4168C10.4307 13.6479 10.4391 12.879 10.4493 12.1101C10.6639 11.987 10.8786 11.864 11.0932 11.741C11.183 11.6895 11.183 11.6895 11.2747 11.6369C11.8763 11.2925 12.4862 10.9647 13.0983 10.6391C13.2148 10.577 13.3313 10.5148 13.4478 10.4526C13.6905 10.323 13.9332 10.1935 14.1759 10.0641C14.5606 9.85894 14.9449 9.65307 15.3291 9.44705C15.3922 9.41324 15.4552 9.37943 15.5202 9.3446C15.7662 9.2127 16.0122 9.08079 16.2581 8.94887C16.4268 8.85843 16.5955 8.76803 16.7642 8.67763C16.9084 8.60033 16.9084 8.60033 17.0555 8.52146C17.4682 8.30179 17.7116 8.26813 18.1642 8.39916ZM17.3063 9.27539C17.2006 9.34274 17.095 9.41009 16.9862 9.47948C16.8783 9.54506 16.7704 9.61065 16.6593 9.67822C16.4004 9.83876 16.4004 9.83876 16.3087 10.0593C16.4705 10.143 16.4705 10.143 16.6356 10.2283C17.4325 10.6427 18.2235 11.0649 19.004 11.5095C19.1933 11.6172 19.3831 11.7241 19.5734 11.8302C20.0294 12.085 20.4763 12.3452 20.9138 12.6308C21.6447 13.1349 21.6447 13.1349 22.4875 13.246C22.959 13.0778 23.3428 12.8126 23.7306 12.5007C23.4418 12.2728 23.1464 12.0941 22.8219 11.9213C22.6684 11.8391 22.6684 11.8391 22.5118 11.7553C22.4024 11.6972 22.293 11.639 22.1803 11.5791C21.9506 11.4563 21.721 11.3335 21.4914 11.2106C21.4045 11.1642 21.4045 11.1642 21.3159 11.1168C20.6658 10.769 20.0193 10.4146 19.3735 10.059C19.2131 9.97103 19.0523 9.884 18.8909 9.79798C18.7248 9.70794 18.561 9.61383 18.399 9.5167C17.884 9.2133 17.884 9.2133 17.3063 9.27539ZM14.5509 10.8406C14.795 11.1172 15.0634 11.2666 15.3882 11.4379C15.4987 11.4966 15.6092 11.5553 15.723 11.6157C15.811 11.662 15.811 11.662 15.9008 11.7092C16.0848 11.8059 16.2684 11.9032 16.4519 12.0008C16.7038 12.1346 16.9558 12.2683 17.2079 12.4018C17.76 12.6945 18.3102 12.9909 18.86 13.2881C18.9529 13.338 19.0457 13.3879 19.1414 13.4393C19.317 13.5342 19.492 13.6303 19.6662 13.7277C19.8419 13.824 20.0205 13.9152 20.2011 14.002C20.8504 14.3352 20.8504 14.3352 20.9842 14.6647C21.0166 14.9053 21.0192 15.127 21.0084 15.3694C21.0088 15.4912 21.0088 15.4912 21.0092 15.6154C21.0092 15.8142 21.0033 16.013 20.9962 16.2117C21.3946 16.0846 21.3946 16.0846 21.7775 15.9187C21.7986 15.6192 21.814 15.3213 21.8263 15.0215C21.8328 14.9371 21.8394 14.8527 21.8461 14.7657C21.8665 14.3002 21.8665 14.3002 21.6391 13.9156C21.4312 13.7829 21.2197 13.6792 20.9962 13.5749C20.8201 13.4786 20.6444 13.3816 20.469 13.2839C20.2746 13.1793 20.08 13.0749 19.8854 12.9707C19.6763 12.8581 19.4672 12.7454 19.2582 12.6327C19.1556 12.5773 19.0529 12.522 18.9472 12.465C18.5342 12.2414 18.123 12.0148 17.7125 11.7866C17.6423 11.7477 17.5722 11.7088 17.4999 11.6687C17.163 11.4813 16.8284 11.2909 16.4964 11.095C16.4337 11.0582 16.3709 11.0214 16.3063 10.9835C16.138 10.8845 15.9704 10.7844 15.8029 10.6842C15.3012 10.4354 15.0119 10.5891 14.5509 10.8406ZM13.0658 11.6092C12.9925 11.6492 12.9192 11.6892 12.8436 11.7303C12.7685 11.7731 12.6935 11.8158 12.6161 11.8598C12.5006 11.9234 12.5006 11.9234 12.3828 11.9882C12.1933 12.0927 12.0047 12.1985 11.8165 12.3054C12.1011 12.6149 12.3813 12.8129 12.75 13.0134C12.8573 13.0723 12.9646 13.1312 13.0751 13.1918C13.1317 13.2225 13.1882 13.2531 13.2465 13.2847C13.4838 13.4132 13.7203 13.5432 13.9568 13.6732C14.0771 13.7393 14.1975 13.8053 14.318 13.8713C14.8794 14.1792 15.436 14.4952 15.9913 14.814C16.0731 14.8608 16.1548 14.9077 16.2391 14.956C16.3159 15.0002 16.3928 15.0443 16.472 15.0898C16.5441 15.1307 16.6161 15.1717 16.6904 15.2139C16.8237 15.2914 16.9554 15.3718 17.0852 15.4551C17.3326 15.6108 17.5179 15.7225 17.8144 15.7268C18.1884 15.5769 18.5307 15.383 18.8783 15.1802C18.9506 15.1387 19.0229 15.0972 19.0975 15.0545C19.275 14.9525 19.4521 14.8497 19.629 14.7468C19.2818 14.453 18.934 14.2314 18.5312 14.0209C18.4729 13.9902 18.4145 13.9594 18.3545 13.9278C18.2297 13.8621 18.1048 13.7966 17.9799 13.7313C17.6505 13.5592 17.3219 13.3856 16.9935 13.2118C16.9274 13.1768 16.8614 13.1419 16.7933 13.1059C16.0719 12.7224 15.3629 12.3177 14.658 11.9049C14.5732 11.8559 14.4884 11.8069 14.401 11.7565C14.3281 11.7137 14.2552 11.671 14.1801 11.627C13.7544 11.4235 13.4831 11.3767 13.0658 11.6092ZM11.2306 13.0867C10.8435 15.8851 10.8435 15.8851 11.4116 18.5206C11.878 19.012 12.4524 19.2274 13.0884 19.4293C13.5479 19.5917 13.9246 19.8575 14.3251 20.1301C14.4745 20.225 14.6243 20.3194 14.7744 20.4132C15.1023 20.6199 15.4292 20.8282 15.7556 21.0372C15.841 21.0917 15.9264 21.1462 16.0143 21.2024C16.179 21.3075 16.3434 21.4129 16.5075 21.5187C16.581 21.5655 16.6545 21.6123 16.7302 21.6606C16.7951 21.7022 16.86 21.7438 16.9269 21.7867C17.0876 21.8913 17.0876 21.8913 17.2853 21.8757C17.3176 21.1252 17.3397 20.3749 17.355 19.6239C17.3614 19.3686 17.37 19.1134 17.3811 18.8583C17.5005 17.5511 17.5005 17.5511 17.177 16.3214C16.8533 15.9935 16.4424 15.8683 16.0157 15.7234C15.804 15.6089 15.5943 15.4904 15.3871 15.3678C15.1736 15.2501 14.96 15.1326 14.7462 15.0154C14.5165 14.8888 14.2868 14.762 14.0573 14.635C13.972 14.5879 13.972 14.5879 13.8849 14.5398C13.2297 14.1771 12.5803 13.8041 11.9321 13.4289C11.8141 13.3609 11.8141 13.3609 11.6937 13.2915C11.6251 13.2517 11.5565 13.212 11.4857 13.171C11.3437 13.079 11.3437 13.079 11.2306 13.0867ZM22.7882 13.8827C22.4631 14.3279 22.559 14.9751 22.6012 15.4985C22.6178 15.7881 22.6252 16.0266 22.5587 16.3093C22.3024 16.5819 22.0146 16.7343 21.6798 16.8952C21.5867 16.9494 21.4935 17.0035 21.3975 17.0593C21.2835 17.1171 21.2835 17.1171 21.1671 17.176C21.0901 17.216 21.013 17.2561 20.9337 17.2973C20.7032 17.3835 20.7032 17.3835 20.215 17.3835C20.1666 16.4651 20.1666 16.4651 20.1173 15.5281C19.3718 15.7553 19.3718 15.7553 18.1642 16.5046C18.1642 18.3093 18.1642 20.114 18.1642 21.9734C19.4284 21.342 19.4284 21.342 20.6884 20.7023C20.7691 20.661 20.8498 20.6197 20.9329 20.5771C21.1 20.4915 21.2671 20.4059 21.4342 20.3202C21.6886 20.1898 21.9431 20.0596 22.1977 19.9295C22.3619 19.8453 22.5261 19.7611 22.6903 19.6769C22.7652 19.6387 22.8401 19.6004 22.9172 19.561C22.9884 19.5244 23.0595 19.4879 23.1329 19.4502C23.1943 19.4188 23.2557 19.3873 23.319 19.3549C23.6224 19.1923 23.92 19.0191 24.2189 18.8484C24.2189 17.0115 24.2189 15.1745 24.2189 13.282C23.7097 13.282 23.1737 13.5623 22.7882 13.8827Z" fill="#D7AD45"/>
<path d="M9.28986 -0.0612106C9.36328 -0.0622807 9.4367 -0.0633507 9.51235 -0.0644531C10.2482 -0.0457594 10.9046 0.259605 11.4261 0.781075C11.6932 1.18017 11.8915 1.54747 11.9876 2.02009C12.1486 2.44682 12.3736 2.54338 12.7544 2.77197C13.1249 3.02122 13.4164 3.34562 13.6722 3.71076C13.6722 3.77522 13.6722 3.83967 13.6722 3.90607C13.7317 3.90564 13.7912 3.90521 13.8525 3.90476C14.4703 3.90045 15.0881 3.8975 15.7059 3.89535C15.9367 3.89436 16.1674 3.89303 16.3982 3.89134C16.7293 3.88898 17.0604 3.88786 17.3915 3.887C17.4952 3.88599 17.5988 3.88498 17.7056 3.88395C17.8493 3.88392 17.8493 3.88392 17.9959 3.8839C18.0805 3.88347 18.1651 3.88303 18.2522 3.88259C18.4573 3.90607 18.4573 3.90607 18.6527 4.10139C18.6698 4.36749 18.6753 4.62352 18.6717 4.8895C18.6714 4.96726 18.6712 5.04502 18.6709 5.12513C18.6698 5.3739 18.6673 5.62264 18.6649 5.87141C18.6639 6.03989 18.663 6.20837 18.6622 6.37685C18.66 6.79025 18.6567 7.20363 18.6527 7.61701C18.4268 7.72688 18.4268 7.72688 18.1644 7.81232C18.0677 7.74787 17.971 7.68342 17.8714 7.61701C17.8381 7.33487 17.8381 7.33487 17.8428 6.97843C17.8435 6.86392 17.8443 6.74942 17.845 6.63144C17.8477 6.48536 17.8503 6.33929 17.8531 6.18879C17.8591 5.72553 17.8652 5.26228 17.8714 4.78498C16.6468 4.78498 15.4222 4.78498 14.1605 4.78498C14.1927 4.91389 14.2249 5.04279 14.2581 5.17561C14.2719 5.39097 14.2796 5.60679 14.2825 5.82258C14.2851 5.93462 14.2876 6.04665 14.2902 6.16209C14.2743 6.3022 14.2743 6.3022 14.2581 6.44514C13.8704 6.70363 13.5349 6.66781 13.0849 6.66572C12.9948 6.66606 12.9048 6.66641 12.812 6.66676C12.5138 6.66762 12.2156 6.66705 11.9174 6.66639C11.7105 6.66652 11.5037 6.66671 11.2968 6.66696C10.863 6.66724 10.4292 6.66682 9.99543 6.66591C9.43879 6.6648 8.88217 6.66544 8.32554 6.66661C7.89828 6.66732 7.47103 6.66709 7.04377 6.66659C6.8385 6.66645 6.63323 6.66662 6.42795 6.66707C6.14131 6.66756 5.85469 6.66681 5.56805 6.66572C5.48281 6.66612 5.39757 6.66651 5.30976 6.66692C4.72128 6.66277 4.72128 6.66277 4.39484 6.44514C4.36279 6.13729 4.36279 6.13729 4.37042 5.76765C4.37193 5.64592 4.37345 5.52419 4.375 5.39877C4.39484 5.07795 4.39484 5.07795 4.49249 4.78498C3.26788 4.78498 2.04328 4.78498 0.781557 4.78498C0.781557 11.1981 0.781557 17.6112 0.781557 24.2186C6.38898 24.2186 11.9964 24.2186 17.7737 24.2186C17.7737 24.0252 17.7737 23.8319 17.7737 23.6326C17.9691 23.4373 17.9691 23.4373 18.2132 23.4129C18.4573 23.4373 18.4573 23.4373 18.6527 23.6326C18.6752 23.9012 18.6752 23.9012 18.671 24.2186C18.6703 24.3233 18.6697 24.428 18.6691 24.536C18.6527 24.8045 18.6527 24.8045 18.555 24.9998C16.1502 25.0021 13.7454 25.0038 11.3406 25.0049C10.224 25.0054 9.10754 25.0061 7.99102 25.0072C7.01825 25.0082 6.04548 25.0088 5.0727 25.009C4.55728 25.0091 4.04187 25.0094 3.52646 25.0102C3.04192 25.0108 2.5574 25.011 2.07286 25.0109C1.89448 25.0109 1.7161 25.0111 1.53772 25.0115C1.29528 25.0119 1.05285 25.0118 0.810407 25.0116C0.738876 25.0119 0.667345 25.0121 0.593646 25.0124C0.109107 25.011 0.109108 25.011 0.000306639 24.9022C-0.00925187 24.633 -0.0123821 24.3663 -0.011437 24.097C-0.0115204 24.0116 -0.0116036 23.9262 -0.0116895 23.8382C-0.0118514 23.5497 -0.0113118 23.2612 -0.0107798 22.9727C-0.0107523 22.7668 -0.0107677 22.5609 -0.010823 22.3549C-0.0108512 21.7941 -0.0102752 21.2332 -0.00959518 20.6723C-0.00898664 20.0868 -0.00892742 19.5013 -0.00881138 18.9159C-0.00850729 17.8064 -0.00770536 16.6968 -0.00672671 15.5873C-0.00563694 14.3246 -0.00509842 13.0618 -0.00460776 11.799C-0.00358571 9.20058 -0.00186692 6.60215 0.000306639 4.00373C0.23469 3.88654 0.371314 3.89744 0.632593 3.90307C0.768613 3.90535 0.768613 3.90535 0.907382 3.90767C1.00584 3.90941 1.10431 3.91115 1.20575 3.91294C1.41429 3.91401 1.62282 3.91476 1.83136 3.91523C2.16023 3.91599 2.48867 3.91824 2.81746 3.92582C4.09596 4.01709 4.09596 4.01709 5.23696 3.56897C5.48401 3.31692 5.6644 3.02736 5.85968 2.7342C6.05592 2.61139 6.05592 2.61139 6.2442 2.53278C6.64281 2.2806 6.65087 2.06182 6.75995 1.62031C6.96491 0.939849 7.47738 0.444122 8.08823 0.104347C8.49365 -0.0321207 8.86417 -0.0566839 9.28986 -0.0612106ZM7.87384 1.40363C7.57625 1.78913 7.42218 2.08545 7.42218 2.58161C7.32453 2.92951 7.32453 2.92951 7.12883 3.07256C6.95725 3.16713 6.78518 3.2608 6.6127 3.35371C5.92035 3.7767 5.47736 4.3993 5.27374 5.17561C5.27374 5.36897 5.27374 5.56232 5.27374 5.76154C7.94855 5.76154 10.6234 5.76154 13.3792 5.76154C13.1774 4.75245 12.9979 4.09035 12.1982 3.44144C12.0014 3.31322 11.8099 3.23866 11.5909 3.15534C11.391 3.06417 11.391 3.06417 11.2308 2.92951C11.1532 2.6636 11.1258 2.4064 11.0938 2.13148C10.9942 1.65997 10.7218 1.36941 10.3519 1.07404C9.5125 0.595326 8.53115 0.667766 7.87384 1.40363Z" fill="#D7AD45"/>
<path d="M2.34409 13.4775C2.58661 13.4514 2.80451 13.4434 3.04675 13.4489C3.15038 13.4495 3.15038 13.4495 3.25611 13.4501C3.47704 13.4518 3.69789 13.4555 3.91879 13.4592C4.06845 13.4607 4.21812 13.462 4.36778 13.4632C4.73492 13.4664 5.10199 13.4715 5.46909 13.4775C5.68382 13.8242 5.68956 14.1088 5.69034 14.512C5.69072 14.6992 5.69072 14.6992 5.6911 14.8901C5.69049 14.9871 5.69049 14.9871 5.68986 15.0861C5.68882 15.2835 5.68985 15.4808 5.6911 15.6782C5.69085 15.8029 5.6906 15.9277 5.69034 16.0562C5.69012 16.1703 5.6899 16.2845 5.68967 16.402C5.66548 16.6873 5.61812 16.8501 5.46909 17.0908C5.02762 17.098 4.58618 17.1033 4.14467 17.1069C3.99443 17.1083 3.84419 17.1103 3.69396 17.1129C3.47822 17.1164 3.26252 17.1181 3.04675 17.1194C2.94573 17.1217 2.94573 17.1217 2.84267 17.124C2.65312 17.124 2.65312 17.124 2.34409 17.0908C2.10387 16.7305 2.1236 16.547 2.12283 16.1173C2.12265 16.0512 2.12246 15.9851 2.12227 15.917C2.12213 15.7775 2.12249 15.6379 2.12331 15.4984C2.12436 15.2849 2.12332 15.0715 2.12207 14.858C2.1222 14.7224 2.12245 14.5867 2.12283 14.451C2.12305 14.3276 2.12327 14.2041 2.1235 14.077C2.14877 13.7705 2.14877 13.7705 2.34409 13.4775ZM3.02768 14.3564C3.02768 14.9687 3.02768 15.581 3.02768 16.2119C3.60776 16.2119 4.18784 16.2119 4.78549 16.2119C4.78549 15.5996 4.78549 14.9873 4.78549 14.3564C4.20541 14.3564 3.62534 14.3564 3.02768 14.3564Z" fill="#D7AD45"/>
<path d="M2.34409 8.39937C2.58661 8.37327 2.80451 8.36532 3.04675 8.37076C3.15038 8.37138 3.15038 8.37138 3.25611 8.37202C3.47704 8.37366 3.69789 8.37733 3.91879 8.38106C4.06845 8.38253 4.21812 8.38387 4.36778 8.38507C4.73492 8.3883 5.10199 8.39336 5.46909 8.39937C5.68382 8.7461 5.68956 9.03068 5.69034 9.43392C5.69072 9.62104 5.69072 9.62104 5.6911 9.81195C5.69049 9.90899 5.69049 9.90899 5.68986 10.008C5.68882 10.2054 5.68985 10.4027 5.6911 10.6001C5.69085 10.7248 5.6906 10.8496 5.69034 10.9781C5.69012 11.0922 5.6899 11.2063 5.68967 11.3239C5.66548 11.6092 5.61812 11.772 5.46909 12.0127C5.02762 12.0199 4.58618 12.0252 4.14467 12.0287C3.99443 12.0302 3.84419 12.0322 3.69396 12.0348C3.47822 12.0383 3.26252 12.04 3.04675 12.0413C2.94573 12.0435 2.94573 12.0435 2.84267 12.0458C2.65312 12.0459 2.65312 12.0459 2.34409 12.0127C2.10387 11.6523 2.1236 11.4688 2.12283 11.0391C2.12265 10.9731 2.12246 10.907 2.12227 10.8389C2.12213 10.6993 2.12249 10.5598 2.12331 10.4203C2.12436 10.2068 2.12332 9.99338 2.12207 9.77991C2.1222 9.64423 2.12245 9.50856 2.12283 9.37288C2.12305 9.24945 2.12327 9.12602 2.1235 8.99885C2.14877 8.69234 2.14877 8.69234 2.34409 8.39937ZM3.02768 9.18062C3.02768 9.82515 3.02768 10.4697 3.02768 11.1337C3.60776 11.1337 4.18784 11.1337 4.78549 11.1337C4.78549 10.4892 4.78549 9.84468 4.78549 9.18062C4.20541 9.18062 3.62534 9.18062 3.02768 9.18062Z" fill="#D7AD45"/>
<path d="M3.90009 18.5251C4.02591 18.5223 4.15173 18.5195 4.28137 18.5166C4.46255 18.5153 4.46255 18.5153 4.64739 18.5141C4.75803 18.5127 4.86868 18.5112 4.98267 18.5098C5.27338 18.5557 5.27338 18.5557 5.505 18.7118C5.71843 19.0266 5.71157 19.2364 5.70902 19.615C5.70888 19.7107 5.70888 19.7107 5.70875 19.8083C5.70816 19.9426 5.70662 20.077 5.7042 20.2114C5.70063 20.4169 5.70019 20.6223 5.70024 20.8279C5.69287 21.8327 5.69287 21.8327 5.46869 22.1689C5.16275 22.2069 5.16275 22.2069 4.77289 22.2079C4.70427 22.2081 4.63564 22.2084 4.56494 22.2087C4.41981 22.2089 4.27467 22.2084 4.12954 22.2071C3.90702 22.2056 3.68467 22.2071 3.46216 22.209C3.32127 22.2088 3.18038 22.2084 3.03949 22.2079C2.91084 22.2075 2.78218 22.2072 2.64963 22.2069C2.54867 22.1943 2.44771 22.1818 2.34369 22.1689C2.10604 21.8125 2.12444 21.6411 2.12587 21.2168C2.12592 21.1529 2.12596 21.089 2.12601 21.0231C2.1263 20.8882 2.12707 20.7532 2.12828 20.6183C2.13006 20.4119 2.13028 20.2055 2.13026 19.9991C2.13395 18.9896 2.13395 18.9896 2.24603 18.6533C2.77589 18.4767 3.34561 18.5293 3.90009 18.5251ZM3.02728 19.4346C3.02728 20.0791 3.02728 20.7236 3.02728 21.3877C3.60736 21.3877 4.18744 21.3877 4.7851 21.3877C4.7851 20.7432 4.7851 20.0986 4.7851 19.4346C4.20502 19.4346 3.62494 19.4346 3.02728 19.4346Z" fill="#D7AD45"/>
<path d="M10.205 1.62994C10.6449 2.03688 10.8041 2.40305 10.8523 2.99408C10.8235 3.51793 10.5701 3.88913 10.1989 4.24225C9.78012 4.51067 9.37348 4.55603 8.88661 4.49249C8.3685 4.30969 8.05926 4.00966 7.81239 3.51593C7.68707 3.09158 7.69473 2.80023 7.8246 2.37457C8.34353 1.45779 9.2414 1.16536 10.205 1.62994ZM8.6913 2.53936C8.56088 2.81732 8.56088 2.81732 8.59364 3.1253C8.81643 3.42673 8.96435 3.58491 9.33217 3.67462C9.58993 3.62801 9.58993 3.62801 9.80214 3.40606C9.98479 3.13475 9.98479 3.13475 9.96693 2.82013C9.88536 2.52283 9.88536 2.52283 9.62513 2.35626C9.21597 2.17663 9.04029 2.27091 8.6913 2.53936Z" fill="#D7AD45"/>
<path d="M6.9026 9.75062C7.02123 9.74968 7.13986 9.74874 7.26208 9.74778C7.39257 9.7473 7.52306 9.74689 7.65355 9.74652C7.7865 9.74596 7.91945 9.7454 8.0524 9.74483C8.33145 9.74381 8.61049 9.74324 8.88954 9.7429C9.24762 9.74236 9.60566 9.74001 9.96373 9.73723C10.2384 9.73542 10.5131 9.73491 10.7878 9.73476C10.9199 9.73446 11.0519 9.73368 11.1839 9.7324C11.3684 9.73074 11.5529 9.73109 11.7374 9.73155C11.8424 9.73119 11.9475 9.73084 12.0558 9.73047C12.138 9.74231 12.2202 9.75415 12.3048 9.76636C12.5001 10.0593 12.5001 10.0593 12.4757 10.3157C12.4515 10.3922 12.4274 10.4687 12.4025 10.5476C12.1438 10.677 11.9489 10.6577 11.6592 10.6579C11.5445 10.6582 11.4298 10.6585 11.3116 10.6588C11.1872 10.6586 11.0628 10.6584 10.9346 10.6582C10.7438 10.6584 10.7438 10.6584 10.5493 10.6585C10.28 10.6587 10.0107 10.6585 9.74148 10.658C9.396 10.6574 9.05054 10.6578 8.70506 10.6583C8.37605 10.6588 8.04703 10.6585 7.71802 10.6582C7.59361 10.6584 7.4692 10.6586 7.34102 10.6588C7.22631 10.6585 7.1116 10.6582 6.99342 10.6579C6.89208 10.6578 6.79075 10.6577 6.68635 10.6577C6.44544 10.6453 6.44544 10.6453 6.25012 10.5476C6.24598 10.3198 6.24613 10.0918 6.25012 9.86401C6.42245 9.69169 6.66892 9.7521 6.9026 9.75062Z" fill="#D7AD45"/>
<path d="M6.75416 19.8964C6.90814 19.8955 6.90814 19.8955 7.06523 19.8945C7.23141 19.8951 7.23141 19.8951 7.40094 19.8957C7.5716 19.8954 7.5716 19.8954 7.74571 19.8952C7.98639 19.895 8.22708 19.8954 8.46777 19.8962C8.83684 19.8973 9.20587 19.8962 9.57494 19.895C9.80852 19.8951 10.0421 19.8953 10.2757 19.8957C10.3865 19.8953 10.4973 19.8949 10.6114 19.8945C10.7141 19.8951 10.8167 19.8958 10.9225 19.8964C11.0129 19.8966 11.1033 19.8967 11.1965 19.8969C11.4262 19.9217 11.4262 19.9217 11.7192 20.117C11.7436 20.4161 11.7436 20.4161 11.7192 20.7029C11.5529 20.8692 11.3389 20.8139 11.1115 20.8148C11.0027 20.8154 10.8938 20.816 10.7817 20.8166C10.6039 20.8168 10.6039 20.8168 10.4226 20.817C10.2414 20.8175 10.2414 20.8175 10.0566 20.818C9.8005 20.8185 9.54444 20.8187 9.28838 20.8187C9.02513 20.8187 8.76189 20.8193 8.49864 20.8207C8.12066 20.8225 7.74269 20.8229 7.3647 20.8231C7.18724 20.8241 7.18724 20.8241 7.00619 20.8252C6.89703 20.8249 6.78787 20.8246 6.67541 20.8243C6.57898 20.8244 6.48256 20.8246 6.38322 20.8247C6.15277 20.8006 6.15277 20.8006 5.95746 20.6053C5.92694 20.3611 5.92694 20.3611 5.95746 20.117C6.28029 19.9018 6.3788 19.897 6.75416 19.8964Z" fill="#D7AD45"/>
<path d="M7.21173 14.8176C7.28649 14.8174 7.36124 14.8172 7.43826 14.817C7.5962 14.8169 7.75413 14.8173 7.91206 14.8181C8.15383 14.8191 8.39552 14.8181 8.63728 14.8168C8.79076 14.817 8.94424 14.8172 9.09772 14.8176C9.20622 14.817 9.20622 14.817 9.31691 14.8164C9.68251 14.8197 9.84463 14.8308 10.1567 15.0389C10.1872 15.283 10.1872 15.283 10.1567 15.5271C9.90528 15.7785 9.73606 15.7466 9.39334 15.7496C9.31593 15.7492 9.23851 15.7488 9.15875 15.7484C9.03956 15.7487 9.03956 15.7487 8.91796 15.749C8.74984 15.7491 8.58172 15.7487 8.4136 15.7479C8.15575 15.7469 7.89797 15.7479 7.64012 15.7492C7.47698 15.749 7.31384 15.7488 7.1507 15.7484C7.03457 15.749 7.03457 15.749 6.9161 15.7496C6.37054 15.7449 6.37054 15.7449 6.15277 15.5271C6.12225 15.283 6.12225 15.283 6.15277 15.0389C6.51465 14.7976 6.79306 14.8153 7.21173 14.8176Z" fill="#D7AD45"/>
</g>
<defs>
<clipPath id="clip0_3926_30698">
<rect width="25" height="25" fill="white"/>
</clipPath>
</defs>
</svg>
